<?xml version="1.0" standalone="no"?>
 <!DOCTYPE svg PUBLIC "-//W3C//DTD SVG 1.1//EN" 
 "http://www.w3.org/Graphics/SVG/1.1/DTD/svg11.dtd"> 
<svg
  xmlns:svg="http://www.w3.org/2000/svg"
  xmlns="http://www.w3.org/2000/svg"
  xmlns:xlink="http://www.w3.org/1999/xlink"
  version="1.1"
  width="29.700220cm" height="21.000720cm" viewBox="0 0 116930 82680">
<title>SVG Picture created as Single_transistor_AMP-F_Cu.svg date 2020/12/16 00:54:30 </title>
  <desc>Picture generated by PCBNEW </desc>
<g style="fill:#000000; fill-opacity:1;stroke:#000000; stroke-opacity:1;
stroke-linecap:round; stroke-linejoin:round;"
 transform="translate(0 0) scale(1 1)">
</g>
<g style="fill:#000000; fill-opacity:0.0; 
stroke:#000000; stroke-width:-0.000393701; stroke-opacity:1; 
stroke-linecap:round; stroke-linejoin:round;">
</g>
<g style="fill:#000000; fill-opacity:0.0; 
stroke:#000000; stroke-width:39.3701; stroke-opacity:1; 
stroke-linecap:round; stroke-linejoin:round;">
</g>
<g style="fill:#000000; fill-opacity:0.0; 
stroke:#000000; stroke-width:59.0551; stroke-opacity:1; 
stroke-linecap:round; stroke-linejoin:round;">
<rect x="69685.9" y="65357.2" width="42519.7" height="12598.4" rx="0" />
</g>
<g style="fill:#000000; fill-opacity:0.0; 
stroke:#000000; stroke-width:39.3701; stroke-opacity:1; 
stroke-linecap:round; stroke-linejoin:round;">
</g>
<g style="fill:#000000; fill-opacity:0.0; 
stroke:#000000; stroke-width:59.0551; stroke-opacity:1; 
stroke-linecap:round; stroke-linejoin:round;">
<rect x="3937.01" y="3937.01" width="109056" height="74806" rx="0" />
</g>
<g style="fill:#000000; fill-opacity:0.0; 
stroke:#000000; stroke-width:39.3701; stroke-opacity:1; 
stroke-linecap:round; stroke-linejoin:round;">
</g>
<g style="fill:#000000; fill-opacity:0.0; 
stroke:#000000; stroke-width:59.0551; stroke-opacity:1; 
stroke-linecap:round; stroke-linejoin:round;">
<rect x="4724.41" y="4724.41" width="107481" height="73231.2" rx="0" />
</g>
<g style="fill:#000000; fill-opacity:0.0; 
stroke:#000000; stroke-width:39.3701; stroke-opacity:1; 
stroke-linecap:round; stroke-linejoin:round;">
</g>
<g style="fill:#000000; fill-opacity:0.0; 
stroke:#000000; stroke-width:59.0551; stroke-opacity:1; 
stroke-linecap:round; stroke-linejoin:round;">
<path d="M23622 4724
L23622 3937
" />
</g>
<g style="fill:#000000; fill-opacity:0.0; 
stroke:#000000; stroke-width:39.3701; stroke-opacity:1; 
stroke-linecap:round; stroke-linejoin:round;">
</g>
<g style="fill:#000000; fill-opacity:0.0; 
stroke:#000000; stroke-width:59.0551; stroke-opacity:1; 
stroke-linecap:round; stroke-linejoin:round;">
<path d="M43307 4724
L43307 3937
" />
</g>
<g style="fill:#000000; fill-opacity:0.0; 
stroke:#000000; stroke-width:39.3701; stroke-opacity:1; 
stroke-linecap:round; stroke-linejoin:round;">
</g>
<g style="fill:#000000; fill-opacity:0.0; 
stroke:#000000; stroke-width:59.0551; stroke-opacity:1; 
stroke-linecap:round; stroke-linejoin:round;">
<path d="M62992 4724
L62992 3937
" />
</g>
<g style="fill:#000000; fill-opacity:0.0; 
stroke:#000000; stroke-width:39.3701; stroke-opacity:1; 
stroke-linecap:round; stroke-linejoin:round;">
</g>
<g style="fill:#000000; fill-opacity:0.0; 
stroke:#000000; stroke-width:59.0551; stroke-opacity:1; 
stroke-linecap:round; stroke-linejoin:round;">
<path d="M82677 4724
L82677 3937
" />
</g>
<g style="fill:#000000; fill-opacity:0.0; 
stroke:#000000; stroke-width:39.3701; stroke-opacity:1; 
stroke-linecap:round; stroke-linejoin:round;">
</g>
<g style="fill:#000000; fill-opacity:0.0; 
stroke:#000000; stroke-width:59.0551; stroke-opacity:1; 
stroke-linecap:round; stroke-linejoin:round;">
<path d="M102362 4724
L102362 3937
" />
</g>
<g style="fill:#000000; fill-opacity:0.0; 
stroke:#000000; stroke-width:39.3701; stroke-opacity:1; 
stroke-linecap:round; stroke-linejoin:round;">
</g>
<g style="fill:#000000; fill-opacity:0.0; 
stroke:#000000; stroke-width:59.0551; stroke-opacity:1; 
stroke-linecap:round; stroke-linejoin:round;">
<text x="13779.5" y="4586.61"
textLength="487.439" font-size="682.415" lengthAdjust="spacingAndGlyphs"
text-anchor="start" opacity="0">1</text>
<path d="M14199 4562
L13906 4562
" />
<path d="M14052 4562
L14052 4050
L14004 4123
L13955 4172
L13906 4196
" />
</g>
<g style="fill:#000000; fill-opacity:0.0; 
stroke:#000000; stroke-width:39.3701; stroke-opacity:1; 
stroke-linecap:round; stroke-linejoin:round;">
</g>
<g style="fill:#000000; fill-opacity:0.0; 
stroke:#000000; stroke-width:59.0551; stroke-opacity:1; 
stroke-linecap:round; stroke-linejoin:round;">
<text x="33464.6" y="4586.61"
textLength="546.494" font-size="682.415" lengthAdjust="spacingAndGlyphs"
text-anchor="start" opacity="0">2</text>
<path d="M33591 4099
L33615 4074
L33664 4050
L33786 4050
L33835 4074
L33859 4099
L33884 4147
L33884 4196
L33859 4269
L33567 4562
L33884 4562
" />
</g>
<g style="fill:#000000; fill-opacity:0.0; 
stroke:#000000; stroke-width:39.3701; stroke-opacity:1; 
stroke-linecap:round; stroke-linejoin:round;">
</g>
<g style="fill:#000000; fill-opacity:0.0; 
stroke:#000000; stroke-width:59.0551; stroke-opacity:1; 
stroke-linecap:round; stroke-linejoin:round;">
<text x="53149.6" y="4586.61"
textLength="546.494" font-size="682.415" lengthAdjust="spacingAndGlyphs"
text-anchor="start" opacity="0">3</text>
<path d="M53252 4050
L53569 4050
L53398 4245
L53471 4245
L53520 4269
L53544 4294
L53569 4342
L53569 4464
L53544 4513
L53520 4537
L53471 4562
L53325 4562
L53276 4537
L53252 4513
" />
</g>
<g style="fill:#000000; fill-opacity:0.0; 
stroke:#000000; stroke-width:39.3701; stroke-opacity:1; 
stroke-linecap:round; stroke-linejoin:round;">
</g>
<g style="fill:#000000; fill-opacity:0.0; 
stroke:#000000; stroke-width:59.0551; stroke-opacity:1; 
stroke-linecap:round; stroke-linejoin:round;">
<text x="72834.6" y="4586.61"
textLength="546.494" font-size="682.415" lengthAdjust="spacingAndGlyphs"
text-anchor="start" opacity="0">4</text>
<path d="M73205 4221
L73205 4562
" />
<path d="M73083 4026
L72961 4391
L73278 4391
" />
</g>
<g style="fill:#000000; fill-opacity:0.0; 
stroke:#000000; stroke-width:39.3701; stroke-opacity:1; 
stroke-linecap:round; stroke-linejoin:round;">
</g>
<g style="fill:#000000; fill-opacity:0.0; 
stroke:#000000; stroke-width:59.0551; stroke-opacity:1; 
stroke-linecap:round; stroke-linejoin:round;">
<text x="92519.7" y="4586.61"
textLength="546.494" font-size="682.415" lengthAdjust="spacingAndGlyphs"
text-anchor="start" opacity="0">5</text>
<path d="M92914 4050
L92671 4050
L92646 4294
L92671 4269
L92719 4245
L92841 4245
L92890 4269
L92914 4294
L92939 4342
L92939 4464
L92914 4513
L92890 4537
L92841 4562
L92719 4562
L92671 4537
L92646 4513
" />
</g>
<g style="fill:#000000; fill-opacity:0.0; 
stroke:#000000; stroke-width:39.3701; stroke-opacity:1; 
stroke-linecap:round; stroke-linejoin:round;">
</g>
<g style="fill:#000000; fill-opacity:0.0; 
stroke:#000000; stroke-width:59.0551; stroke-opacity:1; 
stroke-linecap:round; stroke-linejoin:round;">
<text x="112205" y="4586.61"
textLength="546.494" font-size="682.415" lengthAdjust="spacingAndGlyphs"
text-anchor="start" opacity="0">6</text>
<path d="M112575 4050
L112477 4050
L112429 4074
L112404 4099
L112356 4172
L112331 4269
L112331 4464
L112356 4513
L112380 4537
L112429 4562
L112526 4562
L112575 4537
L112599 4513
L112624 4464
L112624 4342
L112599 4294
L112575 4269
L112526 4245
L112429 4245
L112380 4269
L112356 4294
L112331 4342
" />
</g>
<g style="fill:#000000; fill-opacity:0.0; 
stroke:#000000; stroke-width:39.3701; stroke-opacity:1; 
stroke-linecap:round; stroke-linejoin:round;">
</g>
<g style="fill:#000000; fill-opacity:0.0; 
stroke:#000000; stroke-width:59.0551; stroke-opacity:1; 
stroke-linecap:round; stroke-linejoin:round;">
<path d="M23622 77955
L23622 78742
" />
</g>
<g style="fill:#000000; fill-opacity:0.0; 
stroke:#000000; stroke-width:39.3701; stroke-opacity:1; 
stroke-linecap:round; stroke-linejoin:round;">
</g>
<g style="fill:#000000; fill-opacity:0.0; 
stroke:#000000; stroke-width:59.0551; stroke-opacity:1; 
stroke-linecap:round; stroke-linejoin:round;">
<path d="M43307 77955
L43307 78742
" />
</g>
<g style="fill:#000000; fill-opacity:0.0; 
stroke:#000000; stroke-width:39.3701; stroke-opacity:1; 
stroke-linecap:round; stroke-linejoin:round;">
</g>
<g style="fill:#000000; fill-opacity:0.0; 
stroke:#000000; stroke-width:59.0551; stroke-opacity:1; 
stroke-linecap:round; stroke-linejoin:round;">
<path d="M62992 77955
L62992 78742
" />
</g>
<g style="fill:#000000; fill-opacity:0.0; 
stroke:#000000; stroke-width:39.3701; stroke-opacity:1; 
stroke-linecap:round; stroke-linejoin:round;">
</g>
<g style="fill:#000000; fill-opacity:0.0; 
stroke:#000000; stroke-width:59.0551; stroke-opacity:1; 
stroke-linecap:round; stroke-linejoin:round;">
<path d="M82677 77955
L82677 78742
" />
</g>
<g style="fill:#000000; fill-opacity:0.0; 
stroke:#000000; stroke-width:39.3701; stroke-opacity:1; 
stroke-linecap:round; stroke-linejoin:round;">
</g>
<g style="fill:#000000; fill-opacity:0.0; 
stroke:#000000; stroke-width:59.0551; stroke-opacity:1; 
stroke-linecap:round; stroke-linejoin:round;">
<path d="M102362 77955
L102362 78742
" />
</g>
<g style="fill:#000000; fill-opacity:0.0; 
stroke:#000000; stroke-width:39.3701; stroke-opacity:1; 
stroke-linecap:round; stroke-linejoin:round;">
</g>
<g style="fill:#000000; fill-opacity:0.0; 
stroke:#000000; stroke-width:59.0551; stroke-opacity:1; 
stroke-linecap:round; stroke-linejoin:round;">
<text x="13779.5" y="78605.2"
textLength="546.494" font-size="682.415" lengthAdjust="spacingAndGlyphs"
text-anchor="start" opacity="0">1</text>
<path d="M14199 78580
L13906 78580
" />
<path d="M14052 78580
L14052 78069
L14004 78142
L13955 78190
L13906 78215
" />
</g>
<g style="fill:#000000; fill-opacity:0.0; 
stroke:#000000; stroke-width:39.3701; stroke-opacity:1; 
stroke-linecap:round; stroke-linejoin:round;">
</g>
<g style="fill:#000000; fill-opacity:0.0; 
stroke:#000000; stroke-width:59.0551; stroke-opacity:1; 
stroke-linecap:round; stroke-linejoin:round;">
<text x="33464.6" y="78605.2"
textLength="546.494" font-size="682.415" lengthAdjust="spacingAndGlyphs"
text-anchor="start" opacity="0">2</text>
<path d="M33591 78117
L33615 78093
L33664 78069
L33786 78069
L33835 78093
L33859 78117
L33884 78166
L33884 78215
L33859 78288
L33567 78580
L33884 78580
" />
</g>
<g style="fill:#000000; fill-opacity:0.0; 
stroke:#000000; stroke-width:39.3701; stroke-opacity:1; 
stroke-linecap:round; stroke-linejoin:round;">
</g>
<g style="fill:#000000; fill-opacity:0.0; 
stroke:#000000; stroke-width:59.0551; stroke-opacity:1; 
stroke-linecap:round; stroke-linejoin:round;">
<text x="53149.6" y="78605.2"
textLength="546.494" font-size="682.415" lengthAdjust="spacingAndGlyphs"
text-anchor="start" opacity="0">3</text>
<path d="M53252 78069
L53569 78069
L53398 78263
L53471 78263
L53520 78288
L53544 78312
L53569 78361
L53569 78483
L53544 78532
L53520 78556
L53471 78580
L53325 78580
L53276 78556
L53252 78532
" />
</g>
<g style="fill:#000000; fill-opacity:0.0; 
stroke:#000000; stroke-width:39.3701; stroke-opacity:1; 
stroke-linecap:round; stroke-linejoin:round;">
</g>
<g style="fill:#000000; fill-opacity:0.0; 
stroke:#000000; stroke-width:59.0551; stroke-opacity:1; 
stroke-linecap:round; stroke-linejoin:round;">
<text x="72834.6" y="78605.2"
textLength="546.494" font-size="682.415" lengthAdjust="spacingAndGlyphs"
text-anchor="start" opacity="0">4</text>
<path d="M73205 78239
L73205 78580
" />
<path d="M73083 78044
L72961 78410
L73278 78410
" />
</g>
<g style="fill:#000000; fill-opacity:0.0; 
stroke:#000000; stroke-width:39.3701; stroke-opacity:1; 
stroke-linecap:round; stroke-linejoin:round;">
</g>
<g style="fill:#000000; fill-opacity:0.0; 
stroke:#000000; stroke-width:59.0551; stroke-opacity:1; 
stroke-linecap:round; stroke-linejoin:round;">
<text x="92519.7" y="78605.2"
textLength="546.494" font-size="682.415" lengthAdjust="spacingAndGlyphs"
text-anchor="start" opacity="0">5</text>
<path d="M92914 78069
L92671 78069
L92646 78312
L92671 78288
L92719 78263
L92841 78263
L92890 78288
L92914 78312
L92939 78361
L92939 78483
L92914 78532
L92890 78556
L92841 78580
L92719 78580
L92671 78556
L92646 78532
" />
</g>
<g style="fill:#000000; fill-opacity:0.0; 
stroke:#000000; stroke-width:39.3701; stroke-opacity:1; 
stroke-linecap:round; stroke-linejoin:round;">
</g>
<g style="fill:#000000; fill-opacity:0.0; 
stroke:#000000; stroke-width:59.0551; stroke-opacity:1; 
stroke-linecap:round; stroke-linejoin:round;">
<text x="112205" y="78605.2"
textLength="546.494" font-size="682.415" lengthAdjust="spacingAndGlyphs"
text-anchor="start" opacity="0">6</text>
<path d="M112575 78069
L112477 78069
L112429 78093
L112404 78117
L112356 78190
L112331 78288
L112331 78483
L112356 78532
L112380 78556
L112429 78580
L112526 78580
L112575 78556
L112599 78532
L112624 78483
L112624 78361
L112599 78312
L112575 78288
L112526 78263
L112429 78263
L112380 78288
L112356 78312
L112331 78361
" />
</g>
<g style="fill:#000000; fill-opacity:0.0; 
stroke:#000000; stroke-width:39.3701; stroke-opacity:1; 
stroke-linecap:round; stroke-linejoin:round;">
</g>
<g style="fill:#000000; fill-opacity:0.0; 
stroke:#000000; stroke-width:59.0551; stroke-opacity:1; 
stroke-linecap:round; stroke-linejoin:round;">
<path d="M3937 23622
L4724 23622
" />
</g>
<g style="fill:#000000; fill-opacity:0.0; 
stroke:#000000; stroke-width:39.3701; stroke-opacity:1; 
stroke-linecap:round; stroke-linejoin:round;">
</g>
<g style="fill:#000000; fill-opacity:0.0; 
stroke:#000000; stroke-width:59.0551; stroke-opacity:1; 
stroke-linecap:round; stroke-linejoin:round;">
<path d="M3937 43307
L4724 43307
" />
</g>
<g style="fill:#000000; fill-opacity:0.0; 
stroke:#000000; stroke-width:39.3701; stroke-opacity:1; 
stroke-linecap:round; stroke-linejoin:round;">
</g>
<g style="fill:#000000; fill-opacity:0.0; 
stroke:#000000; stroke-width:59.0551; stroke-opacity:1; 
stroke-linecap:round; stroke-linejoin:round;">
<path d="M3937 62992
L4724 62992
" />
</g>
<g style="fill:#000000; fill-opacity:0.0; 
stroke:#000000; stroke-width:39.3701; stroke-opacity:1; 
stroke-linecap:round; stroke-linejoin:round;">
</g>
<g style="fill:#000000; fill-opacity:0.0; 
stroke:#000000; stroke-width:59.0551; stroke-opacity:1; 
stroke-linecap:round; stroke-linejoin:round;">
<text x="4330.71" y="14035.4"
textLength="497.75" font-size="682.415" lengthAdjust="spacingAndGlyphs"
text-anchor="middle" opacity="0">A</text>
<path d="M4208 13864
L4452 13864
" />
<path d="M4160 14011
L4330 13499
L4501 14011
" />
</g>
<g style="fill:#000000; fill-opacity:0.0; 
stroke:#000000; stroke-width:39.3701; stroke-opacity:1; 
stroke-linecap:round; stroke-linejoin:round;">
</g>
<g style="fill:#000000; fill-opacity:0.0; 
stroke:#000000; stroke-width:59.0551; stroke-opacity:1; 
stroke-linecap:round; stroke-linejoin:round;">
<text x="4330.71" y="33720.5"
textLength="570.866" font-size="682.415" lengthAdjust="spacingAndGlyphs"
text-anchor="middle" opacity="0">B</text>
<path d="M4367 33428
L4440 33452
L4464 33476
L4489 33525
L4489 33598
L4464 33647
L4440 33671
L4391 33696
L4196 33696
L4196 33184
L4367 33184
L4416 33208
L4440 33233
L4464 33281
L4464 33330
L4440 33379
L4416 33403
L4367 33428
L4196 33428
" />
</g>
<g style="fill:#000000; fill-opacity:0.0; 
stroke:#000000; stroke-width:39.3701; stroke-opacity:1; 
stroke-linecap:round; stroke-linejoin:round;">
</g>
<g style="fill:#000000; fill-opacity:0.0; 
stroke:#000000; stroke-width:59.0551; stroke-opacity:1; 
stroke-linecap:round; stroke-linejoin:round;">
<text x="4330.71" y="53405.5"
textLength="570.866" font-size="682.415" lengthAdjust="spacingAndGlyphs"
text-anchor="middle" opacity="0">C</text>
<path d="M4489 53332
L4464 53356
L4391 53381
L4342 53381
L4269 53356
L4221 53308
L4196 53259
L4172 53161
L4172 53088
L4196 52991
L4221 52942
L4269 52893
L4342 52869
L4391 52869
L4464 52893
L4489 52918
" />
</g>
<g style="fill:#000000; fill-opacity:0.0; 
stroke:#000000; stroke-width:39.3701; stroke-opacity:1; 
stroke-linecap:round; stroke-linejoin:round;">
</g>
<g style="fill:#000000; fill-opacity:0.0; 
stroke:#000000; stroke-width:59.0551; stroke-opacity:1; 
stroke-linecap:round; stroke-linejoin:round;">
<text x="4330.71" y="73090.6"
textLength="570.866" font-size="682.415" lengthAdjust="spacingAndGlyphs"
text-anchor="middle" opacity="0">D</text>
<path d="M4196 73066
L4196 72554
L4318 72554
L4391 72578
L4440 72627
L4464 72676
L4489 72773
L4489 72846
L4464 72944
L4440 72993
L4391 73041
L4318 73066
L4196 73066
" />
</g>
<g style="fill:#000000; fill-opacity:0.0; 
stroke:#000000; stroke-width:39.3701; stroke-opacity:1; 
stroke-linecap:round; stroke-linejoin:round;">
</g>
<g style="fill:#000000; fill-opacity:0.0; 
stroke:#000000; stroke-width:59.0551; stroke-opacity:1; 
stroke-linecap:round; stroke-linejoin:round;">
<path d="M112992 23622
L112205 23622
" />
</g>
<g style="fill:#000000; fill-opacity:0.0; 
stroke:#000000; stroke-width:39.3701; stroke-opacity:1; 
stroke-linecap:round; stroke-linejoin:round;">
</g>
<g style="fill:#000000; fill-opacity:0.0; 
stroke:#000000; stroke-width:59.0551; stroke-opacity:1; 
stroke-linecap:round; stroke-linejoin:round;">
<path d="M112992 43307
L112205 43307
" />
</g>
<g style="fill:#000000; fill-opacity:0.0; 
stroke:#000000; stroke-width:39.3701; stroke-opacity:1; 
stroke-linecap:round; stroke-linejoin:round;">
</g>
<g style="fill:#000000; fill-opacity:0.0; 
stroke:#000000; stroke-width:59.0551; stroke-opacity:1; 
stroke-linecap:round; stroke-linejoin:round;">
<path d="M112992 62992
L112205 62992
" />
</g>
<g style="fill:#000000; fill-opacity:0.0; 
stroke:#000000; stroke-width:39.3701; stroke-opacity:1; 
stroke-linecap:round; stroke-linejoin:round;">
</g>
<g style="fill:#000000; fill-opacity:0.0; 
stroke:#000000; stroke-width:59.0551; stroke-opacity:1; 
stroke-linecap:round; stroke-linejoin:round;">
<text x="112599" y="14035.4"
textLength="497.75" font-size="682.415" lengthAdjust="spacingAndGlyphs"
text-anchor="middle" opacity="0">A</text>
<path d="M112477 13864
L112721 13864
" />
<path d="M112428 14011
L112599 13499
L112769 14011
" />
</g>
<g style="fill:#000000; fill-opacity:0.0; 
stroke:#000000; stroke-width:39.3701; stroke-opacity:1; 
stroke-linecap:round; stroke-linejoin:round;">
</g>
<g style="fill:#000000; fill-opacity:0.0; 
stroke:#000000; stroke-width:59.0551; stroke-opacity:1; 
stroke-linecap:round; stroke-linejoin:round;">
<text x="112599" y="33720.5"
textLength="570.866" font-size="682.415" lengthAdjust="spacingAndGlyphs"
text-anchor="middle" opacity="0">B</text>
<path d="M112635 33428
L112708 33452
L112733 33476
L112757 33525
L112757 33598
L112733 33647
L112708 33671
L112660 33696
L112465 33696
L112465 33184
L112635 33184
L112684 33208
L112708 33233
L112733 33281
L112733 33330
L112708 33379
L112684 33403
L112635 33428
L112465 33428
" />
</g>
<g style="fill:#000000; fill-opacity:0.0; 
stroke:#000000; stroke-width:39.3701; stroke-opacity:1; 
stroke-linecap:round; stroke-linejoin:round;">
</g>
<g style="fill:#000000; fill-opacity:0.0; 
stroke:#000000; stroke-width:59.0551; stroke-opacity:1; 
stroke-linecap:round; stroke-linejoin:round;">
<text x="112599" y="53405.5"
textLength="570.866" font-size="682.415" lengthAdjust="spacingAndGlyphs"
text-anchor="middle" opacity="0">C</text>
<path d="M112757 53332
L112733 53356
L112660 53381
L112611 53381
L112538 53356
L112489 53308
L112465 53259
L112440 53161
L112440 53088
L112465 52991
L112489 52942
L112538 52893
L112611 52869
L112660 52869
L112733 52893
L112757 52918
" />
</g>
<g style="fill:#000000; fill-opacity:0.0; 
stroke:#000000; stroke-width:39.3701; stroke-opacity:1; 
stroke-linecap:round; stroke-linejoin:round;">
</g>
<g style="fill:#000000; fill-opacity:0.0; 
stroke:#000000; stroke-width:59.0551; stroke-opacity:1; 
stroke-linecap:round; stroke-linejoin:round;">
<text x="112599" y="73090.6"
textLength="570.866" font-size="682.415" lengthAdjust="spacingAndGlyphs"
text-anchor="middle" opacity="0">D</text>
<path d="M112465 73066
L112465 72554
L112587 72554
L112660 72578
L112708 72627
L112733 72676
L112757 72773
L112757 72846
L112733 72944
L112708 72993
L112660 73041
L112587 73066
L112465 73066
" />
</g>
<g style="fill:#000000; fill-opacity:0.0; 
stroke:#000000; stroke-width:39.3701; stroke-opacity:1; 
stroke-linecap:round; stroke-linejoin:round;">
</g>
<g style="fill:#000000; fill-opacity:0.0; 
stroke:#000000; stroke-width:59.0551; stroke-opacity:1; 
stroke-linecap:round; stroke-linejoin:round;">
<text x="78741" y="76321.7"
textLength="7820.59" font-size="787.402" lengthAdjust="spacingAndGlyphs"
text-anchor="start" opacity="0">Date: 25.11.2020</text>
<path d="M78911 76293
L78911 75703
L79051 75703
L79136 75731
L79192 75787
L79220 75843
L79248 75956
L79248 76040
L79220 76153
L79192 76209
L79136 76265
L79051 76293
L78911 76293
" />
<path d="M79754 76293
L79754 75984
L79726 75928
L79670 75899
L79557 75899
L79501 75928
" />
<path d="M79754 76265
L79698 76293
L79557 76293
L79501 76265
L79473 76209
L79473 76153
L79501 76096
L79557 76068
L79698 76068
L79754 76040
" />
<path d="M79951 75899
L80176 75899
" />
<path d="M80036 75703
L80036 76209
L80064 76265
L80120 76293
L80176 76293
" />
<path d="M80598 76265
L80542 76293
L80429 76293
L80373 76265
L80345 76209
L80345 75984
L80373 75928
L80429 75899
L80542 75899
L80598 75928
L80626 75984
L80626 76040
L80345 76096
" />
<path d="M80879 76237
L80907 76265
L80879 76293
L80851 76265
L80879 76237
L80879 76293
" />
<path d="M80879 75928
L80907 75956
L80879 75984
L80851 75956
L80879 75928
L80879 75984
" />
<path d="M81582 75759
L81610 75731
L81667 75703
L81807 75703
L81863 75731
L81892 75759
L81920 75815
L81920 75871
L81892 75956
L81554 76293
L81920 76293
" />
<path d="M82454 75703
L82173 75703
L82145 75984
L82173 75956
L82229 75928
L82370 75928
L82426 75956
L82454 75984
L82482 76040
L82482 76181
L82454 76237
L82426 76265
L82370 76293
L82229 76293
L82173 76265
L82145 76237
" />
<path d="M82735 76237
L82763 76265
L82735 76293
L82707 76265
L82735 76237
L82735 76293
" />
<path d="M83326 76293
L82988 76293
" />
<path d="M83157 76293
L83157 75703
L83101 75787
L83045 75843
L82988 75871
" />
<path d="M83888 76293
L83551 76293
" />
<path d="M83719 76293
L83719 75703
L83663 75787
L83607 75843
L83551 75871
" />
<path d="M84141 76237
L84169 76265
L84141 76293
L84113 76265
L84141 76237
L84141 76293
" />
<path d="M84394 75759
L84422 75731
L84479 75703
L84619 75703
L84676 75731
L84704 75759
L84732 75815
L84732 75871
L84704 75956
L84366 76293
L84732 76293
" />
<path d="M85097 75703
L85154 75703
L85210 75731
L85238 75759
L85266 75815
L85294 75928
L85294 76068
L85266 76181
L85238 76237
L85210 76265
L85154 76293
L85097 76293
L85041 76265
L85013 76237
L84985 76181
L84957 76068
L84957 75928
L84985 75815
L85013 75759
L85041 75731
L85097 75703
" />
<path d="M85519 75759
L85547 75731
L85604 75703
L85744 75703
L85800 75731
L85829 75759
L85857 75815
L85857 75871
L85829 75956
L85491 76293
L85857 76293
" />
<path d="M86222 75703
L86278 75703
L86335 75731
L86363 75759
L86391 75815
L86419 75928
L86419 76068
L86391 76181
L86363 76237
L86335 76265
L86278 76293
L86222 76293
L86166 76265
L86138 76237
L86110 76181
L86082 76068
L86082 75928
L86110 75815
L86138 75759
L86166 75731
L86222 75703
" />
</g>
<g style="fill:#000000; fill-opacity:0.0; 
stroke:#000000; stroke-width:39.3701; stroke-opacity:1; 
stroke-linecap:round; stroke-linejoin:round;">
</g>
<g style="fill:#000000; fill-opacity:0.0; 
stroke:#000000; stroke-width:59.0551; stroke-opacity:1; 
stroke-linecap:round; stroke-linejoin:round;">
<path d="M69685 76577
L112205 76577
" />
</g>
<g style="fill:#000000; fill-opacity:0.0; 
stroke:#000000; stroke-width:39.3701; stroke-opacity:1; 
stroke-linecap:round; stroke-linejoin:round;">
</g>
<g style="fill:#000000; fill-opacity:0.0; 
stroke:#000000; stroke-width:59.0551; stroke-opacity:1; 
stroke-linecap:round; stroke-linejoin:round;">
<text x="70079.6" y="77424.1"
textLength="13529.2" font-size="787.402" lengthAdjust="spacingAndGlyphs"
text-anchor="start" opacity="0">KiCad E.D.A.  kicad (5.1.7)-1</text>
<path d="M70249 77395
L70249 76805
" />
<path d="M70587 77395
L70334 77058
" />
<path d="M70587 76805
L70249 77142
" />
<path d="M70840 77395
L70840 77002
" />
<path d="M70840 76805
L70812 76833
L70840 76861
L70868 76833
L70840 76805
L70840 76861
" />
<path d="M71458 77339
L71430 77367
L71346 77395
L71290 77395
L71205 77367
L71149 77311
L71121 77255
L71093 77142
L71093 77058
L71121 76946
L71149 76889
L71205 76833
L71290 76805
L71346 76805
L71430 76833
L71458 76861
" />
<path d="M71965 77395
L71965 77086
L71937 77030
L71880 77002
L71768 77002
L71712 77030
" />
<path d="M71965 77367
L71908 77395
L71768 77395
L71712 77367
L71683 77311
L71683 77255
L71712 77199
L71768 77171
L71908 77171
L71965 77142
" />
<path d="M72499 77395
L72499 76805
" />
<path d="M72499 77367
L72443 77395
L72330 77395
L72274 77367
L72246 77339
L72218 77283
L72218 77114
L72246 77058
L72274 77030
L72330 77002
L72443 77002
L72499 77030
" />
<path d="M73230 77086
L73427 77086
" />
<path d="M73511 77395
L73230 77395
L73230 76805
L73511 76805
" />
<path d="M73764 77339
L73793 77367
L73764 77395
L73736 77367
L73764 77339
L73764 77395
" />
<path d="M74046 77395
L74046 76805
L74186 76805
L74271 76833
L74327 76889
L74355 76946
L74383 77058
L74383 77142
L74355 77255
L74327 77311
L74271 77367
L74186 77395
L74046 77395
" />
<path d="M74636 77339
L74664 77367
L74636 77395
L74608 77367
L74636 77339
L74636 77395
" />
<path d="M74889 77227
L75171 77227
" />
<path d="M74833 77395
L75030 76805
L75227 77395
" />
<path d="M75424 77339
L75452 77367
L75424 77395
L75395 77367
L75424 77339
L75424 77395
" />
<path d="M76605 77395
L76605 76805
" />
<path d="M76661 77171
L76830 77395
" />
<path d="M76830 77002
L76605 77227
" />
<path d="M77083 77395
L77083 77002
" />
<path d="M77083 76805
L77055 76833
L77083 76861
L77111 76833
L77083 76805
L77083 76861
" />
<path d="M77617 77367
L77561 77395
L77448 77395
L77392 77367
L77364 77339
L77336 77283
L77336 77114
L77364 77058
L77392 77030
L77448 77002
L77561 77002
L77617 77030
" />
<path d="M78123 77395
L78123 77086
L78095 77030
L78039 77002
L77926 77002
L77870 77030
" />
<path d="M78123 77367
L78067 77395
L77926 77395
L77870 77367
L77842 77311
L77842 77255
L77870 77199
L77926 77171
L78067 77171
L78123 77142
" />
<path d="M78658 77395
L78658 76805
" />
<path d="M78658 77367
L78601 77395
L78489 77395
L78433 77367
L78404 77339
L78376 77283
L78376 77114
L78404 77058
L78433 77030
L78489 77002
L78601 77002
L78658 77030
" />
<path d="M79557 77620
L79529 77592
L79473 77508
L79445 77452
L79417 77367
L79389 77227
L79389 77114
L79417 76974
L79445 76889
L79473 76833
L79529 76749
L79557 76721
" />
<path d="M80064 76805
L79782 76805
L79754 77086
L79782 77058
L79839 77030
L79979 77030
L80036 77058
L80064 77086
L80092 77142
L80092 77283
L80064 77339
L80036 77367
L79979 77395
L79839 77395
L79782 77367
L79754 77339
" />
<path d="M80345 77339
L80373 77367
L80345 77395
L80317 77367
L80345 77339
L80345 77395
" />
<path d="M80935 77395
L80598 77395
" />
<path d="M80767 77395
L80767 76805
L80710 76889
L80654 76946
L80598 76974
" />
<path d="M81188 77339
L81217 77367
L81188 77395
L81160 77367
L81188 77339
L81188 77395
" />
<path d="M81413 76805
L81807 76805
L81554 77395
" />
<path d="M81976 77620
L82004 77592
L82060 77508
L82088 77452
L82117 77367
L82145 77227
L82145 77114
L82117 76974
L82088 76889
L82060 76833
L82004 76749
L81976 76721
" />
<path d="M82426 77171
L82876 77171
" />
<path d="M83466 77395
L83129 77395
" />
<path d="M83298 77395
L83298 76805
L83241 76889
L83185 76946
L83129 76974
" />
</g>
<g style="fill:#000000; fill-opacity:0.0; 
stroke:#000000; stroke-width:39.3701; stroke-opacity:1; 
stroke-linecap:round; stroke-linejoin:round;">
</g>
<g style="fill:#000000; fill-opacity:0.0; 
stroke:#000000; stroke-width:59.0551; stroke-opacity:1; 
stroke-linecap:round; stroke-linejoin:round;">
<path d="M69685 75396
L112205 75396
" />
</g>
<g style="fill:#000000; fill-opacity:0.0; 
stroke:#000000; stroke-width:39.3701; stroke-opacity:1; 
stroke-linecap:round; stroke-linejoin:round;">
</g>
<g style="fill:#000000; fill-opacity:0.0; 
stroke:#000000; stroke-width:118.11; stroke-opacity:1; 
stroke-linecap:round; stroke-linejoin:round;">
<text x="103544" y="76321.7"
textLength="4249.16" font-size="787.402" lengthAdjust="spacingAndGlyphs"
text-anchor="start" opacity="0">Rev: V1.0</text>
<path d="M104099 76293
L103902 76012
" />
<path d="M103761 76293
L103761 75703
L103986 75703
L104042 75731
L104070 75759
L104099 75815
L104099 75899
L104070 75956
L104042 75984
L103986 76012
L103761 76012
" />
<path d="M104577 76265
L104520 76293
L104408 76293
L104352 76265
L104323 76209
L104323 75984
L104352 75928
L104408 75899
L104520 75899
L104577 75928
L104605 75984
L104605 76040
L104323 76096
" />
<path d="M104802 75899
L104942 76293
L105083 75899
" />
<path d="M105308 76237
L105336 76265
L105308 76293
L105280 76265
L105308 76237
L105308 76293
" />
<path d="M105308 75928
L105336 75956
L105308 75984
L105280 75956
L105308 75928
L105308 75984
" />
<path d="M105955 75703
L106151 76293
L106348 75703
" />
<path d="M106854 76293
L106517 76293
" />
<path d="M106686 76293
L106686 75703
L106629 75787
L106573 75843
L106517 75871
" />
<path d="M107108 76237
L107136 76265
L107108 76293
L107079 76265
L107108 76237
L107108 76293
" />
<path d="M107501 75703
L107557 75703
L107614 75731
L107642 75759
L107670 75815
L107698 75928
L107698 76068
L107670 76181
L107642 76237
L107614 76265
L107557 76293
L107501 76293
L107445 76265
L107417 76237
L107389 76181
L107361 76068
L107361 75928
L107389 75815
L107417 75759
L107445 75731
L107501 75703
" />
</g>
<g style="fill:#000000; fill-opacity:0.0; 
stroke:#000000; stroke-width:39.3701; stroke-opacity:1; 
stroke-linecap:round; stroke-linejoin:round;">
</g>
<g style="fill:#000000; fill-opacity:0.0; 
stroke:#000000; stroke-width:59.0551; stroke-opacity:1; 
stroke-linecap:round; stroke-linejoin:round;">
<text x="70079.6" y="76321.7"
textLength="3781.21" font-size="787.402" lengthAdjust="spacingAndGlyphs"
text-anchor="start" opacity="0">Size: A4</text>
<path d="M70221 76265
L70305 76293
L70446 76293
L70502 76265
L70530 76237
L70559 76181
L70559 76124
L70530 76068
L70502 76040
L70446 76012
L70334 75984
L70277 75956
L70249 75928
L70221 75871
L70221 75815
L70249 75759
L70277 75731
L70334 75703
L70474 75703
L70559 75731
" />
<path d="M70812 76293
L70812 75899
" />
<path d="M70812 75703
L70784 75731
L70812 75759
L70840 75731
L70812 75703
L70812 75759
" />
<path d="M71037 75899
L71346 75899
L71037 76293
L71346 76293
" />
<path d="M71796 76265
L71740 76293
L71627 76293
L71571 76265
L71543 76209
L71543 75984
L71571 75928
L71627 75899
L71740 75899
L71796 75928
L71824 75984
L71824 76040
L71543 76096
" />
<path d="M72077 76237
L72105 76265
L72077 76293
L72049 76265
L72077 76237
L72077 76293
" />
<path d="M72077 75928
L72105 75956
L72077 75984
L72049 75956
L72077 75928
L72077 75984
" />
<path d="M72780 76124
L73061 76124
" />
<path d="M72724 76293
L72921 75703
L73118 76293
" />
<path d="M73568 75899
L73568 76293
" />
<path d="M73427 75674
L73286 76096
L73652 76096
" />
</g>
<g style="fill:#000000; fill-opacity:0.0; 
stroke:#000000; stroke-width:39.3701; stroke-opacity:1; 
stroke-linecap:round; stroke-linejoin:round;">
</g>
<g style="fill:#000000; fill-opacity:0.0; 
stroke:#000000; stroke-width:59.0551; stroke-opacity:1; 
stroke-linecap:round; stroke-linejoin:round;">
<text x="103544" y="77424.1"
textLength="3349.27" font-size="787.402" lengthAdjust="spacingAndGlyphs"
text-anchor="start" opacity="0">Id: 1/1</text>
<path d="M103714 77395
L103714 76805
" />
<path d="M104248 77395
L104248 76805
" />
<path d="M104248 77367
L104192 77395
L104079 77395
L104023 77367
L103995 77339
L103967 77283
L103967 77114
L103995 77058
L104023 77030
L104079 77002
L104192 77002
L104248 77030
" />
<path d="M104529 77339
L104557 77367
L104529 77395
L104501 77367
L104529 77339
L104529 77395
" />
<path d="M104529 77030
L104557 77058
L104529 77086
L104501 77058
L104529 77030
L104529 77086
" />
<path d="M105570 77395
L105232 77395
" />
<path d="M105401 77395
L105401 76805
L105345 76889
L105289 76946
L105232 76974
" />
<path d="M106245 76777
L105739 77536
" />
<path d="M106751 77395
L106413 77395
" />
<path d="M106582 77395
L106582 76805
L106526 76889
L106470 76946
L106413 76974
" />
</g>
<g style="fill:#000000; fill-opacity:0.0; 
stroke:#000000; stroke-width:39.3701; stroke-opacity:1; 
stroke-linecap:round; stroke-linejoin:round;">
</g>
<g style="fill:#000000; fill-opacity:0.0; 
stroke:#000000; stroke-width:59.0551; stroke-opacity:1; 
stroke-linecap:round; stroke-linejoin:round;">
<path d="M69685 73821
L112205 73821
" />
</g>
<g style="fill:#000000; fill-opacity:0.0; 
stroke:#000000; stroke-width:39.3701; stroke-opacity:1; 
stroke-linecap:round; stroke-linejoin:round;">
</g>
<g style="fill:#000000; fill-opacity:0.0; 
stroke:#000000; stroke-width:157.48; stroke-opacity:1; 
stroke-linecap:round; stroke-linejoin:round;">
<text x="70079.6" y="74924.1"
textLength="16562" font-size="1049.87" lengthAdjust="spacingAndGlyphs"
text-anchor="start" opacity="0">Title: Single_transistor_AMP</text>
<path d="M70360 74099
L70810 74099
" />
<path d="M70486 74886
L70585 74099
" />
<path d="M70974 74886
L71039 74361
" />
<path d="M71072 74099
L71030 74136
L71063 74174
L71105 74136
L71072 74099
L71063 74174
" />
<path d="M71302 74361
L71602 74361
" />
<path d="M71447 74099
L71363 74774
L71391 74849
L71461 74886
L71536 74886
" />
<path d="M71911 74886
L71841 74849
L71813 74774
L71897 74099
" />
<path d="M72516 74849
L72436 74886
L72286 74886
L72216 74849
L72187 74774
L72225 74474
L72272 74399
L72352 74361
L72501 74361
L72572 74399
L72600 74474
L72591 74549
L72206 74624
" />
<path d="M72895 74811
L72928 74849
L72886 74886
L72853 74849
L72895 74811
L72886 74886
" />
<path d="M72947 74399
L72980 74436
L72937 74474
L72905 74436
L72947 74399
L72937 74474
" />
<path d="M73828 74849
L73936 74886
L74123 74886
L74203 74849
L74245 74811
L74292 74736
L74301 74661
L74273 74586
L74240 74549
L74170 74511
L74025 74474
L73954 74436
L73922 74399
L73894 74324
L73903 74249
L73950 74174
L73992 74136
L74072 74099
L74259 74099
L74367 74136
" />
<path d="M74611 74886
L74676 74361
" />
<path d="M74709 74099
L74667 74136
L74700 74174
L74742 74136
L74709 74099
L74700 74174
" />
<path d="M75051 74361
L74986 74886
" />
<path d="M75042 74436
L75084 74399
L75164 74361
L75276 74361
L75346 74399
L75375 74474
L75323 74886
" />
<path d="M76101 74361
L76021 74999
L75974 75074
L75932 75111
L75853 75149
L75740 75149
L75670 75111
" />
<path d="M76040 74849
L75960 74886
L75810 74886
L75740 74849
L75707 74811
L75679 74736
L75707 74511
L75754 74436
L75796 74399
L75876 74361
L76026 74361
L76096 74399
" />
<path d="M76523 74886
L76453 74849
L76424 74774
L76509 74099
" />
<path d="M77127 74849
L77048 74886
L76898 74886
L76828 74849
L76799 74774
L76837 74474
L76884 74399
L76963 74361
L77113 74361
L77184 74399
L77212 74474
L77202 74549
L76818 74624
" />
<path d="M77301 74961
L77901 74961
" />
<path d="M78051 74361
L78351 74361
" />
<path d="M78196 74099
L78112 74774
L78140 74849
L78210 74886
L78285 74886
" />
<path d="M78548 74886
L78613 74361
" />
<path d="M78594 74511
L78641 74436
L78684 74399
L78763 74361
L78838 74361
" />
<path d="M79373 74886
L79424 74474
L79396 74399
L79326 74361
L79176 74361
L79096 74399
" />
<path d="M79377 74849
L79298 74886
L79110 74886
L79040 74849
L79012 74774
L79021 74699
L79068 74624
L79148 74586
L79335 74586
L79415 74549
" />
<path d="M79813 74361
L79747 74886
" />
<path d="M79804 74436
L79846 74399
L79926 74361
L80038 74361
L80108 74399
L80136 74474
L80085 74886
" />
<path d="M80427 74849
L80497 74886
L80647 74886
L80727 74849
L80774 74774
L80779 74736
L80750 74661
L80680 74624
L80568 74624
L80497 74586
L80469 74511
L80474 74474
L80521 74399
L80600 74361
L80713 74361
L80783 74399
" />
<path d="M81097 74886
L81163 74361
" />
<path d="M81196 74099
L81154 74136
L81186 74174
L81229 74136
L81196 74099
L81186 74174
" />
<path d="M81439 74849
L81510 74886
L81660 74886
L81739 74849
L81786 74774
L81791 74736
L81763 74661
L81693 74624
L81580 74624
L81510 74586
L81482 74511
L81486 74474
L81533 74399
L81613 74361
L81725 74361
L81796 74399
" />
<path d="M82063 74361
L82363 74361
" />
<path d="M82208 74099
L82124 74774
L82152 74849
L82222 74886
L82297 74886
" />
<path d="M82672 74886
L82602 74849
L82569 74811
L82541 74736
L82569 74511
L82616 74436
L82658 74399
L82738 74361
L82850 74361
L82921 74399
L82953 74436
L82981 74511
L82953 74736
L82906 74811
L82864 74849
L82785 74886
L82672 74886
" />
<path d="M83272 74886
L83338 74361
" />
<path d="M83319 74511
L83366 74436
L83408 74399
L83488 74361
L83563 74361
" />
<path d="M83563 74961
L84163 74961
" />
<path d="M84350 74661
L84725 74661
" />
<path d="M84247 74886
L84608 74099
L84772 74886
" />
<path d="M85034 74886
L85133 74099
L85325 74661
L85658 74099
L85559 74886
" />
<path d="M85934 74886
L86033 74099
L86333 74099
L86403 74136
L86436 74174
L86464 74249
L86450 74361
L86403 74436
L86361 74474
L86281 74511
L85981 74511
" />
</g>
<g style="fill:#000000; fill-opacity:0.0; 
stroke:#000000; stroke-width:39.3701; stroke-opacity:1; 
stroke-linecap:round; stroke-linejoin:round;">
</g>
<g style="fill:#000000; fill-opacity:0.0; 
stroke:#000000; stroke-width:59.0551; stroke-opacity:1; 
stroke-linecap:round; stroke-linejoin:round;">
<text x="70079.6" y="73408.3"
textLength="16824.5" font-size="787.402" lengthAdjust="spacingAndGlyphs"
text-anchor="start" opacity="0">File: Single_transistor_AMP.kicad_pcb</text>
<path d="M70446 73070
L70249 73070
" />
<path d="M70249 73380
L70249 72789
L70530 72789
" />
<path d="M70755 73380
L70755 72986
" />
<path d="M70755 72789
L70727 72817
L70755 72845
L70784 72817
L70755 72789
L70755 72845
" />
<path d="M71121 73380
L71065 73352
L71037 73295
L71037 72789
" />
<path d="M71571 73352
L71515 73380
L71402 73380
L71346 73352
L71318 73295
L71318 73070
L71346 73014
L71402 72986
L71515 72986
L71571 73014
L71599 73070
L71599 73127
L71318 73183
" />
<path d="M71852 73323
L71880 73352
L71852 73380
L71824 73352
L71852 73323
L71852 73380
" />
<path d="M71852 73014
L71880 73042
L71852 73070
L71824 73042
L71852 73014
L71852 73070
" />
<path d="M72555 73352
L72640 73380
L72780 73380
L72836 73352
L72865 73323
L72893 73267
L72893 73211
L72865 73155
L72836 73127
L72780 73099
L72668 73070
L72611 73042
L72583 73014
L72555 72958
L72555 72902
L72583 72845
L72611 72817
L72668 72789
L72808 72789
L72893 72817
" />
<path d="M73146 73380
L73146 72986
" />
<path d="M73146 72789
L73118 72817
L73146 72845
L73174 72817
L73146 72789
L73146 72845
" />
<path d="M73427 72986
L73427 73380
" />
<path d="M73427 73042
L73455 73014
L73511 72986
L73596 72986
L73652 73014
L73680 73070
L73680 73380
" />
<path d="M74214 72986
L74214 73464
L74186 73520
L74158 73548
L74102 73577
L74018 73577
L73961 73548
" />
<path d="M74214 73352
L74158 73380
L74046 73380
L73989 73352
L73961 73323
L73933 73267
L73933 73099
L73961 73042
L73989 73014
L74046 72986
L74158 72986
L74214 73014
" />
<path d="M74580 73380
L74524 73352
L74496 73295
L74496 72789
" />
<path d="M75030 73352
L74974 73380
L74861 73380
L74805 73352
L74777 73295
L74777 73070
L74805 73014
L74861 72986
L74974 72986
L75030 73014
L75058 73070
L75058 73127
L74777 73183
" />
<path d="M75171 73436
L75620 73436
" />
<path d="M75677 72986
L75902 72986
" />
<path d="M75761 72789
L75761 73295
L75789 73352
L75845 73380
L75902 73380
" />
<path d="M76099 73380
L76099 72986
" />
<path d="M76099 73099
L76127 73042
L76155 73014
L76211 72986
L76267 72986
" />
<path d="M76717 73380
L76717 73070
L76689 73014
L76633 72986
L76520 72986
L76464 73014
" />
<path d="M76717 73352
L76661 73380
L76520 73380
L76464 73352
L76436 73295
L76436 73239
L76464 73183
L76520 73155
L76661 73155
L76717 73127
" />
<path d="M76998 72986
L76998 73380
" />
<path d="M76998 73042
L77027 73014
L77083 72986
L77167 72986
L77223 73014
L77251 73070
L77251 73380
" />
<path d="M77505 73352
L77561 73380
L77673 73380
L77730 73352
L77758 73295
L77758 73267
L77730 73211
L77673 73183
L77589 73183
L77533 73155
L77505 73099
L77505 73070
L77533 73014
L77589 72986
L77673 72986
L77730 73014
" />
<path d="M78011 73380
L78011 72986
" />
<path d="M78011 72789
L77983 72817
L78011 72845
L78039 72817
L78011 72789
L78011 72845
" />
<path d="M78264 73352
L78320 73380
L78433 73380
L78489 73352
L78517 73295
L78517 73267
L78489 73211
L78433 73183
L78348 73183
L78292 73155
L78264 73099
L78264 73070
L78292 73014
L78348 72986
L78433 72986
L78489 73014
" />
<path d="M78686 72986
L78911 72986
" />
<path d="M78770 72789
L78770 73295
L78798 73352
L78854 73380
L78911 73380
" />
<path d="M79192 73380
L79136 73352
L79108 73323
L79079 73267
L79079 73099
L79108 73042
L79136 73014
L79192 72986
L79276 72986
L79332 73014
L79361 73042
L79389 73099
L79389 73267
L79361 73323
L79332 73352
L79276 73380
L79192 73380
" />
<path d="M79642 73380
L79642 72986
" />
<path d="M79642 73099
L79670 73042
L79698 73014
L79754 72986
L79811 72986
" />
<path d="M79867 73436
L80317 73436
" />
<path d="M80429 73211
L80710 73211
" />
<path d="M80373 73380
L80570 72789
L80767 73380
" />
<path d="M80964 73380
L80964 72789
L81160 73211
L81357 72789
L81357 73380
" />
<path d="M81638 73380
L81638 72789
L81863 72789
L81920 72817
L81948 72845
L81976 72902
L81976 72986
L81948 73042
L81920 73070
L81863 73099
L81638 73099
" />
<path d="M82229 73323
L82257 73352
L82229 73380
L82201 73352
L82229 73323
L82229 73380
" />
<path d="M82510 73380
L82510 72789
" />
<path d="M82566 73155
L82735 73380
" />
<path d="M82735 72986
L82510 73211
" />
<path d="M82988 73380
L82988 72986
" />
<path d="M82988 72789
L82960 72817
L82988 72845
L83016 72817
L82988 72789
L82988 72845
" />
<path d="M83523 73352
L83466 73380
L83354 73380
L83298 73352
L83269 73323
L83241 73267
L83241 73099
L83269 73042
L83298 73014
L83354 72986
L83466 72986
L83523 73014
" />
<path d="M84029 73380
L84029 73070
L84001 73014
L83944 72986
L83832 72986
L83776 73014
" />
<path d="M84029 73352
L83973 73380
L83832 73380
L83776 73352
L83748 73295
L83748 73239
L83776 73183
L83832 73155
L83973 73155
L84029 73127
" />
<path d="M84563 73380
L84563 72789
" />
<path d="M84563 73352
L84507 73380
L84394 73380
L84338 73352
L84310 73323
L84282 73267
L84282 73099
L84310 73042
L84338 73014
L84394 72986
L84507 72986
L84563 73014
" />
<path d="M84704 73436
L85154 73436
" />
<path d="M85294 72986
L85294 73577
" />
<path d="M85294 73014
L85350 72986
L85463 72986
L85519 73014
L85547 73042
L85575 73099
L85575 73267
L85547 73323
L85519 73352
L85463 73380
L85350 73380
L85294 73352
" />
<path d="M86082 73352
L86025 73380
L85913 73380
L85857 73352
L85829 73323
L85800 73267
L85800 73099
L85829 73042
L85857 73014
L85913 72986
L86025 72986
L86082 73014
" />
<path d="M86335 73380
L86335 72789
" />
<path d="M86335 73014
L86391 72986
L86503 72986
L86560 73014
L86588 73042
L86616 73099
L86616 73267
L86588 73323
L86560 73352
L86503 73380
L86391 73380
L86335 73352
" />
</g>
<g style="fill:#000000; fill-opacity:0.0; 
stroke:#000000; stroke-width:39.3701; stroke-opacity:1; 
stroke-linecap:round; stroke-linejoin:round;">
</g>
<g style="fill:#000000; fill-opacity:0.0; 
stroke:#000000; stroke-width:59.0551; stroke-opacity:1; 
stroke-linecap:round; stroke-linejoin:round;">
<path d="M69685 71459
L112205 71459
" />
</g>
<g style="fill:#000000; fill-opacity:0.0; 
stroke:#000000; stroke-width:39.3701; stroke-opacity:1; 
stroke-linecap:round; stroke-linejoin:round;">
</g>
<g style="fill:#000000; fill-opacity:0.0; 
stroke:#000000; stroke-width:59.0551; stroke-opacity:1; 
stroke-linecap:round; stroke-linejoin:round;">
<text x="70079.6" y="72345.4"
textLength="3236.78" font-size="787.402" lengthAdjust="spacingAndGlyphs"
text-anchor="start" opacity="0">Sheet: </text>
<path d="M70221 72289
L70305 72317
L70446 72317
L70502 72289
L70530 72260
L70559 72204
L70559 72148
L70530 72092
L70502 72064
L70446 72036
L70334 72007
L70277 71979
L70249 71951
L70221 71895
L70221 71839
L70249 71782
L70277 71754
L70334 71726
L70474 71726
L70559 71754
" />
<path d="M70812 72317
L70812 71726
" />
<path d="M71065 72317
L71065 72007
L71037 71951
L70980 71923
L70896 71923
L70840 71951
L70812 71979
" />
<path d="M71571 72289
L71515 72317
L71402 72317
L71346 72289
L71318 72232
L71318 72007
L71346 71951
L71402 71923
L71515 71923
L71571 71951
L71599 72007
L71599 72064
L71318 72120
" />
<path d="M72077 72289
L72021 72317
L71908 72317
L71852 72289
L71824 72232
L71824 72007
L71852 71951
L71908 71923
L72021 71923
L72077 71951
L72105 72007
L72105 72064
L71824 72120
" />
<path d="M72274 71923
L72499 71923
" />
<path d="M72358 71726
L72358 72232
L72386 72289
L72443 72317
L72499 72317
" />
<path d="M72696 72260
L72724 72289
L72696 72317
L72668 72289
L72696 72260
L72696 72317
" />
<path d="M72696 71951
L72724 71979
L72696 72007
L72668 71979
L72696 71951
L72696 72007
" />
</g>
<g style="fill:#000000; fill-opacity:0.0; 
stroke:#000000; stroke-width:39.3701; stroke-opacity:1; 
stroke-linecap:round; stroke-linejoin:round;">
</g>
<g style="fill:#000000; fill-opacity:0.0; 
stroke:#000000; stroke-width:118.11; stroke-opacity:1; 
stroke-linecap:round; stroke-linejoin:round;">
<text x="70079.6" y="71164.3"
textLength="4980.31" font-size="787.402" lengthAdjust="spacingAndGlyphs"
text-anchor="start" opacity="0">Ilja VIlevka</text>
<path d="M70296 71136
L70296 70545
" />
<path d="M70662 71136
L70606 71108
L70578 71051
L70578 70545
" />
<path d="M70887 70742
L70887 71248
L70859 71304
L70803 71332
L70775 71332
" />
<path d="M70887 70545
L70859 70573
L70887 70601
L70915 70573
L70887 70545
L70887 70601
" />
<path d="M71421 71136
L71421 70826
L71393 70770
L71337 70742
L71224 70742
L71168 70770
" />
<path d="M71421 71108
L71365 71136
L71224 71136
L71168 71108
L71140 71051
L71140 70995
L71168 70939
L71224 70911
L71365 70911
L71421 70883
" />
<path d="M72068 70545
L72265 71136
L72462 70545
" />
<path d="M72659 71136
L72659 70545
" />
<path d="M73024 71136
L72968 71108
L72940 71051
L72940 70545
" />
<path d="M73474 71108
L73418 71136
L73305 71136
L73249 71108
L73221 71051
L73221 70826
L73249 70770
L73305 70742
L73418 70742
L73474 70770
L73502 70826
L73502 70883
L73221 70939
" />
<path d="M73699 70742
L73840 71136
L73980 70742
" />
<path d="M74205 71136
L74205 70545
" />
<path d="M74262 70911
L74430 71136
" />
<path d="M74430 70742
L74205 70967
" />
<path d="M74937 71136
L74937 70826
L74908 70770
L74852 70742
L74740 70742
L74683 70770
" />
<path d="M74937 71108
L74880 71136
L74740 71136
L74683 71108
L74655 71051
L74655 70995
L74683 70939
L74740 70911
L74880 70911
L74937 70883
" />
</g>
<g style="fill:#000000; fill-opacity:0.0; 
stroke:#000000; stroke-width:39.3701; stroke-opacity:1; 
stroke-linecap:round; stroke-linejoin:round;">
</g>
<g style="fill:#000000; fill-opacity:0.0; 
stroke:#000000; stroke-width:59.0551; stroke-opacity:1; 
stroke-linecap:round; stroke-linejoin:round;">
<path d="M77559 75396
L77559 76577
" />
</g>
<g style="fill:#000000; fill-opacity:0.0; 
stroke:#000000; stroke-width:39.3701; stroke-opacity:1; 
stroke-linecap:round; stroke-linejoin:round;">
</g>
<g style="fill:#000000; fill-opacity:0.0; 
stroke:#000000; stroke-width:59.0551; stroke-opacity:1; 
stroke-linecap:round; stroke-linejoin:round;">
<path d="M102756 75396
L102756 77955
" />
<g >
</g>
<g style="fill:#848400; fill-opacity:0.0; 
stroke:#848400; stroke-width:59.0551; stroke-opacity:1; 
stroke-linecap:round; stroke-linejoin:round;">
</g>
<g style="fill:#848400; fill-opacity:1.0; 
stroke:#848400; stroke-width:0; stroke-opacity:1; 
stroke-linecap:round; stroke-linejoin:round;">
<circle cx="53640" cy="37530" r="314.961" /> 
</g>
<g style="fill:#848400; fill-opacity:1.0; 
stroke:#848400; stroke-width:39.3701; stroke-opacity:1; 
stroke-linecap:round; stroke-linejoin:round;">
</g>
<g style="fill:#848400; fill-opacity:1.0; 
stroke:#848400; stroke-width:0; stroke-opacity:1; 
stroke-linecap:round; stroke-linejoin:round;">
<circle cx="53640" cy="39498.5" r="314.961" /> 
</g>
<g style="fill:#848400; fill-opacity:1.0; 
stroke:#848400; stroke-width:39.3701; stroke-opacity:1; 
stroke-linecap:round; stroke-linejoin:round;">
</g>
<g >
</g>
<g style="fill:#848400; fill-opacity:1.0; 
stroke:#848400; stroke-width:39.3701; stroke-opacity:1; 
stroke-linecap:round; stroke-linejoin:round;">
</g>
<g style="fill:#848400; fill-opacity:1.0; 
stroke:#848400; stroke-width:0; stroke-opacity:1; 
stroke-linecap:round; stroke-linejoin:round;">
<circle cx="61371.5" cy="35680" r="314.961" /> 
</g>
<g style="fill:#848400; fill-opacity:1.0; 
stroke:#848400; stroke-width:39.3701; stroke-opacity:1; 
stroke-linecap:round; stroke-linejoin:round;">
</g>
<g style="fill:#848400; fill-opacity:1.0; 
stroke:#848400; stroke-width:0; stroke-opacity:1; 
stroke-linecap:round; stroke-linejoin:round;">
<circle cx="63340" cy="35680" r="314.961" /> 
</g>
<g style="fill:#848400; fill-opacity:1.0; 
stroke:#848400; stroke-width:39.3701; stroke-opacity:1; 
stroke-linecap:round; stroke-linejoin:round;">
</g>
<g >
</g>
<g style="fill:#848400; fill-opacity:1.0; 
stroke:#848400; stroke-width:39.3701; stroke-opacity:1; 
stroke-linecap:round; stroke-linejoin:round;">
</g>
<g style="fill:#848400; fill-opacity:1.0; 
stroke:#848400; stroke-width:0; stroke-opacity:1; 
stroke-linecap:round; stroke-linejoin:round;">
<circle cx="63350" cy="41150" r="314.961" /> 
</g>
<g style="fill:#848400; fill-opacity:1.0; 
stroke:#848400; stroke-width:39.3701; stroke-opacity:1; 
stroke-linecap:round; stroke-linejoin:round;">
</g>
<g style="fill:#848400; fill-opacity:1.0; 
stroke:#848400; stroke-width:0; stroke-opacity:1; 
stroke-linecap:round; stroke-linejoin:round;">
<circle cx="61381.5" cy="41150" r="314.961" /> 
</g>
<g style="fill:#848400; fill-opacity:1.0; 
stroke:#848400; stroke-width:39.3701; stroke-opacity:1; 
stroke-linecap:round; stroke-linejoin:round;">
</g>
<g >
</g>
<g style="fill:#848400; fill-opacity:1.0; 
stroke:#848400; stroke-width:39.3701; stroke-opacity:1; 
stroke-linecap:round; stroke-linejoin:round;">
</g>
<g style="fill:#848400; fill-opacity:1.0; 
stroke:#848400; stroke-width:0; stroke-opacity:1; 
stroke-linecap:round; stroke-linejoin:round;">
<path style="fill:#848400; fill-opacity:1.0; 
stroke:#848400; stroke-width:0; stroke-opacity:1; 
stroke-linecap:round; stroke-linejoin:round;fill-rule:evenodd;"
d="M 52014.6,39097.1
52024.2,39098.5
52033.5,39100.9
52042.6,39104.1
52051.4,39108.2
52059.6,39113.2
52067.4,39119
52074.6,39125.4
52081,39132.6
52086.8,39140.4
52091.8,39148.6
52095.9,39157.4
52099.1,39166.5
52101.5,39175.8
52102.9,39185.4
52103.4,39195
52103.4,39825
52102.9,39834.6
52101.5,39844.2
52099.1,39853.5
52095.9,39862.6
52091.8,39871.4
52086.8,39879.6
52081,39887.4
52074.6,39894.6
52067.4,39901
52059.6,39906.8
52051.4,39911.8
52042.6,39915.9
52033.5,39919.1
52024.2,39921.5
52014.6,39922.9
52005,39923.4
51375,39923.4
51365.4,39922.9
51355.8,39921.5
51346.5,39919.1
51337.4,39915.9
51328.6,39911.8
51320.4,39906.8
51312.6,39901
51305.4,39894.6
51299,39887.4
51293.2,39879.6
51288.2,39871.4
51284.1,39862.6
51280.9,39853.5
51278.5,39844.2
51277.1,39834.6
51276.6,39825
51276.6,39195
51277.1,39185.4
51278.5,39175.8
51280.9,39166.5
51284.1,39157.4
51288.2,39148.6
51293.2,39140.4
51299,39132.6
51305.4,39125.4
51312.6,39119
51320.4,39113.2
51328.6,39108.2
51337.4,39104.1
51346.5,39100.9
51355.8,39098.5
51365.4,39097.1
51375,39096.6
52005,39096.6
Z" /> 
<circle cx="51690" cy="37699" r="413.386" /> 
</g>
<g style="fill:#848400; fill-opacity:1.0; 
stroke:#848400; stroke-width:39.3701; stroke-opacity:1; 
stroke-linecap:round; stroke-linejoin:round;">
</g>
<g >
</g>
<g style="fill:#848400; fill-opacity:1.0; 
stroke:#848400; stroke-width:39.3701; stroke-opacity:1; 
stroke-linecap:round; stroke-linejoin:round;">
</g>
<g style="fill:#848400; fill-opacity:1.0; 
stroke:#848400; stroke-width:0; stroke-opacity:1; 
stroke-linecap:round; stroke-linejoin:round;">
<circle cx="64510" cy="37569" r="413.386" /> 
</g>
<g style="fill:#848400; fill-opacity:1.0; 
stroke:#848400; stroke-width:39.3701; stroke-opacity:1; 
stroke-linecap:round; stroke-linejoin:round;">
</g>
<g style="fill:#848400; fill-opacity:1.0; 
stroke:#848400; stroke-width:0; stroke-opacity:1; 
stroke-linecap:round; stroke-linejoin:round;">
<path style="fill:#848400; fill-opacity:1.0; 
stroke:#848400; stroke-width:0; stroke-opacity:1; 
stroke-linecap:round; stroke-linejoin:round;fill-rule:evenodd;"
d="M 64834.6,38967.1
64844.2,38968.5
64853.5,38970.9
64862.6,38974.1
64871.4,38978.2
64879.6,38983.2
64887.4,38989
64894.6,38995.4
64901,39002.6
64906.8,39010.4
64911.8,39018.6
64915.9,39027.4
64919.1,39036.5
64921.5,39045.8
64922.9,39055.4
64923.4,39065
64923.4,39695
64922.9,39704.6
64921.5,39714.2
64919.1,39723.5
64915.9,39732.6
64911.8,39741.4
64906.8,39749.6
64901,39757.4
64894.6,39764.6
64887.4,39771
64879.6,39776.8
64871.4,39781.8
64862.6,39785.9
64853.5,39789.1
64844.2,39791.5
64834.6,39792.9
64825,39793.4
64195,39793.4
64185.4,39792.9
64175.8,39791.5
64166.5,39789.1
64157.4,39785.9
64148.6,39781.8
64140.4,39776.8
64132.6,39771
64125.4,39764.6
64119,39757.4
64113.2,39749.6
64108.2,39741.4
64104.1,39732.6
64100.9,39723.5
64098.5,39714.2
64097.1,39704.6
64096.6,39695
64096.6,39065
64097.1,39055.4
64098.5,39045.8
64100.9,39036.5
64104.1,39027.4
64108.2,39018.6
64113.2,39010.4
64119,39002.6
64125.4,38995.4
64132.6,38989
64140.4,38983.2
64148.6,38978.2
64157.4,38974.1
64166.5,38970.9
64175.8,38968.5
64185.4,38967.1
64195,38966.6
64825,38966.6
Z" /> 
</g>
<g >
</g>
<g style="fill:#848400; fill-opacity:1.0; 
stroke:#848400; stroke-width:0; stroke-opacity:1; 
stroke-linecap:round; stroke-linejoin:round;">
</g>
<g style="fill:#848400; fill-opacity:1.0; 
stroke:#848400; stroke-width:413.386; stroke-opacity:1; 
stroke-linecap:round; stroke-linejoin:round;">
</g>
<g style="fill:#848400; fill-opacity:0.0; 
stroke:#848400; stroke-width:413.386; stroke-opacity:1; 
stroke-linecap:round; stroke-linejoin:round;">
<path d="M59331 38410
L59508 38410
" />
<path d="M59331 37910
L59508 37910
" />
</g>
<g style="fill:#848400; fill-opacity:0.0; 
stroke:#848400; stroke-width:0; stroke-opacity:1; 
stroke-linecap:round; stroke-linejoin:round;">
</g>
<g style="fill:#848400; fill-opacity:1.0; 
stroke:#848400; stroke-width:0; stroke-opacity:1; 
stroke-linecap:round; stroke-linejoin:round;">
<path style="fill:#848400; fill-opacity:1.0; 
stroke:#848400; stroke-width:0; stroke-opacity:1; 
stroke-linecap:round; stroke-linejoin:round;fill-rule:evenodd;"
d="M 59715.3,39116.7
59124.7,39116.7
59124.7,38703.3
59715.3,38703.3
Z" /> 
</g>
<g >
</g>
<g style="fill:#848400; fill-opacity:1.0; 
stroke:#848400; stroke-width:0; stroke-opacity:1; 
stroke-linecap:round; stroke-linejoin:round;">
<circle cx="55360" cy="39520" r="275.591" /> 
</g>
<g style="fill:#848400; fill-opacity:1.0; 
stroke:#848400; stroke-width:39.3701; stroke-opacity:1; 
stroke-linecap:round; stroke-linejoin:round;">
</g>
<g style="fill:#848400; fill-opacity:1.0; 
stroke:#848400; stroke-width:0; stroke-opacity:1; 
stroke-linecap:round; stroke-linejoin:round;">
<circle cx="55360" cy="37520" r="275.591" /> 
</g>
<g >
</g>
<g style="fill:#848400; fill-opacity:1.0; 
stroke:#848400; stroke-width:0; stroke-opacity:1; 
stroke-linecap:round; stroke-linejoin:round;">
<circle cx="57000" cy="36940" r="275.591" /> 
</g>
<g style="fill:#848400; fill-opacity:1.0; 
stroke:#848400; stroke-width:39.3701; stroke-opacity:1; 
stroke-linecap:round; stroke-linejoin:round;">
</g>
<g style="fill:#848400; fill-opacity:1.0; 
stroke:#848400; stroke-width:0; stroke-opacity:1; 
stroke-linecap:round; stroke-linejoin:round;">
<circle cx="57000" cy="39940" r="275.591" /> 
</g>
<g >
</g>
<g style="fill:#848400; fill-opacity:1.0; 
stroke:#848400; stroke-width:0; stroke-opacity:1; 
stroke-linecap:round; stroke-linejoin:round;">
<circle cx="62810" cy="39970" r="275.591" /> 
<circle cx="62810" cy="36970" r="275.591" /> 
</g>
<g style="fill:#848400; fill-opacity:1.0; 
stroke:#848400; stroke-width:39.3701; stroke-opacity:1; 
stroke-linecap:round; stroke-linejoin:round;">
</g>
<g >
</g>
<g style="fill:#848400; fill-opacity:1.0; 
stroke:#848400; stroke-width:39.3701; stroke-opacity:1; 
stroke-linecap:round; stroke-linejoin:round;">
</g>
<g style="fill:#848400; fill-opacity:1.0; 
stroke:#848400; stroke-width:0; stroke-opacity:1; 
stroke-linecap:round; stroke-linejoin:round;">
<circle cx="61380" cy="36960" r="275.591" /> 
</g>
<g style="fill:#848400; fill-opacity:1.0; 
stroke:#848400; stroke-width:39.3701; stroke-opacity:1; 
stroke-linecap:round; stroke-linejoin:round;">
</g>
<g style="fill:#848400; fill-opacity:1.0; 
stroke:#848400; stroke-width:0; stroke-opacity:1; 
stroke-linecap:round; stroke-linejoin:round;">
<circle cx="61380" cy="39960" r="275.591" /> 
</g>
<g >
</g>
<g style="fill:#848400; fill-opacity:1.0; 
stroke:#848400; stroke-width:0; stroke-opacity:1; 
stroke-linecap:round; stroke-linejoin:round;">
<circle cx="52360.8" cy="44590" r="2000" /> 
</g>
<g style="fill:#848400; fill-opacity:1.0; 
stroke:#848400; stroke-width:39.3701; stroke-opacity:1; 
stroke-linecap:round; stroke-linejoin:round;">
</g>
<g style="fill:#848400; fill-opacity:1.0; 
stroke:#848400; stroke-width:0; stroke-opacity:1; 
stroke-linecap:round; stroke-linejoin:round;">
<circle cx="64160" cy="44590" r="2000" /> 
</g>
<g style="fill:#848400; fill-opacity:1.0; 
stroke:#848400; stroke-width:39.3701; stroke-opacity:1; 
stroke-linecap:round; stroke-linejoin:round;">
</g>
<g >
</g>
<g >
</g>
<g style="fill:#840000; fill-opacity:1.0; 
stroke:#840000; stroke-width:39.3701; stroke-opacity:1; 
stroke-linecap:round; stroke-linejoin:round;">
</g>
<g style="fill:#840000; fill-opacity:1.0; 
stroke:#840000; stroke-width:98.4252; stroke-opacity:1; 
stroke-linecap:round; stroke-linejoin:round;">
</g>
<g style="fill:#840000; fill-opacity:0.0; 
stroke:#840000; stroke-width:98.4252; stroke-opacity:1; 
stroke-linecap:round; stroke-linejoin:round;">
<path d="M55350 37530
L55360 37520
" />
<path d="M53640 37530
L55350 37530
" />
<path d="M56420 37520
L57000 36940
" />
<path d="M55360 37520
L56420 37520
" />
<path d="M59026 38410
L59420 38410
" />
<path d="M58580 37963
L59026 38410
" />
<path d="M58580 37340
L58580 37963
" />
<path d="M58180 36940
L58580 37340
" />
<path d="M57000 36940
L58180 36940
" />
<path d="M51690 39510
L53628 39510
" />
<path d="M53628 39510
L53640 39498
" />
<path d="M60430 37910
L61380 36960
" />
<path d="M59420 37910
L60430 37910
" />
<path d="M61380 35688
L61371 35680
" />
<path d="M61380 36960
L61380 35688
" />
<path d="M64510 39990
L63350 41150
" />
<path d="M64510 39380
L64510 39990
" />
<path d="M59420 38910
L59420 39420
" />
<path d="M61150 41150
L61381 41150
" />
<path d="M59420 39420
L61150 41150
" />
<path d="M61381 41150
L62130 41150
" />
<path d="M62810 40470
L62810 39970
" />
<path d="M62130 41150
L62810 40470
" />
</g>
<g style="fill:#840000; fill-opacity:0.0; 
stroke:#840000; stroke-width:196.85; stroke-opacity:1; 
stroke-linecap:round; stroke-linejoin:round;">
<path d="M55360 41590
L55360 39520
" />
<path d="M52360 44590
L55360 41590
" />
<path d="M55360 39520
L55930 39520
" />
<path d="M55930 39520
L56120 39710
" />
<path d="M56120 39710
L56120 40500
" />
<path d="M56120 40500
L57570 41950
" />
<path d="M57570 41950
L64650 41950
" />
<path d="M64650 41950
L66210 40390
" />
<path d="M66210 40390
L66210 36720
" />
<path d="M66210 36720
L65790 36300
" />
<path d="M65790 36300
L64140 36300
" />
<path d="M64140 36300
L63470 36970
" />
<path d="M63470 36970
L62810 36970
" />
</g>
<g >
</g>
<g style="fill:#840000; fill-opacity:0.0; 
stroke:#840000; stroke-width:196.85; stroke-opacity:1; 
stroke-linecap:round; stroke-linejoin:round;">
<g >
</g>
<g style="fill:#840000; fill-opacity:1.0; 
stroke:#840000; stroke-width:100; stroke-opacity:1; 
stroke-linecap:round; stroke-linejoin:round;">
<path style="fill:#840000; fill-opacity:1.0; 
stroke:#840000; stroke-width:100; stroke-opacity:1; 
stroke-linecap:round; stroke-linejoin:round;fill-rule:evenodd;"
d="M 65441.4,34648
65764,34729
66068.9,34861.6
66348.2,35042.2
66594.1,35266
66800.2,35527
66960.9,35818.2
67072,36131.6
67131.1,36463.5
67140.2,36656.8
67180.2,44354.7
67147.8,44743.6
67060.2,45115.7
66918.5,45470.9
66725.9,45801.1
66486.6,46099.3
66205.8,46358.8
65889.8,46574
65545.4,46740.1
65180.2,46853.5
64798.5,46912.2
64565.6,46920.2
51837.8,46920.2
51419,46896.2
51018.2,46816.3
50632.3,46681.3
50269,46494
49935.3,46258
49637.7,45977.8
49382,45658.9
49173.2,45307.6
49015.3,44930.5
48911.4,44535.2
48891.7,44368.4
50110.8,44368.4
50110.8,44811.6
50197.3,45246.3
50366.9,45655.8
50613.1,46024.3
50926.5,46337.7
51295,46583.9
51704.5,46753.5
52139.2,46840
52582.4,46840
53017.1,46753.5
53426.6,46583.9
53795.1,46337.7
54108.5,46024.3
54354.7,45655.8
54524.3,45246.3
54610.8,44811.6
54610.8,44368.4
61910,44368.4
61910,44811.6
61996.5,45246.3
62166.1,45655.8
62412.3,46024.3
62725.7,46337.7
63094.2,46583.9
63503.7,46753.5
63938.4,46840
64381.6,46840
64816.3,46753.5
65225.8,46583.9
65594.3,46337.7
65907.7,46024.3
66153.9,45655.8
66323.5,45246.3
66410,44811.6
66410,44368.4
66323.5,43933.7
66153.9,43524.2
65907.7,43155.7
65594.3,42842.3
65225.8,42596.1
64816.3,42426.5
64381.6,42340
63938.4,42340
63503.7,42426.5
63094.2,42596.1
62725.7,42842.3
62412.3,43155.7
62166.1,43524.2
61996.5,43933.7
61910,44368.4
54610.8,44368.4
54524.3,43933.7
54354.7,43524.2
54180.3,43263.2
55594.3,41849.3
55607.6,41838.4
55625.9,41816
55651.1,41785.3
55651.1,41785.3
55683.5,41724.8
55703.4,41659.1
55708.4,41607.9
55708.4,41607.9
55710.1,41590.8
55708.4,41573.7
55708.4,39914.9
55754.9,39868.4
55771.6,39868.4
55771.6,40482.9
55769.9,40500
55776.6,40568.3
55796.5,40634
55828.9,40694.5
55861.5,40734.3
55861.5,40734.3
55872.4,40747.6
55885.7,40758.5
57311.5,42184.3
57322.4,42197.6
57335.7,42208.5
57335.7,42208.5
57375.5,42241.1
57436,42273.5
57501.7,42293.4
57552.9,42298.4
57552.9,42298.4
57570,42300.1
57587.1,42298.4
64632.9,42298.4
64650,42300.1
64667.1,42298.4
64667.1,42298.4
64718.3,42293.4
64784,42273.5
64844.5,42241.1
64897.6,42197.6
64908.5,42184.3
66444.3,40648.5
66457.6,40637.6
66501.1,40584.5
66533.5,40524
66553.4,40458.3
66558.4,40407.1
66558.4,40407.1
66560.1,40390
66558.4,40372.9
66558.4,36737.1
66560.1,36720
66558.4,36702.9
66558.4,36702.9
66553.4,36651.7
66533.5,36586
66501.1,36525.5
66457.6,36472.4
66444.3,36461.5
66048.5,36065.7
66037.6,36052.4
65984.5,36008.9
65924,35976.5
65858.3,35956.6
65807.1,35951.6
65807.1,35951.6
65790,35949.9
65772.9,35951.6
64157.1,35951.6
64140,35949.9
64122.9,35951.6
64122.9,35951.6
64071.7,35956.6
64006,35976.5
63945.5,36008.9
63905.7,36041.5
63905.7,36041.5
63892.4,36052.4
63881.5,36065.7
63325.7,36621.6
63204.9,36621.6
63145,36561.7
63059,36504.2
62963.3,36464.6
62861.8,36444.4
62758.2,36444.4
62656.7,36464.6
62561,36504.2
62475,36561.7
62401.7,36635
62344.2,36721
62304.6,36816.7
62284.4,36918.2
62284.4,37021.8
62304.6,37123.3
62344.2,37219
62401.7,37305
62475,37378.3
62561,37435.8
62656.7,37475.4
62758.2,37495.6
62861.8,37495.6
62963.3,37475.4
63059,37435.8
63145,37378.3
63204.9,37318.4
63452.9,37318.4
63470,37320.1
63487.1,37318.4
63487.1,37318.4
63538.3,37313.4
63604,37293.5
63664.5,37261.1
63717.6,37217.6
63728.5,37204.3
63824.8,37107.9
64119.7,37107.9
64510,37498.3
64900.3,37107.9
64860.3,37001.8
64742.9,36944.4
64616.6,36911
64486.1,36902.8
64356.6,36920.3
64233,36962.7
64159.7,37001.8
64119.7,37107.9
63824.8,37107.9
64284.3,36648.4
65645.7,36648.4
65861.6,36864.3
65861.6,40245.7
64505.7,41601.6
63691.1,41601.6
63710.1,41588.8
63788.8,41510.1
63850.7,41417.6
63893.2,41314.8
63915,41205.6
63915,41094.4
63900.7,41022.5
64711.2,40212
64722.6,40202.6
64760,40157
64787.8,40105.1
64804.9,40048.7
64805.3,40044.6
64825,40044.6
64893.2,40037.9
64958.8,40018
65019.2,39985.7
65072.2,39942.2
65115.7,39889.2
65148,39828.8
65167.9,39763.2
65174.6,39695
65174.6,39065
65167.9,38996.8
65148,38931.2
65115.7,38870.8
65072.2,38817.8
65019.2,38774.3
64958.8,38742
64893.2,38722.1
64825,38715.4
64195,38715.4
64126.8,38722.1
64061.2,38742
64000.8,38774.3
63947.8,38817.8
63904.3,38870.8
63872,38931.2
63852.1,38996.8
63845.4,39065
63845.4,39695
63852.1,39763.2
63872,39828.8
63904.3,39889.2
63947.8,39942.2
64000.8,39985.7
64059.7,40017.2
63477.5,40599.3
63405.6,40585
63294.4,40585
63185.2,40606.8
63082.4,40649.3
62996.3,40706.9
63011.2,40692
63022.6,40682.6
63060,40637
63087.8,40585.1
63104.9,40528.7
63109.2,40484.7
63109.2,40484.7
63110.7,40470
63109.2,40455.3
63109.2,40402.2
63145,40378.3
63218.3,40305
63275.8,40219
63315.4,40123.3
63335.6,40021.8
63335.6,39918.2
63315.4,39816.7
63275.8,39721
63218.3,39635
63145,39561.7
63059,39504.2
62963.3,39464.6
62861.8,39444.4
62758.2,39444.4
62656.7,39464.6
62561,39504.2
62475,39561.7
62401.7,39635
62344.2,39721
62304.6,39816.7
62284.4,39918.2
62284.4,40021.8
62304.6,40123.3
62344.2,40219
62401.7,40305
62475,40378.3
62477.1,40379.7
62006.1,40850.8
61861,40850.8
61820.3,40789.9
61741.6,40711.2
61649.1,40649.3
61546.3,40606.8
61437.1,40585
61325.9,40585
61216.7,40606.8
61113.9,40649.3
61089.1,40665.9
60514.4,40091.2
60871.1,40091.2
60906.4,40188
60960,40276
61029.7,40351.9
61112.9,40412.7
61206.4,40456.1
61248.8,40468.9
61330,40420.4
61330,40010
61430,40010
61430,40420.4
61511.2,40468.9
61553.6,40456.1
61647.1,40412.7
61730.3,40351.9
61800,40276
61853.6,40188
61888.9,40091.2
61840.7,40010
61430,40010
61330,40010
60919.3,40010
60871.1,40091.2
60514.4,40091.2
60251.9,39828.8
60871.1,39828.8
60919.3,39910
61330,39910
61330,39499.6
61430,39499.6
61430,39910
61840.7,39910
61888.9,39828.8
61853.6,39732
61800,39644
61730.3,39568.1
61647.1,39507.3
61553.6,39463.9
61511.2,39451.1
61430,39499.6
61330,39499.6
61248.8,39451.1
61206.4,39463.9
61112.9,39507.3
61029.7,39568.1
60960,39644
60906.4,39732
60871.1,39828.8
60251.9,39828.8
59781.1,39358
59811.4,39348.8
59854.8,39325.6
59892.9,39294.3
59924.1,39256.3
59947.4,39212.8
59961.7,39165.7
59966.5,39116.7
59966.5,38703.3
59961.7,38654.3
59947.4,38607.2
59933.7,38581.7
59958.7,38499.5
59967.5,38410
59958.7,38320.5
59932.6,38234.4
59919.1,38209.2
60415.3,38209.2
60430,38210.7
60444.7,38209.2
60444.7,38209.2
60488.7,38204.9
60545.1,38187.8
60597,38160
60642.6,38122.6
60652,38111.2
60733.1,38030
64119.7,38030
64159.7,38136.1
64277.1,38193.6
64403.4,38227
64533.9,38235.1
64663.4,38217.7
64787,38175.3
64860.3,38136.1
64900.3,38030
64510,37639.7
64119.7,38030
60733.1,38030
61170.3,37592.8
63843.8,37592.8
63861.3,37722.3
63903.7,37846
63942.8,37919.2
64049,37959.3
64439.3,37569
64580.7,37569
64971,37959.3
65077.2,37919.2
65134.6,37801.9
65168,37675.5
65176.2,37545.1
65158.7,37415.6
65116.3,37292
65077.2,37218.7
64971,37178.6
64580.7,37569
64439.3,37569
64049,37178.6
63942.8,37218.7
63885.4,37336.1
63852,37462.4
63843.8,37592.8
61170.3,37592.8
61286,37477.2
61328.2,37485.6
61431.8,37485.6
61533.3,37465.4
61629,37425.8
61715,37368.3
61788.3,37295
61845.8,37209
61885.4,37113.3
61905.6,37011.8
61905.6,36908.2
61885.4,36806.7
61845.8,36711
61788.3,36625
61715,36551.7
61679.2,36527.8
61679.2,36153.9
61731.6,36118.8
61779.6,36070.8
63019.9,36070.8
63048.1,36166.9
63148.7,36214.5
63256.6,36241.5
63367.8,36247
63477.8,36230.7
63582.6,36193.2
63631.9,36166.9
63660.1,36070.8
63340,35750.7
63019.9,36070.8
61779.6,36070.8
61810.3,36040.1
61872.2,35947.6
61914.7,35844.8
61936.5,35735.6
61936.5,35707.8
62773,35707.8
62789.3,35817.8
62826.8,35922.6
62853.1,35971.9
62949.2,36000.1
63269.3,35680
63410.7,35680
63730.8,36000.1
63826.9,35971.9
63874.5,35871.3
63901.5,35763.4
63907,35652.2
63890.7,35542.2
63853.2,35437.4
63826.9,35388.1
63730.8,35359.9
63410.7,35680
63269.3,35680
62949.2,35359.9
62853.1,35388.1
62805.5,35488.7
62778.5,35596.6
62773,35707.8
61936.5,35707.8
61936.5,35624.4
61914.7,35515.2
61872.2,35412.4
61810.3,35319.9
61779.6,35289.2
63019.9,35289.2
63340,35609.3
63660.1,35289.2
63631.9,35193.1
63531.3,35145.5
63423.4,35118.5
63312.2,35113
63202.2,35129.3
63097.4,35166.8
63048.1,35193.1
63019.9,35289.2
61779.6,35289.2
61731.6,35241.2
61639.1,35179.3
61536.3,35136.8
61427.1,35115
61315.9,35115
61206.7,35136.8
61103.9,35179.3
61011.4,35241.2
60932.7,35319.9
60870.8,35412.4
60828.2,35515.2
60806.5,35624.4
60806.5,35735.6
60828.2,35844.8
60870.8,35947.6
60932.7,36040.1
61011.4,36118.8
61080.8,36165.2
61080.8,36527.8
61045,36551.7
60971.7,36625
60914.2,36711
60874.6,36806.7
60854.4,36908.2
60854.4,37011.8
60862.8,37054
60306.1,37610.8
59853.8,37610.8
59833.1,37585.5
59763.5,37528.4
59684.2,37486
59598.1,37459.9
59531,37453.3
59309,37453.3
59241.9,37459.9
59155.8,37486
59076.5,37528.4
59006.9,37585.5
58949.9,37655
58907.4,37734.4
58881.3,37820.5
58879.4,37840
58879.2,37839.8
58879.2,37354.7
58880.7,37340
58879.2,37325.3
58879.2,37325.3
58874.9,37281.3
58857.8,37224.9
58839.1,37190
58830,37173
58802,37138.8
58792.6,37127.4
58781.2,37118
58402,36738.8
58392.6,36727.4
58347,36690
58295.1,36662.2
58238.7,36645.1
58194.7,36640.8
58194.7,36640.8
58180,36639.3
58165.3,36640.8
57432.2,36640.8
57408.3,36605
57335,36531.7
57249,36474.2
57153.3,36434.6
57051.8,36414.4
56948.2,36414.4
56846.7,36434.6
56751,36474.2
56665,36531.7
56591.7,36605
56534.2,36691
56494.6,36786.7
56474.4,36888.2
56474.4,36991.8
56482.8,37034
56296.1,37220.8
55792.2,37220.8
55768.3,37185
55695,37111.7
55609,37054.2
55513.3,37014.6
55411.8,36994.4
55308.2,36994.4
55206.7,37014.6
55111,37054.2
55025,37111.7
54951.7,37185
54921.1,37230.8
54119.5,37230.8
54078.8,37169.9
54000.1,37091.2
53907.6,37029.3
53804.8,36986.8
53695.6,36965
53584.4,36965
53475.2,36986.8
53372.4,37029.3
53279.9,37091.2
53201.2,37169.9
53139.3,37262.4
53096.8,37365.2
53075,37474.4
53075,37585.6
53096.8,37694.8
53139.3,37797.6
53201.2,37890.1
53279.9,37968.8
53372.4,38030.7
53475.2,38073.2
53584.4,38095
53695.6,38095
53804.8,38073.2
53907.6,38030.7
54000.1,37968.8
54078.8,37890.1
54119.5,37829.2
54934.5,37829.2
54951.7,37855
55025,37928.3
55111,37985.8
55206.7,38025.4
55308.2,38045.6
55411.8,38045.6
55513.3,38025.4
55609,37985.8
55695,37928.3
55768.3,37855
55792.2,37819.2
56405.3,37819.2
56420,37820.7
56434.7,37819.2
56434.7,37819.2
56478.7,37814.9
56535.1,37797.8
56587,37770
56632.6,37732.6
56642,37721.2
56906,37457.2
56948.2,37465.6
57051.8,37465.6
57153.3,37445.4
57249,37405.8
57335,37348.3
57408.3,37275
57432.2,37239.2
58056.1,37239.2
58280.8,37463.9
58280.8,37949
58279.3,37963.7
58285.1,38022.4
58302.2,38078.8
58330,38130.7
58354,38160
58367.4,38176.3
58378.8,38185.7
58804.3,38611.2
58813.7,38622.6
58825.1,38632
58825.1,38632
58852.3,38654.3
58859.3,38660
58876.9,38669.4
58873.5,38703.3
58873.5,39116.7
58878.3,39165.7
58892.6,39212.8
58915.9,39256.3
58947.1,39294.3
58985.2,39325.6
59028.6,39348.8
59075.7,39363.1
59120.8,39367.5
59120.8,39405.3
59119.3,39420
59120.8,39434.7
59122.4,39451.3
59125.1,39478.7
59142.2,39535.1
59170,39587
59191.8,39613.6
59207.4,39632.6
59218.8,39642
60825,41248.1
60838.2,41314.8
60880.8,41417.6
60942.7,41510.1
61021.4,41588.8
61040.4,41601.6
57714.3,41601.6
56468.4,40355.7
56468.4,40071.2
56491.1,40071.2
56526.4,40168
56580,40256
56649.7,40331.9
56732.9,40392.7
56826.4,40436.1
56868.8,40448.9
56950,40400.4
56950,39990
57050,39990
57050,40400.4
57131.2,40448.9
57173.6,40436.1
57267.1,40392.7
57350.3,40331.9
57420,40256
57473.6,40168
57508.9,40071.2
57460.7,39990
57050,39990
56950,39990
56539.3,39990
56491.1,40071.2
56468.4,40071.2
56468.4,39808.8
56491.1,39808.8
56539.3,39890
56950,39890
56950,39479.6
57050,39479.6
57050,39890
57460.7,39890
57508.9,39808.8
57473.6,39712
57420,39624
57350.3,39548.1
57267.1,39487.3
57173.6,39443.9
57131.2,39431.1
57050,39479.6
56950,39479.6
56868.8,39431.1
56826.4,39443.9
56732.9,39487.3
56649.7,39548.1
56580,39624
56526.4,39712
56491.1,39808.8
56468.4,39808.8
56468.4,39727.1
56470.1,39710
56468.4,39692.9
56468.4,39692.9
56463.4,39641.7
56443.5,39576
56411.1,39515.5
56367.6,39462.4
56354.3,39451.5
56188.5,39285.7
56177.6,39272.4
56124.5,39228.9
56064,39196.5
55998.3,39176.6
55947.1,39171.6
55947.1,39171.6
55930,39169.9
55912.9,39171.6
55754.9,39171.6
55695,39111.7
55609,39054.2
55513.3,39014.6
55411.8,38994.4
55308.2,38994.4
55206.7,39014.6
55111,39054.2
55025,39111.7
54951.7,39185
54894.2,39271
54854.6,39366.7
54834.4,39468.2
54834.4,39571.8
54854.6,39673.3
54894.2,39769
54951.7,39855
55011.6,39914.9
55011.6,41446.5
53687.6,42770.5
53426.6,42596.1
53017.1,42426.5
52582.4,42340
52139.2,42340
51704.5,42426.5
51295,42596.1
50926.5,42842.3
50613.1,43155.7
50366.9,43524.2
50197.3,43933.7
50110.8,44368.4
48891.7,44368.4
48862.7,44122.5
48859.8,44026.1
48859.8,39195
51025.4,39195
51025.4,39825
51032.1,39893.2
51052,39958.8
51084.3,40019.2
51127.8,40072.2
51180.8,40115.7
51241.2,40148
51306.8,40167.9
51375,40174.6
52005,40174.6
52073.2,40167.9
52138.8,40148
52199.2,40115.7
52252.2,40072.2
52295.7,40019.2
52328,39958.8
52347.9,39893.2
52354.6,39825
52354.6,39809.2
53168.1,39809.2
53201.2,39858.6
53279.9,39937.3
53372.4,39999.2
53475.2,40041.8
53584.4,40063.5
53695.6,40063.5
53804.8,40041.8
53907.6,39999.2
54000.1,39937.3
54078.8,39858.6
54140.7,39766.1
54183.2,39663.3
54205,39554.1
54205,39442.9
54183.2,39333.7
54140.7,39230.9
54078.8,39138.4
54000.1,39059.7
53907.6,38997.8
53804.8,38955.3
53695.6,38933.5
53584.4,38933.5
53475.2,38955.3
53372.4,38997.8
53279.9,39059.7
53201.2,39138.4
53152.8,39210.8
52354.6,39210.8
52354.6,39195
52347.9,39126.8
52328,39061.2
52295.7,39000.8
52252.2,38947.8
52199.2,38904.3
52138.8,38872
52073.2,38852.1
52005,38845.4
51375,38845.4
51306.8,38852.1
51241.2,38872
51180.8,38904.3
51127.8,38947.8
51084.3,39000.8
51052,39061.2
51032.1,39126.8
51025.4,39195
48859.8,39195
48859.8,38160
51299.7,38160
51339.7,38266.1
51457.1,38323.6
51583.4,38357
51713.9,38365.1
51843.4,38347.7
51967,38305.3
52040.3,38266.1
52080.3,38160
51690,37769.7
51299.7,38160
48859.8,38160
48859.8,37722.8
51023.8,37722.8
51041.3,37852.3
51083.7,37976
51122.8,38049.2
51229,38089.3
51619.3,37699
51760.7,37699
52151,38089.3
52257.2,38049.2
52314.6,37931.9
52348,37805.5
52356.2,37675.1
52338.7,37545.6
52296.3,37422
52257.2,37348.7
52151,37308.6
51760.7,37699
51619.3,37699
51229,37308.6
51122.8,37348.7
51065.4,37466.1
51032,37592.4
51023.8,37722.8
48859.8,37722.8
48859.8,37237.9
51299.7,37237.9
51690,37628.3
52080.3,37237.9
52040.3,37131.8
51922.9,37074.4
51796.6,37041
51666.1,37032.8
51536.6,37050.3
51413,37092.7
51339.7,37131.8
51299.7,37237.9
48859.8,37237.9
48859.8,36859.9
48887.8,36494
48971.3,36148
49109.1,35819.7
49297.6,35517.7
49531.9,35249.8
49806.1,35022.7
50113,34842.4
50444.8,34713.5
50794.7,34638.9
51098.2,34619.8
65099.3,34619.8
Z" /> 
</g>
</g>
</g>
<g style="fill:#FFFFFF; fill-opacity:1.0; 
stroke:#FFFFFF; stroke-width:100; stroke-opacity:1; 
stroke-linecap:round; stroke-linejoin:round;">
</g>
<g style="fill:#FFFFFF; fill-opacity:1.0; 
stroke:#FFFFFF; stroke-width:0; stroke-opacity:1; 
stroke-linecap:round; stroke-linejoin:round;">
<circle cx="53640" cy="37530" r="157.48" /> 
</g>
<g style="fill:#FFFFFF; fill-opacity:1.0; 
stroke:#FFFFFF; stroke-width:39.3701; stroke-opacity:1; 
stroke-linecap:round; stroke-linejoin:round;">
</g>
<g style="fill:#FFFFFF; fill-opacity:1.0; 
stroke:#FFFFFF; stroke-width:0; stroke-opacity:1; 
stroke-linecap:round; stroke-linejoin:round;">
<circle cx="53640" cy="39498.5" r="157.48" /> 
</g>
<g style="fill:#FFFFFF; fill-opacity:1.0; 
stroke:#FFFFFF; stroke-width:39.3701; stroke-opacity:1; 
stroke-linecap:round; stroke-linejoin:round;">
</g>
<g style="fill:#FFFFFF; fill-opacity:1.0; 
stroke:#FFFFFF; stroke-width:0; stroke-opacity:1; 
stroke-linecap:round; stroke-linejoin:round;">
<circle cx="61371.5" cy="35680" r="157.48" /> 
</g>
<g style="fill:#FFFFFF; fill-opacity:1.0; 
stroke:#FFFFFF; stroke-width:39.3701; stroke-opacity:1; 
stroke-linecap:round; stroke-linejoin:round;">
</g>
<g style="fill:#FFFFFF; fill-opacity:1.0; 
stroke:#FFFFFF; stroke-width:0; stroke-opacity:1; 
stroke-linecap:round; stroke-linejoin:round;">
<circle cx="63340" cy="35680" r="157.48" /> 
</g>
<g style="fill:#FFFFFF; fill-opacity:1.0; 
stroke:#FFFFFF; stroke-width:39.3701; stroke-opacity:1; 
stroke-linecap:round; stroke-linejoin:round;">
</g>
<g style="fill:#FFFFFF; fill-opacity:1.0; 
stroke:#FFFFFF; stroke-width:0; stroke-opacity:1; 
stroke-linecap:round; stroke-linejoin:round;">
<circle cx="63350" cy="41150" r="157.48" /> 
</g>
<g style="fill:#FFFFFF; fill-opacity:1.0; 
stroke:#FFFFFF; stroke-width:39.3701; stroke-opacity:1; 
stroke-linecap:round; stroke-linejoin:round;">
</g>
<g style="fill:#FFFFFF; fill-opacity:1.0; 
stroke:#FFFFFF; stroke-width:0; stroke-opacity:1; 
stroke-linecap:round; stroke-linejoin:round;">
<circle cx="61381.5" cy="41150" r="157.48" /> 
</g>
<g style="fill:#FFFFFF; fill-opacity:1.0; 
stroke:#FFFFFF; stroke-width:39.3701; stroke-opacity:1; 
stroke-linecap:round; stroke-linejoin:round;">
</g>
<g style="fill:#FFFFFF; fill-opacity:1.0; 
stroke:#FFFFFF; stroke-width:0; stroke-opacity:1; 
stroke-linecap:round; stroke-linejoin:round;">
<circle cx="51690" cy="39510" r="216.535" /> 
</g>
<g style="fill:#FFFFFF; fill-opacity:1.0; 
stroke:#FFFFFF; stroke-width:39.3701; stroke-opacity:1; 
stroke-linecap:round; stroke-linejoin:round;">
</g>
<g style="fill:#FFFFFF; fill-opacity:1.0; 
stroke:#FFFFFF; stroke-width:0; stroke-opacity:1; 
stroke-linecap:round; stroke-linejoin:round;">
<circle cx="51690" cy="37699" r="216.535" /> 
</g>
<g style="fill:#FFFFFF; fill-opacity:1.0; 
stroke:#FFFFFF; stroke-width:39.3701; stroke-opacity:1; 
stroke-linecap:round; stroke-linejoin:round;">
</g>
<g style="fill:#FFFFFF; fill-opacity:1.0; 
stroke:#FFFFFF; stroke-width:0; stroke-opacity:1; 
stroke-linecap:round; stroke-linejoin:round;">
<circle cx="64510" cy="37569" r="216.535" /> 
</g>
<g style="fill:#FFFFFF; fill-opacity:1.0; 
stroke:#FFFFFF; stroke-width:39.3701; stroke-opacity:1; 
stroke-linecap:round; stroke-linejoin:round;">
</g>
<g style="fill:#FFFFFF; fill-opacity:1.0; 
stroke:#FFFFFF; stroke-width:0; stroke-opacity:1; 
stroke-linecap:round; stroke-linejoin:round;">
<circle cx="64510" cy="39380" r="216.535" /> 
</g>
<g style="fill:#FFFFFF; fill-opacity:1.0; 
stroke:#FFFFFF; stroke-width:39.3701; stroke-opacity:1; 
stroke-linecap:round; stroke-linejoin:round;">
</g>
<g style="fill:#FFFFFF; fill-opacity:1.0; 
stroke:#FFFFFF; stroke-width:0; stroke-opacity:1; 
stroke-linecap:round; stroke-linejoin:round;">
<circle cx="59420" cy="38410" r="147.638" /> 
</g>
<g style="fill:#FFFFFF; fill-opacity:1.0; 
stroke:#FFFFFF; stroke-width:39.3701; stroke-opacity:1; 
stroke-linecap:round; stroke-linejoin:round;">
</g>
<g style="fill:#FFFFFF; fill-opacity:1.0; 
stroke:#FFFFFF; stroke-width:0; stroke-opacity:1; 
stroke-linecap:round; stroke-linejoin:round;">
<circle cx="59420" cy="37910" r="147.638" /> 
</g>
<g style="fill:#FFFFFF; fill-opacity:1.0; 
stroke:#FFFFFF; stroke-width:39.3701; stroke-opacity:1; 
stroke-linecap:round; stroke-linejoin:round;">
</g>
<g style="fill:#FFFFFF; fill-opacity:1.0; 
stroke:#FFFFFF; stroke-width:0; stroke-opacity:1; 
stroke-linecap:round; stroke-linejoin:round;">
<circle cx="59420" cy="38910" r="147.638" /> 
</g>
<g style="fill:#FFFFFF; fill-opacity:1.0; 
stroke:#FFFFFF; stroke-width:39.3701; stroke-opacity:1; 
stroke-linecap:round; stroke-linejoin:round;">
</g>
<g style="fill:#FFFFFF; fill-opacity:1.0; 
stroke:#FFFFFF; stroke-width:0; stroke-opacity:1; 
stroke-linecap:round; stroke-linejoin:round;">
<circle cx="55360" cy="39520" r="137.795" /> 
</g>
<g style="fill:#FFFFFF; fill-opacity:1.0; 
stroke:#FFFFFF; stroke-width:39.3701; stroke-opacity:1; 
stroke-linecap:round; stroke-linejoin:round;">
</g>
<g style="fill:#FFFFFF; fill-opacity:1.0; 
stroke:#FFFFFF; stroke-width:0; stroke-opacity:1; 
stroke-linecap:round; stroke-linejoin:round;">
<circle cx="55360" cy="37520" r="137.795" /> 
</g>
<g style="fill:#FFFFFF; fill-opacity:1.0; 
stroke:#FFFFFF; stroke-width:39.3701; stroke-opacity:1; 
stroke-linecap:round; stroke-linejoin:round;">
</g>
<g style="fill:#FFFFFF; fill-opacity:1.0; 
stroke:#FFFFFF; stroke-width:0; stroke-opacity:1; 
stroke-linecap:round; stroke-linejoin:round;">
<circle cx="57000" cy="36940" r="137.795" /> 
</g>
<g style="fill:#FFFFFF; fill-opacity:1.0; 
stroke:#FFFFFF; stroke-width:39.3701; stroke-opacity:1; 
stroke-linecap:round; stroke-linejoin:round;">
</g>
<g style="fill:#FFFFFF; fill-opacity:1.0; 
stroke:#FFFFFF; stroke-width:0; stroke-opacity:1; 
stroke-linecap:round; stroke-linejoin:round;">
<circle cx="57000" cy="39940" r="137.795" /> 
</g>
<g style="fill:#FFFFFF; fill-opacity:1.0; 
stroke:#FFFFFF; stroke-width:39.3701; stroke-opacity:1; 
stroke-linecap:round; stroke-linejoin:round;">
</g>
<g style="fill:#FFFFFF; fill-opacity:1.0; 
stroke:#FFFFFF; stroke-width:0; stroke-opacity:1; 
stroke-linecap:round; stroke-linejoin:round;">
<circle cx="62810" cy="39970" r="137.795" /> 
</g>
<g style="fill:#FFFFFF; fill-opacity:1.0; 
stroke:#FFFFFF; stroke-width:39.3701; stroke-opacity:1; 
stroke-linecap:round; stroke-linejoin:round;">
</g>
<g style="fill:#FFFFFF; fill-opacity:1.0; 
stroke:#FFFFFF; stroke-width:0; stroke-opacity:1; 
stroke-linecap:round; stroke-linejoin:round;">
<circle cx="62810" cy="36970" r="137.795" /> 
</g>
<g style="fill:#FFFFFF; fill-opacity:1.0; 
stroke:#FFFFFF; stroke-width:39.3701; stroke-opacity:1; 
stroke-linecap:round; stroke-linejoin:round;">
</g>
<g style="fill:#FFFFFF; fill-opacity:1.0; 
stroke:#FFFFFF; stroke-width:0; stroke-opacity:1; 
stroke-linecap:round; stroke-linejoin:round;">
<circle cx="61380" cy="36960" r="137.795" /> 
</g>
<g style="fill:#FFFFFF; fill-opacity:1.0; 
stroke:#FFFFFF; stroke-width:39.3701; stroke-opacity:1; 
stroke-linecap:round; stroke-linejoin:round;">
</g>
<g style="fill:#FFFFFF; fill-opacity:1.0; 
stroke:#FFFFFF; stroke-width:0; stroke-opacity:1; 
stroke-linecap:round; stroke-linejoin:round;">
<circle cx="61380" cy="39960" r="137.795" /> 
</g>
<g style="fill:#FFFFFF; fill-opacity:1.0; 
stroke:#FFFFFF; stroke-width:39.3701; stroke-opacity:1; 
stroke-linecap:round; stroke-linejoin:round;">
</g>
<g style="fill:#FFFFFF; fill-opacity:1.0; 
stroke:#FFFFFF; stroke-width:0; stroke-opacity:1; 
stroke-linecap:round; stroke-linejoin:round;">
<circle cx="52360.8" cy="44590" r="1200.79" /> 
</g>
<g style="fill:#FFFFFF; fill-opacity:1.0; 
stroke:#FFFFFF; stroke-width:39.3701; stroke-opacity:1; 
stroke-linecap:round; stroke-linejoin:round;">
</g>
<g style="fill:#FFFFFF; fill-opacity:1.0; 
stroke:#FFFFFF; stroke-width:0; stroke-opacity:1; 
stroke-linecap:round; stroke-linejoin:round;">
<circle cx="64160" cy="44590" r="1200.79" /> 
</g>
<g style="fill:#FFFFFF; fill-opacity:1.0; 
stroke:#FFFFFF; stroke-width:39.3701; stroke-opacity:1; 
stroke-linecap:round; stroke-linejoin:round;">
</g>
<g style="fill:#000000; fill-opacity:1.0; 
stroke:#000000; stroke-width:39.3701; stroke-opacity:1; 
stroke-linecap:round; stroke-linejoin:round;">
</g>
<g style="fill:#C2C200; fill-opacity:1.0; 
stroke:#C2C200; stroke-width:39.3701; stroke-opacity:1; 
stroke-linecap:round; stroke-linejoin:round;">
</g>
<g style="fill:#C2C200; fill-opacity:1.0; 
stroke:#C2C200; stroke-width:19.685; stroke-opacity:1; 
stroke-linecap:round; stroke-linejoin:round;">
</g>
<g style="fill:#C2C200; fill-opacity:0.0; 
stroke:#C2C200; stroke-width:19.685; stroke-opacity:1; 
stroke-linecap:round; stroke-linejoin:round;">
<path d="M67400 36650
L67440 44364
" />
<path d="M51830 47179
L64570 47180
" />
<path d="M64570 47180 A2840.16 2840.16 0.0 0 0 67440 44364.8" />
<path d="M48600 36850
L48600 44030
" />
<path d="M48600 44030 A3190.25 3190.25 0.0 0 0 51830.4 47180" />
<path d="M51090 34360
L65110 34360
" />
<path d="M67400 36650 A2290 2290 0.0 0 0 65110 34360" />
<path d="M51090 34360 A2480.02 2480.02 0.0 0 0 48600 36850" />
<g >
</g>
<g >
</g>
<g >
</g>
<g >
</g>
<g >
</g>
<g >
</g>
<g >
</g>
<g >
</g>
<g >
</g>
<g >
</g>
<g >
</g>
<g >
</g>
</g> 
</svg>
