M48
; DRILL file {KiCad (5.1.7)-1} date 12/16/20 00:45:33
; FORMAT={-:-/ absolute / metric / decimal}
; #@! TF.CreationDate,2020-12-16T00:45:33+02:00
; #@! TF.GenerationSoftware,Kicad,Pcbnew,(5.1.7)-1
; #@! TF.FileFunction,Plated,1,2,PTH
FMAT,2
METRIC
T1C0.700
T2C0.750
T3C0.800
T4C1.100
T5C6.100
%
G90
G05
T1
X140.614Y-95.301
X140.614Y-100.381
X144.78Y-93.828
X144.78Y-101.448
X155.905Y-93.878
X155.905Y-101.498
X159.537Y-93.904
X159.537Y-101.524
T2
X150.927Y-96.291
X150.927Y-97.561
X150.927Y-98.831
T3
X155.909Y-104.521
X160.909Y-104.521
X136.246Y-95.326
X136.246Y-100.326
X155.884Y-90.627
X160.884Y-90.627
T4
X131.293Y-95.755
X131.293Y-100.355
X163.855Y-95.425
X163.855Y-100.025
T5
X132.996Y-113.259
X162.966Y-113.259
T0
M30
