M48
; DRILL file {KiCad (5.1.7)-1} date 12/16/20 00:37:35
; FORMAT={-:-/ absolute / inch / decimal}
; #@! TF.CreationDate,2020-12-16T00:37:35+02:00
; #@! TF.GenerationSoftware,Kicad,Pcbnew,(5.1.7)-1
; #@! TF.FileFunction,Plated,1,2,PTH
FMAT,2
INCH
T1C0.0276
T2C0.0295
T3C0.0315
T4C0.0433
T5C0.2402
%
G90
G05
T1
X6.138Y-3.696
X6.138Y-3.996
X6.281Y-3.697
X6.281Y-3.997
X5.7Y-3.694
X5.7Y-3.994
X5.536Y-3.752
X5.536Y-3.952
T2
X5.942Y-3.791
X5.942Y-3.841
X5.942Y-3.891
T3
X5.364Y-3.753
X5.364Y-3.9499
X6.1381Y-4.115
X6.335Y-4.115
X6.1371Y-3.568
X6.334Y-3.568
T4
X5.169Y-3.7699
X5.169Y-3.951
X6.451Y-3.7569
X6.451Y-3.938
T5
X5.2361Y-4.459
X6.416Y-4.459
T0
M30
