G04 #@! TF.GenerationSoftware,KiCad,Pcbnew,(5.1.7)-1*
G04 #@! TF.CreationDate,2021-01-26T00:26:03+02:00*
G04 #@! TF.ProjectId,LORA,4c4f5241-2e6b-4696-9361-645f70636258,V 2.0*
G04 #@! TF.SameCoordinates,Original*
G04 #@! TF.FileFunction,Copper,L2,Bot*
G04 #@! TF.FilePolarity,Positive*
%FSLAX46Y46*%
G04 Gerber Fmt 4.6, Leading zero omitted, Abs format (unit mm)*
G04 Created by KiCad (PCBNEW (5.1.7)-1) date 2021-01-26 00:26:03*
%MOMM*%
%LPD*%
G01*
G04 APERTURE LIST*
G04 #@! TA.AperFunction,NonConductor*
%ADD10C,0.300000*%
G04 #@! TD*
G04 #@! TA.AperFunction,ComponentPad*
%ADD11O,1.600000X1.600000*%
G04 #@! TD*
G04 #@! TA.AperFunction,ComponentPad*
%ADD12R,1.600000X1.600000*%
G04 #@! TD*
G04 #@! TA.AperFunction,ComponentPad*
%ADD13O,1.700000X1.700000*%
G04 #@! TD*
G04 #@! TA.AperFunction,ComponentPad*
%ADD14R,1.700000X1.700000*%
G04 #@! TD*
G04 #@! TA.AperFunction,ComponentPad*
%ADD15C,2.340000*%
G04 #@! TD*
G04 #@! TA.AperFunction,ComponentPad*
%ADD16R,1.200000X1.200000*%
G04 #@! TD*
G04 #@! TA.AperFunction,ComponentPad*
%ADD17C,1.200000*%
G04 #@! TD*
G04 #@! TA.AperFunction,ComponentPad*
%ADD18R,1.500000X1.500000*%
G04 #@! TD*
G04 #@! TA.AperFunction,ComponentPad*
%ADD19O,1.500000X1.500000*%
G04 #@! TD*
G04 #@! TA.AperFunction,ComponentPad*
%ADD20R,3.000000X3.000000*%
G04 #@! TD*
G04 #@! TA.AperFunction,ComponentPad*
%ADD21C,3.000000*%
G04 #@! TD*
G04 #@! TA.AperFunction,ViaPad*
%ADD22C,0.800000*%
G04 #@! TD*
G04 #@! TA.AperFunction,Conductor*
%ADD23C,1.000000*%
G04 #@! TD*
G04 #@! TA.AperFunction,Conductor*
%ADD24C,0.500000*%
G04 #@! TD*
G04 APERTURE END LIST*
D10*
X177943771Y-86529600D02*
X179443771Y-86842100D01*
X177943771Y-87529600D01*
X179443771Y-87842100D02*
X178443771Y-87967100D01*
X177943771Y-88029600D02*
X178015200Y-87949242D01*
X178086628Y-88011742D01*
X178015200Y-88092100D01*
X177943771Y-88029600D01*
X178086628Y-88011742D01*
X179443771Y-88770671D02*
X179372342Y-88636742D01*
X179229485Y-88583171D01*
X177943771Y-88743885D01*
X179515200Y-88547457D02*
X179586628Y-88681385D01*
X179729485Y-88734957D01*
X179872342Y-88645671D01*
X179943771Y-88493885D01*
X179943771Y-88279600D01*
X179372342Y-89922457D02*
X179443771Y-89770671D01*
X179443771Y-89484957D01*
X179372342Y-89351028D01*
X179229485Y-89297457D01*
X178658057Y-89368885D01*
X178515200Y-89458171D01*
X178443771Y-89609957D01*
X178443771Y-89895671D01*
X178515200Y-90029600D01*
X178658057Y-90083171D01*
X178800914Y-90065314D01*
X178943771Y-89333171D01*
X178443771Y-90609957D02*
X179443771Y-90842100D01*
X178443771Y-91324242D01*
X179443771Y-91770671D02*
X177943771Y-91958171D01*
X178872342Y-91984957D02*
X179443771Y-92342100D01*
X178443771Y-92467100D02*
X179015200Y-91824242D01*
X179443771Y-93627814D02*
X178658057Y-93726028D01*
X178515200Y-93672457D01*
X178443771Y-93538528D01*
X178443771Y-93252814D01*
X178515200Y-93101028D01*
X179372342Y-93636742D02*
X179443771Y-93484957D01*
X179443771Y-93127814D01*
X179372342Y-92993885D01*
X179229485Y-92940314D01*
X179086628Y-92958171D01*
X178943771Y-93047457D01*
X178872342Y-93199242D01*
X178872342Y-93556385D01*
X178800914Y-93708171D01*
X178086628Y-95583171D02*
X178015200Y-95663528D01*
X177943771Y-95815314D01*
X177943771Y-96172457D01*
X178015200Y-96306385D01*
X178086628Y-96368885D01*
X178229485Y-96422457D01*
X178372342Y-96404600D01*
X178586628Y-96306385D01*
X179443771Y-95342100D01*
X179443771Y-96270671D01*
X178658057Y-97011742D02*
X178658057Y-97511742D01*
X179443771Y-97627814D02*
X179443771Y-96913528D01*
X177943771Y-97101028D01*
X177943771Y-97815314D01*
X179443771Y-98270671D02*
X177943771Y-98458171D01*
X178658057Y-99583171D02*
X178729485Y-99788528D01*
X178800914Y-99851028D01*
X178943771Y-99904600D01*
X179158057Y-99877814D01*
X179300914Y-99788528D01*
X179372342Y-99708171D01*
X179443771Y-99556385D01*
X179443771Y-98984957D01*
X177943771Y-99172457D01*
X177943771Y-99672457D01*
X178015200Y-99806385D01*
X178086628Y-99868885D01*
X178229485Y-99922457D01*
X178372342Y-99904600D01*
X178515200Y-99815314D01*
X178586628Y-99734957D01*
X178658057Y-99583171D01*
X178658057Y-99083171D01*
D11*
X173863000Y-66167000D03*
X176403000Y-66167000D03*
X136783000Y-66167000D03*
X176403000Y-114427000D03*
X139323000Y-66167000D03*
X173863000Y-114427000D03*
X141863000Y-66167000D03*
X171323000Y-114427000D03*
X144403000Y-66167000D03*
X168783000Y-114427000D03*
X146943000Y-66167000D03*
X166243000Y-114427000D03*
X149483000Y-66167000D03*
X163703000Y-114427000D03*
X152023000Y-66167000D03*
X158623000Y-114427000D03*
X154563000Y-66167000D03*
X156083000Y-114427000D03*
X158623000Y-66167000D03*
X153543000Y-114427000D03*
X161163000Y-66167000D03*
X151003000Y-114427000D03*
X163703000Y-66167000D03*
X148463000Y-114427000D03*
X166243000Y-66167000D03*
X145923000Y-114427000D03*
X168783000Y-66167000D03*
X143383000Y-114427000D03*
X171323000Y-66167000D03*
D12*
X140843000Y-114427000D03*
D11*
X134243000Y-66167000D03*
X131703000Y-66167000D03*
D13*
X134289800Y-66192400D03*
D14*
X131749800Y-66192400D03*
D13*
X163703000Y-114452400D03*
X166243000Y-114452400D03*
X168783000Y-114452400D03*
X171323000Y-114452400D03*
X173863000Y-114452400D03*
D14*
X176403000Y-114452400D03*
D13*
X151587200Y-109575600D03*
X151587200Y-107035600D03*
X151587200Y-104495600D03*
X151587200Y-101955600D03*
X151587200Y-99415600D03*
X151587200Y-96875600D03*
X151587200Y-94335600D03*
X151587200Y-91795600D03*
X151587200Y-89255600D03*
X151587200Y-86715600D03*
X151587200Y-84175600D03*
X151587200Y-81635600D03*
X151587200Y-79095600D03*
X151587200Y-76555600D03*
X151587200Y-74015600D03*
D14*
X151587200Y-71475600D03*
D15*
X170764200Y-107772200D03*
X173264200Y-102772200D03*
X175764200Y-107772200D03*
D13*
X134874000Y-112395000D03*
X132334000Y-112395000D03*
X129794000Y-112395000D03*
X127254000Y-112395000D03*
X124714000Y-112395000D03*
X122174000Y-112395000D03*
X119634000Y-112395000D03*
D14*
X117094000Y-112395000D03*
D13*
X117094000Y-87249000D03*
X119634000Y-87249000D03*
X122174000Y-87249000D03*
X124714000Y-87249000D03*
X127254000Y-87249000D03*
X129794000Y-87249000D03*
X132334000Y-87249000D03*
D14*
X134874000Y-87249000D03*
D16*
X125330200Y-73863200D03*
D17*
X127330200Y-73863200D03*
D18*
X124231400Y-83845400D03*
D19*
X134391400Y-83845400D03*
D20*
X116713000Y-68224400D03*
D21*
X121793000Y-68224400D03*
D22*
X145821400Y-112318800D03*
X161705000Y-104047000D03*
X157149800Y-109651800D03*
X138709400Y-68300600D03*
X148513800Y-75336400D03*
X159131000Y-78689200D03*
X156083000Y-100101400D03*
X120192800Y-81203800D03*
X166243000Y-74879200D03*
X168783000Y-75107800D03*
X156718000Y-64389000D03*
X128498600Y-70459600D03*
D23*
X147116800Y-112318800D02*
X145821400Y-112318800D01*
X157646170Y-112318800D02*
X147116800Y-112318800D01*
X158623000Y-113295630D02*
X157646170Y-112318800D01*
X158623000Y-114427000D02*
X158623000Y-113295630D01*
X157149800Y-106045000D02*
X157149800Y-109651800D01*
X157149800Y-104749600D02*
X157149800Y-106045000D01*
X157852400Y-104047000D02*
X157149800Y-104749600D01*
X161705000Y-104047000D02*
X157852400Y-104047000D01*
D24*
X151003000Y-115558370D02*
X151522630Y-116078000D01*
X151003000Y-114427000D02*
X151003000Y-115558370D01*
X151522630Y-116078000D02*
X159816800Y-116078000D01*
X168122600Y-107772200D02*
X170764200Y-107772200D01*
X164693600Y-111201200D02*
X168122600Y-107772200D01*
X153568400Y-107035600D02*
X151587200Y-107035600D01*
X154063700Y-107530900D02*
X153568400Y-107035600D01*
X154063700Y-110629700D02*
X154063700Y-107530900D01*
X154635200Y-111201200D02*
X154063700Y-110629700D01*
X161086800Y-111328200D02*
X160959800Y-111201200D01*
X161086800Y-114808000D02*
X161086800Y-111328200D01*
X160959800Y-111201200D02*
X154635200Y-111201200D01*
X164693600Y-111201200D02*
X160959800Y-111201200D01*
X159816800Y-116078000D02*
X161086800Y-114808000D01*
X148513800Y-75886919D02*
X148513800Y-106095800D01*
X149453600Y-107035600D02*
X151587200Y-107035600D01*
X148513800Y-106095800D02*
X149453600Y-107035600D01*
D23*
X149199600Y-74015600D02*
X148666200Y-74549000D01*
X151587200Y-74015600D02*
X149199600Y-74015600D01*
D24*
X148666200Y-74549000D02*
X148513800Y-74701400D01*
D23*
X148513800Y-74701400D02*
X149199600Y-74015600D01*
X137785230Y-68300600D02*
X138709400Y-68300600D01*
X148513800Y-75886919D02*
X148513800Y-75336400D01*
X148513800Y-75336400D02*
X148513800Y-74701400D01*
X136783000Y-66167000D02*
X136783000Y-67298370D01*
X136783000Y-67298370D02*
X137785230Y-68300600D01*
X140122999Y-67199599D02*
X140436600Y-67513200D01*
X140122999Y-66966999D02*
X140122999Y-67199599D01*
X139323000Y-66167000D02*
X140122999Y-66966999D01*
X139323000Y-66167000D02*
X139323000Y-67110800D01*
D24*
X141863000Y-66167000D02*
X141863000Y-79726600D01*
X141863000Y-79726600D02*
X137312400Y-84277200D01*
X137312400Y-84277200D02*
X137312400Y-91414600D01*
X124714000Y-104013000D02*
X124714000Y-112395000D01*
X137312400Y-91414600D02*
X124714000Y-104013000D01*
X144403000Y-66167000D02*
X144403000Y-67298370D01*
X144403000Y-67298370D02*
X143113001Y-68588369D01*
X127254000Y-104368600D02*
X127254000Y-112395000D01*
X139725400Y-91897200D02*
X127254000Y-104368600D01*
X139725400Y-84328000D02*
X139725400Y-91897200D01*
X143113001Y-80940399D02*
X139725400Y-84328000D01*
X143113001Y-68588369D02*
X143113001Y-80940399D01*
X146943000Y-67298370D02*
X144703800Y-69537570D01*
X146943000Y-66167000D02*
X146943000Y-67298370D01*
X144703800Y-69537570D02*
X144703800Y-82219800D01*
X144703800Y-82219800D02*
X142189200Y-84734400D01*
X142189200Y-84734400D02*
X142189200Y-92659200D01*
X129794000Y-105054400D02*
X129794000Y-112395000D01*
X142189200Y-92659200D02*
X129794000Y-105054400D01*
X132334000Y-105511600D02*
X132334000Y-112395000D01*
X144170400Y-93675200D02*
X132334000Y-105511600D01*
X149483000Y-66167000D02*
X149483000Y-67298370D01*
X149483000Y-67298370D02*
X146202400Y-70578970D01*
X146202400Y-70578970D02*
X146202400Y-82981800D01*
X146202400Y-82981800D02*
X146177000Y-82981800D01*
X146177000Y-82981800D02*
X144170400Y-84988400D01*
X144170400Y-84988400D02*
X144170400Y-93675200D01*
X152023000Y-66167000D02*
X152023000Y-65035630D01*
X151401770Y-64414400D02*
X151684985Y-64697615D01*
X150270400Y-64414400D02*
X151401770Y-64414400D01*
X152023000Y-65035630D02*
X151684985Y-64697615D01*
X151684985Y-64697615D02*
X151477970Y-64490600D01*
X130784600Y-64414400D02*
X129768600Y-65430400D01*
X150270400Y-64414400D02*
X130784600Y-64414400D01*
X129768600Y-65430400D02*
X129768600Y-82727800D01*
X127254000Y-87985600D02*
X127127000Y-88112600D01*
X127254000Y-85242400D02*
X127254000Y-87985600D01*
X127254000Y-85242400D02*
X129768600Y-82727800D01*
X127254000Y-87249000D02*
X127254000Y-85242400D01*
D23*
X166243000Y-66167000D02*
X166243000Y-74879200D01*
X168783000Y-66167000D02*
X168783000Y-75107800D01*
D24*
X169545000Y-64389000D02*
X160782000Y-64389000D01*
X171323000Y-66167000D02*
X169545000Y-64389000D01*
D23*
X156718000Y-64389000D02*
X157302200Y-64389000D01*
D24*
X160782000Y-64389000D02*
X157302200Y-64389000D01*
D23*
X128498600Y-70478115D02*
X128498600Y-71043800D01*
D24*
X124714000Y-87249000D02*
X124714000Y-86004400D01*
X124714000Y-86004400D02*
X128498600Y-82219800D01*
X128498600Y-82219800D02*
X128498600Y-72313800D01*
X128498600Y-72313800D02*
X128498600Y-71043800D01*
X171504600Y-102772200D02*
X173264200Y-102772200D01*
X161290000Y-92557600D02*
X171504600Y-102772200D01*
X161290000Y-79273400D02*
X161290000Y-92557600D01*
X158572200Y-76555600D02*
X161290000Y-79273400D01*
X151587200Y-76555600D02*
X158572200Y-76555600D01*
M02*
