M48
; DRILL file {KiCad (5.1.7)-1} date 01/26/21 00:26:21
; FORMAT={-:-/ absolute / metric / decimal}
; #@! TF.CreationDate,2021-01-26T00:26:21+02:00
; #@! TF.GenerationSoftware,Kicad,Pcbnew,(5.1.7)-1
; #@! TF.FileFunction,Plated,1,2,PTH
FMAT,2
METRIC
T1C0.400
T2C0.600
T3C0.750
T4C0.800
T5C1.000
T6C1.300
T7C1.520
%
G90
G05
T1
X120.193Y-81.204
X128.499Y-70.46
X138.709Y-68.301
X145.821Y-112.319
X148.514Y-75.336
X156.083Y-100.101
X156.718Y-64.389
X157.15Y-109.652
X159.131Y-78.689
X161.705Y-104.047
X166.243Y-74.879
X168.783Y-75.108
T2
X125.33Y-73.863
X127.33Y-73.863
T3
X124.231Y-83.845
X134.391Y-83.845
T4
X131.703Y-66.167
X134.243Y-66.167
X136.783Y-66.167
X139.323Y-66.167
X140.843Y-114.427
X141.863Y-66.167
X143.383Y-114.427
X144.403Y-66.167
X145.923Y-114.427
X146.943Y-66.167
X148.463Y-114.427
X149.483Y-66.167
X151.003Y-114.427
X152.023Y-66.167
X153.543Y-114.427
X154.563Y-66.167
X156.083Y-114.427
X158.623Y-66.167
X158.623Y-114.427
X161.163Y-66.167
X163.703Y-66.167
X163.703Y-114.427
X166.243Y-66.167
X166.243Y-114.427
X168.783Y-66.167
X168.783Y-114.427
X171.323Y-66.167
X171.323Y-114.427
X173.863Y-66.167
X173.863Y-114.427
X176.403Y-66.167
X176.403Y-114.427
T5
X117.094Y-87.249
X119.634Y-87.249
X122.174Y-87.249
X124.714Y-87.249
X127.254Y-87.249
X129.794Y-87.249
X132.334Y-87.249
X134.874Y-87.249
X131.75Y-66.192
X134.29Y-66.192
X163.703Y-114.452
X166.243Y-114.452
X168.783Y-114.452
X171.323Y-114.452
X173.863Y-114.452
X176.403Y-114.452
X117.094Y-112.395
X119.634Y-112.395
X122.174Y-112.395
X124.714Y-112.395
X127.254Y-112.395
X129.794Y-112.395
X132.334Y-112.395
X134.874Y-112.395
X151.587Y-71.476
X151.587Y-74.016
X151.587Y-76.556
X151.587Y-79.096
X151.587Y-81.636
X151.587Y-84.176
X151.587Y-86.716
X151.587Y-89.256
X151.587Y-91.796
X151.587Y-94.336
X151.587Y-96.876
X151.587Y-99.416
X151.587Y-101.956
X151.587Y-104.496
X151.587Y-107.036
X151.587Y-109.576
T6
X170.764Y-107.772
X173.264Y-102.772
X175.764Y-107.772
T7
X116.713Y-68.224
X121.793Y-68.224
T0
M30
