G04 #@! TF.GenerationSoftware,KiCad,Pcbnew,(5.1.7)-1*
G04 #@! TF.CreationDate,2021-01-26T00:26:03+02:00*
G04 #@! TF.ProjectId,LORA,4c4f5241-2e6b-4696-9361-645f70636258,V 2.0*
G04 #@! TF.SameCoordinates,Original*
G04 #@! TF.FileFunction,Copper,L1,Top*
G04 #@! TF.FilePolarity,Positive*
%FSLAX46Y46*%
G04 Gerber Fmt 4.6, Leading zero omitted, Abs format (unit mm)*
G04 Created by KiCad (PCBNEW (5.1.7)-1) date 2021-01-26 00:26:03*
%MOMM*%
%LPD*%
G01*
G04 APERTURE LIST*
G04 #@! TA.AperFunction,ComponentPad*
%ADD10O,1.600000X1.600000*%
G04 #@! TD*
G04 #@! TA.AperFunction,ComponentPad*
%ADD11R,1.600000X1.600000*%
G04 #@! TD*
G04 #@! TA.AperFunction,SMDPad,CuDef*
%ADD12R,1.800000X0.800000*%
G04 #@! TD*
G04 #@! TA.AperFunction,ComponentPad*
%ADD13O,1.700000X1.700000*%
G04 #@! TD*
G04 #@! TA.AperFunction,ComponentPad*
%ADD14R,1.700000X1.700000*%
G04 #@! TD*
G04 #@! TA.AperFunction,SMDPad,CuDef*
%ADD15R,1.290000X0.390000*%
G04 #@! TD*
G04 #@! TA.AperFunction,ComponentPad*
%ADD16C,2.340000*%
G04 #@! TD*
G04 #@! TA.AperFunction,SMDPad,CuDef*
%ADD17R,2.200000X1.050000*%
G04 #@! TD*
G04 #@! TA.AperFunction,SMDPad,CuDef*
%ADD18R,1.050000X1.000000*%
G04 #@! TD*
G04 #@! TA.AperFunction,ComponentPad*
%ADD19R,1.200000X1.200000*%
G04 #@! TD*
G04 #@! TA.AperFunction,ComponentPad*
%ADD20C,1.200000*%
G04 #@! TD*
G04 #@! TA.AperFunction,ComponentPad*
%ADD21R,1.500000X1.500000*%
G04 #@! TD*
G04 #@! TA.AperFunction,ComponentPad*
%ADD22O,1.500000X1.500000*%
G04 #@! TD*
G04 #@! TA.AperFunction,ComponentPad*
%ADD23R,3.000000X3.000000*%
G04 #@! TD*
G04 #@! TA.AperFunction,ComponentPad*
%ADD24C,3.000000*%
G04 #@! TD*
G04 #@! TA.AperFunction,SMDPad,CuDef*
%ADD25C,0.100000*%
G04 #@! TD*
G04 #@! TA.AperFunction,ViaPad*
%ADD26C,0.800000*%
G04 #@! TD*
G04 #@! TA.AperFunction,Conductor*
%ADD27C,1.000000*%
G04 #@! TD*
G04 #@! TA.AperFunction,Conductor*
%ADD28C,0.500000*%
G04 #@! TD*
G04 #@! TA.AperFunction,Conductor*
%ADD29C,0.400000*%
G04 #@! TD*
G04 APERTURE END LIST*
D10*
X173863000Y-66167000D03*
X176403000Y-66167000D03*
X136783000Y-66167000D03*
X176403000Y-114427000D03*
X139323000Y-66167000D03*
X173863000Y-114427000D03*
X141863000Y-66167000D03*
X171323000Y-114427000D03*
X144403000Y-66167000D03*
X168783000Y-114427000D03*
X146943000Y-66167000D03*
X166243000Y-114427000D03*
X149483000Y-66167000D03*
X163703000Y-114427000D03*
X152023000Y-66167000D03*
X158623000Y-114427000D03*
X154563000Y-66167000D03*
X156083000Y-114427000D03*
X158623000Y-66167000D03*
X153543000Y-114427000D03*
X161163000Y-66167000D03*
X151003000Y-114427000D03*
X163703000Y-66167000D03*
X148463000Y-114427000D03*
X166243000Y-66167000D03*
X145923000Y-114427000D03*
X168783000Y-66167000D03*
X143383000Y-114427000D03*
X171323000Y-66167000D03*
D11*
X140843000Y-114427000D03*
D10*
X134243000Y-66167000D03*
X131703000Y-66167000D03*
G04 #@! TA.AperFunction,SMDPad,CuDef*
G36*
G01*
X116673200Y-82939900D02*
X116673200Y-82464900D01*
G75*
G02*
X116910700Y-82227400I237500J0D01*
G01*
X117485700Y-82227400D01*
G75*
G02*
X117723200Y-82464900I0J-237500D01*
G01*
X117723200Y-82939900D01*
G75*
G02*
X117485700Y-83177400I-237500J0D01*
G01*
X116910700Y-83177400D01*
G75*
G02*
X116673200Y-82939900I0J237500D01*
G01*
G37*
G04 #@! TD.AperFunction*
G04 #@! TA.AperFunction,SMDPad,CuDef*
G36*
G01*
X118423200Y-82939900D02*
X118423200Y-82464900D01*
G75*
G02*
X118660700Y-82227400I237500J0D01*
G01*
X119235700Y-82227400D01*
G75*
G02*
X119473200Y-82464900I0J-237500D01*
G01*
X119473200Y-82939900D01*
G75*
G02*
X119235700Y-83177400I-237500J0D01*
G01*
X118660700Y-83177400D01*
G75*
G02*
X118423200Y-82939900I0J237500D01*
G01*
G37*
G04 #@! TD.AperFunction*
D12*
X159125400Y-94452200D03*
X159125400Y-93352200D03*
X159125400Y-92252200D03*
X159125400Y-91152200D03*
X159125400Y-90052200D03*
X159125400Y-88952200D03*
X159125400Y-87852200D03*
X159125400Y-84852200D03*
X159125400Y-83752200D03*
X159125400Y-82652200D03*
X159125400Y-81552200D03*
X159125400Y-80452200D03*
X171125400Y-80452200D03*
X171125400Y-81552200D03*
X171125400Y-82652200D03*
X171125400Y-83752200D03*
X171125400Y-84852200D03*
X171125400Y-87852200D03*
X171125400Y-88952200D03*
X171125400Y-90052200D03*
X171125400Y-91152200D03*
X171125400Y-92252200D03*
X171125400Y-93352200D03*
X171125400Y-94452200D03*
D13*
X134289800Y-66192400D03*
D14*
X131749800Y-66192400D03*
D13*
X163703000Y-114452400D03*
X166243000Y-114452400D03*
X168783000Y-114452400D03*
X171323000Y-114452400D03*
X173863000Y-114452400D03*
D14*
X176403000Y-114452400D03*
D13*
X151587200Y-109575600D03*
X151587200Y-107035600D03*
X151587200Y-104495600D03*
X151587200Y-101955600D03*
X151587200Y-99415600D03*
X151587200Y-96875600D03*
X151587200Y-94335600D03*
X151587200Y-91795600D03*
X151587200Y-89255600D03*
X151587200Y-86715600D03*
X151587200Y-84175600D03*
X151587200Y-81635600D03*
X151587200Y-79095600D03*
X151587200Y-76555600D03*
X151587200Y-74015600D03*
D14*
X151587200Y-71475600D03*
D15*
X158343000Y-100746200D03*
X158343000Y-100096200D03*
X158343000Y-99446200D03*
X158343000Y-98796200D03*
X163983000Y-98796200D03*
X163983000Y-99446200D03*
X163983000Y-100096200D03*
X163983000Y-100746200D03*
D16*
X170764200Y-107772200D03*
X173264200Y-102772200D03*
X175764200Y-107772200D03*
G04 #@! TA.AperFunction,SMDPad,CuDef*
G36*
G01*
X131857000Y-70120500D02*
X131857000Y-70595500D01*
G75*
G02*
X131619500Y-70833000I-237500J0D01*
G01*
X131044500Y-70833000D01*
G75*
G02*
X130807000Y-70595500I0J237500D01*
G01*
X130807000Y-70120500D01*
G75*
G02*
X131044500Y-69883000I237500J0D01*
G01*
X131619500Y-69883000D01*
G75*
G02*
X131857000Y-70120500I0J-237500D01*
G01*
G37*
G04 #@! TD.AperFunction*
G04 #@! TA.AperFunction,SMDPad,CuDef*
G36*
G01*
X133607000Y-70120500D02*
X133607000Y-70595500D01*
G75*
G02*
X133369500Y-70833000I-237500J0D01*
G01*
X132794500Y-70833000D01*
G75*
G02*
X132557000Y-70595500I0J237500D01*
G01*
X132557000Y-70120500D01*
G75*
G02*
X132794500Y-69883000I237500J0D01*
G01*
X133369500Y-69883000D01*
G75*
G02*
X133607000Y-70120500I0J-237500D01*
G01*
G37*
G04 #@! TD.AperFunction*
G04 #@! TA.AperFunction,SMDPad,CuDef*
G36*
G01*
X136635000Y-70595500D02*
X136635000Y-70120500D01*
G75*
G02*
X136872500Y-69883000I237500J0D01*
G01*
X137447500Y-69883000D01*
G75*
G02*
X137685000Y-70120500I0J-237500D01*
G01*
X137685000Y-70595500D01*
G75*
G02*
X137447500Y-70833000I-237500J0D01*
G01*
X136872500Y-70833000D01*
G75*
G02*
X136635000Y-70595500I0J237500D01*
G01*
G37*
G04 #@! TD.AperFunction*
G04 #@! TA.AperFunction,SMDPad,CuDef*
G36*
G01*
X134885000Y-70595500D02*
X134885000Y-70120500D01*
G75*
G02*
X135122500Y-69883000I237500J0D01*
G01*
X135697500Y-69883000D01*
G75*
G02*
X135935000Y-70120500I0J-237500D01*
G01*
X135935000Y-70595500D01*
G75*
G02*
X135697500Y-70833000I-237500J0D01*
G01*
X135122500Y-70833000D01*
G75*
G02*
X134885000Y-70595500I0J237500D01*
G01*
G37*
G04 #@! TD.AperFunction*
G04 #@! TA.AperFunction,SMDPad,CuDef*
G36*
G01*
X175141900Y-94708200D02*
X174666900Y-94708200D01*
G75*
G02*
X174429400Y-94470700I0J237500D01*
G01*
X174429400Y-93895700D01*
G75*
G02*
X174666900Y-93658200I237500J0D01*
G01*
X175141900Y-93658200D01*
G75*
G02*
X175379400Y-93895700I0J-237500D01*
G01*
X175379400Y-94470700D01*
G75*
G02*
X175141900Y-94708200I-237500J0D01*
G01*
G37*
G04 #@! TD.AperFunction*
G04 #@! TA.AperFunction,SMDPad,CuDef*
G36*
G01*
X175141900Y-96458200D02*
X174666900Y-96458200D01*
G75*
G02*
X174429400Y-96220700I0J237500D01*
G01*
X174429400Y-95645700D01*
G75*
G02*
X174666900Y-95408200I237500J0D01*
G01*
X175141900Y-95408200D01*
G75*
G02*
X175379400Y-95645700I0J-237500D01*
G01*
X175379400Y-96220700D01*
G75*
G02*
X175141900Y-96458200I-237500J0D01*
G01*
G37*
G04 #@! TD.AperFunction*
G04 #@! TA.AperFunction,SMDPad,CuDef*
G36*
G01*
X164397200Y-103209100D02*
X164397200Y-102734100D01*
G75*
G02*
X164634700Y-102496600I237500J0D01*
G01*
X165209700Y-102496600D01*
G75*
G02*
X165447200Y-102734100I0J-237500D01*
G01*
X165447200Y-103209100D01*
G75*
G02*
X165209700Y-103446600I-237500J0D01*
G01*
X164634700Y-103446600D01*
G75*
G02*
X164397200Y-103209100I0J237500D01*
G01*
G37*
G04 #@! TD.AperFunction*
G04 #@! TA.AperFunction,SMDPad,CuDef*
G36*
G01*
X162647200Y-103209100D02*
X162647200Y-102734100D01*
G75*
G02*
X162884700Y-102496600I237500J0D01*
G01*
X163459700Y-102496600D01*
G75*
G02*
X163697200Y-102734100I0J-237500D01*
G01*
X163697200Y-103209100D01*
G75*
G02*
X163459700Y-103446600I-237500J0D01*
G01*
X162884700Y-103446600D01*
G75*
G02*
X162647200Y-103209100I0J237500D01*
G01*
G37*
G04 #@! TD.AperFunction*
D17*
X178969400Y-80109800D03*
D18*
X177444400Y-81584800D03*
D17*
X178969400Y-83059800D03*
G04 #@! TA.AperFunction,SMDPad,CuDef*
G36*
G01*
X175141900Y-90404200D02*
X174666900Y-90404200D01*
G75*
G02*
X174429400Y-90166700I0J237500D01*
G01*
X174429400Y-89591700D01*
G75*
G02*
X174666900Y-89354200I237500J0D01*
G01*
X175141900Y-89354200D01*
G75*
G02*
X175379400Y-89591700I0J-237500D01*
G01*
X175379400Y-90166700D01*
G75*
G02*
X175141900Y-90404200I-237500J0D01*
G01*
G37*
G04 #@! TD.AperFunction*
G04 #@! TA.AperFunction,SMDPad,CuDef*
G36*
G01*
X175141900Y-92154200D02*
X174666900Y-92154200D01*
G75*
G02*
X174429400Y-91916700I0J237500D01*
G01*
X174429400Y-91341700D01*
G75*
G02*
X174666900Y-91104200I237500J0D01*
G01*
X175141900Y-91104200D01*
G75*
G02*
X175379400Y-91341700I0J-237500D01*
G01*
X175379400Y-91916700D01*
G75*
G02*
X175141900Y-92154200I-237500J0D01*
G01*
G37*
G04 #@! TD.AperFunction*
G04 #@! TA.AperFunction,SMDPad,CuDef*
G36*
G01*
X175141900Y-86340200D02*
X174666900Y-86340200D01*
G75*
G02*
X174429400Y-86102700I0J237500D01*
G01*
X174429400Y-85527700D01*
G75*
G02*
X174666900Y-85290200I237500J0D01*
G01*
X175141900Y-85290200D01*
G75*
G02*
X175379400Y-85527700I0J-237500D01*
G01*
X175379400Y-86102700D01*
G75*
G02*
X175141900Y-86340200I-237500J0D01*
G01*
G37*
G04 #@! TD.AperFunction*
G04 #@! TA.AperFunction,SMDPad,CuDef*
G36*
G01*
X175141900Y-88090200D02*
X174666900Y-88090200D01*
G75*
G02*
X174429400Y-87852700I0J237500D01*
G01*
X174429400Y-87277700D01*
G75*
G02*
X174666900Y-87040200I237500J0D01*
G01*
X175141900Y-87040200D01*
G75*
G02*
X175379400Y-87277700I0J-237500D01*
G01*
X175379400Y-87852700D01*
G75*
G02*
X175141900Y-88090200I-237500J0D01*
G01*
G37*
G04 #@! TD.AperFunction*
G04 #@! TA.AperFunction,SMDPad,CuDef*
G36*
G01*
X122513100Y-83433200D02*
X122038100Y-83433200D01*
G75*
G02*
X121800600Y-83195700I0J237500D01*
G01*
X121800600Y-82620700D01*
G75*
G02*
X122038100Y-82383200I237500J0D01*
G01*
X122513100Y-82383200D01*
G75*
G02*
X122750600Y-82620700I0J-237500D01*
G01*
X122750600Y-83195700D01*
G75*
G02*
X122513100Y-83433200I-237500J0D01*
G01*
G37*
G04 #@! TD.AperFunction*
G04 #@! TA.AperFunction,SMDPad,CuDef*
G36*
G01*
X122513100Y-85183200D02*
X122038100Y-85183200D01*
G75*
G02*
X121800600Y-84945700I0J237500D01*
G01*
X121800600Y-84370700D01*
G75*
G02*
X122038100Y-84133200I237500J0D01*
G01*
X122513100Y-84133200D01*
G75*
G02*
X122750600Y-84370700I0J-237500D01*
G01*
X122750600Y-84945700D01*
G75*
G02*
X122513100Y-85183200I-237500J0D01*
G01*
G37*
G04 #@! TD.AperFunction*
G04 #@! TA.AperFunction,SMDPad,CuDef*
G36*
G01*
X174454399Y-83034400D02*
X175354401Y-83034400D01*
G75*
G02*
X175604400Y-83284399I0J-249999D01*
G01*
X175604400Y-83934401D01*
G75*
G02*
X175354401Y-84184400I-249999J0D01*
G01*
X174454399Y-84184400D01*
G75*
G02*
X174204400Y-83934401I0J249999D01*
G01*
X174204400Y-83284399D01*
G75*
G02*
X174454399Y-83034400I249999J0D01*
G01*
G37*
G04 #@! TD.AperFunction*
G04 #@! TA.AperFunction,SMDPad,CuDef*
G36*
G01*
X174454399Y-80984400D02*
X175354401Y-80984400D01*
G75*
G02*
X175604400Y-81234399I0J-249999D01*
G01*
X175604400Y-81884401D01*
G75*
G02*
X175354401Y-82134400I-249999J0D01*
G01*
X174454399Y-82134400D01*
G75*
G02*
X174204400Y-81884401I0J249999D01*
G01*
X174204400Y-81234399D01*
G75*
G02*
X174454399Y-80984400I249999J0D01*
G01*
G37*
G04 #@! TD.AperFunction*
D13*
X134874000Y-112395000D03*
X132334000Y-112395000D03*
X129794000Y-112395000D03*
X127254000Y-112395000D03*
X124714000Y-112395000D03*
X122174000Y-112395000D03*
X119634000Y-112395000D03*
D14*
X117094000Y-112395000D03*
D13*
X117094000Y-87249000D03*
X119634000Y-87249000D03*
X122174000Y-87249000D03*
X124714000Y-87249000D03*
X127254000Y-87249000D03*
X129794000Y-87249000D03*
X132334000Y-87249000D03*
D14*
X134874000Y-87249000D03*
D19*
X125330200Y-73863200D03*
D20*
X127330200Y-73863200D03*
G04 #@! TA.AperFunction,SMDPad,CuDef*
G36*
G01*
X128258500Y-77258000D02*
X128258500Y-76158000D01*
G75*
G02*
X128508500Y-75908000I250000J0D01*
G01*
X131333500Y-75908000D01*
G75*
G02*
X131583500Y-76158000I0J-250000D01*
G01*
X131583500Y-77258000D01*
G75*
G02*
X131333500Y-77508000I-250000J0D01*
G01*
X128508500Y-77508000D01*
G75*
G02*
X128258500Y-77258000I0J250000D01*
G01*
G37*
G04 #@! TD.AperFunction*
G04 #@! TA.AperFunction,SMDPad,CuDef*
G36*
G01*
X133333500Y-77258000D02*
X133333500Y-76158000D01*
G75*
G02*
X133583500Y-75908000I250000J0D01*
G01*
X136408500Y-75908000D01*
G75*
G02*
X136658500Y-76158000I0J-250000D01*
G01*
X136658500Y-77258000D01*
G75*
G02*
X136408500Y-77508000I-250000J0D01*
G01*
X133583500Y-77508000D01*
G75*
G02*
X133333500Y-77258000I0J250000D01*
G01*
G37*
G04 #@! TD.AperFunction*
D21*
X124231400Y-83845400D03*
D22*
X134391400Y-83845400D03*
D23*
X116713000Y-68224400D03*
D24*
X121793000Y-68224400D03*
G04 #@! TA.AperFunction,SMDPad,CuDef*
G36*
G01*
X123892400Y-77945401D02*
X123892400Y-77045399D01*
G75*
G02*
X124142399Y-76795400I249999J0D01*
G01*
X124792401Y-76795400D01*
G75*
G02*
X125042400Y-77045399I0J-249999D01*
G01*
X125042400Y-77945401D01*
G75*
G02*
X124792401Y-78195400I-249999J0D01*
G01*
X124142399Y-78195400D01*
G75*
G02*
X123892400Y-77945401I0J249999D01*
G01*
G37*
G04 #@! TD.AperFunction*
G04 #@! TA.AperFunction,SMDPad,CuDef*
G36*
G01*
X125942400Y-77945401D02*
X125942400Y-77045399D01*
G75*
G02*
X126192399Y-76795400I249999J0D01*
G01*
X126842401Y-76795400D01*
G75*
G02*
X127092400Y-77045399I0J-249999D01*
G01*
X127092400Y-77945401D01*
G75*
G02*
X126842401Y-78195400I-249999J0D01*
G01*
X126192399Y-78195400D01*
G75*
G02*
X125942400Y-77945401I0J249999D01*
G01*
G37*
G04 #@! TD.AperFunction*
G04 #@! TA.AperFunction,SMDPad,CuDef*
D25*
G36*
X122400300Y-78565400D02*
G01*
X122400300Y-78975400D01*
X121375300Y-78975400D01*
X121375300Y-78565400D01*
X122400300Y-78565400D01*
G37*
G04 #@! TD.AperFunction*
G04 #@! TA.AperFunction,SMDPad,CuDef*
G36*
X122400300Y-77295400D02*
G01*
X122400300Y-77705400D01*
X121375300Y-77705400D01*
X121375300Y-77295400D01*
X122400300Y-77295400D01*
G37*
G04 #@! TD.AperFunction*
G04 #@! TA.AperFunction,SMDPad,CuDef*
G36*
X122420300Y-76025400D02*
G01*
X122420300Y-76435400D01*
X121395300Y-76435400D01*
X121395300Y-76025400D01*
X122420300Y-76025400D01*
G37*
G04 #@! TD.AperFunction*
G04 #@! TA.AperFunction,SMDPad,CuDef*
G36*
X122420300Y-74755400D02*
G01*
X122420300Y-75165400D01*
X121395300Y-75165400D01*
X121395300Y-74755400D01*
X122420300Y-74755400D01*
G37*
G04 #@! TD.AperFunction*
G04 #@! TA.AperFunction,SMDPad,CuDef*
G36*
X117330300Y-78565400D02*
G01*
X117330300Y-78975400D01*
X116305300Y-78975400D01*
X116305300Y-78565400D01*
X117330300Y-78565400D01*
G37*
G04 #@! TD.AperFunction*
G04 #@! TA.AperFunction,SMDPad,CuDef*
G36*
X117330300Y-77295400D02*
G01*
X117330300Y-77705400D01*
X116305300Y-77705400D01*
X116305300Y-77295400D01*
X117330300Y-77295400D01*
G37*
G04 #@! TD.AperFunction*
G04 #@! TA.AperFunction,SMDPad,CuDef*
G36*
X117330300Y-76025400D02*
G01*
X117330300Y-76435400D01*
X116305300Y-76435400D01*
X116305300Y-76025400D01*
X117330300Y-76025400D01*
G37*
G04 #@! TD.AperFunction*
G04 #@! TA.AperFunction,SMDPad,CuDef*
G36*
X117340300Y-74755400D02*
G01*
X117340300Y-75165400D01*
X116315300Y-75165400D01*
X116315300Y-74755400D01*
X117340300Y-74755400D01*
G37*
G04 #@! TD.AperFunction*
D26*
X145821400Y-112318800D03*
X161705000Y-104047000D03*
X157149800Y-109651800D03*
X138709400Y-68300600D03*
X148513800Y-75336400D03*
X159131000Y-78689200D03*
X156083000Y-100101400D03*
X120192800Y-81203800D03*
X166243000Y-74879200D03*
X168783000Y-75107800D03*
X156718000Y-64389000D03*
X128498600Y-70459600D03*
D27*
X145255715Y-112318800D02*
X124656315Y-91719400D01*
X145821400Y-112318800D02*
X145255715Y-112318800D01*
X124656315Y-91719400D02*
X116687600Y-91719400D01*
X116687600Y-91719400D02*
X114528600Y-89560400D01*
X114554000Y-73279000D02*
X114528600Y-73253600D01*
X121793000Y-68224400D02*
X118491000Y-71526400D01*
X116306600Y-71526400D02*
X114554000Y-73279000D01*
X118491000Y-71526400D02*
X116306600Y-71526400D01*
D28*
X114528600Y-80035400D02*
X119227600Y-80035400D01*
D27*
X114528600Y-89560400D02*
X114528600Y-80035400D01*
X114528600Y-80035400D02*
X114528600Y-73253600D01*
D28*
X120492600Y-78770400D02*
X121887800Y-78770400D01*
X119227600Y-80035400D02*
X120492600Y-78770400D01*
D27*
X121793000Y-68224400D02*
X125323600Y-71755000D01*
X125323600Y-73856600D02*
X125330200Y-73863200D01*
X125323600Y-71755000D02*
X125323600Y-73856600D01*
D28*
X159125400Y-92252200D02*
X159125400Y-93352200D01*
D29*
X158343000Y-100746200D02*
X159388000Y-100746200D01*
D28*
X161705000Y-94531800D02*
X161705000Y-94631800D01*
X160525400Y-93352200D02*
X161705000Y-94531800D01*
X159125400Y-93352200D02*
X160525400Y-93352200D01*
X161703800Y-100746200D02*
X161705000Y-100745000D01*
X159388000Y-100746200D02*
X161703800Y-100746200D01*
X161705000Y-94631800D02*
X161705000Y-100745000D01*
D27*
X161705000Y-104047000D02*
X161705000Y-103081800D01*
D28*
X161705000Y-100745000D02*
X161705000Y-103081800D01*
D27*
X157149800Y-110217485D02*
X157149800Y-109651800D01*
X157149800Y-111048800D02*
X157149800Y-110217485D01*
D28*
X157149800Y-111048800D02*
X157149800Y-111607600D01*
X157149800Y-111607600D02*
X156337000Y-112420400D01*
X156337000Y-112420400D02*
X148082000Y-112420400D01*
X129794000Y-94132400D02*
X129794000Y-87249000D01*
X148082000Y-112420400D02*
X129794000Y-94132400D01*
X129794000Y-86639400D02*
X129794000Y-87249000D01*
D29*
X127304800Y-76708000D02*
X126517400Y-77495400D01*
X129921000Y-76708000D02*
X127304800Y-76708000D01*
X122275600Y-84658200D02*
X123215400Y-85598000D01*
X123215400Y-85598000D02*
X129032000Y-85598000D01*
X129794000Y-86360000D02*
X129794000Y-87249000D01*
X129032000Y-85598000D02*
X129794000Y-86360000D01*
X121907800Y-76230400D02*
X123261200Y-76230400D01*
X123261200Y-76230400D02*
X123723400Y-75768200D01*
X123723400Y-75768200D02*
X125984000Y-75768200D01*
X126517400Y-76301600D02*
X126517400Y-77495400D01*
X125984000Y-75768200D02*
X126517400Y-76301600D01*
X129921000Y-77774800D02*
X129921000Y-76708000D01*
X129921000Y-87122000D02*
X129794000Y-87249000D01*
X129921000Y-76708000D02*
X129921000Y-87122000D01*
X161815200Y-102971600D02*
X161705000Y-103081800D01*
X163172200Y-102971600D02*
X161815200Y-102971600D01*
X160425400Y-91152200D02*
X164363400Y-87214200D01*
X159125400Y-91152200D02*
X160425400Y-91152200D01*
X164363400Y-87214200D02*
X164363400Y-75485994D01*
X164363400Y-75485994D02*
X166925994Y-72923400D01*
X169646600Y-72923400D02*
X166925994Y-72923400D01*
X176403000Y-66167000D02*
X169646600Y-72923400D01*
X160425400Y-90052200D02*
X162636200Y-87841400D01*
X159125400Y-90052200D02*
X160425400Y-90052200D01*
X162636200Y-87841400D02*
X162636200Y-75184000D01*
X162636200Y-75184000D02*
X166878000Y-70942200D01*
X169087800Y-70942200D02*
X166878000Y-70942200D01*
X173863000Y-66167000D02*
X169087800Y-70942200D01*
D27*
X133082000Y-70358000D02*
X133082000Y-71042500D01*
X133082000Y-71042500D02*
X133921500Y-71882000D01*
X137160000Y-70933000D02*
X137160000Y-70358000D01*
X136211000Y-71882000D02*
X137160000Y-70933000D01*
X133921500Y-71882000D02*
X136211000Y-71882000D01*
X138709400Y-68300600D02*
X139275085Y-68300600D01*
D28*
X139275085Y-68300600D02*
X147523200Y-68300600D01*
X147523200Y-68300600D02*
X148513800Y-69291200D01*
D27*
X148513800Y-73990200D02*
X148513800Y-75336400D01*
D28*
X148513800Y-69291200D02*
X148513800Y-73990200D01*
D27*
X137718800Y-68300600D02*
X138709400Y-68300600D01*
X137160000Y-68859400D02*
X137718800Y-68300600D01*
X137160000Y-70358000D02*
X137160000Y-68859400D01*
D28*
X159131000Y-79546600D02*
X159131000Y-78816200D01*
D27*
X159131000Y-78689200D02*
X159131000Y-79546600D01*
X159131000Y-80162400D02*
X159125400Y-80168000D01*
X159131000Y-79546600D02*
X159131000Y-80162400D01*
D28*
X159125400Y-80452200D02*
X159125400Y-80168000D01*
D29*
X157298000Y-100096200D02*
X157292800Y-100101400D01*
X158343000Y-100096200D02*
X157298000Y-100096200D01*
D27*
X156083000Y-100101400D02*
X156718000Y-100101400D01*
D29*
X157292800Y-100101400D02*
X156718000Y-100101400D01*
X160380800Y-100096200D02*
X158343000Y-100096200D01*
X160425400Y-94452200D02*
X160553400Y-94580200D01*
X160553400Y-94580200D02*
X160620200Y-94580200D01*
X159125400Y-94452200D02*
X160425400Y-94452200D01*
X160620200Y-94580200D02*
X160934400Y-94894400D01*
X160934400Y-94894400D02*
X160934400Y-99542600D01*
X160934400Y-99542600D02*
X160380800Y-100096200D01*
D28*
X154563000Y-76119800D02*
X154563000Y-66167000D01*
X151587200Y-79095600D02*
X154563000Y-76119800D01*
X155879800Y-68910200D02*
X158623000Y-66167000D01*
X152887201Y-82875599D02*
X152912601Y-82875599D01*
X151587200Y-84175600D02*
X152887201Y-82875599D01*
X152912601Y-82875599D02*
X154686000Y-81102200D01*
X154686000Y-81102200D02*
X154686000Y-77876400D01*
X155879800Y-76682600D02*
X155879800Y-68910200D01*
X154686000Y-77876400D02*
X155879800Y-76682600D01*
X151587200Y-96875600D02*
X153847800Y-94615000D01*
X153847800Y-94615000D02*
X153847800Y-83439000D01*
X157022800Y-70307200D02*
X161163000Y-66167000D01*
X157022800Y-70307200D02*
X157022800Y-76885800D01*
X157022800Y-76885800D02*
X155625800Y-78282800D01*
X155625800Y-81661000D02*
X153847800Y-83439000D01*
X155625800Y-78282800D02*
X155625800Y-81661000D01*
X151587200Y-99415600D02*
X155092400Y-95910400D01*
X155092400Y-95910400D02*
X155092400Y-84124800D01*
X155092400Y-84124800D02*
X156718000Y-82499200D01*
X156718000Y-82499200D02*
X156718000Y-78968600D01*
X156718000Y-78968600D02*
X158470600Y-77216000D01*
X158750000Y-71120000D02*
X163703000Y-66167000D01*
X158470600Y-71399400D02*
X158750000Y-71120000D01*
X158470600Y-77216000D02*
X158470600Y-71399400D01*
X164236400Y-105943400D02*
X160121600Y-105943400D01*
X156133800Y-101955600D02*
X151587200Y-101955600D01*
X160121600Y-105943400D02*
X156133800Y-101955600D01*
D27*
X166243000Y-74879200D02*
X166243000Y-75444885D01*
X166243000Y-75444885D02*
X166243000Y-77012800D01*
D28*
X166243000Y-103936800D02*
X165658800Y-104521000D01*
X166243000Y-77012800D02*
X166243000Y-103936800D01*
X165658800Y-104521000D02*
X164236400Y-105943400D01*
D27*
X168783000Y-75107800D02*
X168783000Y-77216000D01*
D28*
X168783000Y-103835200D02*
X168783000Y-77216000D01*
X165303200Y-107315000D02*
X168783000Y-103835200D01*
X159486600Y-107315000D02*
X165303200Y-107315000D01*
X156667200Y-104495600D02*
X159486600Y-107315000D01*
X151587200Y-104495600D02*
X156667200Y-104495600D01*
D27*
X156718000Y-64389000D02*
X156152315Y-64389000D01*
D29*
X156152315Y-64389000D02*
X154425000Y-64389000D01*
X154425000Y-64389000D02*
X129997200Y-64389000D01*
D27*
X128498600Y-70612000D02*
X128498600Y-69977000D01*
D29*
X128498600Y-67030600D02*
X128498600Y-69900800D01*
X128498600Y-65887600D02*
X129997200Y-64389000D01*
X128498600Y-67030600D02*
X128498600Y-65887600D01*
D27*
X134243000Y-67298370D02*
X134243000Y-66167000D01*
X134243000Y-67949000D02*
X134243000Y-67298370D01*
X135410000Y-69116000D02*
X134243000Y-67949000D01*
X135410000Y-70358000D02*
X135410000Y-69116000D01*
X131332000Y-66661000D02*
X131699000Y-66294000D01*
X131332000Y-70358000D02*
X131332000Y-66661000D01*
D28*
X174904400Y-85815200D02*
X174904400Y-83778200D01*
D27*
X174897200Y-81552200D02*
X174904400Y-81559400D01*
X171125400Y-81552200D02*
X174897200Y-81552200D01*
X177419000Y-81559400D02*
X177444400Y-81584800D01*
X174904400Y-81559400D02*
X177419000Y-81559400D01*
D29*
X122069800Y-82702400D02*
X122275600Y-82908200D01*
X118948200Y-82702400D02*
X122069800Y-82702400D01*
D28*
X171625400Y-84852200D02*
X171125400Y-84852200D01*
X171125400Y-83752200D02*
X171125400Y-84852200D01*
X172583800Y-84852200D02*
X171125400Y-84852200D01*
X172948600Y-85217000D02*
X172583800Y-84852200D01*
X172948600Y-86461600D02*
X172948600Y-85217000D01*
X174904400Y-87565200D02*
X174052200Y-87565200D01*
X174052200Y-87565200D02*
X172948600Y-86461600D01*
X174405328Y-90378272D02*
X173946828Y-90378272D01*
X174904400Y-89879200D02*
X174405328Y-90378272D01*
X173946828Y-90378272D02*
X173189900Y-91135200D01*
X172525400Y-92252200D02*
X171125400Y-92252200D01*
X173189900Y-91587700D02*
X172525400Y-92252200D01*
X173189900Y-91135200D02*
X173189900Y-91587700D01*
X174904400Y-94183200D02*
X174904400Y-91629200D01*
X158164400Y-88952200D02*
X158163000Y-88950800D01*
X159125400Y-88952200D02*
X158164400Y-88952200D01*
D29*
X157825400Y-88952200D02*
X159125400Y-88952200D01*
X159388000Y-99446200D02*
X159723400Y-99110800D01*
X159723400Y-99110800D02*
X159723400Y-97468000D01*
X159723400Y-97468000D02*
X157251400Y-94996000D01*
X157251400Y-94996000D02*
X157251400Y-89526200D01*
X158343000Y-99446200D02*
X159388000Y-99446200D01*
X157251400Y-89526200D02*
X157825400Y-88952200D01*
X157298000Y-98796200D02*
X156210000Y-97708200D01*
X158343000Y-98796200D02*
X157298000Y-98796200D01*
X157825400Y-87852200D02*
X159125400Y-87852200D01*
X156210000Y-89467600D02*
X157825400Y-87852200D01*
X156210000Y-97708200D02*
X156210000Y-89467600D01*
X124764800Y-77792800D02*
X124467400Y-77495400D01*
X121892800Y-77495400D02*
X121887800Y-77500400D01*
X124467400Y-77495400D02*
X121892800Y-77495400D01*
X124467400Y-83609400D02*
X124231400Y-83845400D01*
X124467400Y-77495400D02*
X124467400Y-83609400D01*
M02*
