%FSLAX45Y45*%
G04 Gerber Fmt 4.5, Leading zero omitted, Abs format (unit mm)*
G04 Created by KiCad (PCBNEW (5.1.7)-1) date 2021-01-26 00:26:25*
%MOMM*%
%LPD*%
G01*
G04 APERTURE LIST*
%TA.AperFunction,Profile*%
%ADD10C,0.050000*%
%TD*%
%ADD11C,0.200000*%
%ADD12C,0.300000*%
G04 APERTURE END LIST*
D10*
X11264900Y-11722100D02*
X11264900Y-6337300D01*
X17919700Y-11722100D02*
X11264900Y-11722100D01*
X17919700Y-11442700D02*
X17919700Y-11722100D01*
X18173700Y-11188700D02*
X17919700Y-11442700D01*
X18173700Y-7912100D02*
X18173700Y-11188700D01*
X17919700Y-7658100D02*
X18173700Y-7912100D01*
X17919700Y-6515100D02*
X17919700Y-7658100D01*
X17741900Y-6337300D02*
X17919700Y-6515100D01*
X11264900Y-6337300D02*
X17741900Y-6337300D01*
D11*
X11999280Y-8100380D02*
X12039280Y-8140380D01*
X12039280Y-8100380D02*
X11999280Y-8140380D01*
X12829860Y-7025960D02*
X12869860Y-7065960D01*
X12869860Y-7025960D02*
X12829860Y-7065960D01*
X13850940Y-6810060D02*
X13890940Y-6850060D01*
X13890940Y-6810060D02*
X13850940Y-6850060D01*
X14562140Y-11211880D02*
X14602140Y-11251880D01*
X14602140Y-11211880D02*
X14562140Y-11251880D01*
X14831380Y-7513640D02*
X14871380Y-7553640D01*
X14871380Y-7513640D02*
X14831380Y-7553640D01*
X15588300Y-9990140D02*
X15628300Y-10030140D01*
X15628300Y-9990140D02*
X15588300Y-10030140D01*
X15651800Y-6418900D02*
X15691800Y-6458900D01*
X15691800Y-6418900D02*
X15651800Y-6458900D01*
X15694980Y-10945180D02*
X15734980Y-10985180D01*
X15734980Y-10945180D02*
X15694980Y-10985180D01*
X15893100Y-7848920D02*
X15933100Y-7888920D01*
X15933100Y-7848920D02*
X15893100Y-7888920D01*
X16150500Y-10384700D02*
X16190500Y-10424700D01*
X16190500Y-10384700D02*
X16150500Y-10424700D01*
X16604300Y-7467920D02*
X16644300Y-7507920D01*
X16644300Y-7467920D02*
X16604300Y-7507920D01*
X16858300Y-7490780D02*
X16898300Y-7530780D01*
X16898300Y-7490780D02*
X16858300Y-7530780D01*
X12563020Y-7386320D02*
G75*
G03*
X12563020Y-7386320I-30000J0D01*
G01*
X12763020Y-7386320D02*
G75*
G03*
X12763020Y-7386320I-30000J0D01*
G01*
X12423140Y-8347040D02*
X12423140Y-8422040D01*
X12385640Y-8384540D02*
X12460640Y-8384540D01*
X13439140Y-8347040D02*
X13439140Y-8422040D01*
X13401640Y-8384540D02*
X13476640Y-8384540D01*
X13198584Y-6644984D02*
X13198584Y-6588415D01*
X13142015Y-6588415D01*
X13142015Y-6644984D01*
X13198584Y-6644984D01*
X13452584Y-6644984D02*
X13452584Y-6588415D01*
X13396015Y-6588415D01*
X13396015Y-6644984D01*
X13452584Y-6644984D01*
X13706584Y-6644984D02*
X13706584Y-6588415D01*
X13650015Y-6588415D01*
X13650015Y-6644984D01*
X13706584Y-6644984D01*
X13960584Y-6644984D02*
X13960584Y-6588415D01*
X13904015Y-6588415D01*
X13904015Y-6644984D01*
X13960584Y-6644984D01*
X14112584Y-11470984D02*
X14112584Y-11414415D01*
X14056015Y-11414415D01*
X14056015Y-11470984D01*
X14112584Y-11470984D01*
X14214584Y-6644984D02*
X14214584Y-6588415D01*
X14158015Y-6588415D01*
X14158015Y-6644984D01*
X14214584Y-6644984D01*
X14366584Y-11470984D02*
X14366584Y-11414415D01*
X14310015Y-11414415D01*
X14310015Y-11470984D01*
X14366584Y-11470984D01*
X14468584Y-6644984D02*
X14468584Y-6588415D01*
X14412015Y-6588415D01*
X14412015Y-6644984D01*
X14468584Y-6644984D01*
X14620584Y-11470984D02*
X14620584Y-11414415D01*
X14564015Y-11414415D01*
X14564015Y-11470984D01*
X14620584Y-11470984D01*
X14722584Y-6644984D02*
X14722584Y-6588415D01*
X14666015Y-6588415D01*
X14666015Y-6644984D01*
X14722584Y-6644984D01*
X14874584Y-11470984D02*
X14874584Y-11414415D01*
X14818015Y-11414415D01*
X14818015Y-11470984D01*
X14874584Y-11470984D01*
X14976584Y-6644984D02*
X14976584Y-6588415D01*
X14920015Y-6588415D01*
X14920015Y-6644984D01*
X14976584Y-6644984D01*
X15128584Y-11470984D02*
X15128584Y-11414415D01*
X15072015Y-11414415D01*
X15072015Y-11470984D01*
X15128584Y-11470984D01*
X15230584Y-6644984D02*
X15230584Y-6588415D01*
X15174015Y-6588415D01*
X15174015Y-6644984D01*
X15230584Y-6644984D01*
X15382584Y-11470984D02*
X15382584Y-11414415D01*
X15326015Y-11414415D01*
X15326015Y-11470984D01*
X15382584Y-11470984D01*
X15484584Y-6644984D02*
X15484584Y-6588415D01*
X15428015Y-6588415D01*
X15428015Y-6644984D01*
X15484584Y-6644984D01*
X15636584Y-11470984D02*
X15636584Y-11414415D01*
X15580015Y-11414415D01*
X15580015Y-11470984D01*
X15636584Y-11470984D01*
X15890584Y-6644984D02*
X15890584Y-6588415D01*
X15834015Y-6588415D01*
X15834015Y-6644984D01*
X15890584Y-6644984D01*
X15890584Y-11470984D02*
X15890584Y-11414415D01*
X15834015Y-11414415D01*
X15834015Y-11470984D01*
X15890584Y-11470984D01*
X16144584Y-6644984D02*
X16144584Y-6588415D01*
X16088015Y-6588415D01*
X16088015Y-6644984D01*
X16144584Y-6644984D01*
X16398584Y-6644984D02*
X16398584Y-6588415D01*
X16342015Y-6588415D01*
X16342015Y-6644984D01*
X16398584Y-6644984D01*
X16398584Y-11470984D02*
X16398584Y-11414415D01*
X16342015Y-11414415D01*
X16342015Y-11470984D01*
X16398584Y-11470984D01*
X16652584Y-6644984D02*
X16652584Y-6588415D01*
X16596015Y-6588415D01*
X16596015Y-6644984D01*
X16652584Y-6644984D01*
X16652584Y-11470984D02*
X16652584Y-11414415D01*
X16596015Y-11414415D01*
X16596015Y-11470984D01*
X16652584Y-11470984D01*
X16906585Y-6644984D02*
X16906585Y-6588415D01*
X16850016Y-6588415D01*
X16850016Y-6644984D01*
X16906585Y-6644984D01*
X16906585Y-11470984D02*
X16906585Y-11414415D01*
X16850016Y-11414415D01*
X16850016Y-11470984D01*
X16906585Y-11470984D01*
X17160585Y-6644984D02*
X17160585Y-6588415D01*
X17104016Y-6588415D01*
X17104016Y-6644984D01*
X17160585Y-6644984D01*
X17160585Y-11470984D02*
X17160585Y-11414415D01*
X17104016Y-11414415D01*
X17104016Y-11470984D01*
X17160585Y-11470984D01*
X17414585Y-6644984D02*
X17414585Y-6588415D01*
X17358016Y-6588415D01*
X17358016Y-6644984D01*
X17414585Y-6644984D01*
X17414585Y-11470984D02*
X17414585Y-11414415D01*
X17358016Y-11414415D01*
X17358016Y-11470984D01*
X17414585Y-11470984D01*
X17668585Y-6644984D02*
X17668585Y-6588415D01*
X17612016Y-6588415D01*
X17612016Y-6644984D01*
X17668585Y-6644984D01*
X17668585Y-11470984D02*
X17668585Y-11414415D01*
X17612016Y-11414415D01*
X17612016Y-11470984D01*
X17668585Y-11470984D01*
X11709400Y-8774900D02*
X11759400Y-8724900D01*
X11709400Y-8674900D01*
X11659400Y-8724900D01*
X11709400Y-8774900D01*
X11963400Y-8774900D02*
X12013400Y-8724900D01*
X11963400Y-8674900D01*
X11913400Y-8724900D01*
X11963400Y-8774900D01*
X12217400Y-8774900D02*
X12267400Y-8724900D01*
X12217400Y-8674900D01*
X12167400Y-8724900D01*
X12217400Y-8774900D01*
X12471400Y-8774900D02*
X12521400Y-8724900D01*
X12471400Y-8674900D01*
X12421400Y-8724900D01*
X12471400Y-8774900D01*
X12725400Y-8774900D02*
X12775400Y-8724900D01*
X12725400Y-8674900D01*
X12675400Y-8724900D01*
X12725400Y-8774900D01*
X12979400Y-8774900D02*
X13029400Y-8724900D01*
X12979400Y-8674900D01*
X12929400Y-8724900D01*
X12979400Y-8774900D01*
X13233400Y-8774900D02*
X13283400Y-8724900D01*
X13233400Y-8674900D01*
X13183400Y-8724900D01*
X13233400Y-8774900D01*
X13487400Y-8774900D02*
X13537400Y-8724900D01*
X13487400Y-8674900D01*
X13437400Y-8724900D01*
X13487400Y-8774900D01*
X13174980Y-6669240D02*
X13224980Y-6619240D01*
X13174980Y-6569240D01*
X13124980Y-6619240D01*
X13174980Y-6669240D01*
X13428980Y-6669240D02*
X13478980Y-6619240D01*
X13428980Y-6569240D01*
X13378980Y-6619240D01*
X13428980Y-6669240D01*
X16370300Y-11495240D02*
X16420300Y-11445240D01*
X16370300Y-11395240D01*
X16320300Y-11445240D01*
X16370300Y-11495240D01*
X16624300Y-11495240D02*
X16674300Y-11445240D01*
X16624300Y-11395240D01*
X16574300Y-11445240D01*
X16624300Y-11495240D01*
X16878300Y-11495240D02*
X16928300Y-11445240D01*
X16878300Y-11395240D01*
X16828300Y-11445240D01*
X16878300Y-11495240D01*
X17132300Y-11495240D02*
X17182300Y-11445240D01*
X17132300Y-11395240D01*
X17082300Y-11445240D01*
X17132300Y-11495240D01*
X17386300Y-11495240D02*
X17436300Y-11445240D01*
X17386300Y-11395240D01*
X17336300Y-11445240D01*
X17386300Y-11495240D01*
X17640300Y-11495240D02*
X17690300Y-11445240D01*
X17640300Y-11395240D01*
X17590300Y-11445240D01*
X17640300Y-11495240D01*
X11709400Y-11289500D02*
X11759400Y-11239500D01*
X11709400Y-11189500D01*
X11659400Y-11239500D01*
X11709400Y-11289500D01*
X11963400Y-11289500D02*
X12013400Y-11239500D01*
X11963400Y-11189500D01*
X11913400Y-11239500D01*
X11963400Y-11289500D01*
X12217400Y-11289500D02*
X12267400Y-11239500D01*
X12217400Y-11189500D01*
X12167400Y-11239500D01*
X12217400Y-11289500D01*
X12471400Y-11289500D02*
X12521400Y-11239500D01*
X12471400Y-11189500D01*
X12421400Y-11239500D01*
X12471400Y-11289500D01*
X12725400Y-11289500D02*
X12775400Y-11239500D01*
X12725400Y-11189500D01*
X12675400Y-11239500D01*
X12725400Y-11289500D01*
X12979400Y-11289500D02*
X13029400Y-11239500D01*
X12979400Y-11189500D01*
X12929400Y-11239500D01*
X12979400Y-11289500D01*
X13233400Y-11289500D02*
X13283400Y-11239500D01*
X13233400Y-11189500D01*
X13183400Y-11239500D01*
X13233400Y-11289500D01*
X13487400Y-11289500D02*
X13537400Y-11239500D01*
X13487400Y-11189500D01*
X13437400Y-11239500D01*
X13487400Y-11289500D01*
X15158720Y-7197560D02*
X15208720Y-7147560D01*
X15158720Y-7097560D01*
X15108720Y-7147560D01*
X15158720Y-7197560D01*
X15158720Y-7451560D02*
X15208720Y-7401560D01*
X15158720Y-7351560D01*
X15108720Y-7401560D01*
X15158720Y-7451560D01*
X15158720Y-7705560D02*
X15208720Y-7655560D01*
X15158720Y-7605560D01*
X15108720Y-7655560D01*
X15158720Y-7705560D01*
X15158720Y-7959560D02*
X15208720Y-7909560D01*
X15158720Y-7859560D01*
X15108720Y-7909560D01*
X15158720Y-7959560D01*
X15158720Y-8213560D02*
X15208720Y-8163560D01*
X15158720Y-8113560D01*
X15108720Y-8163560D01*
X15158720Y-8213560D01*
X15158720Y-8467560D02*
X15208720Y-8417560D01*
X15158720Y-8367560D01*
X15108720Y-8417560D01*
X15158720Y-8467560D01*
X15158720Y-8721560D02*
X15208720Y-8671560D01*
X15158720Y-8621560D01*
X15108720Y-8671560D01*
X15158720Y-8721560D01*
X15158720Y-8975560D02*
X15208720Y-8925560D01*
X15158720Y-8875560D01*
X15108720Y-8925560D01*
X15158720Y-8975560D01*
X15158720Y-9229560D02*
X15208720Y-9179560D01*
X15158720Y-9129560D01*
X15108720Y-9179560D01*
X15158720Y-9229560D01*
X15158720Y-9483560D02*
X15208720Y-9433560D01*
X15158720Y-9383560D01*
X15108720Y-9433560D01*
X15158720Y-9483560D01*
X15158720Y-9737560D02*
X15208720Y-9687560D01*
X15158720Y-9637560D01*
X15108720Y-9687560D01*
X15158720Y-9737560D01*
X15158720Y-9991560D02*
X15208720Y-9941560D01*
X15158720Y-9891560D01*
X15108720Y-9941560D01*
X15158720Y-9991560D01*
X15158720Y-10245560D02*
X15208720Y-10195560D01*
X15158720Y-10145560D01*
X15108720Y-10195560D01*
X15158720Y-10245560D01*
X15158720Y-10499560D02*
X15208720Y-10449560D01*
X15158720Y-10399560D01*
X15108720Y-10449560D01*
X15158720Y-10499560D01*
X15158720Y-10753560D02*
X15208720Y-10703560D01*
X15158720Y-10653560D01*
X15108720Y-10703560D01*
X15158720Y-10753560D01*
X15158720Y-11007560D02*
X15208720Y-10957560D01*
X15158720Y-10907560D01*
X15108720Y-10957560D01*
X15158720Y-11007560D01*
X17011420Y-10712220D02*
X17141420Y-10842220D01*
X17141420Y-10712220D02*
X17011420Y-10842220D01*
X17141420Y-10777220D02*
G75*
G03*
X17141420Y-10777220I-65000J0D01*
G01*
X17261420Y-10212220D02*
X17391420Y-10342220D01*
X17391420Y-10212220D02*
X17261420Y-10342220D01*
X17391420Y-10277220D02*
G75*
G03*
X17391420Y-10277220I-65000J0D01*
G01*
X17511420Y-10712220D02*
X17641420Y-10842220D01*
X17641420Y-10712220D02*
X17511420Y-10842220D01*
X17641420Y-10777220D02*
G75*
G03*
X17641420Y-10777220I-65000J0D01*
G01*
X11595300Y-6746440D02*
X11747300Y-6898440D01*
X11747300Y-6746440D02*
X11595300Y-6898440D01*
X11671300Y-6746440D02*
X11671300Y-6898440D01*
X11595300Y-6822440D02*
X11747300Y-6822440D01*
X12103300Y-6746440D02*
X12255300Y-6898440D01*
X12255300Y-6746440D02*
X12103300Y-6898440D01*
X12179300Y-6746440D02*
X12179300Y-6898440D01*
X12103300Y-6822440D02*
X12255300Y-6822440D01*
D12*
X11548828Y-12190314D02*
X11548828Y-11890314D01*
X11620257Y-11890314D01*
X11663114Y-11904600D01*
X11691686Y-11933171D01*
X11705971Y-11961743D01*
X11720257Y-12018886D01*
X11720257Y-12061743D01*
X11705971Y-12118886D01*
X11691686Y-12147457D01*
X11663114Y-12176029D01*
X11620257Y-12190314D01*
X11548828Y-12190314D01*
X11848828Y-12190314D02*
X11848828Y-11990314D01*
X11848828Y-12047457D02*
X11863114Y-12018886D01*
X11877400Y-12004600D01*
X11905971Y-11990314D01*
X11934543Y-11990314D01*
X12034543Y-12190314D02*
X12034543Y-11990314D01*
X12034543Y-11890314D02*
X12020257Y-11904600D01*
X12034543Y-11918886D01*
X12048828Y-11904600D01*
X12034543Y-11890314D01*
X12034543Y-11918886D01*
X12220257Y-12190314D02*
X12191686Y-12176029D01*
X12177400Y-12147457D01*
X12177400Y-11890314D01*
X12377400Y-12190314D02*
X12348828Y-12176029D01*
X12334543Y-12147457D01*
X12334543Y-11890314D01*
X12720257Y-12190314D02*
X12720257Y-11890314D01*
X12820257Y-12104600D01*
X12920257Y-11890314D01*
X12920257Y-12190314D01*
X13191686Y-12190314D02*
X13191686Y-12033171D01*
X13177400Y-12004600D01*
X13148828Y-11990314D01*
X13091686Y-11990314D01*
X13063114Y-12004600D01*
X13191686Y-12176029D02*
X13163114Y-12190314D01*
X13091686Y-12190314D01*
X13063114Y-12176029D01*
X13048828Y-12147457D01*
X13048828Y-12118886D01*
X13063114Y-12090314D01*
X13091686Y-12076029D01*
X13163114Y-12076029D01*
X13191686Y-12061743D01*
X13334543Y-11990314D02*
X13334543Y-12290314D01*
X13334543Y-12004600D02*
X13363114Y-11990314D01*
X13420257Y-11990314D01*
X13448828Y-12004600D01*
X13463114Y-12018886D01*
X13477400Y-12047457D01*
X13477400Y-12133171D01*
X13463114Y-12161743D01*
X13448828Y-12176029D01*
X13420257Y-12190314D01*
X13363114Y-12190314D01*
X13334543Y-12176029D01*
X13605971Y-12161743D02*
X13620257Y-12176029D01*
X13605971Y-12190314D01*
X13591686Y-12176029D01*
X13605971Y-12161743D01*
X13605971Y-12190314D01*
X13605971Y-12004600D02*
X13620257Y-12018886D01*
X13605971Y-12033171D01*
X13591686Y-12018886D01*
X13605971Y-12004600D01*
X13605971Y-12033171D01*
X11222400Y-12664600D02*
X11262400Y-12704600D01*
X11262400Y-12664600D02*
X11222400Y-12704600D01*
X11605971Y-12520314D02*
X11634543Y-12520314D01*
X11663114Y-12534600D01*
X11677400Y-12548886D01*
X11691686Y-12577457D01*
X11705971Y-12634600D01*
X11705971Y-12706029D01*
X11691686Y-12763171D01*
X11677400Y-12791743D01*
X11663114Y-12806029D01*
X11634543Y-12820314D01*
X11605971Y-12820314D01*
X11577400Y-12806029D01*
X11563114Y-12791743D01*
X11548828Y-12763171D01*
X11534543Y-12706029D01*
X11534543Y-12634600D01*
X11548828Y-12577457D01*
X11563114Y-12548886D01*
X11577400Y-12534600D01*
X11605971Y-12520314D01*
X11834543Y-12791743D02*
X11848828Y-12806029D01*
X11834543Y-12820314D01*
X11820257Y-12806029D01*
X11834543Y-12791743D01*
X11834543Y-12820314D01*
X12105971Y-12620314D02*
X12105971Y-12820314D01*
X12034543Y-12506029D02*
X11963114Y-12720314D01*
X12148828Y-12720314D01*
X12320257Y-12520314D02*
X12348828Y-12520314D01*
X12377400Y-12534600D01*
X12391686Y-12548886D01*
X12405971Y-12577457D01*
X12420257Y-12634600D01*
X12420257Y-12706029D01*
X12405971Y-12763171D01*
X12391686Y-12791743D01*
X12377400Y-12806029D01*
X12348828Y-12820314D01*
X12320257Y-12820314D01*
X12291686Y-12806029D01*
X12277400Y-12791743D01*
X12263114Y-12763171D01*
X12248828Y-12706029D01*
X12248828Y-12634600D01*
X12263114Y-12577457D01*
X12277400Y-12548886D01*
X12291686Y-12534600D01*
X12320257Y-12520314D01*
X12548828Y-12820314D02*
X12548828Y-12620314D01*
X12548828Y-12648886D02*
X12563114Y-12634600D01*
X12591686Y-12620314D01*
X12634543Y-12620314D01*
X12663114Y-12634600D01*
X12677400Y-12663171D01*
X12677400Y-12820314D01*
X12677400Y-12663171D02*
X12691686Y-12634600D01*
X12720257Y-12620314D01*
X12763114Y-12620314D01*
X12791686Y-12634600D01*
X12805971Y-12663171D01*
X12805971Y-12820314D01*
X12948828Y-12820314D02*
X12948828Y-12620314D01*
X12948828Y-12648886D02*
X12963114Y-12634600D01*
X12991686Y-12620314D01*
X13034543Y-12620314D01*
X13063114Y-12634600D01*
X13077400Y-12663171D01*
X13077400Y-12820314D01*
X13077400Y-12663171D02*
X13091686Y-12634600D01*
X13120257Y-12620314D01*
X13163114Y-12620314D01*
X13191686Y-12634600D01*
X13205971Y-12663171D01*
X13205971Y-12820314D01*
X13791686Y-12506029D02*
X13534543Y-12891743D01*
X14177400Y-12520314D02*
X14205971Y-12520314D01*
X14234543Y-12534600D01*
X14248828Y-12548886D01*
X14263114Y-12577457D01*
X14277400Y-12634600D01*
X14277400Y-12706029D01*
X14263114Y-12763171D01*
X14248828Y-12791743D01*
X14234543Y-12806029D01*
X14205971Y-12820314D01*
X14177400Y-12820314D01*
X14148828Y-12806029D01*
X14134543Y-12791743D01*
X14120257Y-12763171D01*
X14105971Y-12706029D01*
X14105971Y-12634600D01*
X14120257Y-12577457D01*
X14134543Y-12548886D01*
X14148828Y-12534600D01*
X14177400Y-12520314D01*
X14405971Y-12791743D02*
X14420257Y-12806029D01*
X14405971Y-12820314D01*
X14391686Y-12806029D01*
X14405971Y-12791743D01*
X14405971Y-12820314D01*
X14605971Y-12520314D02*
X14634543Y-12520314D01*
X14663114Y-12534600D01*
X14677400Y-12548886D01*
X14691686Y-12577457D01*
X14705971Y-12634600D01*
X14705971Y-12706029D01*
X14691686Y-12763171D01*
X14677400Y-12791743D01*
X14663114Y-12806029D01*
X14634543Y-12820314D01*
X14605971Y-12820314D01*
X14577400Y-12806029D01*
X14563114Y-12791743D01*
X14548828Y-12763171D01*
X14534543Y-12706029D01*
X14534543Y-12634600D01*
X14548828Y-12577457D01*
X14563114Y-12548886D01*
X14577400Y-12534600D01*
X14605971Y-12520314D01*
X14991686Y-12820314D02*
X14820257Y-12820314D01*
X14905971Y-12820314D02*
X14905971Y-12520314D01*
X14877400Y-12563171D01*
X14848828Y-12591743D01*
X14820257Y-12606029D01*
X15248828Y-12520314D02*
X15191686Y-12520314D01*
X15163114Y-12534600D01*
X15148828Y-12548886D01*
X15120257Y-12591743D01*
X15105971Y-12648886D01*
X15105971Y-12763171D01*
X15120257Y-12791743D01*
X15134543Y-12806029D01*
X15163114Y-12820314D01*
X15220257Y-12820314D01*
X15248828Y-12806029D01*
X15263114Y-12791743D01*
X15277400Y-12763171D01*
X15277400Y-12691743D01*
X15263114Y-12663171D01*
X15248828Y-12648886D01*
X15220257Y-12634600D01*
X15163114Y-12634600D01*
X15134543Y-12648886D01*
X15120257Y-12663171D01*
X15105971Y-12691743D01*
X15391686Y-12520314D02*
X15391686Y-12577457D01*
X15505971Y-12520314D02*
X15505971Y-12577457D01*
X15948828Y-12934600D02*
X15934543Y-12920314D01*
X15905971Y-12877457D01*
X15891686Y-12848886D01*
X15877400Y-12806029D01*
X15863114Y-12734600D01*
X15863114Y-12677457D01*
X15877400Y-12606029D01*
X15891686Y-12563171D01*
X15905971Y-12534600D01*
X15934543Y-12491743D01*
X15948828Y-12477457D01*
X16220257Y-12820314D02*
X16048828Y-12820314D01*
X16134543Y-12820314D02*
X16134543Y-12520314D01*
X16105971Y-12563171D01*
X16077400Y-12591743D01*
X16048828Y-12606029D01*
X16334543Y-12548886D02*
X16348828Y-12534600D01*
X16377400Y-12520314D01*
X16448828Y-12520314D01*
X16477400Y-12534600D01*
X16491686Y-12548886D01*
X16505971Y-12577457D01*
X16505971Y-12606029D01*
X16491686Y-12648886D01*
X16320257Y-12820314D01*
X16505971Y-12820314D01*
X16863114Y-12820314D02*
X16863114Y-12520314D01*
X16991686Y-12820314D02*
X16991686Y-12663171D01*
X16977400Y-12634600D01*
X16948828Y-12620314D01*
X16905971Y-12620314D01*
X16877400Y-12634600D01*
X16863114Y-12648886D01*
X17177400Y-12820314D02*
X17148828Y-12806029D01*
X17134543Y-12791743D01*
X17120257Y-12763171D01*
X17120257Y-12677457D01*
X17134543Y-12648886D01*
X17148828Y-12634600D01*
X17177400Y-12620314D01*
X17220257Y-12620314D01*
X17248828Y-12634600D01*
X17263114Y-12648886D01*
X17277400Y-12677457D01*
X17277400Y-12763171D01*
X17263114Y-12791743D01*
X17248828Y-12806029D01*
X17220257Y-12820314D01*
X17177400Y-12820314D01*
X17448828Y-12820314D02*
X17420257Y-12806029D01*
X17405971Y-12777457D01*
X17405971Y-12520314D01*
X17677400Y-12806029D02*
X17648828Y-12820314D01*
X17591686Y-12820314D01*
X17563114Y-12806029D01*
X17548828Y-12777457D01*
X17548828Y-12663171D01*
X17563114Y-12634600D01*
X17591686Y-12620314D01*
X17648828Y-12620314D01*
X17677400Y-12634600D01*
X17691686Y-12663171D01*
X17691686Y-12691743D01*
X17548828Y-12720314D01*
X17805971Y-12806029D02*
X17834543Y-12820314D01*
X17891686Y-12820314D01*
X17920257Y-12806029D01*
X17934543Y-12777457D01*
X17934543Y-12763171D01*
X17920257Y-12734600D01*
X17891686Y-12720314D01*
X17848828Y-12720314D01*
X17820257Y-12706029D01*
X17805971Y-12677457D01*
X17805971Y-12663171D01*
X17820257Y-12634600D01*
X17848828Y-12620314D01*
X17891686Y-12620314D01*
X17920257Y-12634600D01*
X18034543Y-12934600D02*
X18048828Y-12920314D01*
X18077400Y-12877457D01*
X18091686Y-12848886D01*
X18105971Y-12806029D01*
X18120257Y-12734600D01*
X18120257Y-12677457D01*
X18105971Y-12606029D01*
X18091686Y-12563171D01*
X18077400Y-12534600D01*
X18048828Y-12491743D01*
X18034543Y-12477457D01*
X11262400Y-13080600D02*
G75*
G03*
X11262400Y-13080600I-30000J0D01*
G01*
X11605971Y-12916314D02*
X11634543Y-12916314D01*
X11663114Y-12930600D01*
X11677400Y-12944886D01*
X11691686Y-12973457D01*
X11705971Y-13030600D01*
X11705971Y-13102029D01*
X11691686Y-13159171D01*
X11677400Y-13187743D01*
X11663114Y-13202029D01*
X11634543Y-13216314D01*
X11605971Y-13216314D01*
X11577400Y-13202029D01*
X11563114Y-13187743D01*
X11548828Y-13159171D01*
X11534543Y-13102029D01*
X11534543Y-13030600D01*
X11548828Y-12973457D01*
X11563114Y-12944886D01*
X11577400Y-12930600D01*
X11605971Y-12916314D01*
X11834543Y-13187743D02*
X11848828Y-13202029D01*
X11834543Y-13216314D01*
X11820257Y-13202029D01*
X11834543Y-13187743D01*
X11834543Y-13216314D01*
X12105971Y-12916314D02*
X12048828Y-12916314D01*
X12020257Y-12930600D01*
X12005971Y-12944886D01*
X11977400Y-12987743D01*
X11963114Y-13044886D01*
X11963114Y-13159171D01*
X11977400Y-13187743D01*
X11991686Y-13202029D01*
X12020257Y-13216314D01*
X12077400Y-13216314D01*
X12105971Y-13202029D01*
X12120257Y-13187743D01*
X12134543Y-13159171D01*
X12134543Y-13087743D01*
X12120257Y-13059171D01*
X12105971Y-13044886D01*
X12077400Y-13030600D01*
X12020257Y-13030600D01*
X11991686Y-13044886D01*
X11977400Y-13059171D01*
X11963114Y-13087743D01*
X12320257Y-12916314D02*
X12348828Y-12916314D01*
X12377400Y-12930600D01*
X12391686Y-12944886D01*
X12405971Y-12973457D01*
X12420257Y-13030600D01*
X12420257Y-13102029D01*
X12405971Y-13159171D01*
X12391686Y-13187743D01*
X12377400Y-13202029D01*
X12348828Y-13216314D01*
X12320257Y-13216314D01*
X12291686Y-13202029D01*
X12277400Y-13187743D01*
X12263114Y-13159171D01*
X12248828Y-13102029D01*
X12248828Y-13030600D01*
X12263114Y-12973457D01*
X12277400Y-12944886D01*
X12291686Y-12930600D01*
X12320257Y-12916314D01*
X12548828Y-13216314D02*
X12548828Y-13016314D01*
X12548828Y-13044886D02*
X12563114Y-13030600D01*
X12591686Y-13016314D01*
X12634543Y-13016314D01*
X12663114Y-13030600D01*
X12677400Y-13059171D01*
X12677400Y-13216314D01*
X12677400Y-13059171D02*
X12691686Y-13030600D01*
X12720257Y-13016314D01*
X12763114Y-13016314D01*
X12791686Y-13030600D01*
X12805971Y-13059171D01*
X12805971Y-13216314D01*
X12948828Y-13216314D02*
X12948828Y-13016314D01*
X12948828Y-13044886D02*
X12963114Y-13030600D01*
X12991686Y-13016314D01*
X13034543Y-13016314D01*
X13063114Y-13030600D01*
X13077400Y-13059171D01*
X13077400Y-13216314D01*
X13077400Y-13059171D02*
X13091686Y-13030600D01*
X13120257Y-13016314D01*
X13163114Y-13016314D01*
X13191686Y-13030600D01*
X13205971Y-13059171D01*
X13205971Y-13216314D01*
X13791686Y-12902029D02*
X13534543Y-13287743D01*
X14177400Y-12916314D02*
X14205971Y-12916314D01*
X14234543Y-12930600D01*
X14248828Y-12944886D01*
X14263114Y-12973457D01*
X14277400Y-13030600D01*
X14277400Y-13102029D01*
X14263114Y-13159171D01*
X14248828Y-13187743D01*
X14234543Y-13202029D01*
X14205971Y-13216314D01*
X14177400Y-13216314D01*
X14148828Y-13202029D01*
X14134543Y-13187743D01*
X14120257Y-13159171D01*
X14105971Y-13102029D01*
X14105971Y-13030600D01*
X14120257Y-12973457D01*
X14134543Y-12944886D01*
X14148828Y-12930600D01*
X14177400Y-12916314D01*
X14405971Y-13187743D02*
X14420257Y-13202029D01*
X14405971Y-13216314D01*
X14391686Y-13202029D01*
X14405971Y-13187743D01*
X14405971Y-13216314D01*
X14605971Y-12916314D02*
X14634543Y-12916314D01*
X14663114Y-12930600D01*
X14677400Y-12944886D01*
X14691686Y-12973457D01*
X14705971Y-13030600D01*
X14705971Y-13102029D01*
X14691686Y-13159171D01*
X14677400Y-13187743D01*
X14663114Y-13202029D01*
X14634543Y-13216314D01*
X14605971Y-13216314D01*
X14577400Y-13202029D01*
X14563114Y-13187743D01*
X14548828Y-13159171D01*
X14534543Y-13102029D01*
X14534543Y-13030600D01*
X14548828Y-12973457D01*
X14563114Y-12944886D01*
X14577400Y-12930600D01*
X14605971Y-12916314D01*
X14820257Y-12944886D02*
X14834543Y-12930600D01*
X14863114Y-12916314D01*
X14934543Y-12916314D01*
X14963114Y-12930600D01*
X14977400Y-12944886D01*
X14991686Y-12973457D01*
X14991686Y-13002029D01*
X14977400Y-13044886D01*
X14805971Y-13216314D01*
X14991686Y-13216314D01*
X15248828Y-13016314D02*
X15248828Y-13216314D01*
X15177400Y-12902029D02*
X15105971Y-13116314D01*
X15291686Y-13116314D01*
X15391686Y-12916314D02*
X15391686Y-12973457D01*
X15505971Y-12916314D02*
X15505971Y-12973457D01*
X15948828Y-13330600D02*
X15934543Y-13316314D01*
X15905971Y-13273457D01*
X15891686Y-13244886D01*
X15877400Y-13202029D01*
X15863114Y-13130600D01*
X15863114Y-13073457D01*
X15877400Y-13002029D01*
X15891686Y-12959171D01*
X15905971Y-12930600D01*
X15934543Y-12887743D01*
X15948828Y-12873457D01*
X16048828Y-12944886D02*
X16063114Y-12930600D01*
X16091686Y-12916314D01*
X16163114Y-12916314D01*
X16191686Y-12930600D01*
X16205971Y-12944886D01*
X16220257Y-12973457D01*
X16220257Y-13002029D01*
X16205971Y-13044886D01*
X16034543Y-13216314D01*
X16220257Y-13216314D01*
X16577400Y-13216314D02*
X16577400Y-12916314D01*
X16705971Y-13216314D02*
X16705971Y-13059171D01*
X16691686Y-13030600D01*
X16663114Y-13016314D01*
X16620257Y-13016314D01*
X16591686Y-13030600D01*
X16577400Y-13044886D01*
X16891686Y-13216314D02*
X16863114Y-13202029D01*
X16848828Y-13187743D01*
X16834543Y-13159171D01*
X16834543Y-13073457D01*
X16848828Y-13044886D01*
X16863114Y-13030600D01*
X16891686Y-13016314D01*
X16934543Y-13016314D01*
X16963114Y-13030600D01*
X16977400Y-13044886D01*
X16991686Y-13073457D01*
X16991686Y-13159171D01*
X16977400Y-13187743D01*
X16963114Y-13202029D01*
X16934543Y-13216314D01*
X16891686Y-13216314D01*
X17163114Y-13216314D02*
X17134543Y-13202029D01*
X17120257Y-13173457D01*
X17120257Y-12916314D01*
X17391686Y-13202029D02*
X17363114Y-13216314D01*
X17305971Y-13216314D01*
X17277400Y-13202029D01*
X17263114Y-13173457D01*
X17263114Y-13059171D01*
X17277400Y-13030600D01*
X17305971Y-13016314D01*
X17363114Y-13016314D01*
X17391686Y-13030600D01*
X17405971Y-13059171D01*
X17405971Y-13087743D01*
X17263114Y-13116314D01*
X17520257Y-13202029D02*
X17548828Y-13216314D01*
X17605971Y-13216314D01*
X17634543Y-13202029D01*
X17648828Y-13173457D01*
X17648828Y-13159171D01*
X17634543Y-13130600D01*
X17605971Y-13116314D01*
X17563114Y-13116314D01*
X17534543Y-13102029D01*
X17520257Y-13073457D01*
X17520257Y-13059171D01*
X17534543Y-13030600D01*
X17563114Y-13016314D01*
X17605971Y-13016314D01*
X17634543Y-13030600D01*
X17748828Y-13330600D02*
X17763114Y-13316314D01*
X17791686Y-13273457D01*
X17805971Y-13244886D01*
X17820257Y-13202029D01*
X17834543Y-13130600D01*
X17834543Y-13073457D01*
X17820257Y-13002029D01*
X17805971Y-12959171D01*
X17791686Y-12930600D01*
X17763114Y-12887743D01*
X17748828Y-12873457D01*
X11224900Y-13439100D02*
X11224900Y-13514100D01*
X11187400Y-13476600D02*
X11262400Y-13476600D01*
X11605971Y-13312314D02*
X11634543Y-13312314D01*
X11663114Y-13326600D01*
X11677400Y-13340886D01*
X11691686Y-13369457D01*
X11705971Y-13426600D01*
X11705971Y-13498029D01*
X11691686Y-13555171D01*
X11677400Y-13583743D01*
X11663114Y-13598029D01*
X11634543Y-13612314D01*
X11605971Y-13612314D01*
X11577400Y-13598029D01*
X11563114Y-13583743D01*
X11548828Y-13555171D01*
X11534543Y-13498029D01*
X11534543Y-13426600D01*
X11548828Y-13369457D01*
X11563114Y-13340886D01*
X11577400Y-13326600D01*
X11605971Y-13312314D01*
X11834543Y-13583743D02*
X11848828Y-13598029D01*
X11834543Y-13612314D01*
X11820257Y-13598029D01*
X11834543Y-13583743D01*
X11834543Y-13612314D01*
X11948828Y-13312314D02*
X12148828Y-13312314D01*
X12020257Y-13612314D01*
X12405971Y-13312314D02*
X12263114Y-13312314D01*
X12248828Y-13455171D01*
X12263114Y-13440886D01*
X12291686Y-13426600D01*
X12363114Y-13426600D01*
X12391686Y-13440886D01*
X12405971Y-13455171D01*
X12420257Y-13483743D01*
X12420257Y-13555171D01*
X12405971Y-13583743D01*
X12391686Y-13598029D01*
X12363114Y-13612314D01*
X12291686Y-13612314D01*
X12263114Y-13598029D01*
X12248828Y-13583743D01*
X12548828Y-13612314D02*
X12548828Y-13412314D01*
X12548828Y-13440886D02*
X12563114Y-13426600D01*
X12591686Y-13412314D01*
X12634543Y-13412314D01*
X12663114Y-13426600D01*
X12677400Y-13455171D01*
X12677400Y-13612314D01*
X12677400Y-13455171D02*
X12691686Y-13426600D01*
X12720257Y-13412314D01*
X12763114Y-13412314D01*
X12791686Y-13426600D01*
X12805971Y-13455171D01*
X12805971Y-13612314D01*
X12948828Y-13612314D02*
X12948828Y-13412314D01*
X12948828Y-13440886D02*
X12963114Y-13426600D01*
X12991686Y-13412314D01*
X13034543Y-13412314D01*
X13063114Y-13426600D01*
X13077400Y-13455171D01*
X13077400Y-13612314D01*
X13077400Y-13455171D02*
X13091686Y-13426600D01*
X13120257Y-13412314D01*
X13163114Y-13412314D01*
X13191686Y-13426600D01*
X13205971Y-13455171D01*
X13205971Y-13612314D01*
X13791686Y-13298029D02*
X13534543Y-13683743D01*
X14177400Y-13312314D02*
X14205971Y-13312314D01*
X14234543Y-13326600D01*
X14248828Y-13340886D01*
X14263114Y-13369457D01*
X14277400Y-13426600D01*
X14277400Y-13498029D01*
X14263114Y-13555171D01*
X14248828Y-13583743D01*
X14234543Y-13598029D01*
X14205971Y-13612314D01*
X14177400Y-13612314D01*
X14148828Y-13598029D01*
X14134543Y-13583743D01*
X14120257Y-13555171D01*
X14105971Y-13498029D01*
X14105971Y-13426600D01*
X14120257Y-13369457D01*
X14134543Y-13340886D01*
X14148828Y-13326600D01*
X14177400Y-13312314D01*
X14405971Y-13583743D02*
X14420257Y-13598029D01*
X14405971Y-13612314D01*
X14391686Y-13598029D01*
X14405971Y-13583743D01*
X14405971Y-13612314D01*
X14605971Y-13312314D02*
X14634543Y-13312314D01*
X14663114Y-13326600D01*
X14677400Y-13340886D01*
X14691686Y-13369457D01*
X14705971Y-13426600D01*
X14705971Y-13498029D01*
X14691686Y-13555171D01*
X14677400Y-13583743D01*
X14663114Y-13598029D01*
X14634543Y-13612314D01*
X14605971Y-13612314D01*
X14577400Y-13598029D01*
X14563114Y-13583743D01*
X14548828Y-13555171D01*
X14534543Y-13498029D01*
X14534543Y-13426600D01*
X14548828Y-13369457D01*
X14563114Y-13340886D01*
X14577400Y-13326600D01*
X14605971Y-13312314D01*
X14805971Y-13312314D02*
X14991686Y-13312314D01*
X14891686Y-13426600D01*
X14934543Y-13426600D01*
X14963114Y-13440886D01*
X14977400Y-13455171D01*
X14991686Y-13483743D01*
X14991686Y-13555171D01*
X14977400Y-13583743D01*
X14963114Y-13598029D01*
X14934543Y-13612314D01*
X14848828Y-13612314D01*
X14820257Y-13598029D01*
X14805971Y-13583743D01*
X15177400Y-13312314D02*
X15205971Y-13312314D01*
X15234543Y-13326600D01*
X15248828Y-13340886D01*
X15263114Y-13369457D01*
X15277400Y-13426600D01*
X15277400Y-13498029D01*
X15263114Y-13555171D01*
X15248828Y-13583743D01*
X15234543Y-13598029D01*
X15205971Y-13612314D01*
X15177400Y-13612314D01*
X15148828Y-13598029D01*
X15134543Y-13583743D01*
X15120257Y-13555171D01*
X15105971Y-13498029D01*
X15105971Y-13426600D01*
X15120257Y-13369457D01*
X15134543Y-13340886D01*
X15148828Y-13326600D01*
X15177400Y-13312314D01*
X15391686Y-13312314D02*
X15391686Y-13369457D01*
X15505971Y-13312314D02*
X15505971Y-13369457D01*
X15948828Y-13726600D02*
X15934543Y-13712314D01*
X15905971Y-13669457D01*
X15891686Y-13640886D01*
X15877400Y-13598029D01*
X15863114Y-13526600D01*
X15863114Y-13469457D01*
X15877400Y-13398029D01*
X15891686Y-13355171D01*
X15905971Y-13326600D01*
X15934543Y-13283743D01*
X15948828Y-13269457D01*
X16048828Y-13340886D02*
X16063114Y-13326600D01*
X16091686Y-13312314D01*
X16163114Y-13312314D01*
X16191686Y-13326600D01*
X16205971Y-13340886D01*
X16220257Y-13369457D01*
X16220257Y-13398029D01*
X16205971Y-13440886D01*
X16034543Y-13612314D01*
X16220257Y-13612314D01*
X16577400Y-13612314D02*
X16577400Y-13312314D01*
X16705971Y-13612314D02*
X16705971Y-13455171D01*
X16691686Y-13426600D01*
X16663114Y-13412314D01*
X16620257Y-13412314D01*
X16591686Y-13426600D01*
X16577400Y-13440886D01*
X16891686Y-13612314D02*
X16863114Y-13598029D01*
X16848828Y-13583743D01*
X16834543Y-13555171D01*
X16834543Y-13469457D01*
X16848828Y-13440886D01*
X16863114Y-13426600D01*
X16891686Y-13412314D01*
X16934543Y-13412314D01*
X16963114Y-13426600D01*
X16977400Y-13440886D01*
X16991686Y-13469457D01*
X16991686Y-13555171D01*
X16977400Y-13583743D01*
X16963114Y-13598029D01*
X16934543Y-13612314D01*
X16891686Y-13612314D01*
X17163114Y-13612314D02*
X17134543Y-13598029D01*
X17120257Y-13569457D01*
X17120257Y-13312314D01*
X17391686Y-13598029D02*
X17363114Y-13612314D01*
X17305971Y-13612314D01*
X17277400Y-13598029D01*
X17263114Y-13569457D01*
X17263114Y-13455171D01*
X17277400Y-13426600D01*
X17305971Y-13412314D01*
X17363114Y-13412314D01*
X17391686Y-13426600D01*
X17405971Y-13455171D01*
X17405971Y-13483743D01*
X17263114Y-13512314D01*
X17520257Y-13598029D02*
X17548828Y-13612314D01*
X17605971Y-13612314D01*
X17634543Y-13598029D01*
X17648828Y-13569457D01*
X17648828Y-13555171D01*
X17634543Y-13526600D01*
X17605971Y-13512314D01*
X17563114Y-13512314D01*
X17534543Y-13498029D01*
X17520257Y-13469457D01*
X17520257Y-13455171D01*
X17534543Y-13426600D01*
X17563114Y-13412314D01*
X17605971Y-13412314D01*
X17634543Y-13426600D01*
X17748828Y-13726600D02*
X17763114Y-13712314D01*
X17791686Y-13669457D01*
X17805971Y-13640886D01*
X17820257Y-13598029D01*
X17834543Y-13526600D01*
X17834543Y-13469457D01*
X17820257Y-13398029D01*
X17805971Y-13355171D01*
X17791686Y-13326600D01*
X17763114Y-13283743D01*
X17748828Y-13269457D01*
X11250684Y-13900885D02*
X11250684Y-13844316D01*
X11194115Y-13844316D01*
X11194115Y-13900885D01*
X11250684Y-13900885D01*
X11605971Y-13708314D02*
X11634543Y-13708314D01*
X11663114Y-13722600D01*
X11677400Y-13736886D01*
X11691686Y-13765457D01*
X11705971Y-13822600D01*
X11705971Y-13894029D01*
X11691686Y-13951171D01*
X11677400Y-13979743D01*
X11663114Y-13994029D01*
X11634543Y-14008314D01*
X11605971Y-14008314D01*
X11577400Y-13994029D01*
X11563114Y-13979743D01*
X11548828Y-13951171D01*
X11534543Y-13894029D01*
X11534543Y-13822600D01*
X11548828Y-13765457D01*
X11563114Y-13736886D01*
X11577400Y-13722600D01*
X11605971Y-13708314D01*
X11834543Y-13979743D02*
X11848828Y-13994029D01*
X11834543Y-14008314D01*
X11820257Y-13994029D01*
X11834543Y-13979743D01*
X11834543Y-14008314D01*
X12020257Y-13836886D02*
X11991686Y-13822600D01*
X11977400Y-13808314D01*
X11963114Y-13779743D01*
X11963114Y-13765457D01*
X11977400Y-13736886D01*
X11991686Y-13722600D01*
X12020257Y-13708314D01*
X12077400Y-13708314D01*
X12105971Y-13722600D01*
X12120257Y-13736886D01*
X12134543Y-13765457D01*
X12134543Y-13779743D01*
X12120257Y-13808314D01*
X12105971Y-13822600D01*
X12077400Y-13836886D01*
X12020257Y-13836886D01*
X11991686Y-13851171D01*
X11977400Y-13865457D01*
X11963114Y-13894029D01*
X11963114Y-13951171D01*
X11977400Y-13979743D01*
X11991686Y-13994029D01*
X12020257Y-14008314D01*
X12077400Y-14008314D01*
X12105971Y-13994029D01*
X12120257Y-13979743D01*
X12134543Y-13951171D01*
X12134543Y-13894029D01*
X12120257Y-13865457D01*
X12105971Y-13851171D01*
X12077400Y-13836886D01*
X12320257Y-13708314D02*
X12348828Y-13708314D01*
X12377400Y-13722600D01*
X12391686Y-13736886D01*
X12405971Y-13765457D01*
X12420257Y-13822600D01*
X12420257Y-13894029D01*
X12405971Y-13951171D01*
X12391686Y-13979743D01*
X12377400Y-13994029D01*
X12348828Y-14008314D01*
X12320257Y-14008314D01*
X12291686Y-13994029D01*
X12277400Y-13979743D01*
X12263114Y-13951171D01*
X12248828Y-13894029D01*
X12248828Y-13822600D01*
X12263114Y-13765457D01*
X12277400Y-13736886D01*
X12291686Y-13722600D01*
X12320257Y-13708314D01*
X12548828Y-14008314D02*
X12548828Y-13808314D01*
X12548828Y-13836886D02*
X12563114Y-13822600D01*
X12591686Y-13808314D01*
X12634543Y-13808314D01*
X12663114Y-13822600D01*
X12677400Y-13851171D01*
X12677400Y-14008314D01*
X12677400Y-13851171D02*
X12691686Y-13822600D01*
X12720257Y-13808314D01*
X12763114Y-13808314D01*
X12791686Y-13822600D01*
X12805971Y-13851171D01*
X12805971Y-14008314D01*
X12948828Y-14008314D02*
X12948828Y-13808314D01*
X12948828Y-13836886D02*
X12963114Y-13822600D01*
X12991686Y-13808314D01*
X13034543Y-13808314D01*
X13063114Y-13822600D01*
X13077400Y-13851171D01*
X13077400Y-14008314D01*
X13077400Y-13851171D02*
X13091686Y-13822600D01*
X13120257Y-13808314D01*
X13163114Y-13808314D01*
X13191686Y-13822600D01*
X13205971Y-13851171D01*
X13205971Y-14008314D01*
X13791686Y-13694029D02*
X13534543Y-14079743D01*
X14177400Y-13708314D02*
X14205971Y-13708314D01*
X14234543Y-13722600D01*
X14248828Y-13736886D01*
X14263114Y-13765457D01*
X14277400Y-13822600D01*
X14277400Y-13894029D01*
X14263114Y-13951171D01*
X14248828Y-13979743D01*
X14234543Y-13994029D01*
X14205971Y-14008314D01*
X14177400Y-14008314D01*
X14148828Y-13994029D01*
X14134543Y-13979743D01*
X14120257Y-13951171D01*
X14105971Y-13894029D01*
X14105971Y-13822600D01*
X14120257Y-13765457D01*
X14134543Y-13736886D01*
X14148828Y-13722600D01*
X14177400Y-13708314D01*
X14405971Y-13979743D02*
X14420257Y-13994029D01*
X14405971Y-14008314D01*
X14391686Y-13994029D01*
X14405971Y-13979743D01*
X14405971Y-14008314D01*
X14605971Y-13708314D02*
X14634543Y-13708314D01*
X14663114Y-13722600D01*
X14677400Y-13736886D01*
X14691686Y-13765457D01*
X14705971Y-13822600D01*
X14705971Y-13894029D01*
X14691686Y-13951171D01*
X14677400Y-13979743D01*
X14663114Y-13994029D01*
X14634543Y-14008314D01*
X14605971Y-14008314D01*
X14577400Y-13994029D01*
X14563114Y-13979743D01*
X14548828Y-13951171D01*
X14534543Y-13894029D01*
X14534543Y-13822600D01*
X14548828Y-13765457D01*
X14563114Y-13736886D01*
X14577400Y-13722600D01*
X14605971Y-13708314D01*
X14805971Y-13708314D02*
X14991686Y-13708314D01*
X14891686Y-13822600D01*
X14934543Y-13822600D01*
X14963114Y-13836886D01*
X14977400Y-13851171D01*
X14991686Y-13879743D01*
X14991686Y-13951171D01*
X14977400Y-13979743D01*
X14963114Y-13994029D01*
X14934543Y-14008314D01*
X14848828Y-14008314D01*
X14820257Y-13994029D01*
X14805971Y-13979743D01*
X15277400Y-14008314D02*
X15105971Y-14008314D01*
X15191686Y-14008314D02*
X15191686Y-13708314D01*
X15163114Y-13751171D01*
X15134543Y-13779743D01*
X15105971Y-13794029D01*
X15391686Y-13708314D02*
X15391686Y-13765457D01*
X15505971Y-13708314D02*
X15505971Y-13765457D01*
X15948828Y-14122600D02*
X15934543Y-14108314D01*
X15905971Y-14065457D01*
X15891686Y-14036886D01*
X15877400Y-13994029D01*
X15863114Y-13922600D01*
X15863114Y-13865457D01*
X15877400Y-13794029D01*
X15891686Y-13751171D01*
X15905971Y-13722600D01*
X15934543Y-13679743D01*
X15948828Y-13665457D01*
X16034543Y-13708314D02*
X16220257Y-13708314D01*
X16120257Y-13822600D01*
X16163114Y-13822600D01*
X16191686Y-13836886D01*
X16205971Y-13851171D01*
X16220257Y-13879743D01*
X16220257Y-13951171D01*
X16205971Y-13979743D01*
X16191686Y-13994029D01*
X16163114Y-14008314D01*
X16077400Y-14008314D01*
X16048828Y-13994029D01*
X16034543Y-13979743D01*
X16334543Y-13736886D02*
X16348828Y-13722600D01*
X16377400Y-13708314D01*
X16448828Y-13708314D01*
X16477400Y-13722600D01*
X16491686Y-13736886D01*
X16505971Y-13765457D01*
X16505971Y-13794029D01*
X16491686Y-13836886D01*
X16320257Y-14008314D01*
X16505971Y-14008314D01*
X16863114Y-14008314D02*
X16863114Y-13708314D01*
X16991686Y-14008314D02*
X16991686Y-13851171D01*
X16977400Y-13822600D01*
X16948828Y-13808314D01*
X16905971Y-13808314D01*
X16877400Y-13822600D01*
X16863114Y-13836886D01*
X17177400Y-14008314D02*
X17148828Y-13994029D01*
X17134543Y-13979743D01*
X17120257Y-13951171D01*
X17120257Y-13865457D01*
X17134543Y-13836886D01*
X17148828Y-13822600D01*
X17177400Y-13808314D01*
X17220257Y-13808314D01*
X17248828Y-13822600D01*
X17263114Y-13836886D01*
X17277400Y-13865457D01*
X17277400Y-13951171D01*
X17263114Y-13979743D01*
X17248828Y-13994029D01*
X17220257Y-14008314D01*
X17177400Y-14008314D01*
X17448828Y-14008314D02*
X17420257Y-13994029D01*
X17405971Y-13965457D01*
X17405971Y-13708314D01*
X17677400Y-13994029D02*
X17648828Y-14008314D01*
X17591686Y-14008314D01*
X17563114Y-13994029D01*
X17548828Y-13965457D01*
X17548828Y-13851171D01*
X17563114Y-13822600D01*
X17591686Y-13808314D01*
X17648828Y-13808314D01*
X17677400Y-13822600D01*
X17691686Y-13851171D01*
X17691686Y-13879743D01*
X17548828Y-13908314D01*
X17805971Y-13994029D02*
X17834543Y-14008314D01*
X17891686Y-14008314D01*
X17920257Y-13994029D01*
X17934543Y-13965457D01*
X17934543Y-13951171D01*
X17920257Y-13922600D01*
X17891686Y-13908314D01*
X17848828Y-13908314D01*
X17820257Y-13894029D01*
X17805971Y-13865457D01*
X17805971Y-13851171D01*
X17820257Y-13822600D01*
X17848828Y-13808314D01*
X17891686Y-13808314D01*
X17920257Y-13822600D01*
X18034543Y-14122600D02*
X18048828Y-14108314D01*
X18077400Y-14065457D01*
X18091686Y-14036886D01*
X18105971Y-13994029D01*
X18120257Y-13922600D01*
X18120257Y-13865457D01*
X18105971Y-13794029D01*
X18091686Y-13751171D01*
X18077400Y-13722600D01*
X18048828Y-13679743D01*
X18034543Y-13665457D01*
X11212400Y-14318600D02*
X11262400Y-14268600D01*
X11212400Y-14218600D01*
X11162400Y-14268600D01*
X11212400Y-14318600D01*
X11705971Y-14404314D02*
X11534543Y-14404314D01*
X11620257Y-14404314D02*
X11620257Y-14104314D01*
X11591686Y-14147171D01*
X11563114Y-14175743D01*
X11534543Y-14190029D01*
X11834543Y-14375743D02*
X11848828Y-14390029D01*
X11834543Y-14404314D01*
X11820257Y-14390029D01*
X11834543Y-14375743D01*
X11834543Y-14404314D01*
X12034543Y-14104314D02*
X12063114Y-14104314D01*
X12091686Y-14118600D01*
X12105971Y-14132886D01*
X12120257Y-14161457D01*
X12134543Y-14218600D01*
X12134543Y-14290029D01*
X12120257Y-14347171D01*
X12105971Y-14375743D01*
X12091686Y-14390029D01*
X12063114Y-14404314D01*
X12034543Y-14404314D01*
X12005971Y-14390029D01*
X11991686Y-14375743D01*
X11977400Y-14347171D01*
X11963114Y-14290029D01*
X11963114Y-14218600D01*
X11977400Y-14161457D01*
X11991686Y-14132886D01*
X12005971Y-14118600D01*
X12034543Y-14104314D01*
X12320257Y-14104314D02*
X12348828Y-14104314D01*
X12377400Y-14118600D01*
X12391686Y-14132886D01*
X12405971Y-14161457D01*
X12420257Y-14218600D01*
X12420257Y-14290029D01*
X12405971Y-14347171D01*
X12391686Y-14375743D01*
X12377400Y-14390029D01*
X12348828Y-14404314D01*
X12320257Y-14404314D01*
X12291686Y-14390029D01*
X12277400Y-14375743D01*
X12263114Y-14347171D01*
X12248828Y-14290029D01*
X12248828Y-14218600D01*
X12263114Y-14161457D01*
X12277400Y-14132886D01*
X12291686Y-14118600D01*
X12320257Y-14104314D01*
X12548828Y-14404314D02*
X12548828Y-14204314D01*
X12548828Y-14232886D02*
X12563114Y-14218600D01*
X12591686Y-14204314D01*
X12634543Y-14204314D01*
X12663114Y-14218600D01*
X12677400Y-14247171D01*
X12677400Y-14404314D01*
X12677400Y-14247171D02*
X12691686Y-14218600D01*
X12720257Y-14204314D01*
X12763114Y-14204314D01*
X12791686Y-14218600D01*
X12805971Y-14247171D01*
X12805971Y-14404314D01*
X12948828Y-14404314D02*
X12948828Y-14204314D01*
X12948828Y-14232886D02*
X12963114Y-14218600D01*
X12991686Y-14204314D01*
X13034543Y-14204314D01*
X13063114Y-14218600D01*
X13077400Y-14247171D01*
X13077400Y-14404314D01*
X13077400Y-14247171D02*
X13091686Y-14218600D01*
X13120257Y-14204314D01*
X13163114Y-14204314D01*
X13191686Y-14218600D01*
X13205971Y-14247171D01*
X13205971Y-14404314D01*
X13791686Y-14090029D02*
X13534543Y-14475743D01*
X14177400Y-14104314D02*
X14205971Y-14104314D01*
X14234543Y-14118600D01*
X14248828Y-14132886D01*
X14263114Y-14161457D01*
X14277400Y-14218600D01*
X14277400Y-14290029D01*
X14263114Y-14347171D01*
X14248828Y-14375743D01*
X14234543Y-14390029D01*
X14205971Y-14404314D01*
X14177400Y-14404314D01*
X14148828Y-14390029D01*
X14134543Y-14375743D01*
X14120257Y-14347171D01*
X14105971Y-14290029D01*
X14105971Y-14218600D01*
X14120257Y-14161457D01*
X14134543Y-14132886D01*
X14148828Y-14118600D01*
X14177400Y-14104314D01*
X14405971Y-14375743D02*
X14420257Y-14390029D01*
X14405971Y-14404314D01*
X14391686Y-14390029D01*
X14405971Y-14375743D01*
X14405971Y-14404314D01*
X14605971Y-14104314D02*
X14634543Y-14104314D01*
X14663114Y-14118600D01*
X14677400Y-14132886D01*
X14691686Y-14161457D01*
X14705971Y-14218600D01*
X14705971Y-14290029D01*
X14691686Y-14347171D01*
X14677400Y-14375743D01*
X14663114Y-14390029D01*
X14634543Y-14404314D01*
X14605971Y-14404314D01*
X14577400Y-14390029D01*
X14563114Y-14375743D01*
X14548828Y-14347171D01*
X14534543Y-14290029D01*
X14534543Y-14218600D01*
X14548828Y-14161457D01*
X14563114Y-14132886D01*
X14577400Y-14118600D01*
X14605971Y-14104314D01*
X14805971Y-14104314D02*
X14991686Y-14104314D01*
X14891686Y-14218600D01*
X14934543Y-14218600D01*
X14963114Y-14232886D01*
X14977400Y-14247171D01*
X14991686Y-14275743D01*
X14991686Y-14347171D01*
X14977400Y-14375743D01*
X14963114Y-14390029D01*
X14934543Y-14404314D01*
X14848828Y-14404314D01*
X14820257Y-14390029D01*
X14805971Y-14375743D01*
X15134543Y-14404314D02*
X15191686Y-14404314D01*
X15220257Y-14390029D01*
X15234543Y-14375743D01*
X15263114Y-14332886D01*
X15277400Y-14275743D01*
X15277400Y-14161457D01*
X15263114Y-14132886D01*
X15248828Y-14118600D01*
X15220257Y-14104314D01*
X15163114Y-14104314D01*
X15134543Y-14118600D01*
X15120257Y-14132886D01*
X15105971Y-14161457D01*
X15105971Y-14232886D01*
X15120257Y-14261457D01*
X15134543Y-14275743D01*
X15163114Y-14290029D01*
X15220257Y-14290029D01*
X15248828Y-14275743D01*
X15263114Y-14261457D01*
X15277400Y-14232886D01*
X15391686Y-14104314D02*
X15391686Y-14161457D01*
X15505971Y-14104314D02*
X15505971Y-14161457D01*
X15948828Y-14518600D02*
X15934543Y-14504314D01*
X15905971Y-14461457D01*
X15891686Y-14432886D01*
X15877400Y-14390029D01*
X15863114Y-14318600D01*
X15863114Y-14261457D01*
X15877400Y-14190029D01*
X15891686Y-14147171D01*
X15905971Y-14118600D01*
X15934543Y-14075743D01*
X15948828Y-14061457D01*
X16191686Y-14204314D02*
X16191686Y-14404314D01*
X16120257Y-14090029D02*
X16048828Y-14304314D01*
X16234543Y-14304314D01*
X16405971Y-14104314D02*
X16434543Y-14104314D01*
X16463114Y-14118600D01*
X16477400Y-14132886D01*
X16491686Y-14161457D01*
X16505971Y-14218600D01*
X16505971Y-14290029D01*
X16491686Y-14347171D01*
X16477400Y-14375743D01*
X16463114Y-14390029D01*
X16434543Y-14404314D01*
X16405971Y-14404314D01*
X16377400Y-14390029D01*
X16363114Y-14375743D01*
X16348828Y-14347171D01*
X16334543Y-14290029D01*
X16334543Y-14218600D01*
X16348828Y-14161457D01*
X16363114Y-14132886D01*
X16377400Y-14118600D01*
X16405971Y-14104314D01*
X16863114Y-14404314D02*
X16863114Y-14104314D01*
X16991686Y-14404314D02*
X16991686Y-14247171D01*
X16977400Y-14218600D01*
X16948828Y-14204314D01*
X16905971Y-14204314D01*
X16877400Y-14218600D01*
X16863114Y-14232886D01*
X17177400Y-14404314D02*
X17148828Y-14390029D01*
X17134543Y-14375743D01*
X17120257Y-14347171D01*
X17120257Y-14261457D01*
X17134543Y-14232886D01*
X17148828Y-14218600D01*
X17177400Y-14204314D01*
X17220257Y-14204314D01*
X17248828Y-14218600D01*
X17263114Y-14232886D01*
X17277400Y-14261457D01*
X17277400Y-14347171D01*
X17263114Y-14375743D01*
X17248828Y-14390029D01*
X17220257Y-14404314D01*
X17177400Y-14404314D01*
X17448828Y-14404314D02*
X17420257Y-14390029D01*
X17405971Y-14361457D01*
X17405971Y-14104314D01*
X17677400Y-14390029D02*
X17648828Y-14404314D01*
X17591686Y-14404314D01*
X17563114Y-14390029D01*
X17548828Y-14361457D01*
X17548828Y-14247171D01*
X17563114Y-14218600D01*
X17591686Y-14204314D01*
X17648828Y-14204314D01*
X17677400Y-14218600D01*
X17691686Y-14247171D01*
X17691686Y-14275743D01*
X17548828Y-14304314D01*
X17805971Y-14390029D02*
X17834543Y-14404314D01*
X17891686Y-14404314D01*
X17920257Y-14390029D01*
X17934543Y-14361457D01*
X17934543Y-14347171D01*
X17920257Y-14318600D01*
X17891686Y-14304314D01*
X17848828Y-14304314D01*
X17820257Y-14290029D01*
X17805971Y-14261457D01*
X17805971Y-14247171D01*
X17820257Y-14218600D01*
X17848828Y-14204314D01*
X17891686Y-14204314D01*
X17920257Y-14218600D01*
X18034543Y-14518600D02*
X18048828Y-14504314D01*
X18077400Y-14461457D01*
X18091686Y-14432886D01*
X18105971Y-14390029D01*
X18120257Y-14318600D01*
X18120257Y-14261457D01*
X18105971Y-14190029D01*
X18091686Y-14147171D01*
X18077400Y-14118600D01*
X18048828Y-14075743D01*
X18034543Y-14061457D01*
X11132400Y-14599600D02*
X11262400Y-14729600D01*
X11262400Y-14599600D02*
X11132400Y-14729600D01*
X11262400Y-14664600D02*
G75*
G03*
X11262400Y-14664600I-65000J0D01*
G01*
X11705971Y-14800314D02*
X11534543Y-14800314D01*
X11620257Y-14800314D02*
X11620257Y-14500314D01*
X11591686Y-14543171D01*
X11563114Y-14571743D01*
X11534543Y-14586029D01*
X11834543Y-14771743D02*
X11848828Y-14786029D01*
X11834543Y-14800314D01*
X11820257Y-14786029D01*
X11834543Y-14771743D01*
X11834543Y-14800314D01*
X11948828Y-14500314D02*
X12134543Y-14500314D01*
X12034543Y-14614600D01*
X12077400Y-14614600D01*
X12105971Y-14628886D01*
X12120257Y-14643171D01*
X12134543Y-14671743D01*
X12134543Y-14743171D01*
X12120257Y-14771743D01*
X12105971Y-14786029D01*
X12077400Y-14800314D01*
X11991686Y-14800314D01*
X11963114Y-14786029D01*
X11948828Y-14771743D01*
X12320257Y-14500314D02*
X12348828Y-14500314D01*
X12377400Y-14514600D01*
X12391686Y-14528886D01*
X12405971Y-14557457D01*
X12420257Y-14614600D01*
X12420257Y-14686029D01*
X12405971Y-14743171D01*
X12391686Y-14771743D01*
X12377400Y-14786029D01*
X12348828Y-14800314D01*
X12320257Y-14800314D01*
X12291686Y-14786029D01*
X12277400Y-14771743D01*
X12263114Y-14743171D01*
X12248828Y-14686029D01*
X12248828Y-14614600D01*
X12263114Y-14557457D01*
X12277400Y-14528886D01*
X12291686Y-14514600D01*
X12320257Y-14500314D01*
X12548828Y-14800314D02*
X12548828Y-14600314D01*
X12548828Y-14628886D02*
X12563114Y-14614600D01*
X12591686Y-14600314D01*
X12634543Y-14600314D01*
X12663114Y-14614600D01*
X12677400Y-14643171D01*
X12677400Y-14800314D01*
X12677400Y-14643171D02*
X12691686Y-14614600D01*
X12720257Y-14600314D01*
X12763114Y-14600314D01*
X12791686Y-14614600D01*
X12805971Y-14643171D01*
X12805971Y-14800314D01*
X12948828Y-14800314D02*
X12948828Y-14600314D01*
X12948828Y-14628886D02*
X12963114Y-14614600D01*
X12991686Y-14600314D01*
X13034543Y-14600314D01*
X13063114Y-14614600D01*
X13077400Y-14643171D01*
X13077400Y-14800314D01*
X13077400Y-14643171D02*
X13091686Y-14614600D01*
X13120257Y-14600314D01*
X13163114Y-14600314D01*
X13191686Y-14614600D01*
X13205971Y-14643171D01*
X13205971Y-14800314D01*
X13791686Y-14486029D02*
X13534543Y-14871743D01*
X14177400Y-14500314D02*
X14205971Y-14500314D01*
X14234543Y-14514600D01*
X14248828Y-14528886D01*
X14263114Y-14557457D01*
X14277400Y-14614600D01*
X14277400Y-14686029D01*
X14263114Y-14743171D01*
X14248828Y-14771743D01*
X14234543Y-14786029D01*
X14205971Y-14800314D01*
X14177400Y-14800314D01*
X14148828Y-14786029D01*
X14134543Y-14771743D01*
X14120257Y-14743171D01*
X14105971Y-14686029D01*
X14105971Y-14614600D01*
X14120257Y-14557457D01*
X14134543Y-14528886D01*
X14148828Y-14514600D01*
X14177400Y-14500314D01*
X14405971Y-14771743D02*
X14420257Y-14786029D01*
X14405971Y-14800314D01*
X14391686Y-14786029D01*
X14405971Y-14771743D01*
X14405971Y-14800314D01*
X14605971Y-14500314D02*
X14634543Y-14500314D01*
X14663114Y-14514600D01*
X14677400Y-14528886D01*
X14691686Y-14557457D01*
X14705971Y-14614600D01*
X14705971Y-14686029D01*
X14691686Y-14743171D01*
X14677400Y-14771743D01*
X14663114Y-14786029D01*
X14634543Y-14800314D01*
X14605971Y-14800314D01*
X14577400Y-14786029D01*
X14563114Y-14771743D01*
X14548828Y-14743171D01*
X14534543Y-14686029D01*
X14534543Y-14614600D01*
X14548828Y-14557457D01*
X14563114Y-14528886D01*
X14577400Y-14514600D01*
X14605971Y-14500314D01*
X14977400Y-14500314D02*
X14834543Y-14500314D01*
X14820257Y-14643171D01*
X14834543Y-14628886D01*
X14863114Y-14614600D01*
X14934543Y-14614600D01*
X14963114Y-14628886D01*
X14977400Y-14643171D01*
X14991686Y-14671743D01*
X14991686Y-14743171D01*
X14977400Y-14771743D01*
X14963114Y-14786029D01*
X14934543Y-14800314D01*
X14863114Y-14800314D01*
X14834543Y-14786029D01*
X14820257Y-14771743D01*
X15277400Y-14800314D02*
X15105971Y-14800314D01*
X15191686Y-14800314D02*
X15191686Y-14500314D01*
X15163114Y-14543171D01*
X15134543Y-14571743D01*
X15105971Y-14586029D01*
X15391686Y-14500314D02*
X15391686Y-14557457D01*
X15505971Y-14500314D02*
X15505971Y-14557457D01*
X15948828Y-14914600D02*
X15934543Y-14900314D01*
X15905971Y-14857457D01*
X15891686Y-14828886D01*
X15877400Y-14786029D01*
X15863114Y-14714600D01*
X15863114Y-14657457D01*
X15877400Y-14586029D01*
X15891686Y-14543171D01*
X15905971Y-14514600D01*
X15934543Y-14471743D01*
X15948828Y-14457457D01*
X16034543Y-14500314D02*
X16220257Y-14500314D01*
X16120257Y-14614600D01*
X16163114Y-14614600D01*
X16191686Y-14628886D01*
X16205971Y-14643171D01*
X16220257Y-14671743D01*
X16220257Y-14743171D01*
X16205971Y-14771743D01*
X16191686Y-14786029D01*
X16163114Y-14800314D01*
X16077400Y-14800314D01*
X16048828Y-14786029D01*
X16034543Y-14771743D01*
X16577400Y-14800314D02*
X16577400Y-14500314D01*
X16705971Y-14800314D02*
X16705971Y-14643171D01*
X16691686Y-14614600D01*
X16663114Y-14600314D01*
X16620257Y-14600314D01*
X16591686Y-14614600D01*
X16577400Y-14628886D01*
X16891686Y-14800314D02*
X16863114Y-14786029D01*
X16848828Y-14771743D01*
X16834543Y-14743171D01*
X16834543Y-14657457D01*
X16848828Y-14628886D01*
X16863114Y-14614600D01*
X16891686Y-14600314D01*
X16934543Y-14600314D01*
X16963114Y-14614600D01*
X16977400Y-14628886D01*
X16991686Y-14657457D01*
X16991686Y-14743171D01*
X16977400Y-14771743D01*
X16963114Y-14786029D01*
X16934543Y-14800314D01*
X16891686Y-14800314D01*
X17163114Y-14800314D02*
X17134543Y-14786029D01*
X17120257Y-14757457D01*
X17120257Y-14500314D01*
X17391686Y-14786029D02*
X17363114Y-14800314D01*
X17305971Y-14800314D01*
X17277400Y-14786029D01*
X17263114Y-14757457D01*
X17263114Y-14643171D01*
X17277400Y-14614600D01*
X17305971Y-14600314D01*
X17363114Y-14600314D01*
X17391686Y-14614600D01*
X17405971Y-14643171D01*
X17405971Y-14671743D01*
X17263114Y-14700314D01*
X17520257Y-14786029D02*
X17548828Y-14800314D01*
X17605971Y-14800314D01*
X17634543Y-14786029D01*
X17648828Y-14757457D01*
X17648828Y-14743171D01*
X17634543Y-14714600D01*
X17605971Y-14700314D01*
X17563114Y-14700314D01*
X17534543Y-14686029D01*
X17520257Y-14657457D01*
X17520257Y-14643171D01*
X17534543Y-14614600D01*
X17563114Y-14600314D01*
X17605971Y-14600314D01*
X17634543Y-14614600D01*
X17748828Y-14914600D02*
X17763114Y-14900314D01*
X17791686Y-14857457D01*
X17805971Y-14828886D01*
X17820257Y-14786029D01*
X17834543Y-14714600D01*
X17834543Y-14657457D01*
X17820257Y-14586029D01*
X17805971Y-14543171D01*
X17791686Y-14514600D01*
X17763114Y-14471743D01*
X17748828Y-14457457D01*
X11110400Y-14984600D02*
X11262400Y-15136600D01*
X11262400Y-14984600D02*
X11110400Y-15136600D01*
X11186400Y-14984600D02*
X11186400Y-15136600D01*
X11110400Y-15060600D02*
X11262400Y-15060600D01*
X11705971Y-15196314D02*
X11534543Y-15196314D01*
X11620257Y-15196314D02*
X11620257Y-14896314D01*
X11591686Y-14939171D01*
X11563114Y-14967743D01*
X11534543Y-14982029D01*
X11834543Y-15167743D02*
X11848828Y-15182029D01*
X11834543Y-15196314D01*
X11820257Y-15182029D01*
X11834543Y-15167743D01*
X11834543Y-15196314D01*
X12120257Y-14896314D02*
X11977400Y-14896314D01*
X11963114Y-15039171D01*
X11977400Y-15024886D01*
X12005971Y-15010600D01*
X12077400Y-15010600D01*
X12105971Y-15024886D01*
X12120257Y-15039171D01*
X12134543Y-15067743D01*
X12134543Y-15139171D01*
X12120257Y-15167743D01*
X12105971Y-15182029D01*
X12077400Y-15196314D01*
X12005971Y-15196314D01*
X11977400Y-15182029D01*
X11963114Y-15167743D01*
X12248828Y-14924886D02*
X12263114Y-14910600D01*
X12291686Y-14896314D01*
X12363114Y-14896314D01*
X12391686Y-14910600D01*
X12405971Y-14924886D01*
X12420257Y-14953457D01*
X12420257Y-14982029D01*
X12405971Y-15024886D01*
X12234543Y-15196314D01*
X12420257Y-15196314D01*
X12548828Y-15196314D02*
X12548828Y-14996314D01*
X12548828Y-15024886D02*
X12563114Y-15010600D01*
X12591686Y-14996314D01*
X12634543Y-14996314D01*
X12663114Y-15010600D01*
X12677400Y-15039171D01*
X12677400Y-15196314D01*
X12677400Y-15039171D02*
X12691686Y-15010600D01*
X12720257Y-14996314D01*
X12763114Y-14996314D01*
X12791686Y-15010600D01*
X12805971Y-15039171D01*
X12805971Y-15196314D01*
X12948828Y-15196314D02*
X12948828Y-14996314D01*
X12948828Y-15024886D02*
X12963114Y-15010600D01*
X12991686Y-14996314D01*
X13034543Y-14996314D01*
X13063114Y-15010600D01*
X13077400Y-15039171D01*
X13077400Y-15196314D01*
X13077400Y-15039171D02*
X13091686Y-15010600D01*
X13120257Y-14996314D01*
X13163114Y-14996314D01*
X13191686Y-15010600D01*
X13205971Y-15039171D01*
X13205971Y-15196314D01*
X13791686Y-14882029D02*
X13534543Y-15267743D01*
X14177400Y-14896314D02*
X14205971Y-14896314D01*
X14234543Y-14910600D01*
X14248828Y-14924886D01*
X14263114Y-14953457D01*
X14277400Y-15010600D01*
X14277400Y-15082029D01*
X14263114Y-15139171D01*
X14248828Y-15167743D01*
X14234543Y-15182029D01*
X14205971Y-15196314D01*
X14177400Y-15196314D01*
X14148828Y-15182029D01*
X14134543Y-15167743D01*
X14120257Y-15139171D01*
X14105971Y-15082029D01*
X14105971Y-15010600D01*
X14120257Y-14953457D01*
X14134543Y-14924886D01*
X14148828Y-14910600D01*
X14177400Y-14896314D01*
X14405971Y-15167743D02*
X14420257Y-15182029D01*
X14405971Y-15196314D01*
X14391686Y-15182029D01*
X14405971Y-15167743D01*
X14405971Y-15196314D01*
X14605971Y-14896314D02*
X14634543Y-14896314D01*
X14663114Y-14910600D01*
X14677400Y-14924886D01*
X14691686Y-14953457D01*
X14705971Y-15010600D01*
X14705971Y-15082029D01*
X14691686Y-15139171D01*
X14677400Y-15167743D01*
X14663114Y-15182029D01*
X14634543Y-15196314D01*
X14605971Y-15196314D01*
X14577400Y-15182029D01*
X14563114Y-15167743D01*
X14548828Y-15139171D01*
X14534543Y-15082029D01*
X14534543Y-15010600D01*
X14548828Y-14953457D01*
X14563114Y-14924886D01*
X14577400Y-14910600D01*
X14605971Y-14896314D01*
X14963114Y-14896314D02*
X14905971Y-14896314D01*
X14877400Y-14910600D01*
X14863114Y-14924886D01*
X14834543Y-14967743D01*
X14820257Y-15024886D01*
X14820257Y-15139171D01*
X14834543Y-15167743D01*
X14848828Y-15182029D01*
X14877400Y-15196314D01*
X14934543Y-15196314D01*
X14963114Y-15182029D01*
X14977400Y-15167743D01*
X14991686Y-15139171D01*
X14991686Y-15067743D01*
X14977400Y-15039171D01*
X14963114Y-15024886D01*
X14934543Y-15010600D01*
X14877400Y-15010600D01*
X14848828Y-15024886D01*
X14834543Y-15039171D01*
X14820257Y-15067743D01*
X15177400Y-14896314D02*
X15205971Y-14896314D01*
X15234543Y-14910600D01*
X15248828Y-14924886D01*
X15263114Y-14953457D01*
X15277400Y-15010600D01*
X15277400Y-15082029D01*
X15263114Y-15139171D01*
X15248828Y-15167743D01*
X15234543Y-15182029D01*
X15205971Y-15196314D01*
X15177400Y-15196314D01*
X15148828Y-15182029D01*
X15134543Y-15167743D01*
X15120257Y-15139171D01*
X15105971Y-15082029D01*
X15105971Y-15010600D01*
X15120257Y-14953457D01*
X15134543Y-14924886D01*
X15148828Y-14910600D01*
X15177400Y-14896314D01*
X15391686Y-14896314D02*
X15391686Y-14953457D01*
X15505971Y-14896314D02*
X15505971Y-14953457D01*
X15948828Y-15310600D02*
X15934543Y-15296314D01*
X15905971Y-15253457D01*
X15891686Y-15224886D01*
X15877400Y-15182029D01*
X15863114Y-15110600D01*
X15863114Y-15053457D01*
X15877400Y-14982029D01*
X15891686Y-14939171D01*
X15905971Y-14910600D01*
X15934543Y-14867743D01*
X15948828Y-14853457D01*
X16048828Y-14924886D02*
X16063114Y-14910600D01*
X16091686Y-14896314D01*
X16163114Y-14896314D01*
X16191686Y-14910600D01*
X16205971Y-14924886D01*
X16220257Y-14953457D01*
X16220257Y-14982029D01*
X16205971Y-15024886D01*
X16034543Y-15196314D01*
X16220257Y-15196314D01*
X16577400Y-15196314D02*
X16577400Y-14896314D01*
X16705971Y-15196314D02*
X16705971Y-15039171D01*
X16691686Y-15010600D01*
X16663114Y-14996314D01*
X16620257Y-14996314D01*
X16591686Y-15010600D01*
X16577400Y-15024886D01*
X16891686Y-15196314D02*
X16863114Y-15182029D01*
X16848828Y-15167743D01*
X16834543Y-15139171D01*
X16834543Y-15053457D01*
X16848828Y-15024886D01*
X16863114Y-15010600D01*
X16891686Y-14996314D01*
X16934543Y-14996314D01*
X16963114Y-15010600D01*
X16977400Y-15024886D01*
X16991686Y-15053457D01*
X16991686Y-15139171D01*
X16977400Y-15167743D01*
X16963114Y-15182029D01*
X16934543Y-15196314D01*
X16891686Y-15196314D01*
X17163114Y-15196314D02*
X17134543Y-15182029D01*
X17120257Y-15153457D01*
X17120257Y-14896314D01*
X17391686Y-15182029D02*
X17363114Y-15196314D01*
X17305971Y-15196314D01*
X17277400Y-15182029D01*
X17263114Y-15153457D01*
X17263114Y-15039171D01*
X17277400Y-15010600D01*
X17305971Y-14996314D01*
X17363114Y-14996314D01*
X17391686Y-15010600D01*
X17405971Y-15039171D01*
X17405971Y-15067743D01*
X17263114Y-15096314D01*
X17520257Y-15182029D02*
X17548828Y-15196314D01*
X17605971Y-15196314D01*
X17634543Y-15182029D01*
X17648828Y-15153457D01*
X17648828Y-15139171D01*
X17634543Y-15110600D01*
X17605971Y-15096314D01*
X17563114Y-15096314D01*
X17534543Y-15082029D01*
X17520257Y-15053457D01*
X17520257Y-15039171D01*
X17534543Y-15010600D01*
X17563114Y-14996314D01*
X17605971Y-14996314D01*
X17634543Y-15010600D01*
X17748828Y-15310600D02*
X17763114Y-15296314D01*
X17791686Y-15253457D01*
X17805971Y-15224886D01*
X17820257Y-15182029D01*
X17834543Y-15110600D01*
X17834543Y-15053457D01*
X17820257Y-14982029D01*
X17805971Y-14939171D01*
X17791686Y-14910600D01*
X17763114Y-14867743D01*
X17748828Y-14853457D01*
M02*
