M48
; DRILL file {KiCad (5.1.4)-1} date 1/13/2020 9:14:42 PM
; FORMAT={-:-/ absolute / inch / decimal}
; #@! TF.CreationDate,2020-01-13T21:14:42+02:00
; #@! TF.GenerationSoftware,Kicad,Pcbnew,(5.1.4)-1
; #@! TF.FileFunction,Plated,1,2,PTH
FMAT,2
INCH
T1C0.0157
T2C0.0315
T3C0.0394
T4C0.0433
T5C0.0512
%
G90
G05
T1
X4.767Y-3.122
X4.768Y-2.939
X5.014Y-2.777
X5.461Y-2.689
X5.741Y-4.422
X5.847Y-2.966
X6.145Y-3.941
X6.17Y-2.535
X6.187Y-4.317
X6.265Y-3.098
X6.3663Y-4.0963
X6.545Y-2.948
X6.645Y-2.957
X6.755Y-2.871
T2
X5.1852Y-2.605
X5.2852Y-2.605
X5.3852Y-2.605
X5.4852Y-2.605
X5.545Y-4.505
X5.5852Y-2.605
X5.645Y-4.505
X5.6852Y-2.605
X5.745Y-4.505
X5.7852Y-2.605
X5.845Y-4.505
X5.8852Y-2.605
X5.945Y-4.505
X5.9852Y-2.605
X6.045Y-4.505
X6.0852Y-2.605
X6.145Y-4.505
X6.245Y-2.605
X6.245Y-4.505
X6.345Y-2.605
X6.445Y-2.605
X6.445Y-4.505
X6.545Y-2.605
X6.545Y-4.505
X6.645Y-2.605
X6.645Y-4.505
X6.745Y-2.605
X6.745Y-4.505
X6.845Y-2.605
X6.845Y-4.505
X6.945Y-2.605
X6.945Y-4.505
T3
X4.61Y-4.425
X4.71Y-4.425
X4.81Y-4.425
X4.91Y-4.425
X5.01Y-4.425
X5.11Y-4.425
X5.21Y-4.425
X5.31Y-4.425
X4.61Y-3.435
X4.71Y-3.435
X4.81Y-3.435
X4.91Y-3.435
X5.01Y-3.435
X5.11Y-3.435
X5.21Y-3.435
X5.31Y-3.435
X5.968Y-2.814
X5.968Y-2.914
X5.968Y-3.014
X5.968Y-3.114
X5.968Y-3.214
X5.968Y-3.314
X5.968Y-3.414
X5.968Y-3.514
X5.968Y-3.614
X5.968Y-3.714
X5.968Y-3.814
X5.968Y-3.914
X5.968Y-4.014
X5.968Y-4.114
X5.968Y-4.214
X5.968Y-4.314
X5.187Y-2.606
X5.287Y-2.606
X4.605Y-2.66
X4.705Y-2.66
X6.445Y-4.506
X6.545Y-4.506
X6.645Y-4.506
X6.745Y-4.506
X6.845Y-4.506
X6.945Y-4.506
T4
X4.685Y-2.885
X4.685Y-2.985
X4.685Y-3.085
T5
X6.723Y-4.243
X6.8214Y-4.0461
X6.9199Y-4.243
T0
M30
