G04 #@! TF.GenerationSoftware,KiCad,Pcbnew,(5.1.4)-1*
G04 #@! TF.CreationDate,2020-01-13T21:14:06+02:00*
G04 #@! TF.ProjectId,LORA,4c4f5241-2e6b-4696-9361-645f70636258,rev?*
G04 #@! TF.SameCoordinates,Original*
G04 #@! TF.FileFunction,Soldermask,Bot*
G04 #@! TF.FilePolarity,Negative*
%FSLAX46Y46*%
G04 Gerber Fmt 4.6, Leading zero omitted, Abs format (unit mm)*
G04 Created by KiCad (PCBNEW (5.1.4)-1) date 2020-01-13 21:14:06*
%MOMM*%
%LPD*%
G04 APERTURE LIST*
%ADD10C,0.100000*%
G04 APERTURE END LIST*
D10*
G36*
X177304000Y-115353400D02*
G01*
X175502000Y-115353400D01*
X175502000Y-113551400D01*
X177304000Y-113551400D01*
X177304000Y-115353400D01*
X177304000Y-115353400D01*
G37*
G36*
X173973443Y-113557919D02*
G01*
X174039627Y-113564437D01*
X174209466Y-113615957D01*
X174209468Y-113615958D01*
X174287728Y-113657789D01*
X174365991Y-113699622D01*
X174401729Y-113728952D01*
X174503186Y-113812214D01*
X174586448Y-113913671D01*
X174615778Y-113949409D01*
X174615779Y-113949411D01*
X174696144Y-114099761D01*
X174699443Y-114105934D01*
X174750963Y-114275773D01*
X174768359Y-114452400D01*
X174750963Y-114629027D01*
X174699443Y-114798866D01*
X174615778Y-114955391D01*
X174586448Y-114991129D01*
X174503186Y-115092586D01*
X174401729Y-115175848D01*
X174365991Y-115205178D01*
X174365989Y-115205179D01*
X174252788Y-115265687D01*
X174209466Y-115288843D01*
X174039627Y-115340363D01*
X173973442Y-115346882D01*
X173907260Y-115353400D01*
X173818740Y-115353400D01*
X173752558Y-115346882D01*
X173686373Y-115340363D01*
X173516534Y-115288843D01*
X173473213Y-115265687D01*
X173360011Y-115205179D01*
X173360009Y-115205178D01*
X173324271Y-115175848D01*
X173222814Y-115092586D01*
X173139552Y-114991129D01*
X173110222Y-114955391D01*
X173026557Y-114798866D01*
X172975037Y-114629027D01*
X172957641Y-114452400D01*
X172975037Y-114275773D01*
X173026557Y-114105934D01*
X173029857Y-114099761D01*
X173110221Y-113949411D01*
X173110222Y-113949409D01*
X173139552Y-113913671D01*
X173222814Y-113812214D01*
X173324271Y-113728952D01*
X173360009Y-113699622D01*
X173438271Y-113657790D01*
X173516532Y-113615958D01*
X173516534Y-113615957D01*
X173686373Y-113564437D01*
X173752557Y-113557919D01*
X173818740Y-113551400D01*
X173907260Y-113551400D01*
X173973443Y-113557919D01*
X173973443Y-113557919D01*
G37*
G36*
X171433443Y-113557919D02*
G01*
X171499627Y-113564437D01*
X171669466Y-113615957D01*
X171669468Y-113615958D01*
X171747728Y-113657789D01*
X171825991Y-113699622D01*
X171861729Y-113728952D01*
X171963186Y-113812214D01*
X172046448Y-113913671D01*
X172075778Y-113949409D01*
X172075779Y-113949411D01*
X172156144Y-114099761D01*
X172159443Y-114105934D01*
X172210963Y-114275773D01*
X172228359Y-114452400D01*
X172210963Y-114629027D01*
X172159443Y-114798866D01*
X172075778Y-114955391D01*
X172046448Y-114991129D01*
X171963186Y-115092586D01*
X171861729Y-115175848D01*
X171825991Y-115205178D01*
X171825989Y-115205179D01*
X171712788Y-115265687D01*
X171669466Y-115288843D01*
X171499627Y-115340363D01*
X171433442Y-115346882D01*
X171367260Y-115353400D01*
X171278740Y-115353400D01*
X171212558Y-115346882D01*
X171146373Y-115340363D01*
X170976534Y-115288843D01*
X170933213Y-115265687D01*
X170820011Y-115205179D01*
X170820009Y-115205178D01*
X170784271Y-115175848D01*
X170682814Y-115092586D01*
X170599552Y-114991129D01*
X170570222Y-114955391D01*
X170486557Y-114798866D01*
X170435037Y-114629027D01*
X170417641Y-114452400D01*
X170435037Y-114275773D01*
X170486557Y-114105934D01*
X170489857Y-114099761D01*
X170570221Y-113949411D01*
X170570222Y-113949409D01*
X170599552Y-113913671D01*
X170682814Y-113812214D01*
X170784271Y-113728952D01*
X170820009Y-113699622D01*
X170898271Y-113657790D01*
X170976532Y-113615958D01*
X170976534Y-113615957D01*
X171146373Y-113564437D01*
X171212557Y-113557919D01*
X171278740Y-113551400D01*
X171367260Y-113551400D01*
X171433443Y-113557919D01*
X171433443Y-113557919D01*
G37*
G36*
X166353443Y-113557919D02*
G01*
X166419627Y-113564437D01*
X166589466Y-113615957D01*
X166589468Y-113615958D01*
X166667728Y-113657789D01*
X166745991Y-113699622D01*
X166781729Y-113728952D01*
X166883186Y-113812214D01*
X166966448Y-113913671D01*
X166995778Y-113949409D01*
X166995779Y-113949411D01*
X167076144Y-114099761D01*
X167079443Y-114105934D01*
X167130963Y-114275773D01*
X167148359Y-114452400D01*
X167130963Y-114629027D01*
X167079443Y-114798866D01*
X166995778Y-114955391D01*
X166966448Y-114991129D01*
X166883186Y-115092586D01*
X166781729Y-115175848D01*
X166745991Y-115205178D01*
X166745989Y-115205179D01*
X166632788Y-115265687D01*
X166589466Y-115288843D01*
X166419627Y-115340363D01*
X166353442Y-115346882D01*
X166287260Y-115353400D01*
X166198740Y-115353400D01*
X166132558Y-115346882D01*
X166066373Y-115340363D01*
X165896534Y-115288843D01*
X165853213Y-115265687D01*
X165740011Y-115205179D01*
X165740009Y-115205178D01*
X165704271Y-115175848D01*
X165602814Y-115092586D01*
X165519552Y-114991129D01*
X165490222Y-114955391D01*
X165406557Y-114798866D01*
X165355037Y-114629027D01*
X165337641Y-114452400D01*
X165355037Y-114275773D01*
X165406557Y-114105934D01*
X165409857Y-114099761D01*
X165490221Y-113949411D01*
X165490222Y-113949409D01*
X165519552Y-113913671D01*
X165602814Y-113812214D01*
X165704271Y-113728952D01*
X165740009Y-113699622D01*
X165818271Y-113657790D01*
X165896532Y-113615958D01*
X165896534Y-113615957D01*
X166066373Y-113564437D01*
X166132557Y-113557919D01*
X166198740Y-113551400D01*
X166287260Y-113551400D01*
X166353443Y-113557919D01*
X166353443Y-113557919D01*
G37*
G36*
X163813443Y-113557919D02*
G01*
X163879627Y-113564437D01*
X164049466Y-113615957D01*
X164049468Y-113615958D01*
X164127728Y-113657789D01*
X164205991Y-113699622D01*
X164241729Y-113728952D01*
X164343186Y-113812214D01*
X164426448Y-113913671D01*
X164455778Y-113949409D01*
X164455779Y-113949411D01*
X164536144Y-114099761D01*
X164539443Y-114105934D01*
X164590963Y-114275773D01*
X164608359Y-114452400D01*
X164590963Y-114629027D01*
X164539443Y-114798866D01*
X164455778Y-114955391D01*
X164426448Y-114991129D01*
X164343186Y-115092586D01*
X164241729Y-115175848D01*
X164205991Y-115205178D01*
X164205989Y-115205179D01*
X164092788Y-115265687D01*
X164049466Y-115288843D01*
X163879627Y-115340363D01*
X163813442Y-115346882D01*
X163747260Y-115353400D01*
X163658740Y-115353400D01*
X163592558Y-115346882D01*
X163526373Y-115340363D01*
X163356534Y-115288843D01*
X163313213Y-115265687D01*
X163200011Y-115205179D01*
X163200009Y-115205178D01*
X163164271Y-115175848D01*
X163062814Y-115092586D01*
X162979552Y-114991129D01*
X162950222Y-114955391D01*
X162866557Y-114798866D01*
X162815037Y-114629027D01*
X162797641Y-114452400D01*
X162815037Y-114275773D01*
X162866557Y-114105934D01*
X162869857Y-114099761D01*
X162950221Y-113949411D01*
X162950222Y-113949409D01*
X162979552Y-113913671D01*
X163062814Y-113812214D01*
X163164271Y-113728952D01*
X163200009Y-113699622D01*
X163278271Y-113657790D01*
X163356532Y-113615958D01*
X163356534Y-113615957D01*
X163526373Y-113564437D01*
X163592557Y-113557919D01*
X163658740Y-113551400D01*
X163747260Y-113551400D01*
X163813443Y-113557919D01*
X163813443Y-113557919D01*
G37*
G36*
X168893443Y-113557919D02*
G01*
X168959627Y-113564437D01*
X169129466Y-113615957D01*
X169129468Y-113615958D01*
X169207728Y-113657789D01*
X169285991Y-113699622D01*
X169321729Y-113728952D01*
X169423186Y-113812214D01*
X169506448Y-113913671D01*
X169535778Y-113949409D01*
X169535779Y-113949411D01*
X169616144Y-114099761D01*
X169619443Y-114105934D01*
X169670963Y-114275773D01*
X169688359Y-114452400D01*
X169670963Y-114629027D01*
X169619443Y-114798866D01*
X169535778Y-114955391D01*
X169506448Y-114991129D01*
X169423186Y-115092586D01*
X169321729Y-115175848D01*
X169285991Y-115205178D01*
X169285989Y-115205179D01*
X169172788Y-115265687D01*
X169129466Y-115288843D01*
X168959627Y-115340363D01*
X168893442Y-115346882D01*
X168827260Y-115353400D01*
X168738740Y-115353400D01*
X168672558Y-115346882D01*
X168606373Y-115340363D01*
X168436534Y-115288843D01*
X168393213Y-115265687D01*
X168280011Y-115205179D01*
X168280009Y-115205178D01*
X168244271Y-115175848D01*
X168142814Y-115092586D01*
X168059552Y-114991129D01*
X168030222Y-114955391D01*
X167946557Y-114798866D01*
X167895037Y-114629027D01*
X167877641Y-114452400D01*
X167895037Y-114275773D01*
X167946557Y-114105934D01*
X167949857Y-114099761D01*
X168030221Y-113949411D01*
X168030222Y-113949409D01*
X168059552Y-113913671D01*
X168142814Y-113812214D01*
X168244271Y-113728952D01*
X168280009Y-113699622D01*
X168358271Y-113657790D01*
X168436532Y-113615958D01*
X168436534Y-113615957D01*
X168606373Y-113564437D01*
X168672557Y-113557919D01*
X168738740Y-113551400D01*
X168827260Y-113551400D01*
X168893443Y-113557919D01*
X168893443Y-113557919D01*
G37*
G36*
X143549823Y-113588313D02*
G01*
X143710242Y-113636976D01*
X143827442Y-113699621D01*
X143858078Y-113715996D01*
X143987659Y-113822341D01*
X144094004Y-113951922D01*
X144094005Y-113951924D01*
X144173024Y-114099758D01*
X144173025Y-114099761D01*
X144182083Y-114129620D01*
X144221687Y-114260177D01*
X144238117Y-114427000D01*
X144221687Y-114593823D01*
X144173024Y-114754242D01*
X144102114Y-114886906D01*
X144094004Y-114902078D01*
X143987659Y-115031659D01*
X143858078Y-115138004D01*
X143858076Y-115138005D01*
X143710242Y-115217024D01*
X143549823Y-115265687D01*
X143424804Y-115278000D01*
X143341196Y-115278000D01*
X143216177Y-115265687D01*
X143055758Y-115217024D01*
X142907924Y-115138005D01*
X142907922Y-115138004D01*
X142778341Y-115031659D01*
X142671996Y-114902078D01*
X142663886Y-114886906D01*
X142592976Y-114754242D01*
X142544313Y-114593823D01*
X142527883Y-114427000D01*
X142544313Y-114260177D01*
X142583917Y-114129620D01*
X142592975Y-114099761D01*
X142592976Y-114099758D01*
X142671995Y-113951924D01*
X142671996Y-113951922D01*
X142778341Y-113822341D01*
X142907922Y-113715996D01*
X142938558Y-113699621D01*
X143055758Y-113636976D01*
X143216177Y-113588313D01*
X143341196Y-113576000D01*
X143424804Y-113576000D01*
X143549823Y-113588313D01*
X143549823Y-113588313D01*
G37*
G36*
X148629823Y-113588313D02*
G01*
X148790242Y-113636976D01*
X148907442Y-113699621D01*
X148938078Y-113715996D01*
X149067659Y-113822341D01*
X149174004Y-113951922D01*
X149174005Y-113951924D01*
X149253024Y-114099758D01*
X149253025Y-114099761D01*
X149262083Y-114129620D01*
X149301687Y-114260177D01*
X149318117Y-114427000D01*
X149301687Y-114593823D01*
X149253024Y-114754242D01*
X149182114Y-114886906D01*
X149174004Y-114902078D01*
X149067659Y-115031659D01*
X148938078Y-115138004D01*
X148938076Y-115138005D01*
X148790242Y-115217024D01*
X148629823Y-115265687D01*
X148504804Y-115278000D01*
X148421196Y-115278000D01*
X148296177Y-115265687D01*
X148135758Y-115217024D01*
X147987924Y-115138005D01*
X147987922Y-115138004D01*
X147858341Y-115031659D01*
X147751996Y-114902078D01*
X147743886Y-114886906D01*
X147672976Y-114754242D01*
X147624313Y-114593823D01*
X147607883Y-114427000D01*
X147624313Y-114260177D01*
X147663917Y-114129620D01*
X147672975Y-114099761D01*
X147672976Y-114099758D01*
X147751995Y-113951924D01*
X147751996Y-113951922D01*
X147858341Y-113822341D01*
X147987922Y-113715996D01*
X148018558Y-113699621D01*
X148135758Y-113636976D01*
X148296177Y-113588313D01*
X148421196Y-113576000D01*
X148504804Y-113576000D01*
X148629823Y-113588313D01*
X148629823Y-113588313D01*
G37*
G36*
X146089823Y-113588313D02*
G01*
X146250242Y-113636976D01*
X146367442Y-113699621D01*
X146398078Y-113715996D01*
X146527659Y-113822341D01*
X146634004Y-113951922D01*
X146634005Y-113951924D01*
X146713024Y-114099758D01*
X146713025Y-114099761D01*
X146722083Y-114129620D01*
X146761687Y-114260177D01*
X146778117Y-114427000D01*
X146761687Y-114593823D01*
X146713024Y-114754242D01*
X146642114Y-114886906D01*
X146634004Y-114902078D01*
X146527659Y-115031659D01*
X146398078Y-115138004D01*
X146398076Y-115138005D01*
X146250242Y-115217024D01*
X146089823Y-115265687D01*
X145964804Y-115278000D01*
X145881196Y-115278000D01*
X145756177Y-115265687D01*
X145595758Y-115217024D01*
X145447924Y-115138005D01*
X145447922Y-115138004D01*
X145318341Y-115031659D01*
X145211996Y-114902078D01*
X145203886Y-114886906D01*
X145132976Y-114754242D01*
X145084313Y-114593823D01*
X145067883Y-114427000D01*
X145084313Y-114260177D01*
X145123917Y-114129620D01*
X145132975Y-114099761D01*
X145132976Y-114099758D01*
X145211995Y-113951924D01*
X145211996Y-113951922D01*
X145318341Y-113822341D01*
X145447922Y-113715996D01*
X145478558Y-113699621D01*
X145595758Y-113636976D01*
X145756177Y-113588313D01*
X145881196Y-113576000D01*
X145964804Y-113576000D01*
X146089823Y-113588313D01*
X146089823Y-113588313D01*
G37*
G36*
X151169823Y-113588313D02*
G01*
X151330242Y-113636976D01*
X151447442Y-113699621D01*
X151478078Y-113715996D01*
X151607659Y-113822341D01*
X151714004Y-113951922D01*
X151714005Y-113951924D01*
X151793024Y-114099758D01*
X151793025Y-114099761D01*
X151802083Y-114129620D01*
X151841687Y-114260177D01*
X151858117Y-114427000D01*
X151841687Y-114593823D01*
X151793024Y-114754242D01*
X151722114Y-114886906D01*
X151714004Y-114902078D01*
X151607659Y-115031659D01*
X151478078Y-115138004D01*
X151478076Y-115138005D01*
X151330242Y-115217024D01*
X151169823Y-115265687D01*
X151044804Y-115278000D01*
X150961196Y-115278000D01*
X150836177Y-115265687D01*
X150675758Y-115217024D01*
X150527924Y-115138005D01*
X150527922Y-115138004D01*
X150398341Y-115031659D01*
X150291996Y-114902078D01*
X150283886Y-114886906D01*
X150212976Y-114754242D01*
X150164313Y-114593823D01*
X150147883Y-114427000D01*
X150164313Y-114260177D01*
X150203917Y-114129620D01*
X150212975Y-114099761D01*
X150212976Y-114099758D01*
X150291995Y-113951924D01*
X150291996Y-113951922D01*
X150398341Y-113822341D01*
X150527922Y-113715996D01*
X150558558Y-113699621D01*
X150675758Y-113636976D01*
X150836177Y-113588313D01*
X150961196Y-113576000D01*
X151044804Y-113576000D01*
X151169823Y-113588313D01*
X151169823Y-113588313D01*
G37*
G36*
X153709823Y-113588313D02*
G01*
X153870242Y-113636976D01*
X153987442Y-113699621D01*
X154018078Y-113715996D01*
X154147659Y-113822341D01*
X154254004Y-113951922D01*
X154254005Y-113951924D01*
X154333024Y-114099758D01*
X154333025Y-114099761D01*
X154342083Y-114129620D01*
X154381687Y-114260177D01*
X154398117Y-114427000D01*
X154381687Y-114593823D01*
X154333024Y-114754242D01*
X154262114Y-114886906D01*
X154254004Y-114902078D01*
X154147659Y-115031659D01*
X154018078Y-115138004D01*
X154018076Y-115138005D01*
X153870242Y-115217024D01*
X153709823Y-115265687D01*
X153584804Y-115278000D01*
X153501196Y-115278000D01*
X153376177Y-115265687D01*
X153215758Y-115217024D01*
X153067924Y-115138005D01*
X153067922Y-115138004D01*
X152938341Y-115031659D01*
X152831996Y-114902078D01*
X152823886Y-114886906D01*
X152752976Y-114754242D01*
X152704313Y-114593823D01*
X152687883Y-114427000D01*
X152704313Y-114260177D01*
X152743917Y-114129620D01*
X152752975Y-114099761D01*
X152752976Y-114099758D01*
X152831995Y-113951924D01*
X152831996Y-113951922D01*
X152938341Y-113822341D01*
X153067922Y-113715996D01*
X153098558Y-113699621D01*
X153215758Y-113636976D01*
X153376177Y-113588313D01*
X153501196Y-113576000D01*
X153584804Y-113576000D01*
X153709823Y-113588313D01*
X153709823Y-113588313D01*
G37*
G36*
X156249823Y-113588313D02*
G01*
X156410242Y-113636976D01*
X156527442Y-113699621D01*
X156558078Y-113715996D01*
X156687659Y-113822341D01*
X156794004Y-113951922D01*
X156794005Y-113951924D01*
X156873024Y-114099758D01*
X156873025Y-114099761D01*
X156882083Y-114129620D01*
X156921687Y-114260177D01*
X156938117Y-114427000D01*
X156921687Y-114593823D01*
X156873024Y-114754242D01*
X156802114Y-114886906D01*
X156794004Y-114902078D01*
X156687659Y-115031659D01*
X156558078Y-115138004D01*
X156558076Y-115138005D01*
X156410242Y-115217024D01*
X156249823Y-115265687D01*
X156124804Y-115278000D01*
X156041196Y-115278000D01*
X155916177Y-115265687D01*
X155755758Y-115217024D01*
X155607924Y-115138005D01*
X155607922Y-115138004D01*
X155478341Y-115031659D01*
X155371996Y-114902078D01*
X155363886Y-114886906D01*
X155292976Y-114754242D01*
X155244313Y-114593823D01*
X155227883Y-114427000D01*
X155244313Y-114260177D01*
X155283917Y-114129620D01*
X155292975Y-114099761D01*
X155292976Y-114099758D01*
X155371995Y-113951924D01*
X155371996Y-113951922D01*
X155478341Y-113822341D01*
X155607922Y-113715996D01*
X155638558Y-113699621D01*
X155755758Y-113636976D01*
X155916177Y-113588313D01*
X156041196Y-113576000D01*
X156124804Y-113576000D01*
X156249823Y-113588313D01*
X156249823Y-113588313D01*
G37*
G36*
X141694000Y-115278000D02*
G01*
X139992000Y-115278000D01*
X139992000Y-113576000D01*
X141694000Y-113576000D01*
X141694000Y-115278000D01*
X141694000Y-115278000D01*
G37*
G36*
X158789823Y-113588313D02*
G01*
X158950242Y-113636976D01*
X159067442Y-113699621D01*
X159098078Y-113715996D01*
X159227659Y-113822341D01*
X159334004Y-113951922D01*
X159334005Y-113951924D01*
X159413024Y-114099758D01*
X159413025Y-114099761D01*
X159422083Y-114129620D01*
X159461687Y-114260177D01*
X159478117Y-114427000D01*
X159461687Y-114593823D01*
X159413024Y-114754242D01*
X159342114Y-114886906D01*
X159334004Y-114902078D01*
X159227659Y-115031659D01*
X159098078Y-115138004D01*
X159098076Y-115138005D01*
X158950242Y-115217024D01*
X158789823Y-115265687D01*
X158664804Y-115278000D01*
X158581196Y-115278000D01*
X158456177Y-115265687D01*
X158295758Y-115217024D01*
X158147924Y-115138005D01*
X158147922Y-115138004D01*
X158018341Y-115031659D01*
X157911996Y-114902078D01*
X157903886Y-114886906D01*
X157832976Y-114754242D01*
X157784313Y-114593823D01*
X157767883Y-114427000D01*
X157784313Y-114260177D01*
X157823917Y-114129620D01*
X157832975Y-114099761D01*
X157832976Y-114099758D01*
X157911995Y-113951924D01*
X157911996Y-113951922D01*
X158018341Y-113822341D01*
X158147922Y-113715996D01*
X158178558Y-113699621D01*
X158295758Y-113636976D01*
X158456177Y-113588313D01*
X158581196Y-113576000D01*
X158664804Y-113576000D01*
X158789823Y-113588313D01*
X158789823Y-113588313D01*
G37*
G36*
X127364443Y-111500519D02*
G01*
X127430627Y-111507037D01*
X127600466Y-111558557D01*
X127756991Y-111642222D01*
X127792729Y-111671552D01*
X127894186Y-111754814D01*
X127977448Y-111856271D01*
X128006778Y-111892009D01*
X128090443Y-112048534D01*
X128141963Y-112218373D01*
X128159359Y-112395000D01*
X128141963Y-112571627D01*
X128090443Y-112741466D01*
X128006778Y-112897991D01*
X127977448Y-112933729D01*
X127894186Y-113035186D01*
X127792729Y-113118448D01*
X127756991Y-113147778D01*
X127600466Y-113231443D01*
X127430627Y-113282963D01*
X127364443Y-113289481D01*
X127298260Y-113296000D01*
X127209740Y-113296000D01*
X127143557Y-113289481D01*
X127077373Y-113282963D01*
X126907534Y-113231443D01*
X126751009Y-113147778D01*
X126715271Y-113118448D01*
X126613814Y-113035186D01*
X126530552Y-112933729D01*
X126501222Y-112897991D01*
X126417557Y-112741466D01*
X126366037Y-112571627D01*
X126348641Y-112395000D01*
X126366037Y-112218373D01*
X126417557Y-112048534D01*
X126501222Y-111892009D01*
X126530552Y-111856271D01*
X126613814Y-111754814D01*
X126715271Y-111671552D01*
X126751009Y-111642222D01*
X126907534Y-111558557D01*
X127077373Y-111507037D01*
X127143557Y-111500519D01*
X127209740Y-111494000D01*
X127298260Y-111494000D01*
X127364443Y-111500519D01*
X127364443Y-111500519D01*
G37*
G36*
X132444443Y-111500519D02*
G01*
X132510627Y-111507037D01*
X132680466Y-111558557D01*
X132836991Y-111642222D01*
X132872729Y-111671552D01*
X132974186Y-111754814D01*
X133057448Y-111856271D01*
X133086778Y-111892009D01*
X133170443Y-112048534D01*
X133221963Y-112218373D01*
X133239359Y-112395000D01*
X133221963Y-112571627D01*
X133170443Y-112741466D01*
X133086778Y-112897991D01*
X133057448Y-112933729D01*
X132974186Y-113035186D01*
X132872729Y-113118448D01*
X132836991Y-113147778D01*
X132680466Y-113231443D01*
X132510627Y-113282963D01*
X132444443Y-113289481D01*
X132378260Y-113296000D01*
X132289740Y-113296000D01*
X132223557Y-113289481D01*
X132157373Y-113282963D01*
X131987534Y-113231443D01*
X131831009Y-113147778D01*
X131795271Y-113118448D01*
X131693814Y-113035186D01*
X131610552Y-112933729D01*
X131581222Y-112897991D01*
X131497557Y-112741466D01*
X131446037Y-112571627D01*
X131428641Y-112395000D01*
X131446037Y-112218373D01*
X131497557Y-112048534D01*
X131581222Y-111892009D01*
X131610552Y-111856271D01*
X131693814Y-111754814D01*
X131795271Y-111671552D01*
X131831009Y-111642222D01*
X131987534Y-111558557D01*
X132157373Y-111507037D01*
X132223557Y-111500519D01*
X132289740Y-111494000D01*
X132378260Y-111494000D01*
X132444443Y-111500519D01*
X132444443Y-111500519D01*
G37*
G36*
X129904443Y-111500519D02*
G01*
X129970627Y-111507037D01*
X130140466Y-111558557D01*
X130296991Y-111642222D01*
X130332729Y-111671552D01*
X130434186Y-111754814D01*
X130517448Y-111856271D01*
X130546778Y-111892009D01*
X130630443Y-112048534D01*
X130681963Y-112218373D01*
X130699359Y-112395000D01*
X130681963Y-112571627D01*
X130630443Y-112741466D01*
X130546778Y-112897991D01*
X130517448Y-112933729D01*
X130434186Y-113035186D01*
X130332729Y-113118448D01*
X130296991Y-113147778D01*
X130140466Y-113231443D01*
X129970627Y-113282963D01*
X129904443Y-113289481D01*
X129838260Y-113296000D01*
X129749740Y-113296000D01*
X129683557Y-113289481D01*
X129617373Y-113282963D01*
X129447534Y-113231443D01*
X129291009Y-113147778D01*
X129255271Y-113118448D01*
X129153814Y-113035186D01*
X129070552Y-112933729D01*
X129041222Y-112897991D01*
X128957557Y-112741466D01*
X128906037Y-112571627D01*
X128888641Y-112395000D01*
X128906037Y-112218373D01*
X128957557Y-112048534D01*
X129041222Y-111892009D01*
X129070552Y-111856271D01*
X129153814Y-111754814D01*
X129255271Y-111671552D01*
X129291009Y-111642222D01*
X129447534Y-111558557D01*
X129617373Y-111507037D01*
X129683557Y-111500519D01*
X129749740Y-111494000D01*
X129838260Y-111494000D01*
X129904443Y-111500519D01*
X129904443Y-111500519D01*
G37*
G36*
X124824443Y-111500519D02*
G01*
X124890627Y-111507037D01*
X125060466Y-111558557D01*
X125216991Y-111642222D01*
X125252729Y-111671552D01*
X125354186Y-111754814D01*
X125437448Y-111856271D01*
X125466778Y-111892009D01*
X125550443Y-112048534D01*
X125601963Y-112218373D01*
X125619359Y-112395000D01*
X125601963Y-112571627D01*
X125550443Y-112741466D01*
X125466778Y-112897991D01*
X125437448Y-112933729D01*
X125354186Y-113035186D01*
X125252729Y-113118448D01*
X125216991Y-113147778D01*
X125060466Y-113231443D01*
X124890627Y-113282963D01*
X124824443Y-113289481D01*
X124758260Y-113296000D01*
X124669740Y-113296000D01*
X124603557Y-113289481D01*
X124537373Y-113282963D01*
X124367534Y-113231443D01*
X124211009Y-113147778D01*
X124175271Y-113118448D01*
X124073814Y-113035186D01*
X123990552Y-112933729D01*
X123961222Y-112897991D01*
X123877557Y-112741466D01*
X123826037Y-112571627D01*
X123808641Y-112395000D01*
X123826037Y-112218373D01*
X123877557Y-112048534D01*
X123961222Y-111892009D01*
X123990552Y-111856271D01*
X124073814Y-111754814D01*
X124175271Y-111671552D01*
X124211009Y-111642222D01*
X124367534Y-111558557D01*
X124537373Y-111507037D01*
X124603557Y-111500519D01*
X124669740Y-111494000D01*
X124758260Y-111494000D01*
X124824443Y-111500519D01*
X124824443Y-111500519D01*
G37*
G36*
X122284443Y-111500519D02*
G01*
X122350627Y-111507037D01*
X122520466Y-111558557D01*
X122676991Y-111642222D01*
X122712729Y-111671552D01*
X122814186Y-111754814D01*
X122897448Y-111856271D01*
X122926778Y-111892009D01*
X123010443Y-112048534D01*
X123061963Y-112218373D01*
X123079359Y-112395000D01*
X123061963Y-112571627D01*
X123010443Y-112741466D01*
X122926778Y-112897991D01*
X122897448Y-112933729D01*
X122814186Y-113035186D01*
X122712729Y-113118448D01*
X122676991Y-113147778D01*
X122520466Y-113231443D01*
X122350627Y-113282963D01*
X122284443Y-113289481D01*
X122218260Y-113296000D01*
X122129740Y-113296000D01*
X122063557Y-113289481D01*
X121997373Y-113282963D01*
X121827534Y-113231443D01*
X121671009Y-113147778D01*
X121635271Y-113118448D01*
X121533814Y-113035186D01*
X121450552Y-112933729D01*
X121421222Y-112897991D01*
X121337557Y-112741466D01*
X121286037Y-112571627D01*
X121268641Y-112395000D01*
X121286037Y-112218373D01*
X121337557Y-112048534D01*
X121421222Y-111892009D01*
X121450552Y-111856271D01*
X121533814Y-111754814D01*
X121635271Y-111671552D01*
X121671009Y-111642222D01*
X121827534Y-111558557D01*
X121997373Y-111507037D01*
X122063557Y-111500519D01*
X122129740Y-111494000D01*
X122218260Y-111494000D01*
X122284443Y-111500519D01*
X122284443Y-111500519D01*
G37*
G36*
X134984443Y-111500519D02*
G01*
X135050627Y-111507037D01*
X135220466Y-111558557D01*
X135376991Y-111642222D01*
X135412729Y-111671552D01*
X135514186Y-111754814D01*
X135597448Y-111856271D01*
X135626778Y-111892009D01*
X135710443Y-112048534D01*
X135761963Y-112218373D01*
X135779359Y-112395000D01*
X135761963Y-112571627D01*
X135710443Y-112741466D01*
X135626778Y-112897991D01*
X135597448Y-112933729D01*
X135514186Y-113035186D01*
X135412729Y-113118448D01*
X135376991Y-113147778D01*
X135220466Y-113231443D01*
X135050627Y-113282963D01*
X134984443Y-113289481D01*
X134918260Y-113296000D01*
X134829740Y-113296000D01*
X134763557Y-113289481D01*
X134697373Y-113282963D01*
X134527534Y-113231443D01*
X134371009Y-113147778D01*
X134335271Y-113118448D01*
X134233814Y-113035186D01*
X134150552Y-112933729D01*
X134121222Y-112897991D01*
X134037557Y-112741466D01*
X133986037Y-112571627D01*
X133968641Y-112395000D01*
X133986037Y-112218373D01*
X134037557Y-112048534D01*
X134121222Y-111892009D01*
X134150552Y-111856271D01*
X134233814Y-111754814D01*
X134335271Y-111671552D01*
X134371009Y-111642222D01*
X134527534Y-111558557D01*
X134697373Y-111507037D01*
X134763557Y-111500519D01*
X134829740Y-111494000D01*
X134918260Y-111494000D01*
X134984443Y-111500519D01*
X134984443Y-111500519D01*
G37*
G36*
X117995000Y-113296000D02*
G01*
X116193000Y-113296000D01*
X116193000Y-111494000D01*
X117995000Y-111494000D01*
X117995000Y-113296000D01*
X117995000Y-113296000D01*
G37*
G36*
X119744443Y-111500519D02*
G01*
X119810627Y-111507037D01*
X119980466Y-111558557D01*
X120136991Y-111642222D01*
X120172729Y-111671552D01*
X120274186Y-111754814D01*
X120357448Y-111856271D01*
X120386778Y-111892009D01*
X120470443Y-112048534D01*
X120521963Y-112218373D01*
X120539359Y-112395000D01*
X120521963Y-112571627D01*
X120470443Y-112741466D01*
X120386778Y-112897991D01*
X120357448Y-112933729D01*
X120274186Y-113035186D01*
X120172729Y-113118448D01*
X120136991Y-113147778D01*
X119980466Y-113231443D01*
X119810627Y-113282963D01*
X119744443Y-113289481D01*
X119678260Y-113296000D01*
X119589740Y-113296000D01*
X119523557Y-113289481D01*
X119457373Y-113282963D01*
X119287534Y-113231443D01*
X119131009Y-113147778D01*
X119095271Y-113118448D01*
X118993814Y-113035186D01*
X118910552Y-112933729D01*
X118881222Y-112897991D01*
X118797557Y-112741466D01*
X118746037Y-112571627D01*
X118728641Y-112395000D01*
X118746037Y-112218373D01*
X118797557Y-112048534D01*
X118881222Y-111892009D01*
X118910552Y-111856271D01*
X118993814Y-111754814D01*
X119095271Y-111671552D01*
X119131009Y-111642222D01*
X119287534Y-111558557D01*
X119457373Y-111507037D01*
X119523557Y-111500519D01*
X119589740Y-111494000D01*
X119678260Y-111494000D01*
X119744443Y-111500519D01*
X119744443Y-111500519D01*
G37*
G36*
X151697642Y-108681118D02*
G01*
X151763827Y-108687637D01*
X151933666Y-108739157D01*
X152090191Y-108822822D01*
X152125929Y-108852152D01*
X152227386Y-108935414D01*
X152310648Y-109036871D01*
X152339978Y-109072609D01*
X152423643Y-109229134D01*
X152475163Y-109398973D01*
X152492559Y-109575600D01*
X152475163Y-109752227D01*
X152423643Y-109922066D01*
X152339978Y-110078591D01*
X152310648Y-110114329D01*
X152227386Y-110215786D01*
X152125929Y-110299048D01*
X152090191Y-110328378D01*
X151933666Y-110412043D01*
X151763827Y-110463563D01*
X151697642Y-110470082D01*
X151631460Y-110476600D01*
X151542940Y-110476600D01*
X151476758Y-110470082D01*
X151410573Y-110463563D01*
X151240734Y-110412043D01*
X151084209Y-110328378D01*
X151048471Y-110299048D01*
X150947014Y-110215786D01*
X150863752Y-110114329D01*
X150834422Y-110078591D01*
X150750757Y-109922066D01*
X150699237Y-109752227D01*
X150681841Y-109575600D01*
X150699237Y-109398973D01*
X150750757Y-109229134D01*
X150834422Y-109072609D01*
X150863752Y-109036871D01*
X150947014Y-108935414D01*
X151048471Y-108852152D01*
X151084209Y-108822822D01*
X151240734Y-108739157D01*
X151410573Y-108687637D01*
X151476758Y-108681118D01*
X151542940Y-108674600D01*
X151631460Y-108674600D01*
X151697642Y-108681118D01*
X151697642Y-108681118D01*
G37*
G36*
X171002405Y-106574661D02*
G01*
X171120353Y-106598122D01*
X171212394Y-106636247D01*
X171342559Y-106690163D01*
X171542542Y-106823787D01*
X171712613Y-106993858D01*
X171846237Y-107193841D01*
X171938278Y-107416048D01*
X171985200Y-107651941D01*
X171985200Y-107892459D01*
X171938278Y-108128352D01*
X171846237Y-108350559D01*
X171712613Y-108550542D01*
X171542542Y-108720613D01*
X171342559Y-108854237D01*
X171212394Y-108908153D01*
X171120353Y-108946278D01*
X170884459Y-108993200D01*
X170643941Y-108993200D01*
X170408047Y-108946278D01*
X170316006Y-108908153D01*
X170185841Y-108854237D01*
X169985858Y-108720613D01*
X169815787Y-108550542D01*
X169682163Y-108350559D01*
X169590122Y-108128352D01*
X169543200Y-107892459D01*
X169543200Y-107651941D01*
X169590122Y-107416048D01*
X169682163Y-107193841D01*
X169815787Y-106993858D01*
X169985858Y-106823787D01*
X170185841Y-106690163D01*
X170316006Y-106636247D01*
X170408047Y-106598122D01*
X170643941Y-106551200D01*
X170884459Y-106551200D01*
X171002405Y-106574661D01*
X171002405Y-106574661D01*
G37*
G36*
X176002405Y-106574661D02*
G01*
X176120353Y-106598122D01*
X176212394Y-106636247D01*
X176342559Y-106690163D01*
X176542542Y-106823787D01*
X176712613Y-106993858D01*
X176846237Y-107193841D01*
X176938278Y-107416048D01*
X176985200Y-107651941D01*
X176985200Y-107892459D01*
X176938278Y-108128352D01*
X176846237Y-108350559D01*
X176712613Y-108550542D01*
X176542542Y-108720613D01*
X176342559Y-108854237D01*
X176212394Y-108908153D01*
X176120353Y-108946278D01*
X175884459Y-108993200D01*
X175643941Y-108993200D01*
X175408047Y-108946278D01*
X175316006Y-108908153D01*
X175185841Y-108854237D01*
X174985858Y-108720613D01*
X174815787Y-108550542D01*
X174682163Y-108350559D01*
X174590122Y-108128352D01*
X174543200Y-107892459D01*
X174543200Y-107651941D01*
X174590122Y-107416048D01*
X174682163Y-107193841D01*
X174815787Y-106993858D01*
X174985858Y-106823787D01*
X175185841Y-106690163D01*
X175316006Y-106636247D01*
X175408047Y-106598122D01*
X175643941Y-106551200D01*
X175884459Y-106551200D01*
X176002405Y-106574661D01*
X176002405Y-106574661D01*
G37*
G36*
X151697642Y-106141118D02*
G01*
X151763827Y-106147637D01*
X151933666Y-106199157D01*
X152090191Y-106282822D01*
X152125929Y-106312152D01*
X152227386Y-106395414D01*
X152310648Y-106496871D01*
X152339978Y-106532609D01*
X152423643Y-106689134D01*
X152475163Y-106858973D01*
X152492559Y-107035600D01*
X152475163Y-107212227D01*
X152423643Y-107382066D01*
X152339978Y-107538591D01*
X152310648Y-107574329D01*
X152227386Y-107675786D01*
X152125929Y-107759048D01*
X152090191Y-107788378D01*
X151933666Y-107872043D01*
X151763827Y-107923563D01*
X151697642Y-107930082D01*
X151631460Y-107936600D01*
X151542940Y-107936600D01*
X151476758Y-107930082D01*
X151410573Y-107923563D01*
X151240734Y-107872043D01*
X151084209Y-107788378D01*
X151048471Y-107759048D01*
X150947014Y-107675786D01*
X150863752Y-107574329D01*
X150834422Y-107538591D01*
X150750757Y-107382066D01*
X150699237Y-107212227D01*
X150681841Y-107035600D01*
X150699237Y-106858973D01*
X150750757Y-106689134D01*
X150834422Y-106532609D01*
X150863752Y-106496871D01*
X150947014Y-106395414D01*
X151048471Y-106312152D01*
X151084209Y-106282822D01*
X151240734Y-106199157D01*
X151410573Y-106147637D01*
X151476758Y-106141118D01*
X151542940Y-106134600D01*
X151631460Y-106134600D01*
X151697642Y-106141118D01*
X151697642Y-106141118D01*
G37*
G36*
X151697643Y-103601119D02*
G01*
X151763827Y-103607637D01*
X151933666Y-103659157D01*
X152090191Y-103742822D01*
X152125929Y-103772152D01*
X152227386Y-103855414D01*
X152301955Y-103946278D01*
X152339978Y-103992609D01*
X152423643Y-104149134D01*
X152475163Y-104318973D01*
X152492559Y-104495600D01*
X152475163Y-104672227D01*
X152423643Y-104842066D01*
X152339978Y-104998591D01*
X152310648Y-105034329D01*
X152227386Y-105135786D01*
X152125929Y-105219048D01*
X152090191Y-105248378D01*
X151933666Y-105332043D01*
X151763827Y-105383563D01*
X151697643Y-105390081D01*
X151631460Y-105396600D01*
X151542940Y-105396600D01*
X151476757Y-105390081D01*
X151410573Y-105383563D01*
X151240734Y-105332043D01*
X151084209Y-105248378D01*
X151048471Y-105219048D01*
X150947014Y-105135786D01*
X150863752Y-105034329D01*
X150834422Y-104998591D01*
X150750757Y-104842066D01*
X150699237Y-104672227D01*
X150681841Y-104495600D01*
X150699237Y-104318973D01*
X150750757Y-104149134D01*
X150834422Y-103992609D01*
X150872445Y-103946278D01*
X150947014Y-103855414D01*
X151048471Y-103772152D01*
X151084209Y-103742822D01*
X151240734Y-103659157D01*
X151410573Y-103607637D01*
X151476757Y-103601119D01*
X151542940Y-103594600D01*
X151631460Y-103594600D01*
X151697643Y-103601119D01*
X151697643Y-103601119D01*
G37*
G36*
X173502405Y-101574661D02*
G01*
X173620353Y-101598122D01*
X173712394Y-101636247D01*
X173842559Y-101690163D01*
X174042542Y-101823787D01*
X174212613Y-101993858D01*
X174346237Y-102193841D01*
X174438278Y-102416048D01*
X174485200Y-102651941D01*
X174485200Y-102892459D01*
X174438278Y-103128352D01*
X174346237Y-103350559D01*
X174212613Y-103550542D01*
X174042542Y-103720613D01*
X173842559Y-103854237D01*
X173712394Y-103908153D01*
X173620353Y-103946278D01*
X173384459Y-103993200D01*
X173143941Y-103993200D01*
X173025995Y-103969739D01*
X172908047Y-103946278D01*
X172816006Y-103908153D01*
X172685841Y-103854237D01*
X172485858Y-103720613D01*
X172315787Y-103550542D01*
X172182163Y-103350559D01*
X172090122Y-103128352D01*
X172043200Y-102892459D01*
X172043200Y-102651941D01*
X172090122Y-102416048D01*
X172182163Y-102193841D01*
X172315787Y-101993858D01*
X172485858Y-101823787D01*
X172685841Y-101690163D01*
X172816006Y-101636247D01*
X172908047Y-101598122D01*
X173025995Y-101574661D01*
X173143941Y-101551200D01*
X173384459Y-101551200D01*
X173502405Y-101574661D01*
X173502405Y-101574661D01*
G37*
G36*
X151697642Y-101061118D02*
G01*
X151763827Y-101067637D01*
X151933666Y-101119157D01*
X152090191Y-101202822D01*
X152125929Y-101232152D01*
X152227386Y-101315414D01*
X152310648Y-101416871D01*
X152339978Y-101452609D01*
X152423643Y-101609134D01*
X152475163Y-101778973D01*
X152492559Y-101955600D01*
X152475163Y-102132227D01*
X152423643Y-102302066D01*
X152339978Y-102458591D01*
X152310648Y-102494329D01*
X152227386Y-102595786D01*
X152125929Y-102679048D01*
X152090191Y-102708378D01*
X151933666Y-102792043D01*
X151763827Y-102843563D01*
X151697643Y-102850081D01*
X151631460Y-102856600D01*
X151542940Y-102856600D01*
X151476758Y-102850082D01*
X151410573Y-102843563D01*
X151240734Y-102792043D01*
X151084209Y-102708378D01*
X151048471Y-102679048D01*
X150947014Y-102595786D01*
X150863752Y-102494329D01*
X150834422Y-102458591D01*
X150750757Y-102302066D01*
X150699237Y-102132227D01*
X150681841Y-101955600D01*
X150699237Y-101778973D01*
X150750757Y-101609134D01*
X150834422Y-101452609D01*
X150863752Y-101416871D01*
X150947014Y-101315414D01*
X151048471Y-101232152D01*
X151084209Y-101202822D01*
X151240734Y-101119157D01*
X151410573Y-101067637D01*
X151476758Y-101061118D01*
X151542940Y-101054600D01*
X151631460Y-101054600D01*
X151697642Y-101061118D01*
X151697642Y-101061118D01*
G37*
G36*
X151697642Y-98521118D02*
G01*
X151763827Y-98527637D01*
X151933666Y-98579157D01*
X152090191Y-98662822D01*
X152125929Y-98692152D01*
X152227386Y-98775414D01*
X152310648Y-98876871D01*
X152339978Y-98912609D01*
X152423643Y-99069134D01*
X152475163Y-99238973D01*
X152492559Y-99415600D01*
X152475163Y-99592227D01*
X152423643Y-99762066D01*
X152339978Y-99918591D01*
X152310648Y-99954329D01*
X152227386Y-100055786D01*
X152125929Y-100139048D01*
X152090191Y-100168378D01*
X151933666Y-100252043D01*
X151763827Y-100303563D01*
X151697642Y-100310082D01*
X151631460Y-100316600D01*
X151542940Y-100316600D01*
X151476758Y-100310082D01*
X151410573Y-100303563D01*
X151240734Y-100252043D01*
X151084209Y-100168378D01*
X151048471Y-100139048D01*
X150947014Y-100055786D01*
X150863752Y-99954329D01*
X150834422Y-99918591D01*
X150750757Y-99762066D01*
X150699237Y-99592227D01*
X150681841Y-99415600D01*
X150699237Y-99238973D01*
X150750757Y-99069134D01*
X150834422Y-98912609D01*
X150863752Y-98876871D01*
X150947014Y-98775414D01*
X151048471Y-98692152D01*
X151084209Y-98662822D01*
X151240734Y-98579157D01*
X151410573Y-98527637D01*
X151476758Y-98521118D01*
X151542940Y-98514600D01*
X151631460Y-98514600D01*
X151697642Y-98521118D01*
X151697642Y-98521118D01*
G37*
G36*
X151697642Y-95981118D02*
G01*
X151763827Y-95987637D01*
X151933666Y-96039157D01*
X152090191Y-96122822D01*
X152125929Y-96152152D01*
X152227386Y-96235414D01*
X152310648Y-96336871D01*
X152339978Y-96372609D01*
X152423643Y-96529134D01*
X152475163Y-96698973D01*
X152492559Y-96875600D01*
X152475163Y-97052227D01*
X152423643Y-97222066D01*
X152339978Y-97378591D01*
X152310648Y-97414329D01*
X152227386Y-97515786D01*
X152125929Y-97599048D01*
X152090191Y-97628378D01*
X151933666Y-97712043D01*
X151763827Y-97763563D01*
X151697643Y-97770081D01*
X151631460Y-97776600D01*
X151542940Y-97776600D01*
X151476757Y-97770081D01*
X151410573Y-97763563D01*
X151240734Y-97712043D01*
X151084209Y-97628378D01*
X151048471Y-97599048D01*
X150947014Y-97515786D01*
X150863752Y-97414329D01*
X150834422Y-97378591D01*
X150750757Y-97222066D01*
X150699237Y-97052227D01*
X150681841Y-96875600D01*
X150699237Y-96698973D01*
X150750757Y-96529134D01*
X150834422Y-96372609D01*
X150863752Y-96336871D01*
X150947014Y-96235414D01*
X151048471Y-96152152D01*
X151084209Y-96122822D01*
X151240734Y-96039157D01*
X151410573Y-95987637D01*
X151476757Y-95981119D01*
X151542940Y-95974600D01*
X151631460Y-95974600D01*
X151697642Y-95981118D01*
X151697642Y-95981118D01*
G37*
G36*
X151697643Y-93441119D02*
G01*
X151763827Y-93447637D01*
X151933666Y-93499157D01*
X152090191Y-93582822D01*
X152125929Y-93612152D01*
X152227386Y-93695414D01*
X152310648Y-93796871D01*
X152339978Y-93832609D01*
X152423643Y-93989134D01*
X152475163Y-94158973D01*
X152492559Y-94335600D01*
X152475163Y-94512227D01*
X152423643Y-94682066D01*
X152339978Y-94838591D01*
X152310648Y-94874329D01*
X152227386Y-94975786D01*
X152125929Y-95059048D01*
X152090191Y-95088378D01*
X151933666Y-95172043D01*
X151763827Y-95223563D01*
X151697642Y-95230082D01*
X151631460Y-95236600D01*
X151542940Y-95236600D01*
X151476758Y-95230082D01*
X151410573Y-95223563D01*
X151240734Y-95172043D01*
X151084209Y-95088378D01*
X151048471Y-95059048D01*
X150947014Y-94975786D01*
X150863752Y-94874329D01*
X150834422Y-94838591D01*
X150750757Y-94682066D01*
X150699237Y-94512227D01*
X150681841Y-94335600D01*
X150699237Y-94158973D01*
X150750757Y-93989134D01*
X150834422Y-93832609D01*
X150863752Y-93796871D01*
X150947014Y-93695414D01*
X151048471Y-93612152D01*
X151084209Y-93582822D01*
X151240734Y-93499157D01*
X151410573Y-93447637D01*
X151476758Y-93441118D01*
X151542940Y-93434600D01*
X151631460Y-93434600D01*
X151697643Y-93441119D01*
X151697643Y-93441119D01*
G37*
G36*
X151697643Y-90901119D02*
G01*
X151763827Y-90907637D01*
X151933666Y-90959157D01*
X152090191Y-91042822D01*
X152125929Y-91072152D01*
X152227386Y-91155414D01*
X152310648Y-91256871D01*
X152339978Y-91292609D01*
X152423643Y-91449134D01*
X152475163Y-91618973D01*
X152492559Y-91795600D01*
X152475163Y-91972227D01*
X152423643Y-92142066D01*
X152339978Y-92298591D01*
X152310648Y-92334329D01*
X152227386Y-92435786D01*
X152125929Y-92519048D01*
X152090191Y-92548378D01*
X151933666Y-92632043D01*
X151763827Y-92683563D01*
X151697642Y-92690082D01*
X151631460Y-92696600D01*
X151542940Y-92696600D01*
X151476758Y-92690082D01*
X151410573Y-92683563D01*
X151240734Y-92632043D01*
X151084209Y-92548378D01*
X151048471Y-92519048D01*
X150947014Y-92435786D01*
X150863752Y-92334329D01*
X150834422Y-92298591D01*
X150750757Y-92142066D01*
X150699237Y-91972227D01*
X150681841Y-91795600D01*
X150699237Y-91618973D01*
X150750757Y-91449134D01*
X150834422Y-91292609D01*
X150863752Y-91256871D01*
X150947014Y-91155414D01*
X151048471Y-91072152D01*
X151084209Y-91042822D01*
X151240734Y-90959157D01*
X151410573Y-90907637D01*
X151476757Y-90901119D01*
X151542940Y-90894600D01*
X151631460Y-90894600D01*
X151697643Y-90901119D01*
X151697643Y-90901119D01*
G37*
G36*
X151697642Y-88361118D02*
G01*
X151763827Y-88367637D01*
X151933666Y-88419157D01*
X152090191Y-88502822D01*
X152125929Y-88532152D01*
X152227386Y-88615414D01*
X152310648Y-88716871D01*
X152339978Y-88752609D01*
X152423643Y-88909134D01*
X152475163Y-89078973D01*
X152492559Y-89255600D01*
X152475163Y-89432227D01*
X152423643Y-89602066D01*
X152339978Y-89758591D01*
X152310648Y-89794329D01*
X152227386Y-89895786D01*
X152125929Y-89979048D01*
X152090191Y-90008378D01*
X151933666Y-90092043D01*
X151763827Y-90143563D01*
X151697642Y-90150082D01*
X151631460Y-90156600D01*
X151542940Y-90156600D01*
X151476758Y-90150082D01*
X151410573Y-90143563D01*
X151240734Y-90092043D01*
X151084209Y-90008378D01*
X151048471Y-89979048D01*
X150947014Y-89895786D01*
X150863752Y-89794329D01*
X150834422Y-89758591D01*
X150750757Y-89602066D01*
X150699237Y-89432227D01*
X150681841Y-89255600D01*
X150699237Y-89078973D01*
X150750757Y-88909134D01*
X150834422Y-88752609D01*
X150863752Y-88716871D01*
X150947014Y-88615414D01*
X151048471Y-88532152D01*
X151084209Y-88502822D01*
X151240734Y-88419157D01*
X151410573Y-88367637D01*
X151476758Y-88361118D01*
X151542940Y-88354600D01*
X151631460Y-88354600D01*
X151697642Y-88361118D01*
X151697642Y-88361118D01*
G37*
G36*
X122284443Y-86354519D02*
G01*
X122350627Y-86361037D01*
X122520466Y-86412557D01*
X122676991Y-86496222D01*
X122712729Y-86525552D01*
X122814186Y-86608814D01*
X122897448Y-86710271D01*
X122926778Y-86746009D01*
X123010443Y-86902534D01*
X123061963Y-87072373D01*
X123079359Y-87249000D01*
X123061963Y-87425627D01*
X123010443Y-87595466D01*
X122926778Y-87751991D01*
X122897448Y-87787729D01*
X122814186Y-87889186D01*
X122712729Y-87972448D01*
X122676991Y-88001778D01*
X122520466Y-88085443D01*
X122350627Y-88136963D01*
X122284442Y-88143482D01*
X122218260Y-88150000D01*
X122129740Y-88150000D01*
X122063558Y-88143482D01*
X121997373Y-88136963D01*
X121827534Y-88085443D01*
X121671009Y-88001778D01*
X121635271Y-87972448D01*
X121533814Y-87889186D01*
X121450552Y-87787729D01*
X121421222Y-87751991D01*
X121337557Y-87595466D01*
X121286037Y-87425627D01*
X121268641Y-87249000D01*
X121286037Y-87072373D01*
X121337557Y-86902534D01*
X121421222Y-86746009D01*
X121450552Y-86710271D01*
X121533814Y-86608814D01*
X121635271Y-86525552D01*
X121671009Y-86496222D01*
X121827534Y-86412557D01*
X121997373Y-86361037D01*
X122063557Y-86354519D01*
X122129740Y-86348000D01*
X122218260Y-86348000D01*
X122284443Y-86354519D01*
X122284443Y-86354519D01*
G37*
G36*
X119744443Y-86354519D02*
G01*
X119810627Y-86361037D01*
X119980466Y-86412557D01*
X120136991Y-86496222D01*
X120172729Y-86525552D01*
X120274186Y-86608814D01*
X120357448Y-86710271D01*
X120386778Y-86746009D01*
X120470443Y-86902534D01*
X120521963Y-87072373D01*
X120539359Y-87249000D01*
X120521963Y-87425627D01*
X120470443Y-87595466D01*
X120386778Y-87751991D01*
X120357448Y-87787729D01*
X120274186Y-87889186D01*
X120172729Y-87972448D01*
X120136991Y-88001778D01*
X119980466Y-88085443D01*
X119810627Y-88136963D01*
X119744442Y-88143482D01*
X119678260Y-88150000D01*
X119589740Y-88150000D01*
X119523558Y-88143482D01*
X119457373Y-88136963D01*
X119287534Y-88085443D01*
X119131009Y-88001778D01*
X119095271Y-87972448D01*
X118993814Y-87889186D01*
X118910552Y-87787729D01*
X118881222Y-87751991D01*
X118797557Y-87595466D01*
X118746037Y-87425627D01*
X118728641Y-87249000D01*
X118746037Y-87072373D01*
X118797557Y-86902534D01*
X118881222Y-86746009D01*
X118910552Y-86710271D01*
X118993814Y-86608814D01*
X119095271Y-86525552D01*
X119131009Y-86496222D01*
X119287534Y-86412557D01*
X119457373Y-86361037D01*
X119523557Y-86354519D01*
X119589740Y-86348000D01*
X119678260Y-86348000D01*
X119744443Y-86354519D01*
X119744443Y-86354519D01*
G37*
G36*
X117204443Y-86354519D02*
G01*
X117270627Y-86361037D01*
X117440466Y-86412557D01*
X117596991Y-86496222D01*
X117632729Y-86525552D01*
X117734186Y-86608814D01*
X117817448Y-86710271D01*
X117846778Y-86746009D01*
X117930443Y-86902534D01*
X117981963Y-87072373D01*
X117999359Y-87249000D01*
X117981963Y-87425627D01*
X117930443Y-87595466D01*
X117846778Y-87751991D01*
X117817448Y-87787729D01*
X117734186Y-87889186D01*
X117632729Y-87972448D01*
X117596991Y-88001778D01*
X117440466Y-88085443D01*
X117270627Y-88136963D01*
X117204442Y-88143482D01*
X117138260Y-88150000D01*
X117049740Y-88150000D01*
X116983558Y-88143482D01*
X116917373Y-88136963D01*
X116747534Y-88085443D01*
X116591009Y-88001778D01*
X116555271Y-87972448D01*
X116453814Y-87889186D01*
X116370552Y-87787729D01*
X116341222Y-87751991D01*
X116257557Y-87595466D01*
X116206037Y-87425627D01*
X116188641Y-87249000D01*
X116206037Y-87072373D01*
X116257557Y-86902534D01*
X116341222Y-86746009D01*
X116370552Y-86710271D01*
X116453814Y-86608814D01*
X116555271Y-86525552D01*
X116591009Y-86496222D01*
X116747534Y-86412557D01*
X116917373Y-86361037D01*
X116983557Y-86354519D01*
X117049740Y-86348000D01*
X117138260Y-86348000D01*
X117204443Y-86354519D01*
X117204443Y-86354519D01*
G37*
G36*
X129904443Y-86354519D02*
G01*
X129970627Y-86361037D01*
X130140466Y-86412557D01*
X130296991Y-86496222D01*
X130332729Y-86525552D01*
X130434186Y-86608814D01*
X130517448Y-86710271D01*
X130546778Y-86746009D01*
X130630443Y-86902534D01*
X130681963Y-87072373D01*
X130699359Y-87249000D01*
X130681963Y-87425627D01*
X130630443Y-87595466D01*
X130546778Y-87751991D01*
X130517448Y-87787729D01*
X130434186Y-87889186D01*
X130332729Y-87972448D01*
X130296991Y-88001778D01*
X130140466Y-88085443D01*
X129970627Y-88136963D01*
X129904442Y-88143482D01*
X129838260Y-88150000D01*
X129749740Y-88150000D01*
X129683558Y-88143482D01*
X129617373Y-88136963D01*
X129447534Y-88085443D01*
X129291009Y-88001778D01*
X129255271Y-87972448D01*
X129153814Y-87889186D01*
X129070552Y-87787729D01*
X129041222Y-87751991D01*
X128957557Y-87595466D01*
X128906037Y-87425627D01*
X128888641Y-87249000D01*
X128906037Y-87072373D01*
X128957557Y-86902534D01*
X129041222Y-86746009D01*
X129070552Y-86710271D01*
X129153814Y-86608814D01*
X129255271Y-86525552D01*
X129291009Y-86496222D01*
X129447534Y-86412557D01*
X129617373Y-86361037D01*
X129683557Y-86354519D01*
X129749740Y-86348000D01*
X129838260Y-86348000D01*
X129904443Y-86354519D01*
X129904443Y-86354519D01*
G37*
G36*
X127364443Y-86354519D02*
G01*
X127430627Y-86361037D01*
X127600466Y-86412557D01*
X127756991Y-86496222D01*
X127792729Y-86525552D01*
X127894186Y-86608814D01*
X127977448Y-86710271D01*
X128006778Y-86746009D01*
X128090443Y-86902534D01*
X128141963Y-87072373D01*
X128159359Y-87249000D01*
X128141963Y-87425627D01*
X128090443Y-87595466D01*
X128006778Y-87751991D01*
X127977448Y-87787729D01*
X127894186Y-87889186D01*
X127792729Y-87972448D01*
X127756991Y-88001778D01*
X127600466Y-88085443D01*
X127430627Y-88136963D01*
X127364442Y-88143482D01*
X127298260Y-88150000D01*
X127209740Y-88150000D01*
X127143558Y-88143482D01*
X127077373Y-88136963D01*
X126907534Y-88085443D01*
X126751009Y-88001778D01*
X126715271Y-87972448D01*
X126613814Y-87889186D01*
X126530552Y-87787729D01*
X126501222Y-87751991D01*
X126417557Y-87595466D01*
X126366037Y-87425627D01*
X126348641Y-87249000D01*
X126366037Y-87072373D01*
X126417557Y-86902534D01*
X126501222Y-86746009D01*
X126530552Y-86710271D01*
X126613814Y-86608814D01*
X126715271Y-86525552D01*
X126751009Y-86496222D01*
X126907534Y-86412557D01*
X127077373Y-86361037D01*
X127143557Y-86354519D01*
X127209740Y-86348000D01*
X127298260Y-86348000D01*
X127364443Y-86354519D01*
X127364443Y-86354519D01*
G37*
G36*
X124824443Y-86354519D02*
G01*
X124890627Y-86361037D01*
X125060466Y-86412557D01*
X125216991Y-86496222D01*
X125252729Y-86525552D01*
X125354186Y-86608814D01*
X125437448Y-86710271D01*
X125466778Y-86746009D01*
X125550443Y-86902534D01*
X125601963Y-87072373D01*
X125619359Y-87249000D01*
X125601963Y-87425627D01*
X125550443Y-87595466D01*
X125466778Y-87751991D01*
X125437448Y-87787729D01*
X125354186Y-87889186D01*
X125252729Y-87972448D01*
X125216991Y-88001778D01*
X125060466Y-88085443D01*
X124890627Y-88136963D01*
X124824442Y-88143482D01*
X124758260Y-88150000D01*
X124669740Y-88150000D01*
X124603558Y-88143482D01*
X124537373Y-88136963D01*
X124367534Y-88085443D01*
X124211009Y-88001778D01*
X124175271Y-87972448D01*
X124073814Y-87889186D01*
X123990552Y-87787729D01*
X123961222Y-87751991D01*
X123877557Y-87595466D01*
X123826037Y-87425627D01*
X123808641Y-87249000D01*
X123826037Y-87072373D01*
X123877557Y-86902534D01*
X123961222Y-86746009D01*
X123990552Y-86710271D01*
X124073814Y-86608814D01*
X124175271Y-86525552D01*
X124211009Y-86496222D01*
X124367534Y-86412557D01*
X124537373Y-86361037D01*
X124603557Y-86354519D01*
X124669740Y-86348000D01*
X124758260Y-86348000D01*
X124824443Y-86354519D01*
X124824443Y-86354519D01*
G37*
G36*
X135775000Y-88150000D02*
G01*
X133973000Y-88150000D01*
X133973000Y-86348000D01*
X135775000Y-86348000D01*
X135775000Y-88150000D01*
X135775000Y-88150000D01*
G37*
G36*
X132444443Y-86354519D02*
G01*
X132510627Y-86361037D01*
X132680466Y-86412557D01*
X132836991Y-86496222D01*
X132872729Y-86525552D01*
X132974186Y-86608814D01*
X133057448Y-86710271D01*
X133086778Y-86746009D01*
X133170443Y-86902534D01*
X133221963Y-87072373D01*
X133239359Y-87249000D01*
X133221963Y-87425627D01*
X133170443Y-87595466D01*
X133086778Y-87751991D01*
X133057448Y-87787729D01*
X132974186Y-87889186D01*
X132872729Y-87972448D01*
X132836991Y-88001778D01*
X132680466Y-88085443D01*
X132510627Y-88136963D01*
X132444442Y-88143482D01*
X132378260Y-88150000D01*
X132289740Y-88150000D01*
X132223558Y-88143482D01*
X132157373Y-88136963D01*
X131987534Y-88085443D01*
X131831009Y-88001778D01*
X131795271Y-87972448D01*
X131693814Y-87889186D01*
X131610552Y-87787729D01*
X131581222Y-87751991D01*
X131497557Y-87595466D01*
X131446037Y-87425627D01*
X131428641Y-87249000D01*
X131446037Y-87072373D01*
X131497557Y-86902534D01*
X131581222Y-86746009D01*
X131610552Y-86710271D01*
X131693814Y-86608814D01*
X131795271Y-86525552D01*
X131831009Y-86496222D01*
X131987534Y-86412557D01*
X132157373Y-86361037D01*
X132223557Y-86354519D01*
X132289740Y-86348000D01*
X132378260Y-86348000D01*
X132444443Y-86354519D01*
X132444443Y-86354519D01*
G37*
G36*
X151697642Y-85821118D02*
G01*
X151763827Y-85827637D01*
X151933666Y-85879157D01*
X152090191Y-85962822D01*
X152125929Y-85992152D01*
X152227386Y-86075414D01*
X152310648Y-86176871D01*
X152339978Y-86212609D01*
X152423643Y-86369134D01*
X152475163Y-86538973D01*
X152492559Y-86715600D01*
X152475163Y-86892227D01*
X152423643Y-87062066D01*
X152339978Y-87218591D01*
X152315022Y-87249000D01*
X152227386Y-87355786D01*
X152142283Y-87425627D01*
X152090191Y-87468378D01*
X151933666Y-87552043D01*
X151763827Y-87603563D01*
X151697643Y-87610081D01*
X151631460Y-87616600D01*
X151542940Y-87616600D01*
X151476757Y-87610081D01*
X151410573Y-87603563D01*
X151240734Y-87552043D01*
X151084209Y-87468378D01*
X151032117Y-87425627D01*
X150947014Y-87355786D01*
X150859378Y-87249000D01*
X150834422Y-87218591D01*
X150750757Y-87062066D01*
X150699237Y-86892227D01*
X150681841Y-86715600D01*
X150699237Y-86538973D01*
X150750757Y-86369134D01*
X150834422Y-86212609D01*
X150863752Y-86176871D01*
X150947014Y-86075414D01*
X151048471Y-85992152D01*
X151084209Y-85962822D01*
X151240734Y-85879157D01*
X151410573Y-85827637D01*
X151476758Y-85821118D01*
X151542940Y-85814600D01*
X151631460Y-85814600D01*
X151697642Y-85821118D01*
X151697642Y-85821118D01*
G37*
G36*
X151697643Y-83281119D02*
G01*
X151763827Y-83287637D01*
X151933666Y-83339157D01*
X152090191Y-83422822D01*
X152125929Y-83452152D01*
X152227386Y-83535414D01*
X152310648Y-83636871D01*
X152339978Y-83672609D01*
X152423643Y-83829134D01*
X152475163Y-83998973D01*
X152492559Y-84175600D01*
X152475163Y-84352227D01*
X152423643Y-84522066D01*
X152339978Y-84678591D01*
X152310648Y-84714329D01*
X152227386Y-84815786D01*
X152125929Y-84899048D01*
X152090191Y-84928378D01*
X151933666Y-85012043D01*
X151763827Y-85063563D01*
X151697642Y-85070082D01*
X151631460Y-85076600D01*
X151542940Y-85076600D01*
X151476758Y-85070082D01*
X151410573Y-85063563D01*
X151240734Y-85012043D01*
X151084209Y-84928378D01*
X151048471Y-84899048D01*
X150947014Y-84815786D01*
X150863752Y-84714329D01*
X150834422Y-84678591D01*
X150750757Y-84522066D01*
X150699237Y-84352227D01*
X150681841Y-84175600D01*
X150699237Y-83998973D01*
X150750757Y-83829134D01*
X150834422Y-83672609D01*
X150863752Y-83636871D01*
X150947014Y-83535414D01*
X151048471Y-83452152D01*
X151084209Y-83422822D01*
X151240734Y-83339157D01*
X151410573Y-83287637D01*
X151476757Y-83281119D01*
X151542940Y-83274600D01*
X151631460Y-83274600D01*
X151697643Y-83281119D01*
X151697643Y-83281119D01*
G37*
G36*
X151697642Y-80741118D02*
G01*
X151763827Y-80747637D01*
X151933666Y-80799157D01*
X152090191Y-80882822D01*
X152125929Y-80912152D01*
X152227386Y-80995414D01*
X152310648Y-81096871D01*
X152339978Y-81132609D01*
X152423643Y-81289134D01*
X152475163Y-81458973D01*
X152492559Y-81635600D01*
X152475163Y-81812227D01*
X152423643Y-81982066D01*
X152339978Y-82138591D01*
X152310648Y-82174329D01*
X152227386Y-82275786D01*
X152125929Y-82359048D01*
X152090191Y-82388378D01*
X151933666Y-82472043D01*
X151763827Y-82523563D01*
X151697643Y-82530081D01*
X151631460Y-82536600D01*
X151542940Y-82536600D01*
X151476757Y-82530081D01*
X151410573Y-82523563D01*
X151240734Y-82472043D01*
X151084209Y-82388378D01*
X151048471Y-82359048D01*
X150947014Y-82275786D01*
X150863752Y-82174329D01*
X150834422Y-82138591D01*
X150750757Y-81982066D01*
X150699237Y-81812227D01*
X150681841Y-81635600D01*
X150699237Y-81458973D01*
X150750757Y-81289134D01*
X150834422Y-81132609D01*
X150863752Y-81096871D01*
X150947014Y-80995414D01*
X151048471Y-80912152D01*
X151084209Y-80882822D01*
X151240734Y-80799157D01*
X151410573Y-80747637D01*
X151476758Y-80741118D01*
X151542940Y-80734600D01*
X151631460Y-80734600D01*
X151697642Y-80741118D01*
X151697642Y-80741118D01*
G37*
G36*
X151697642Y-78201118D02*
G01*
X151763827Y-78207637D01*
X151933666Y-78259157D01*
X152090191Y-78342822D01*
X152125929Y-78372152D01*
X152227386Y-78455414D01*
X152310648Y-78556871D01*
X152339978Y-78592609D01*
X152423643Y-78749134D01*
X152475163Y-78918973D01*
X152492559Y-79095600D01*
X152475163Y-79272227D01*
X152423643Y-79442066D01*
X152339978Y-79598591D01*
X152310648Y-79634329D01*
X152227386Y-79735786D01*
X152125929Y-79819048D01*
X152090191Y-79848378D01*
X151933666Y-79932043D01*
X151763827Y-79983563D01*
X151697642Y-79990082D01*
X151631460Y-79996600D01*
X151542940Y-79996600D01*
X151476758Y-79990082D01*
X151410573Y-79983563D01*
X151240734Y-79932043D01*
X151084209Y-79848378D01*
X151048471Y-79819048D01*
X150947014Y-79735786D01*
X150863752Y-79634329D01*
X150834422Y-79598591D01*
X150750757Y-79442066D01*
X150699237Y-79272227D01*
X150681841Y-79095600D01*
X150699237Y-78918973D01*
X150750757Y-78749134D01*
X150834422Y-78592609D01*
X150863752Y-78556871D01*
X150947014Y-78455414D01*
X151048471Y-78372152D01*
X151084209Y-78342822D01*
X151240734Y-78259157D01*
X151410573Y-78207637D01*
X151476758Y-78201118D01*
X151542940Y-78194600D01*
X151631460Y-78194600D01*
X151697642Y-78201118D01*
X151697642Y-78201118D01*
G37*
G36*
X120050000Y-79362500D02*
G01*
X117948000Y-79362500D01*
X117948000Y-77355500D01*
X120050000Y-77355500D01*
X120050000Y-79362500D01*
X120050000Y-79362500D01*
G37*
G36*
X151697643Y-75661119D02*
G01*
X151763827Y-75667637D01*
X151933666Y-75719157D01*
X152090191Y-75802822D01*
X152125929Y-75832152D01*
X152227386Y-75915414D01*
X152309702Y-76015718D01*
X152339978Y-76052609D01*
X152423643Y-76209134D01*
X152475163Y-76378973D01*
X152492559Y-76555600D01*
X152475163Y-76732227D01*
X152423643Y-76902066D01*
X152339978Y-77058591D01*
X152310648Y-77094329D01*
X152227386Y-77195786D01*
X152125929Y-77279048D01*
X152090191Y-77308378D01*
X151933666Y-77392043D01*
X151763827Y-77443563D01*
X151697643Y-77450081D01*
X151631460Y-77456600D01*
X151542940Y-77456600D01*
X151476757Y-77450081D01*
X151410573Y-77443563D01*
X151240734Y-77392043D01*
X151084209Y-77308378D01*
X151048471Y-77279048D01*
X150947014Y-77195786D01*
X150863752Y-77094329D01*
X150834422Y-77058591D01*
X150750757Y-76902066D01*
X150699237Y-76732227D01*
X150681841Y-76555600D01*
X150699237Y-76378973D01*
X150750757Y-76209134D01*
X150834422Y-76052609D01*
X150864698Y-76015718D01*
X150947014Y-75915414D01*
X151048471Y-75832152D01*
X151084209Y-75802822D01*
X151240734Y-75719157D01*
X151410573Y-75667637D01*
X151476757Y-75661119D01*
X151542940Y-75654600D01*
X151631460Y-75654600D01*
X151697643Y-75661119D01*
X151697643Y-75661119D01*
G37*
G36*
X119144936Y-74820340D02*
G01*
X119243220Y-74830020D01*
X119432381Y-74887401D01*
X119606712Y-74980583D01*
X119759515Y-75105985D01*
X119884917Y-75258788D01*
X119978099Y-75433119D01*
X120035480Y-75622280D01*
X120054855Y-75819000D01*
X120035480Y-76015720D01*
X119978099Y-76204881D01*
X119884917Y-76379212D01*
X119759515Y-76532015D01*
X119606712Y-76657417D01*
X119432381Y-76750599D01*
X119243220Y-76807980D01*
X119144936Y-76817660D01*
X119095795Y-76822500D01*
X118902205Y-76822500D01*
X118853064Y-76817660D01*
X118754780Y-76807980D01*
X118565619Y-76750599D01*
X118391288Y-76657417D01*
X118238485Y-76532015D01*
X118113083Y-76379212D01*
X118019901Y-76204881D01*
X117962520Y-76015720D01*
X117943145Y-75819000D01*
X117962520Y-75622280D01*
X118019901Y-75433119D01*
X118113083Y-75258788D01*
X118238485Y-75105985D01*
X118391288Y-74980583D01*
X118565619Y-74887401D01*
X118754780Y-74830020D01*
X118853064Y-74820340D01*
X118902205Y-74815500D01*
X119095795Y-74815500D01*
X119144936Y-74820340D01*
X119144936Y-74820340D01*
G37*
G36*
X151697643Y-73121119D02*
G01*
X151763827Y-73127637D01*
X151933666Y-73179157D01*
X152090191Y-73262822D01*
X152125929Y-73292152D01*
X152227386Y-73375414D01*
X152309702Y-73475718D01*
X152339978Y-73512609D01*
X152423643Y-73669134D01*
X152475163Y-73838973D01*
X152492559Y-74015600D01*
X152475163Y-74192227D01*
X152423643Y-74362066D01*
X152339978Y-74518591D01*
X152310648Y-74554329D01*
X152227386Y-74655786D01*
X152125929Y-74739048D01*
X152090191Y-74768378D01*
X151933666Y-74852043D01*
X151763827Y-74903563D01*
X151697643Y-74910081D01*
X151631460Y-74916600D01*
X151542940Y-74916600D01*
X151476757Y-74910081D01*
X151410573Y-74903563D01*
X151240734Y-74852043D01*
X151084209Y-74768378D01*
X151048471Y-74739048D01*
X150947014Y-74655786D01*
X150863752Y-74554329D01*
X150834422Y-74518591D01*
X150750757Y-74362066D01*
X150699237Y-74192227D01*
X150681841Y-74015600D01*
X150699237Y-73838973D01*
X150750757Y-73669134D01*
X150834422Y-73512609D01*
X150864698Y-73475718D01*
X150947014Y-73375414D01*
X151048471Y-73292152D01*
X151084209Y-73262822D01*
X151240734Y-73179157D01*
X151410573Y-73127637D01*
X151476757Y-73121119D01*
X151542940Y-73114600D01*
X151631460Y-73114600D01*
X151697643Y-73121119D01*
X151697643Y-73121119D01*
G37*
G36*
X119144936Y-72280340D02*
G01*
X119243220Y-72290020D01*
X119432381Y-72347401D01*
X119606712Y-72440583D01*
X119759515Y-72565985D01*
X119884917Y-72718788D01*
X119978099Y-72893119D01*
X120035480Y-73082280D01*
X120054855Y-73279000D01*
X120035480Y-73475720D01*
X119978099Y-73664881D01*
X119884917Y-73839212D01*
X119759515Y-73992015D01*
X119606712Y-74117417D01*
X119432381Y-74210599D01*
X119243220Y-74267980D01*
X119144936Y-74277660D01*
X119095795Y-74282500D01*
X118902205Y-74282500D01*
X118853064Y-74277660D01*
X118754780Y-74267980D01*
X118565619Y-74210599D01*
X118391288Y-74117417D01*
X118238485Y-73992015D01*
X118113083Y-73839212D01*
X118019901Y-73664881D01*
X117962520Y-73475720D01*
X117943145Y-73279000D01*
X117962520Y-73082280D01*
X118019901Y-72893119D01*
X118113083Y-72718788D01*
X118238485Y-72565985D01*
X118391288Y-72440583D01*
X118565619Y-72347401D01*
X118754780Y-72290020D01*
X118853064Y-72280340D01*
X118902205Y-72275500D01*
X119095795Y-72275500D01*
X119144936Y-72280340D01*
X119144936Y-72280340D01*
G37*
G36*
X152488200Y-72376600D02*
G01*
X150686200Y-72376600D01*
X150686200Y-70574600D01*
X152488200Y-70574600D01*
X152488200Y-72376600D01*
X152488200Y-72376600D01*
G37*
G36*
X117868000Y-68465000D02*
G01*
X116066000Y-68465000D01*
X116066000Y-66663000D01*
X117868000Y-66663000D01*
X117868000Y-68465000D01*
X117868000Y-68465000D01*
G37*
G36*
X119617443Y-66669519D02*
G01*
X119683627Y-66676037D01*
X119853466Y-66727557D01*
X120009991Y-66811222D01*
X120036023Y-66832586D01*
X120147186Y-66923814D01*
X120214376Y-67005687D01*
X120259778Y-67061009D01*
X120343443Y-67217534D01*
X120394963Y-67387373D01*
X120412359Y-67564000D01*
X120394963Y-67740627D01*
X120343443Y-67910466D01*
X120259778Y-68066991D01*
X120230448Y-68102729D01*
X120147186Y-68204186D01*
X120045729Y-68287448D01*
X120009991Y-68316778D01*
X119853466Y-68400443D01*
X119683627Y-68451963D01*
X119617442Y-68458482D01*
X119551260Y-68465000D01*
X119462740Y-68465000D01*
X119396558Y-68458482D01*
X119330373Y-68451963D01*
X119160534Y-68400443D01*
X119004009Y-68316778D01*
X118968271Y-68287448D01*
X118866814Y-68204186D01*
X118783552Y-68102729D01*
X118754222Y-68066991D01*
X118670557Y-67910466D01*
X118619037Y-67740627D01*
X118601641Y-67564000D01*
X118619037Y-67387373D01*
X118670557Y-67217534D01*
X118754222Y-67061009D01*
X118799624Y-67005687D01*
X118866814Y-66923814D01*
X118977977Y-66832586D01*
X119004009Y-66811222D01*
X119160534Y-66727557D01*
X119330373Y-66676037D01*
X119396557Y-66669519D01*
X119462740Y-66663000D01*
X119551260Y-66663000D01*
X119617443Y-66669519D01*
X119617443Y-66669519D01*
G37*
G36*
X134400242Y-65297918D02*
G01*
X134466427Y-65304437D01*
X134636266Y-65355957D01*
X134636268Y-65355958D01*
X134714528Y-65397789D01*
X134792791Y-65439622D01*
X134828529Y-65468952D01*
X134929986Y-65552214D01*
X135013248Y-65653671D01*
X135042578Y-65689409D01*
X135042579Y-65689411D01*
X135122944Y-65839761D01*
X135126243Y-65845934D01*
X135177763Y-66015773D01*
X135195159Y-66192400D01*
X135177763Y-66369027D01*
X135126243Y-66538866D01*
X135042578Y-66695391D01*
X135016180Y-66727557D01*
X134929986Y-66832586D01*
X134828529Y-66915848D01*
X134792791Y-66945178D01*
X134792789Y-66945179D01*
X134679588Y-67005687D01*
X134636266Y-67028843D01*
X134466427Y-67080363D01*
X134400242Y-67086882D01*
X134334060Y-67093400D01*
X134245540Y-67093400D01*
X134179358Y-67086882D01*
X134113173Y-67080363D01*
X133943334Y-67028843D01*
X133900013Y-67005687D01*
X133786811Y-66945179D01*
X133786809Y-66945178D01*
X133751071Y-66915848D01*
X133649614Y-66832586D01*
X133563420Y-66727557D01*
X133537022Y-66695391D01*
X133453357Y-66538866D01*
X133401837Y-66369027D01*
X133384441Y-66192400D01*
X133401837Y-66015773D01*
X133401837Y-66015772D01*
X133402574Y-66008293D01*
X133403952Y-66001369D01*
X133451103Y-65845934D01*
X133452975Y-65839761D01*
X133452976Y-65839758D01*
X133531995Y-65691924D01*
X133531996Y-65691922D01*
X133638341Y-65562341D01*
X133638342Y-65562340D01*
X133638704Y-65561899D01*
X133642782Y-65557821D01*
X133747983Y-65471486D01*
X133786809Y-65439622D01*
X133865072Y-65397789D01*
X133943332Y-65355958D01*
X133943334Y-65355957D01*
X134113173Y-65304437D01*
X134179358Y-65297918D01*
X134245540Y-65291400D01*
X134334060Y-65291400D01*
X134400242Y-65297918D01*
X134400242Y-65297918D01*
G37*
G36*
X132650800Y-67093400D02*
G01*
X130848800Y-67093400D01*
X130848800Y-66182453D01*
X130848198Y-66170201D01*
X130847883Y-66167000D01*
X130848198Y-66163799D01*
X130848800Y-66151547D01*
X130848800Y-65291400D01*
X132650800Y-65291400D01*
X132650800Y-67093400D01*
X132650800Y-67093400D01*
G37*
G36*
X176569823Y-65328313D02*
G01*
X176730242Y-65376976D01*
X176847442Y-65439621D01*
X176878078Y-65455996D01*
X177007659Y-65562341D01*
X177114004Y-65691922D01*
X177114005Y-65691924D01*
X177193024Y-65839758D01*
X177193025Y-65839761D01*
X177202083Y-65869620D01*
X177241687Y-66000177D01*
X177258117Y-66167000D01*
X177241687Y-66333823D01*
X177193024Y-66494242D01*
X177122114Y-66626906D01*
X177114004Y-66642078D01*
X177007659Y-66771659D01*
X176878078Y-66878004D01*
X176878076Y-66878005D01*
X176730242Y-66957024D01*
X176569823Y-67005687D01*
X176444804Y-67018000D01*
X176361196Y-67018000D01*
X176236177Y-67005687D01*
X176075758Y-66957024D01*
X175927924Y-66878005D01*
X175927922Y-66878004D01*
X175798341Y-66771659D01*
X175691996Y-66642078D01*
X175683886Y-66626906D01*
X175612976Y-66494242D01*
X175564313Y-66333823D01*
X175547883Y-66167000D01*
X175564313Y-66000177D01*
X175603917Y-65869620D01*
X175612975Y-65839761D01*
X175612976Y-65839758D01*
X175691995Y-65691924D01*
X175691996Y-65691922D01*
X175798341Y-65562341D01*
X175927922Y-65455996D01*
X175958558Y-65439621D01*
X176075758Y-65376976D01*
X176236177Y-65328313D01*
X176361196Y-65316000D01*
X176444804Y-65316000D01*
X176569823Y-65328313D01*
X176569823Y-65328313D01*
G37*
G36*
X139489823Y-65328313D02*
G01*
X139650242Y-65376976D01*
X139767442Y-65439621D01*
X139798078Y-65455996D01*
X139927659Y-65562341D01*
X140034004Y-65691922D01*
X140034005Y-65691924D01*
X140113024Y-65839758D01*
X140113025Y-65839761D01*
X140122083Y-65869620D01*
X140161687Y-66000177D01*
X140178117Y-66167000D01*
X140161687Y-66333823D01*
X140113024Y-66494242D01*
X140042114Y-66626906D01*
X140034004Y-66642078D01*
X139927659Y-66771659D01*
X139798078Y-66878004D01*
X139798076Y-66878005D01*
X139650242Y-66957024D01*
X139489823Y-67005687D01*
X139364804Y-67018000D01*
X139281196Y-67018000D01*
X139156177Y-67005687D01*
X138995758Y-66957024D01*
X138847924Y-66878005D01*
X138847922Y-66878004D01*
X138718341Y-66771659D01*
X138611996Y-66642078D01*
X138603886Y-66626906D01*
X138532976Y-66494242D01*
X138484313Y-66333823D01*
X138467883Y-66167000D01*
X138484313Y-66000177D01*
X138523917Y-65869620D01*
X138532975Y-65839761D01*
X138532976Y-65839758D01*
X138611995Y-65691924D01*
X138611996Y-65691922D01*
X138718341Y-65562341D01*
X138847922Y-65455996D01*
X138878558Y-65439621D01*
X138995758Y-65376976D01*
X139156177Y-65328313D01*
X139281196Y-65316000D01*
X139364804Y-65316000D01*
X139489823Y-65328313D01*
X139489823Y-65328313D01*
G37*
G36*
X142029823Y-65328313D02*
G01*
X142190242Y-65376976D01*
X142307442Y-65439621D01*
X142338078Y-65455996D01*
X142467659Y-65562341D01*
X142574004Y-65691922D01*
X142574005Y-65691924D01*
X142653024Y-65839758D01*
X142653025Y-65839761D01*
X142662083Y-65869620D01*
X142701687Y-66000177D01*
X142718117Y-66167000D01*
X142701687Y-66333823D01*
X142653024Y-66494242D01*
X142582114Y-66626906D01*
X142574004Y-66642078D01*
X142467659Y-66771659D01*
X142338078Y-66878004D01*
X142338076Y-66878005D01*
X142190242Y-66957024D01*
X142029823Y-67005687D01*
X141904804Y-67018000D01*
X141821196Y-67018000D01*
X141696177Y-67005687D01*
X141535758Y-66957024D01*
X141387924Y-66878005D01*
X141387922Y-66878004D01*
X141258341Y-66771659D01*
X141151996Y-66642078D01*
X141143886Y-66626906D01*
X141072976Y-66494242D01*
X141024313Y-66333823D01*
X141007883Y-66167000D01*
X141024313Y-66000177D01*
X141063917Y-65869620D01*
X141072975Y-65839761D01*
X141072976Y-65839758D01*
X141151995Y-65691924D01*
X141151996Y-65691922D01*
X141258341Y-65562341D01*
X141387922Y-65455996D01*
X141418558Y-65439621D01*
X141535758Y-65376976D01*
X141696177Y-65328313D01*
X141821196Y-65316000D01*
X141904804Y-65316000D01*
X142029823Y-65328313D01*
X142029823Y-65328313D01*
G37*
G36*
X144569823Y-65328313D02*
G01*
X144730242Y-65376976D01*
X144847442Y-65439621D01*
X144878078Y-65455996D01*
X145007659Y-65562341D01*
X145114004Y-65691922D01*
X145114005Y-65691924D01*
X145193024Y-65839758D01*
X145193025Y-65839761D01*
X145202083Y-65869620D01*
X145241687Y-66000177D01*
X145258117Y-66167000D01*
X145241687Y-66333823D01*
X145193024Y-66494242D01*
X145122114Y-66626906D01*
X145114004Y-66642078D01*
X145007659Y-66771659D01*
X144878078Y-66878004D01*
X144878076Y-66878005D01*
X144730242Y-66957024D01*
X144569823Y-67005687D01*
X144444804Y-67018000D01*
X144361196Y-67018000D01*
X144236177Y-67005687D01*
X144075758Y-66957024D01*
X143927924Y-66878005D01*
X143927922Y-66878004D01*
X143798341Y-66771659D01*
X143691996Y-66642078D01*
X143683886Y-66626906D01*
X143612976Y-66494242D01*
X143564313Y-66333823D01*
X143547883Y-66167000D01*
X143564313Y-66000177D01*
X143603917Y-65869620D01*
X143612975Y-65839761D01*
X143612976Y-65839758D01*
X143691995Y-65691924D01*
X143691996Y-65691922D01*
X143798341Y-65562341D01*
X143927922Y-65455996D01*
X143958558Y-65439621D01*
X144075758Y-65376976D01*
X144236177Y-65328313D01*
X144361196Y-65316000D01*
X144444804Y-65316000D01*
X144569823Y-65328313D01*
X144569823Y-65328313D01*
G37*
G36*
X147109823Y-65328313D02*
G01*
X147270242Y-65376976D01*
X147387442Y-65439621D01*
X147418078Y-65455996D01*
X147547659Y-65562341D01*
X147654004Y-65691922D01*
X147654005Y-65691924D01*
X147733024Y-65839758D01*
X147733025Y-65839761D01*
X147742083Y-65869620D01*
X147781687Y-66000177D01*
X147798117Y-66167000D01*
X147781687Y-66333823D01*
X147733024Y-66494242D01*
X147662114Y-66626906D01*
X147654004Y-66642078D01*
X147547659Y-66771659D01*
X147418078Y-66878004D01*
X147418076Y-66878005D01*
X147270242Y-66957024D01*
X147109823Y-67005687D01*
X146984804Y-67018000D01*
X146901196Y-67018000D01*
X146776177Y-67005687D01*
X146615758Y-66957024D01*
X146467924Y-66878005D01*
X146467922Y-66878004D01*
X146338341Y-66771659D01*
X146231996Y-66642078D01*
X146223886Y-66626906D01*
X146152976Y-66494242D01*
X146104313Y-66333823D01*
X146087883Y-66167000D01*
X146104313Y-66000177D01*
X146143917Y-65869620D01*
X146152975Y-65839761D01*
X146152976Y-65839758D01*
X146231995Y-65691924D01*
X146231996Y-65691922D01*
X146338341Y-65562341D01*
X146467922Y-65455996D01*
X146498558Y-65439621D01*
X146615758Y-65376976D01*
X146776177Y-65328313D01*
X146901196Y-65316000D01*
X146984804Y-65316000D01*
X147109823Y-65328313D01*
X147109823Y-65328313D01*
G37*
G36*
X149649823Y-65328313D02*
G01*
X149810242Y-65376976D01*
X149927442Y-65439621D01*
X149958078Y-65455996D01*
X150087659Y-65562341D01*
X150194004Y-65691922D01*
X150194005Y-65691924D01*
X150273024Y-65839758D01*
X150273025Y-65839761D01*
X150282083Y-65869620D01*
X150321687Y-66000177D01*
X150338117Y-66167000D01*
X150321687Y-66333823D01*
X150273024Y-66494242D01*
X150202114Y-66626906D01*
X150194004Y-66642078D01*
X150087659Y-66771659D01*
X149958078Y-66878004D01*
X149958076Y-66878005D01*
X149810242Y-66957024D01*
X149649823Y-67005687D01*
X149524804Y-67018000D01*
X149441196Y-67018000D01*
X149316177Y-67005687D01*
X149155758Y-66957024D01*
X149007924Y-66878005D01*
X149007922Y-66878004D01*
X148878341Y-66771659D01*
X148771996Y-66642078D01*
X148763886Y-66626906D01*
X148692976Y-66494242D01*
X148644313Y-66333823D01*
X148627883Y-66167000D01*
X148644313Y-66000177D01*
X148683917Y-65869620D01*
X148692975Y-65839761D01*
X148692976Y-65839758D01*
X148771995Y-65691924D01*
X148771996Y-65691922D01*
X148878341Y-65562341D01*
X149007922Y-65455996D01*
X149038558Y-65439621D01*
X149155758Y-65376976D01*
X149316177Y-65328313D01*
X149441196Y-65316000D01*
X149524804Y-65316000D01*
X149649823Y-65328313D01*
X149649823Y-65328313D01*
G37*
G36*
X152189823Y-65328313D02*
G01*
X152350242Y-65376976D01*
X152467442Y-65439621D01*
X152498078Y-65455996D01*
X152627659Y-65562341D01*
X152734004Y-65691922D01*
X152734005Y-65691924D01*
X152813024Y-65839758D01*
X152813025Y-65839761D01*
X152822083Y-65869620D01*
X152861687Y-66000177D01*
X152878117Y-66167000D01*
X152861687Y-66333823D01*
X152813024Y-66494242D01*
X152742114Y-66626906D01*
X152734004Y-66642078D01*
X152627659Y-66771659D01*
X152498078Y-66878004D01*
X152498076Y-66878005D01*
X152350242Y-66957024D01*
X152189823Y-67005687D01*
X152064804Y-67018000D01*
X151981196Y-67018000D01*
X151856177Y-67005687D01*
X151695758Y-66957024D01*
X151547924Y-66878005D01*
X151547922Y-66878004D01*
X151418341Y-66771659D01*
X151311996Y-66642078D01*
X151303886Y-66626906D01*
X151232976Y-66494242D01*
X151184313Y-66333823D01*
X151167883Y-66167000D01*
X151184313Y-66000177D01*
X151223917Y-65869620D01*
X151232975Y-65839761D01*
X151232976Y-65839758D01*
X151311995Y-65691924D01*
X151311996Y-65691922D01*
X151418341Y-65562341D01*
X151547922Y-65455996D01*
X151578558Y-65439621D01*
X151695758Y-65376976D01*
X151856177Y-65328313D01*
X151981196Y-65316000D01*
X152064804Y-65316000D01*
X152189823Y-65328313D01*
X152189823Y-65328313D01*
G37*
G36*
X154729823Y-65328313D02*
G01*
X154890242Y-65376976D01*
X155007442Y-65439621D01*
X155038078Y-65455996D01*
X155167659Y-65562341D01*
X155274004Y-65691922D01*
X155274005Y-65691924D01*
X155353024Y-65839758D01*
X155353025Y-65839761D01*
X155362083Y-65869620D01*
X155401687Y-66000177D01*
X155418117Y-66167000D01*
X155401687Y-66333823D01*
X155353024Y-66494242D01*
X155282114Y-66626906D01*
X155274004Y-66642078D01*
X155167659Y-66771659D01*
X155038078Y-66878004D01*
X155038076Y-66878005D01*
X154890242Y-66957024D01*
X154729823Y-67005687D01*
X154604804Y-67018000D01*
X154521196Y-67018000D01*
X154396177Y-67005687D01*
X154235758Y-66957024D01*
X154087924Y-66878005D01*
X154087922Y-66878004D01*
X153958341Y-66771659D01*
X153851996Y-66642078D01*
X153843886Y-66626906D01*
X153772976Y-66494242D01*
X153724313Y-66333823D01*
X153707883Y-66167000D01*
X153724313Y-66000177D01*
X153763917Y-65869620D01*
X153772975Y-65839761D01*
X153772976Y-65839758D01*
X153851995Y-65691924D01*
X153851996Y-65691922D01*
X153958341Y-65562341D01*
X154087922Y-65455996D01*
X154118558Y-65439621D01*
X154235758Y-65376976D01*
X154396177Y-65328313D01*
X154521196Y-65316000D01*
X154604804Y-65316000D01*
X154729823Y-65328313D01*
X154729823Y-65328313D01*
G37*
G36*
X136949823Y-65328313D02*
G01*
X137110242Y-65376976D01*
X137227442Y-65439621D01*
X137258078Y-65455996D01*
X137387659Y-65562341D01*
X137494004Y-65691922D01*
X137494005Y-65691924D01*
X137573024Y-65839758D01*
X137573025Y-65839761D01*
X137582083Y-65869620D01*
X137621687Y-66000177D01*
X137638117Y-66167000D01*
X137621687Y-66333823D01*
X137573024Y-66494242D01*
X137502114Y-66626906D01*
X137494004Y-66642078D01*
X137387659Y-66771659D01*
X137258078Y-66878004D01*
X137258076Y-66878005D01*
X137110242Y-66957024D01*
X136949823Y-67005687D01*
X136824804Y-67018000D01*
X136741196Y-67018000D01*
X136616177Y-67005687D01*
X136455758Y-66957024D01*
X136307924Y-66878005D01*
X136307922Y-66878004D01*
X136178341Y-66771659D01*
X136071996Y-66642078D01*
X136063886Y-66626906D01*
X135992976Y-66494242D01*
X135944313Y-66333823D01*
X135927883Y-66167000D01*
X135944313Y-66000177D01*
X135983917Y-65869620D01*
X135992975Y-65839761D01*
X135992976Y-65839758D01*
X136071995Y-65691924D01*
X136071996Y-65691922D01*
X136178341Y-65562341D01*
X136307922Y-65455996D01*
X136338558Y-65439621D01*
X136455758Y-65376976D01*
X136616177Y-65328313D01*
X136741196Y-65316000D01*
X136824804Y-65316000D01*
X136949823Y-65328313D01*
X136949823Y-65328313D01*
G37*
G36*
X174029823Y-65328313D02*
G01*
X174190242Y-65376976D01*
X174307442Y-65439621D01*
X174338078Y-65455996D01*
X174467659Y-65562341D01*
X174574004Y-65691922D01*
X174574005Y-65691924D01*
X174653024Y-65839758D01*
X174653025Y-65839761D01*
X174662083Y-65869620D01*
X174701687Y-66000177D01*
X174718117Y-66167000D01*
X174701687Y-66333823D01*
X174653024Y-66494242D01*
X174582114Y-66626906D01*
X174574004Y-66642078D01*
X174467659Y-66771659D01*
X174338078Y-66878004D01*
X174338076Y-66878005D01*
X174190242Y-66957024D01*
X174029823Y-67005687D01*
X173904804Y-67018000D01*
X173821196Y-67018000D01*
X173696177Y-67005687D01*
X173535758Y-66957024D01*
X173387924Y-66878005D01*
X173387922Y-66878004D01*
X173258341Y-66771659D01*
X173151996Y-66642078D01*
X173143886Y-66626906D01*
X173072976Y-66494242D01*
X173024313Y-66333823D01*
X173007883Y-66167000D01*
X173024313Y-66000177D01*
X173063917Y-65869620D01*
X173072975Y-65839761D01*
X173072976Y-65839758D01*
X173151995Y-65691924D01*
X173151996Y-65691922D01*
X173258341Y-65562341D01*
X173387922Y-65455996D01*
X173418558Y-65439621D01*
X173535758Y-65376976D01*
X173696177Y-65328313D01*
X173821196Y-65316000D01*
X173904804Y-65316000D01*
X174029823Y-65328313D01*
X174029823Y-65328313D01*
G37*
G36*
X168949823Y-65328313D02*
G01*
X169110242Y-65376976D01*
X169227442Y-65439621D01*
X169258078Y-65455996D01*
X169387659Y-65562341D01*
X169494004Y-65691922D01*
X169494005Y-65691924D01*
X169573024Y-65839758D01*
X169573025Y-65839761D01*
X169582083Y-65869620D01*
X169621687Y-66000177D01*
X169638117Y-66167000D01*
X169621687Y-66333823D01*
X169573024Y-66494242D01*
X169502114Y-66626906D01*
X169494004Y-66642078D01*
X169387659Y-66771659D01*
X169258078Y-66878004D01*
X169258076Y-66878005D01*
X169110242Y-66957024D01*
X168949823Y-67005687D01*
X168824804Y-67018000D01*
X168741196Y-67018000D01*
X168616177Y-67005687D01*
X168455758Y-66957024D01*
X168307924Y-66878005D01*
X168307922Y-66878004D01*
X168178341Y-66771659D01*
X168071996Y-66642078D01*
X168063886Y-66626906D01*
X167992976Y-66494242D01*
X167944313Y-66333823D01*
X167927883Y-66167000D01*
X167944313Y-66000177D01*
X167983917Y-65869620D01*
X167992975Y-65839761D01*
X167992976Y-65839758D01*
X168071995Y-65691924D01*
X168071996Y-65691922D01*
X168178341Y-65562341D01*
X168307922Y-65455996D01*
X168338558Y-65439621D01*
X168455758Y-65376976D01*
X168616177Y-65328313D01*
X168741196Y-65316000D01*
X168824804Y-65316000D01*
X168949823Y-65328313D01*
X168949823Y-65328313D01*
G37*
G36*
X171489823Y-65328313D02*
G01*
X171650242Y-65376976D01*
X171767442Y-65439621D01*
X171798078Y-65455996D01*
X171927659Y-65562341D01*
X172034004Y-65691922D01*
X172034005Y-65691924D01*
X172113024Y-65839758D01*
X172113025Y-65839761D01*
X172122083Y-65869620D01*
X172161687Y-66000177D01*
X172178117Y-66167000D01*
X172161687Y-66333823D01*
X172113024Y-66494242D01*
X172042114Y-66626906D01*
X172034004Y-66642078D01*
X171927659Y-66771659D01*
X171798078Y-66878004D01*
X171798076Y-66878005D01*
X171650242Y-66957024D01*
X171489823Y-67005687D01*
X171364804Y-67018000D01*
X171281196Y-67018000D01*
X171156177Y-67005687D01*
X170995758Y-66957024D01*
X170847924Y-66878005D01*
X170847922Y-66878004D01*
X170718341Y-66771659D01*
X170611996Y-66642078D01*
X170603886Y-66626906D01*
X170532976Y-66494242D01*
X170484313Y-66333823D01*
X170467883Y-66167000D01*
X170484313Y-66000177D01*
X170523917Y-65869620D01*
X170532975Y-65839761D01*
X170532976Y-65839758D01*
X170611995Y-65691924D01*
X170611996Y-65691922D01*
X170718341Y-65562341D01*
X170847922Y-65455996D01*
X170878558Y-65439621D01*
X170995758Y-65376976D01*
X171156177Y-65328313D01*
X171281196Y-65316000D01*
X171364804Y-65316000D01*
X171489823Y-65328313D01*
X171489823Y-65328313D01*
G37*
G36*
X161329823Y-65328313D02*
G01*
X161490242Y-65376976D01*
X161607442Y-65439621D01*
X161638078Y-65455996D01*
X161767659Y-65562341D01*
X161874004Y-65691922D01*
X161874005Y-65691924D01*
X161953024Y-65839758D01*
X161953025Y-65839761D01*
X161962083Y-65869620D01*
X162001687Y-66000177D01*
X162018117Y-66167000D01*
X162001687Y-66333823D01*
X161953024Y-66494242D01*
X161882114Y-66626906D01*
X161874004Y-66642078D01*
X161767659Y-66771659D01*
X161638078Y-66878004D01*
X161638076Y-66878005D01*
X161490242Y-66957024D01*
X161329823Y-67005687D01*
X161204804Y-67018000D01*
X161121196Y-67018000D01*
X160996177Y-67005687D01*
X160835758Y-66957024D01*
X160687924Y-66878005D01*
X160687922Y-66878004D01*
X160558341Y-66771659D01*
X160451996Y-66642078D01*
X160443886Y-66626906D01*
X160372976Y-66494242D01*
X160324313Y-66333823D01*
X160307883Y-66167000D01*
X160324313Y-66000177D01*
X160363917Y-65869620D01*
X160372975Y-65839761D01*
X160372976Y-65839758D01*
X160451995Y-65691924D01*
X160451996Y-65691922D01*
X160558341Y-65562341D01*
X160687922Y-65455996D01*
X160718558Y-65439621D01*
X160835758Y-65376976D01*
X160996177Y-65328313D01*
X161121196Y-65316000D01*
X161204804Y-65316000D01*
X161329823Y-65328313D01*
X161329823Y-65328313D01*
G37*
G36*
X158789823Y-65328313D02*
G01*
X158950242Y-65376976D01*
X159067442Y-65439621D01*
X159098078Y-65455996D01*
X159227659Y-65562341D01*
X159334004Y-65691922D01*
X159334005Y-65691924D01*
X159413024Y-65839758D01*
X159413025Y-65839761D01*
X159422083Y-65869620D01*
X159461687Y-66000177D01*
X159478117Y-66167000D01*
X159461687Y-66333823D01*
X159413024Y-66494242D01*
X159342114Y-66626906D01*
X159334004Y-66642078D01*
X159227659Y-66771659D01*
X159098078Y-66878004D01*
X159098076Y-66878005D01*
X158950242Y-66957024D01*
X158789823Y-67005687D01*
X158664804Y-67018000D01*
X158581196Y-67018000D01*
X158456177Y-67005687D01*
X158295758Y-66957024D01*
X158147924Y-66878005D01*
X158147922Y-66878004D01*
X158018341Y-66771659D01*
X157911996Y-66642078D01*
X157903886Y-66626906D01*
X157832976Y-66494242D01*
X157784313Y-66333823D01*
X157767883Y-66167000D01*
X157784313Y-66000177D01*
X157823917Y-65869620D01*
X157832975Y-65839761D01*
X157832976Y-65839758D01*
X157911995Y-65691924D01*
X157911996Y-65691922D01*
X158018341Y-65562341D01*
X158147922Y-65455996D01*
X158178558Y-65439621D01*
X158295758Y-65376976D01*
X158456177Y-65328313D01*
X158581196Y-65316000D01*
X158664804Y-65316000D01*
X158789823Y-65328313D01*
X158789823Y-65328313D01*
G37*
G36*
X163869823Y-65328313D02*
G01*
X164030242Y-65376976D01*
X164147442Y-65439621D01*
X164178078Y-65455996D01*
X164307659Y-65562341D01*
X164414004Y-65691922D01*
X164414005Y-65691924D01*
X164493024Y-65839758D01*
X164493025Y-65839761D01*
X164502083Y-65869620D01*
X164541687Y-66000177D01*
X164558117Y-66167000D01*
X164541687Y-66333823D01*
X164493024Y-66494242D01*
X164422114Y-66626906D01*
X164414004Y-66642078D01*
X164307659Y-66771659D01*
X164178078Y-66878004D01*
X164178076Y-66878005D01*
X164030242Y-66957024D01*
X163869823Y-67005687D01*
X163744804Y-67018000D01*
X163661196Y-67018000D01*
X163536177Y-67005687D01*
X163375758Y-66957024D01*
X163227924Y-66878005D01*
X163227922Y-66878004D01*
X163098341Y-66771659D01*
X162991996Y-66642078D01*
X162983886Y-66626906D01*
X162912976Y-66494242D01*
X162864313Y-66333823D01*
X162847883Y-66167000D01*
X162864313Y-66000177D01*
X162903917Y-65869620D01*
X162912975Y-65839761D01*
X162912976Y-65839758D01*
X162991995Y-65691924D01*
X162991996Y-65691922D01*
X163098341Y-65562341D01*
X163227922Y-65455996D01*
X163258558Y-65439621D01*
X163375758Y-65376976D01*
X163536177Y-65328313D01*
X163661196Y-65316000D01*
X163744804Y-65316000D01*
X163869823Y-65328313D01*
X163869823Y-65328313D01*
G37*
G36*
X166409823Y-65328313D02*
G01*
X166570242Y-65376976D01*
X166687442Y-65439621D01*
X166718078Y-65455996D01*
X166847659Y-65562341D01*
X166954004Y-65691922D01*
X166954005Y-65691924D01*
X167033024Y-65839758D01*
X167033025Y-65839761D01*
X167042083Y-65869620D01*
X167081687Y-66000177D01*
X167098117Y-66167000D01*
X167081687Y-66333823D01*
X167033024Y-66494242D01*
X166962114Y-66626906D01*
X166954004Y-66642078D01*
X166847659Y-66771659D01*
X166718078Y-66878004D01*
X166718076Y-66878005D01*
X166570242Y-66957024D01*
X166409823Y-67005687D01*
X166284804Y-67018000D01*
X166201196Y-67018000D01*
X166076177Y-67005687D01*
X165915758Y-66957024D01*
X165767924Y-66878005D01*
X165767922Y-66878004D01*
X165638341Y-66771659D01*
X165531996Y-66642078D01*
X165523886Y-66626906D01*
X165452976Y-66494242D01*
X165404313Y-66333823D01*
X165387883Y-66167000D01*
X165404313Y-66000177D01*
X165443917Y-65869620D01*
X165452975Y-65839761D01*
X165452976Y-65839758D01*
X165531995Y-65691924D01*
X165531996Y-65691922D01*
X165638341Y-65562341D01*
X165767922Y-65455996D01*
X165798558Y-65439621D01*
X165915758Y-65376976D01*
X166076177Y-65328313D01*
X166201196Y-65316000D01*
X166284804Y-65316000D01*
X166409823Y-65328313D01*
X166409823Y-65328313D01*
G37*
M02*
