G04 #@! TF.GenerationSoftware,KiCad,Pcbnew,(5.1.4)-1*
G04 #@! TF.CreationDate,2020-01-13T21:14:05+02:00*
G04 #@! TF.ProjectId,LORA,4c4f5241-2e6b-4696-9361-645f70636258,rev?*
G04 #@! TF.SameCoordinates,Original*
G04 #@! TF.FileFunction,Copper,L2,Bot*
G04 #@! TF.FilePolarity,Positive*
%FSLAX46Y46*%
G04 Gerber Fmt 4.6, Leading zero omitted, Abs format (unit mm)*
G04 Created by KiCad (PCBNEW (5.1.4)-1) date 2020-01-13 21:14:05*
%MOMM*%
%LPD*%
G04 APERTURE LIST*
%ADD10C,0.300000*%
%ADD11O,1.600000X1.600000*%
%ADD12R,1.600000X1.600000*%
%ADD13O,1.700000X1.700000*%
%ADD14R,1.700000X1.700000*%
%ADD15C,2.340000*%
%ADD16O,2.000000X1.905000*%
%ADD17R,2.000000X1.905000*%
%ADD18C,0.800000*%
%ADD19C,1.000000*%
%ADD20C,0.500000*%
%ADD21C,0.254000*%
G04 APERTURE END LIST*
D10*
X177943771Y-86101028D02*
X179443771Y-86413528D01*
X177943771Y-87101028D01*
X179443771Y-87413528D02*
X178443771Y-87538528D01*
X177943771Y-87601028D02*
X178015200Y-87520671D01*
X178086628Y-87583171D01*
X178015200Y-87663528D01*
X177943771Y-87601028D01*
X178086628Y-87583171D01*
X179443771Y-88342100D02*
X179372342Y-88208171D01*
X179229485Y-88154600D01*
X177943771Y-88315314D01*
X179515200Y-88118885D02*
X179586628Y-88252814D01*
X179729485Y-88306385D01*
X179872342Y-88217100D01*
X179943771Y-88065314D01*
X179943771Y-87851028D01*
X179372342Y-89493885D02*
X179443771Y-89342100D01*
X179443771Y-89056385D01*
X179372342Y-88922457D01*
X179229485Y-88868885D01*
X178658057Y-88940314D01*
X178515200Y-89029600D01*
X178443771Y-89181385D01*
X178443771Y-89467100D01*
X178515200Y-89601028D01*
X178658057Y-89654600D01*
X178800914Y-89636742D01*
X178943771Y-88904600D01*
X178443771Y-90181385D02*
X179443771Y-90413528D01*
X178443771Y-90895671D01*
X179443771Y-91342100D02*
X177943771Y-91529600D01*
X178872342Y-91556385D02*
X179443771Y-91913528D01*
X178443771Y-92038528D02*
X179015200Y-91395671D01*
X179443771Y-93199242D02*
X178658057Y-93297457D01*
X178515200Y-93243885D01*
X178443771Y-93109957D01*
X178443771Y-92824242D01*
X178515200Y-92672457D01*
X179372342Y-93208171D02*
X179443771Y-93056385D01*
X179443771Y-92699242D01*
X179372342Y-92565314D01*
X179229485Y-92511742D01*
X179086628Y-92529600D01*
X178943771Y-92618885D01*
X178872342Y-92770671D01*
X178872342Y-93127814D01*
X178800914Y-93279600D01*
X178086628Y-95154600D02*
X178015200Y-95234957D01*
X177943771Y-95386742D01*
X177943771Y-95743885D01*
X178015200Y-95877814D01*
X178086628Y-95940314D01*
X178229485Y-95993885D01*
X178372342Y-95976028D01*
X178586628Y-95877814D01*
X179443771Y-94913528D01*
X179443771Y-95842100D01*
X179443771Y-96484957D02*
X177943771Y-96672457D01*
X179443771Y-97342100D02*
X178586628Y-96806385D01*
X177943771Y-97529600D02*
X178800914Y-96565314D01*
X179443771Y-97984957D02*
X177943771Y-98172457D01*
X179443771Y-98842100D01*
X177943771Y-99029600D01*
X178658057Y-99654600D02*
X178658057Y-100154600D01*
X179443771Y-100270671D02*
X179443771Y-99556385D01*
X177943771Y-99743885D01*
X177943771Y-100458171D01*
D11*
X173863000Y-66167000D03*
X176403000Y-66167000D03*
X136783000Y-66167000D03*
X176403000Y-114427000D03*
X139323000Y-66167000D03*
X173863000Y-114427000D03*
X141863000Y-66167000D03*
X171323000Y-114427000D03*
X144403000Y-66167000D03*
X168783000Y-114427000D03*
X146943000Y-66167000D03*
X166243000Y-114427000D03*
X149483000Y-66167000D03*
X163703000Y-114427000D03*
X152023000Y-66167000D03*
X158623000Y-114427000D03*
X154563000Y-66167000D03*
X156083000Y-114427000D03*
X158623000Y-66167000D03*
X153543000Y-114427000D03*
X161163000Y-66167000D03*
X151003000Y-114427000D03*
X163703000Y-66167000D03*
X148463000Y-114427000D03*
X166243000Y-66167000D03*
X145923000Y-114427000D03*
X168783000Y-66167000D03*
X143383000Y-114427000D03*
X171323000Y-66167000D03*
D12*
X140843000Y-114427000D03*
D11*
X134243000Y-66167000D03*
X131703000Y-66167000D03*
D13*
X134289800Y-66192400D03*
D14*
X131749800Y-66192400D03*
D13*
X163703000Y-114452400D03*
X166243000Y-114452400D03*
X168783000Y-114452400D03*
X171323000Y-114452400D03*
X173863000Y-114452400D03*
D14*
X176403000Y-114452400D03*
D13*
X151587200Y-109575600D03*
X151587200Y-107035600D03*
X151587200Y-104495600D03*
X151587200Y-101955600D03*
X151587200Y-99415600D03*
X151587200Y-96875600D03*
X151587200Y-94335600D03*
X151587200Y-91795600D03*
X151587200Y-89255600D03*
X151587200Y-86715600D03*
X151587200Y-84175600D03*
X151587200Y-81635600D03*
X151587200Y-79095600D03*
X151587200Y-76555600D03*
X151587200Y-74015600D03*
D14*
X151587200Y-71475600D03*
D15*
X170764200Y-107772200D03*
X173264200Y-102772200D03*
X175764200Y-107772200D03*
D13*
X134874000Y-112395000D03*
X132334000Y-112395000D03*
X129794000Y-112395000D03*
X127254000Y-112395000D03*
X124714000Y-112395000D03*
X122174000Y-112395000D03*
X119634000Y-112395000D03*
D14*
X117094000Y-112395000D03*
D13*
X117094000Y-87249000D03*
X119634000Y-87249000D03*
X122174000Y-87249000D03*
X124714000Y-87249000D03*
X127254000Y-87249000D03*
X129794000Y-87249000D03*
X132334000Y-87249000D03*
D14*
X134874000Y-87249000D03*
D13*
X119507000Y-67564000D03*
D14*
X116967000Y-67564000D03*
D16*
X118999000Y-73279000D03*
X118999000Y-75819000D03*
D17*
X118999000Y-78359000D03*
D18*
X145821400Y-112318800D03*
X161705000Y-104047000D03*
X157149800Y-109651800D03*
X121081800Y-79298800D03*
X121107200Y-74650600D03*
X171577000Y-72923400D03*
X138709400Y-68300600D03*
X148513800Y-75336400D03*
X159131000Y-78689200D03*
X156083000Y-100101400D03*
X166243000Y-74879200D03*
X168783000Y-75107800D03*
X156718000Y-64389000D03*
X127355600Y-70535800D03*
D19*
X147116800Y-112318800D02*
X145821400Y-112318800D01*
X157646170Y-112318800D02*
X147116800Y-112318800D01*
X158623000Y-113295630D02*
X157646170Y-112318800D01*
X158623000Y-114427000D02*
X158623000Y-113295630D01*
X157149800Y-106045000D02*
X157149800Y-109651800D01*
X157149800Y-104749600D02*
X157149800Y-106045000D01*
X157852400Y-104047000D02*
X157149800Y-104749600D01*
X161705000Y-104047000D02*
X157852400Y-104047000D01*
X121081800Y-74676000D02*
X121107200Y-74650600D01*
X121081800Y-79298800D02*
X121081800Y-74676000D01*
X171577000Y-72923400D02*
X172745400Y-72923400D01*
X173863000Y-71805800D02*
X172745400Y-72923400D01*
X173863000Y-66167000D02*
X173863000Y-71805800D01*
D20*
X151003000Y-115558370D02*
X151522630Y-116078000D01*
X151003000Y-114427000D02*
X151003000Y-115558370D01*
X151522630Y-116078000D02*
X159816800Y-116078000D01*
X168122600Y-107772200D02*
X170764200Y-107772200D01*
X164693600Y-111201200D02*
X168122600Y-107772200D01*
X153568400Y-107035600D02*
X151587200Y-107035600D01*
X154063700Y-107530900D02*
X153568400Y-107035600D01*
X154063700Y-110629700D02*
X154063700Y-107530900D01*
X154635200Y-111201200D02*
X154063700Y-110629700D01*
X161086800Y-111328200D02*
X160959800Y-111201200D01*
X161086800Y-114808000D02*
X161086800Y-111328200D01*
X160959800Y-111201200D02*
X154635200Y-111201200D01*
X164693600Y-111201200D02*
X160959800Y-111201200D01*
X159816800Y-116078000D02*
X161086800Y-114808000D01*
X148513800Y-75886919D02*
X148513800Y-106095800D01*
X149453600Y-107035600D02*
X151587200Y-107035600D01*
X148513800Y-106095800D02*
X149453600Y-107035600D01*
D19*
X149199600Y-74015600D02*
X148666200Y-74549000D01*
X151587200Y-74015600D02*
X149199600Y-74015600D01*
D20*
X148666200Y-74549000D02*
X148513800Y-74701400D01*
D19*
X148513800Y-74701400D02*
X149199600Y-74015600D01*
X136783000Y-67298370D02*
X137785230Y-68300600D01*
X136783000Y-66167000D02*
X136783000Y-67298370D01*
X137785230Y-68300600D02*
X138709400Y-68300600D01*
X148513800Y-75886919D02*
X148513800Y-75336400D01*
X148513800Y-75336400D02*
X148513800Y-74701400D01*
X140122999Y-67199599D02*
X140436600Y-67513200D01*
X140122999Y-66966999D02*
X140122999Y-67199599D01*
X139323000Y-66167000D02*
X140122999Y-66966999D01*
X139323000Y-66167000D02*
X139323000Y-67110800D01*
D20*
X141863000Y-66167000D02*
X141863000Y-79726600D01*
X141863000Y-79726600D02*
X137312400Y-84277200D01*
X137312400Y-84277200D02*
X137312400Y-91414600D01*
X124714000Y-104013000D02*
X124714000Y-112395000D01*
X137312400Y-91414600D02*
X124714000Y-104013000D01*
X144403000Y-66167000D02*
X144403000Y-67298370D01*
X144403000Y-67298370D02*
X143113001Y-68588369D01*
X127254000Y-104368600D02*
X127254000Y-112395000D01*
X139725400Y-91897200D02*
X127254000Y-104368600D01*
X139725400Y-84328000D02*
X139725400Y-91897200D01*
X143113001Y-80940399D02*
X139725400Y-84328000D01*
X143113001Y-68588369D02*
X143113001Y-80940399D01*
X146943000Y-67298370D02*
X144703800Y-69537570D01*
X146943000Y-66167000D02*
X146943000Y-67298370D01*
X144703800Y-69537570D02*
X144703800Y-82219800D01*
X144703800Y-82219800D02*
X142189200Y-84734400D01*
X142189200Y-84734400D02*
X142189200Y-92659200D01*
X129794000Y-105054400D02*
X129794000Y-112395000D01*
X142189200Y-92659200D02*
X129794000Y-105054400D01*
X132334000Y-105511600D02*
X132334000Y-112395000D01*
X144170400Y-93675200D02*
X132334000Y-105511600D01*
X149483000Y-66167000D02*
X149483000Y-67298370D01*
X149483000Y-67298370D02*
X146202400Y-70578970D01*
X146202400Y-70578970D02*
X146202400Y-82981800D01*
X146202400Y-82981800D02*
X146177000Y-82981800D01*
X146177000Y-82981800D02*
X144170400Y-84988400D01*
X144170400Y-84988400D02*
X144170400Y-93675200D01*
X152023000Y-66167000D02*
X152023000Y-65035630D01*
X151401770Y-64414400D02*
X151684985Y-64697615D01*
X150270400Y-64414400D02*
X151401770Y-64414400D01*
X152023000Y-65035630D02*
X151684985Y-64697615D01*
X151684985Y-64697615D02*
X151477970Y-64490600D01*
X130784600Y-64414400D02*
X129768600Y-65430400D01*
X150270400Y-64414400D02*
X130784600Y-64414400D01*
X129768600Y-65430400D02*
X129768600Y-82727800D01*
X127254000Y-87985600D02*
X127127000Y-88112600D01*
X127254000Y-85242400D02*
X127254000Y-87985600D01*
X127254000Y-85242400D02*
X129768600Y-82727800D01*
X127254000Y-87249000D02*
X127254000Y-85242400D01*
D19*
X166243000Y-66167000D02*
X166243000Y-74879200D01*
X168783000Y-66167000D02*
X168783000Y-75107800D01*
D20*
X169545000Y-64389000D02*
X160782000Y-64389000D01*
X171323000Y-66167000D02*
X169545000Y-64389000D01*
D19*
X156718000Y-64389000D02*
X157302200Y-64389000D01*
D20*
X160782000Y-64389000D02*
X157302200Y-64389000D01*
D19*
X127355600Y-70535800D02*
X127355600Y-71101485D01*
D20*
X127355600Y-71101485D02*
X127355600Y-72847200D01*
X124714000Y-75488800D02*
X124714000Y-87249000D01*
X127355600Y-72847200D02*
X124714000Y-75488800D01*
X171504600Y-102772200D02*
X173264200Y-102772200D01*
X161290000Y-92557600D02*
X171504600Y-102772200D01*
X161290000Y-79273400D02*
X161290000Y-92557600D01*
X158572200Y-76555600D02*
X161290000Y-79273400D01*
X151587200Y-76555600D02*
X158572200Y-76555600D01*
D21*
G36*
X130223029Y-63905412D02*
G01*
X129259617Y-64868825D01*
X129230731Y-64892531D01*
X129136133Y-65007800D01*
X129065840Y-65139308D01*
X129022554Y-65282003D01*
X129011600Y-65393220D01*
X129011600Y-65393230D01*
X129007939Y-65430400D01*
X129011600Y-65467570D01*
X129011601Y-82414239D01*
X126745017Y-84680824D01*
X126716131Y-84704531D01*
X126621533Y-84819800D01*
X126551240Y-84951308D01*
X126507954Y-85094003D01*
X126497000Y-85205220D01*
X126497000Y-85205230D01*
X126493339Y-85242400D01*
X126497000Y-85279571D01*
X126497000Y-86114940D01*
X126496444Y-86115237D01*
X126289814Y-86284814D01*
X126120237Y-86491444D01*
X125994230Y-86727186D01*
X125984000Y-86760910D01*
X125973770Y-86727186D01*
X125847763Y-86491444D01*
X125678186Y-86284814D01*
X125471556Y-86115237D01*
X125471000Y-86114940D01*
X125471000Y-75802358D01*
X127864593Y-73408767D01*
X127893469Y-73385069D01*
X127917167Y-73356193D01*
X127917171Y-73356189D01*
X127988067Y-73269801D01*
X128058360Y-73138293D01*
X128101646Y-72995598D01*
X128101913Y-72992888D01*
X128112600Y-72884381D01*
X128112600Y-72884373D01*
X128116261Y-72847200D01*
X128112600Y-72810027D01*
X128112600Y-71766421D01*
X128196941Y-71663651D01*
X128290448Y-71488712D01*
X128348029Y-71298890D01*
X128362600Y-71150950D01*
X128362600Y-70486334D01*
X128348029Y-70338394D01*
X128290448Y-70148573D01*
X128196941Y-69973634D01*
X128071102Y-69820298D01*
X127917766Y-69694459D01*
X127742826Y-69600952D01*
X127553005Y-69543371D01*
X127355600Y-69523928D01*
X127158194Y-69543371D01*
X126968373Y-69600952D01*
X126793434Y-69694459D01*
X126640098Y-69820298D01*
X126514259Y-69973634D01*
X126420752Y-70148574D01*
X126363171Y-70338395D01*
X126348600Y-70486335D01*
X126348600Y-71150951D01*
X126363171Y-71298891D01*
X126420753Y-71488712D01*
X126514260Y-71663651D01*
X126598600Y-71766421D01*
X126598601Y-72533639D01*
X124205017Y-74927224D01*
X124176131Y-74950931D01*
X124081533Y-75066200D01*
X124011240Y-75197708D01*
X123967954Y-75340403D01*
X123957000Y-75451620D01*
X123957000Y-75451630D01*
X123953339Y-75488800D01*
X123957000Y-75525970D01*
X123957001Y-86114939D01*
X123956444Y-86115237D01*
X123749814Y-86284814D01*
X123580237Y-86491444D01*
X123454230Y-86727186D01*
X123444000Y-86760910D01*
X123433770Y-86727186D01*
X123307763Y-86491444D01*
X123138186Y-86284814D01*
X122931556Y-86115237D01*
X122695814Y-85989230D01*
X122440018Y-85911636D01*
X122240654Y-85892000D01*
X122107346Y-85892000D01*
X121907982Y-85911636D01*
X121652186Y-85989230D01*
X121416444Y-86115237D01*
X121209814Y-86284814D01*
X121040237Y-86491444D01*
X120914230Y-86727186D01*
X120904000Y-86760910D01*
X120893770Y-86727186D01*
X120767763Y-86491444D01*
X120598186Y-86284814D01*
X120391556Y-86115237D01*
X120155814Y-85989230D01*
X119900018Y-85911636D01*
X119700654Y-85892000D01*
X119567346Y-85892000D01*
X119367982Y-85911636D01*
X119112186Y-85989230D01*
X118876444Y-86115237D01*
X118669814Y-86284814D01*
X118500237Y-86491444D01*
X118374230Y-86727186D01*
X118364000Y-86760910D01*
X118353770Y-86727186D01*
X118227763Y-86491444D01*
X118058186Y-86284814D01*
X117851556Y-86115237D01*
X117615814Y-85989230D01*
X117360018Y-85911636D01*
X117160654Y-85892000D01*
X117027346Y-85892000D01*
X116827982Y-85911636D01*
X116572186Y-85989230D01*
X116336444Y-86115237D01*
X116129814Y-86284814D01*
X115960237Y-86491444D01*
X115834230Y-86727186D01*
X115756636Y-86982982D01*
X115730435Y-87249000D01*
X115756636Y-87515018D01*
X115834230Y-87770814D01*
X115960237Y-88006556D01*
X116129814Y-88213186D01*
X116336444Y-88382763D01*
X116572186Y-88508770D01*
X116827982Y-88586364D01*
X117027346Y-88606000D01*
X117160654Y-88606000D01*
X117360018Y-88586364D01*
X117615814Y-88508770D01*
X117851556Y-88382763D01*
X118058186Y-88213186D01*
X118227763Y-88006556D01*
X118353770Y-87770814D01*
X118364000Y-87737090D01*
X118374230Y-87770814D01*
X118500237Y-88006556D01*
X118669814Y-88213186D01*
X118876444Y-88382763D01*
X119112186Y-88508770D01*
X119367982Y-88586364D01*
X119567346Y-88606000D01*
X119700654Y-88606000D01*
X119900018Y-88586364D01*
X120155814Y-88508770D01*
X120391556Y-88382763D01*
X120598186Y-88213186D01*
X120767763Y-88006556D01*
X120893770Y-87770814D01*
X120904000Y-87737090D01*
X120914230Y-87770814D01*
X121040237Y-88006556D01*
X121209814Y-88213186D01*
X121416444Y-88382763D01*
X121652186Y-88508770D01*
X121907982Y-88586364D01*
X122107346Y-88606000D01*
X122240654Y-88606000D01*
X122440018Y-88586364D01*
X122695814Y-88508770D01*
X122931556Y-88382763D01*
X123138186Y-88213186D01*
X123307763Y-88006556D01*
X123433770Y-87770814D01*
X123444000Y-87737090D01*
X123454230Y-87770814D01*
X123580237Y-88006556D01*
X123749814Y-88213186D01*
X123956444Y-88382763D01*
X124192186Y-88508770D01*
X124447982Y-88586364D01*
X124647346Y-88606000D01*
X124780654Y-88606000D01*
X124980018Y-88586364D01*
X125235814Y-88508770D01*
X125471556Y-88382763D01*
X125678186Y-88213186D01*
X125847763Y-88006556D01*
X125973770Y-87770814D01*
X125984000Y-87737090D01*
X125994230Y-87770814D01*
X126120237Y-88006556D01*
X126289814Y-88213186D01*
X126391854Y-88296928D01*
X126424240Y-88403692D01*
X126494533Y-88535200D01*
X126589131Y-88650469D01*
X126704400Y-88745067D01*
X126835908Y-88815360D01*
X126978603Y-88858645D01*
X127127000Y-88873261D01*
X127275397Y-88858645D01*
X127418092Y-88815360D01*
X127549600Y-88745067D01*
X127635988Y-88674170D01*
X127762982Y-88547176D01*
X127791869Y-88523469D01*
X127825905Y-88481996D01*
X128011556Y-88382763D01*
X128218186Y-88213186D01*
X128387763Y-88006556D01*
X128513770Y-87770814D01*
X128524000Y-87737090D01*
X128534230Y-87770814D01*
X128660237Y-88006556D01*
X128829814Y-88213186D01*
X129036444Y-88382763D01*
X129272186Y-88508770D01*
X129527982Y-88586364D01*
X129727346Y-88606000D01*
X129860654Y-88606000D01*
X130060018Y-88586364D01*
X130315814Y-88508770D01*
X130551556Y-88382763D01*
X130758186Y-88213186D01*
X130927763Y-88006556D01*
X131053770Y-87770814D01*
X131067723Y-87724816D01*
X131084050Y-87777281D01*
X131211130Y-88010983D01*
X131381361Y-88215403D01*
X131588202Y-88382684D01*
X131823703Y-88506399D01*
X132059723Y-88577993D01*
X132271000Y-88477636D01*
X132271000Y-87312000D01*
X132397000Y-87312000D01*
X132397000Y-88477636D01*
X132608277Y-88577993D01*
X132844297Y-88506399D01*
X133079798Y-88382684D01*
X133286639Y-88215403D01*
X133456870Y-88010983D01*
X133515273Y-87903579D01*
X133514547Y-88099000D01*
X133524336Y-88198389D01*
X133553327Y-88293959D01*
X133600405Y-88382037D01*
X133663762Y-88459238D01*
X133740963Y-88522595D01*
X133829041Y-88569673D01*
X133924611Y-88598664D01*
X134024000Y-88608453D01*
X134684250Y-88606000D01*
X134811000Y-88479250D01*
X134811000Y-87312000D01*
X134937000Y-87312000D01*
X134937000Y-88479250D01*
X135063750Y-88606000D01*
X135724000Y-88608453D01*
X135823389Y-88598664D01*
X135918959Y-88569673D01*
X136007037Y-88522595D01*
X136084238Y-88459238D01*
X136147595Y-88382037D01*
X136194673Y-88293959D01*
X136223664Y-88198389D01*
X136233453Y-88099000D01*
X136231000Y-87438750D01*
X136104250Y-87312000D01*
X134937000Y-87312000D01*
X134811000Y-87312000D01*
X133643750Y-87312000D01*
X133588835Y-87366915D01*
X133562789Y-87312000D01*
X132397000Y-87312000D01*
X132271000Y-87312000D01*
X132251000Y-87312000D01*
X132251000Y-87186000D01*
X132271000Y-87186000D01*
X132271000Y-86020364D01*
X132397000Y-86020364D01*
X132397000Y-87186000D01*
X133562789Y-87186000D01*
X133588835Y-87131085D01*
X133643750Y-87186000D01*
X134811000Y-87186000D01*
X134811000Y-86018750D01*
X134937000Y-86018750D01*
X134937000Y-87186000D01*
X136104250Y-87186000D01*
X136231000Y-87059250D01*
X136233453Y-86399000D01*
X136223664Y-86299611D01*
X136194673Y-86204041D01*
X136147595Y-86115963D01*
X136084238Y-86038762D01*
X136007037Y-85975405D01*
X135918959Y-85928327D01*
X135823389Y-85899336D01*
X135724000Y-85889547D01*
X135063750Y-85892000D01*
X134937000Y-86018750D01*
X134811000Y-86018750D01*
X134684250Y-85892000D01*
X134024000Y-85889547D01*
X133924611Y-85899336D01*
X133829041Y-85928327D01*
X133740963Y-85975405D01*
X133663762Y-86038762D01*
X133600405Y-86115963D01*
X133553327Y-86204041D01*
X133524336Y-86299611D01*
X133514547Y-86399000D01*
X133515273Y-86594421D01*
X133456870Y-86487017D01*
X133286639Y-86282597D01*
X133079798Y-86115316D01*
X132844297Y-85991601D01*
X132608277Y-85920007D01*
X132397000Y-86020364D01*
X132271000Y-86020364D01*
X132059723Y-85920007D01*
X131823703Y-85991601D01*
X131588202Y-86115316D01*
X131381361Y-86282597D01*
X131211130Y-86487017D01*
X131084050Y-86720719D01*
X131067723Y-86773184D01*
X131053770Y-86727186D01*
X130927763Y-86491444D01*
X130758186Y-86284814D01*
X130551556Y-86115237D01*
X130315814Y-85989230D01*
X130060018Y-85911636D01*
X129860654Y-85892000D01*
X129727346Y-85892000D01*
X129527982Y-85911636D01*
X129272186Y-85989230D01*
X129036444Y-86115237D01*
X128829814Y-86284814D01*
X128660237Y-86491444D01*
X128534230Y-86727186D01*
X128524000Y-86760910D01*
X128513770Y-86727186D01*
X128387763Y-86491444D01*
X128218186Y-86284814D01*
X128011556Y-86115237D01*
X128011000Y-86114940D01*
X128011000Y-85555958D01*
X130277593Y-83289367D01*
X130306469Y-83265669D01*
X130330167Y-83236793D01*
X130330170Y-83236790D01*
X130401067Y-83150402D01*
X130425552Y-83104594D01*
X130471360Y-83018893D01*
X130514646Y-82876198D01*
X130525600Y-82764981D01*
X130525600Y-82764971D01*
X130529261Y-82727801D01*
X130525600Y-82690630D01*
X130525600Y-67385625D01*
X130539562Y-67402638D01*
X130616763Y-67465995D01*
X130704841Y-67513073D01*
X130800411Y-67542064D01*
X130899800Y-67551853D01*
X132599800Y-67551853D01*
X132699189Y-67542064D01*
X132794759Y-67513073D01*
X132882837Y-67465995D01*
X132960038Y-67402638D01*
X133023395Y-67325437D01*
X133070473Y-67237359D01*
X133099464Y-67141789D01*
X133109253Y-67042400D01*
X133109253Y-66862429D01*
X133156037Y-66949956D01*
X133325614Y-67156586D01*
X133532244Y-67326163D01*
X133767986Y-67452170D01*
X134023782Y-67529764D01*
X134223146Y-67549400D01*
X134356454Y-67549400D01*
X134555818Y-67529764D01*
X134811614Y-67452170D01*
X135047356Y-67326163D01*
X135253986Y-67156586D01*
X135423563Y-66949956D01*
X135549570Y-66714214D01*
X135566377Y-66658808D01*
X135569647Y-66669587D01*
X135691011Y-66896644D01*
X135776001Y-67000204D01*
X135776001Y-67248895D01*
X135771128Y-67298370D01*
X135790571Y-67495776D01*
X135848152Y-67685596D01*
X135928673Y-67836239D01*
X135941660Y-67860536D01*
X136067499Y-68013872D01*
X136105926Y-68045408D01*
X137038191Y-68977674D01*
X137069728Y-69016102D01*
X137223064Y-69141941D01*
X137345903Y-69207600D01*
X137398003Y-69235448D01*
X137587823Y-69293029D01*
X137785229Y-69312472D01*
X137834695Y-69307600D01*
X138758866Y-69307600D01*
X138906806Y-69293029D01*
X139096627Y-69235448D01*
X139271566Y-69141941D01*
X139424902Y-69016102D01*
X139550741Y-68862766D01*
X139644248Y-68687827D01*
X139701829Y-68498006D01*
X139721272Y-68300600D01*
X139701829Y-68103194D01*
X139644248Y-67913373D01*
X139550741Y-67738434D01*
X139424902Y-67585098D01*
X139271566Y-67459259D01*
X139155711Y-67397333D01*
X139260000Y-67345567D01*
X139260000Y-66230000D01*
X139240000Y-66230000D01*
X139240000Y-66104000D01*
X139260000Y-66104000D01*
X139260000Y-66084000D01*
X139386000Y-66084000D01*
X139386000Y-66104000D01*
X139406000Y-66104000D01*
X139406000Y-66230000D01*
X139386000Y-66230000D01*
X139386000Y-67345567D01*
X139589447Y-67446553D01*
X139812340Y-67378941D01*
X140039375Y-67260188D01*
X140238880Y-67099425D01*
X140403189Y-66902829D01*
X140525987Y-66677956D01*
X140590090Y-66473254D01*
X140649647Y-66669587D01*
X140771011Y-66896644D01*
X140934340Y-67095660D01*
X141106000Y-67236538D01*
X141106001Y-79413039D01*
X136803418Y-83715624D01*
X136774531Y-83739331D01*
X136679933Y-83854600D01*
X136609640Y-83986108D01*
X136566354Y-84128803D01*
X136555400Y-84240020D01*
X136555400Y-84240030D01*
X136551739Y-84277200D01*
X136555400Y-84314370D01*
X136555401Y-91101040D01*
X124205018Y-103451424D01*
X124176131Y-103475131D01*
X124081533Y-103590400D01*
X124011240Y-103721908D01*
X123967954Y-103864603D01*
X123957000Y-103975820D01*
X123957000Y-103975830D01*
X123953339Y-104013000D01*
X123957000Y-104050170D01*
X123957001Y-111260939D01*
X123956444Y-111261237D01*
X123749814Y-111430814D01*
X123580237Y-111637444D01*
X123454230Y-111873186D01*
X123444000Y-111906910D01*
X123433770Y-111873186D01*
X123307763Y-111637444D01*
X123138186Y-111430814D01*
X122931556Y-111261237D01*
X122695814Y-111135230D01*
X122440018Y-111057636D01*
X122240654Y-111038000D01*
X122107346Y-111038000D01*
X121907982Y-111057636D01*
X121652186Y-111135230D01*
X121416444Y-111261237D01*
X121209814Y-111430814D01*
X121040237Y-111637444D01*
X120914230Y-111873186D01*
X120904000Y-111906910D01*
X120893770Y-111873186D01*
X120767763Y-111637444D01*
X120598186Y-111430814D01*
X120391556Y-111261237D01*
X120155814Y-111135230D01*
X119900018Y-111057636D01*
X119700654Y-111038000D01*
X119567346Y-111038000D01*
X119367982Y-111057636D01*
X119112186Y-111135230D01*
X118876444Y-111261237D01*
X118669814Y-111430814D01*
X118500237Y-111637444D01*
X118452780Y-111726230D01*
X118453453Y-111545000D01*
X118443664Y-111445611D01*
X118414673Y-111350041D01*
X118367595Y-111261963D01*
X118304238Y-111184762D01*
X118227037Y-111121405D01*
X118138959Y-111074327D01*
X118043389Y-111045336D01*
X117944000Y-111035547D01*
X117283750Y-111038000D01*
X117157000Y-111164750D01*
X117157000Y-112332000D01*
X117177000Y-112332000D01*
X117177000Y-112458000D01*
X117157000Y-112458000D01*
X117157000Y-113625250D01*
X117283750Y-113752000D01*
X117944000Y-113754453D01*
X118043389Y-113744664D01*
X118138959Y-113715673D01*
X118227037Y-113668595D01*
X118304238Y-113605238D01*
X118367595Y-113528037D01*
X118414673Y-113439959D01*
X118443664Y-113344389D01*
X118453453Y-113245000D01*
X118452780Y-113063770D01*
X118500237Y-113152556D01*
X118669814Y-113359186D01*
X118876444Y-113528763D01*
X119112186Y-113654770D01*
X119367982Y-113732364D01*
X119567346Y-113752000D01*
X119700654Y-113752000D01*
X119900018Y-113732364D01*
X120155814Y-113654770D01*
X120391556Y-113528763D01*
X120598186Y-113359186D01*
X120767763Y-113152556D01*
X120893770Y-112916814D01*
X120904000Y-112883090D01*
X120914230Y-112916814D01*
X121040237Y-113152556D01*
X121209814Y-113359186D01*
X121416444Y-113528763D01*
X121652186Y-113654770D01*
X121907982Y-113732364D01*
X122107346Y-113752000D01*
X122240654Y-113752000D01*
X122440018Y-113732364D01*
X122695814Y-113654770D01*
X122931556Y-113528763D01*
X123138186Y-113359186D01*
X123307763Y-113152556D01*
X123433770Y-112916814D01*
X123444000Y-112883090D01*
X123454230Y-112916814D01*
X123580237Y-113152556D01*
X123749814Y-113359186D01*
X123956444Y-113528763D01*
X124192186Y-113654770D01*
X124447982Y-113732364D01*
X124647346Y-113752000D01*
X124780654Y-113752000D01*
X124980018Y-113732364D01*
X125235814Y-113654770D01*
X125471556Y-113528763D01*
X125678186Y-113359186D01*
X125847763Y-113152556D01*
X125973770Y-112916814D01*
X125984000Y-112883090D01*
X125994230Y-112916814D01*
X126120237Y-113152556D01*
X126289814Y-113359186D01*
X126496444Y-113528763D01*
X126732186Y-113654770D01*
X126987982Y-113732364D01*
X127187346Y-113752000D01*
X127320654Y-113752000D01*
X127520018Y-113732364D01*
X127775814Y-113654770D01*
X128011556Y-113528763D01*
X128218186Y-113359186D01*
X128387763Y-113152556D01*
X128513770Y-112916814D01*
X128524000Y-112883090D01*
X128534230Y-112916814D01*
X128660237Y-113152556D01*
X128829814Y-113359186D01*
X129036444Y-113528763D01*
X129272186Y-113654770D01*
X129527982Y-113732364D01*
X129727346Y-113752000D01*
X129860654Y-113752000D01*
X130060018Y-113732364D01*
X130315814Y-113654770D01*
X130551556Y-113528763D01*
X130758186Y-113359186D01*
X130927763Y-113152556D01*
X131053770Y-112916814D01*
X131064000Y-112883090D01*
X131074230Y-112916814D01*
X131200237Y-113152556D01*
X131369814Y-113359186D01*
X131576444Y-113528763D01*
X131812186Y-113654770D01*
X132067982Y-113732364D01*
X132267346Y-113752000D01*
X132400654Y-113752000D01*
X132600018Y-113732364D01*
X132855814Y-113654770D01*
X133091556Y-113528763D01*
X133298186Y-113359186D01*
X133467763Y-113152556D01*
X133593770Y-112916814D01*
X133607723Y-112870816D01*
X133624050Y-112923281D01*
X133751130Y-113156983D01*
X133921361Y-113361403D01*
X134128202Y-113528684D01*
X134363703Y-113652399D01*
X134599723Y-113723993D01*
X134811000Y-113623636D01*
X134811000Y-112458000D01*
X134937000Y-112458000D01*
X134937000Y-113623636D01*
X135148277Y-113723993D01*
X135384297Y-113652399D01*
X135619798Y-113528684D01*
X135826639Y-113361403D01*
X135996870Y-113156983D01*
X136123950Y-112923281D01*
X136202995Y-112669277D01*
X136102789Y-112458000D01*
X134937000Y-112458000D01*
X134811000Y-112458000D01*
X134791000Y-112458000D01*
X134791000Y-112332000D01*
X134811000Y-112332000D01*
X134811000Y-111166364D01*
X134937000Y-111166364D01*
X134937000Y-112332000D01*
X136102789Y-112332000D01*
X136202995Y-112120723D01*
X136123950Y-111866719D01*
X135996870Y-111633017D01*
X135826639Y-111428597D01*
X135619798Y-111261316D01*
X135384297Y-111137601D01*
X135148277Y-111066007D01*
X134937000Y-111166364D01*
X134811000Y-111166364D01*
X134599723Y-111066007D01*
X134363703Y-111137601D01*
X134128202Y-111261316D01*
X133921361Y-111428597D01*
X133751130Y-111633017D01*
X133624050Y-111866719D01*
X133607723Y-111919184D01*
X133593770Y-111873186D01*
X133467763Y-111637444D01*
X133298186Y-111430814D01*
X133091556Y-111261237D01*
X133091000Y-111260940D01*
X133091000Y-109849877D01*
X150258207Y-109849877D01*
X150329801Y-110085897D01*
X150453516Y-110321398D01*
X150620797Y-110528239D01*
X150825217Y-110698470D01*
X151058919Y-110825550D01*
X151312923Y-110904595D01*
X151524200Y-110804389D01*
X151524200Y-109638600D01*
X151650200Y-109638600D01*
X151650200Y-110804389D01*
X151861477Y-110904595D01*
X152115481Y-110825550D01*
X152349183Y-110698470D01*
X152553603Y-110528239D01*
X152720884Y-110321398D01*
X152844599Y-110085897D01*
X152916193Y-109849877D01*
X152815836Y-109638600D01*
X151650200Y-109638600D01*
X151524200Y-109638600D01*
X150358564Y-109638600D01*
X150258207Y-109849877D01*
X133091000Y-109849877D01*
X133091000Y-105825158D01*
X144679393Y-94236767D01*
X144708269Y-94213069D01*
X144731967Y-94184193D01*
X144731970Y-94184190D01*
X144802867Y-94097802D01*
X144827352Y-94051994D01*
X144873160Y-93966293D01*
X144916446Y-93823598D01*
X144927400Y-93712381D01*
X144927400Y-93712371D01*
X144931061Y-93675201D01*
X144927400Y-93638030D01*
X144927400Y-85301958D01*
X146603713Y-83625646D01*
X146625001Y-83614267D01*
X146740269Y-83519669D01*
X146834867Y-83404401D01*
X146905160Y-83272893D01*
X146948446Y-83130198D01*
X146959400Y-83018981D01*
X146963062Y-82981800D01*
X146959400Y-82944619D01*
X146959400Y-70892528D01*
X147226328Y-70625600D01*
X150227747Y-70625600D01*
X150230200Y-71285850D01*
X150356950Y-71412600D01*
X151524200Y-71412600D01*
X151524200Y-70245350D01*
X151650200Y-70245350D01*
X151650200Y-71412600D01*
X152817450Y-71412600D01*
X152944200Y-71285850D01*
X152946653Y-70625600D01*
X152936864Y-70526211D01*
X152907873Y-70430641D01*
X152860795Y-70342563D01*
X152797438Y-70265362D01*
X152720237Y-70202005D01*
X152632159Y-70154927D01*
X152536589Y-70125936D01*
X152437200Y-70116147D01*
X151776950Y-70118600D01*
X151650200Y-70245350D01*
X151524200Y-70245350D01*
X151397450Y-70118600D01*
X150737200Y-70116147D01*
X150637811Y-70125936D01*
X150542241Y-70154927D01*
X150454163Y-70202005D01*
X150376962Y-70265362D01*
X150313605Y-70342563D01*
X150266527Y-70430641D01*
X150237536Y-70526211D01*
X150227747Y-70625600D01*
X147226328Y-70625600D01*
X149991988Y-67859941D01*
X150020869Y-67836239D01*
X150115467Y-67720971D01*
X150185760Y-67589463D01*
X150229046Y-67446768D01*
X150240000Y-67335551D01*
X150240000Y-67335541D01*
X150243661Y-67298371D01*
X150240000Y-67261200D01*
X150240000Y-67236538D01*
X150411660Y-67095660D01*
X150574989Y-66896644D01*
X150696353Y-66669587D01*
X150753000Y-66482848D01*
X150809647Y-66669587D01*
X150931011Y-66896644D01*
X151094340Y-67095660D01*
X151293356Y-67258989D01*
X151520413Y-67380353D01*
X151766783Y-67455089D01*
X151958791Y-67474000D01*
X152087209Y-67474000D01*
X152279217Y-67455089D01*
X152525587Y-67380353D01*
X152752644Y-67258989D01*
X152951660Y-67095660D01*
X153114989Y-66896644D01*
X153236353Y-66669587D01*
X153293000Y-66482848D01*
X153349647Y-66669587D01*
X153471011Y-66896644D01*
X153634340Y-67095660D01*
X153833356Y-67258989D01*
X154060413Y-67380353D01*
X154306783Y-67455089D01*
X154498791Y-67474000D01*
X154627209Y-67474000D01*
X154819217Y-67455089D01*
X155065587Y-67380353D01*
X155292644Y-67258989D01*
X155491660Y-67095660D01*
X155654989Y-66896644D01*
X155776353Y-66669587D01*
X155851089Y-66423217D01*
X155876324Y-66167000D01*
X155851089Y-65910783D01*
X155776353Y-65664413D01*
X155654989Y-65437356D01*
X155491660Y-65238340D01*
X155292644Y-65075011D01*
X155065587Y-64953647D01*
X154819217Y-64878911D01*
X154627209Y-64860000D01*
X154498791Y-64860000D01*
X154306783Y-64878911D01*
X154060413Y-64953647D01*
X153833356Y-65075011D01*
X153634340Y-65238340D01*
X153471011Y-65437356D01*
X153349647Y-65664413D01*
X153293000Y-65851152D01*
X153236353Y-65664413D01*
X153114989Y-65437356D01*
X152951660Y-65238340D01*
X152780000Y-65097462D01*
X152780000Y-65072800D01*
X152783661Y-65035629D01*
X152780000Y-64998459D01*
X152780000Y-64998449D01*
X152769046Y-64887232D01*
X152725760Y-64744537D01*
X152655467Y-64613029D01*
X152560869Y-64497761D01*
X152531987Y-64474058D01*
X152246559Y-64188631D01*
X152246555Y-64188626D01*
X151963345Y-63905417D01*
X151963003Y-63905000D01*
X155834878Y-63905000D01*
X155783152Y-64001773D01*
X155725571Y-64191594D01*
X155706128Y-64389000D01*
X155725571Y-64586406D01*
X155783152Y-64776227D01*
X155876659Y-64951166D01*
X156002498Y-65104502D01*
X156155834Y-65230341D01*
X156330773Y-65323848D01*
X156520594Y-65381429D01*
X156668534Y-65396000D01*
X157351666Y-65396000D01*
X157499606Y-65381429D01*
X157602533Y-65350207D01*
X157531011Y-65437356D01*
X157409647Y-65664413D01*
X157334911Y-65910783D01*
X157309676Y-66167000D01*
X157334911Y-66423217D01*
X157409647Y-66669587D01*
X157531011Y-66896644D01*
X157694340Y-67095660D01*
X157893356Y-67258989D01*
X158120413Y-67380353D01*
X158366783Y-67455089D01*
X158558791Y-67474000D01*
X158687209Y-67474000D01*
X158879217Y-67455089D01*
X159125587Y-67380353D01*
X159352644Y-67258989D01*
X159551660Y-67095660D01*
X159714989Y-66896644D01*
X159836353Y-66669587D01*
X159893000Y-66482848D01*
X159949647Y-66669587D01*
X160071011Y-66896644D01*
X160234340Y-67095660D01*
X160433356Y-67258989D01*
X160660413Y-67380353D01*
X160906783Y-67455089D01*
X161098791Y-67474000D01*
X161227209Y-67474000D01*
X161419217Y-67455089D01*
X161665587Y-67380353D01*
X161892644Y-67258989D01*
X162091660Y-67095660D01*
X162254989Y-66896644D01*
X162376353Y-66669587D01*
X162433000Y-66482848D01*
X162489647Y-66669587D01*
X162611011Y-66896644D01*
X162774340Y-67095660D01*
X162973356Y-67258989D01*
X163200413Y-67380353D01*
X163446783Y-67455089D01*
X163638791Y-67474000D01*
X163767209Y-67474000D01*
X163959217Y-67455089D01*
X164205587Y-67380353D01*
X164432644Y-67258989D01*
X164631660Y-67095660D01*
X164794989Y-66896644D01*
X164916353Y-66669587D01*
X164973000Y-66482848D01*
X165029647Y-66669587D01*
X165151011Y-66896644D01*
X165236000Y-67000203D01*
X165236001Y-74928666D01*
X165250572Y-75076606D01*
X165308153Y-75266427D01*
X165401660Y-75441366D01*
X165527499Y-75594702D01*
X165680835Y-75720541D01*
X165855774Y-75814048D01*
X166045595Y-75871629D01*
X166243000Y-75891072D01*
X166440406Y-75871629D01*
X166630227Y-75814048D01*
X166805166Y-75720541D01*
X166958502Y-75594702D01*
X167084341Y-75441366D01*
X167177848Y-75266427D01*
X167235429Y-75076606D01*
X167250000Y-74928666D01*
X167250000Y-67000203D01*
X167334989Y-66896644D01*
X167456353Y-66669587D01*
X167513000Y-66482848D01*
X167569647Y-66669587D01*
X167691011Y-66896644D01*
X167776000Y-67000203D01*
X167776001Y-75157266D01*
X167790572Y-75305206D01*
X167848153Y-75495027D01*
X167941660Y-75669966D01*
X168067499Y-75823302D01*
X168220835Y-75949141D01*
X168395774Y-76042648D01*
X168585595Y-76100229D01*
X168783000Y-76119672D01*
X168980406Y-76100229D01*
X169170227Y-76042648D01*
X169345166Y-75949141D01*
X169498502Y-75823302D01*
X169624341Y-75669966D01*
X169717848Y-75495027D01*
X169775429Y-75305206D01*
X169790000Y-75157266D01*
X169790000Y-67000203D01*
X169874989Y-66896644D01*
X169996353Y-66669587D01*
X170053000Y-66482848D01*
X170109647Y-66669587D01*
X170231011Y-66896644D01*
X170394340Y-67095660D01*
X170593356Y-67258989D01*
X170820413Y-67380353D01*
X171066783Y-67455089D01*
X171258791Y-67474000D01*
X171387209Y-67474000D01*
X171579217Y-67455089D01*
X171825587Y-67380353D01*
X172052644Y-67258989D01*
X172251660Y-67095660D01*
X172414989Y-66896644D01*
X172536353Y-66669587D01*
X172593000Y-66482848D01*
X172649647Y-66669587D01*
X172771011Y-66896644D01*
X172856000Y-67000203D01*
X172856001Y-71388686D01*
X172328288Y-71916400D01*
X171527534Y-71916400D01*
X171379594Y-71930971D01*
X171189773Y-71988552D01*
X171014834Y-72082059D01*
X170861498Y-72207898D01*
X170735659Y-72361234D01*
X170642152Y-72536173D01*
X170584571Y-72725994D01*
X170565128Y-72923400D01*
X170584571Y-73120806D01*
X170642152Y-73310627D01*
X170735659Y-73485566D01*
X170861498Y-73638902D01*
X171014834Y-73764741D01*
X171189773Y-73858248D01*
X171379594Y-73915829D01*
X171527534Y-73930400D01*
X172695934Y-73930400D01*
X172745400Y-73935272D01*
X172942806Y-73915829D01*
X173087549Y-73871922D01*
X173132627Y-73858248D01*
X173307566Y-73764741D01*
X173460902Y-73638902D01*
X173492443Y-73600469D01*
X174540074Y-72552839D01*
X174578502Y-72521302D01*
X174704341Y-72367966D01*
X174797848Y-72193027D01*
X174812587Y-72144440D01*
X174855429Y-72003207D01*
X174874872Y-71805801D01*
X174870000Y-71756335D01*
X174870000Y-67000203D01*
X174954989Y-66896644D01*
X175076353Y-66669587D01*
X175133000Y-66482848D01*
X175189647Y-66669587D01*
X175311011Y-66896644D01*
X175474340Y-67095660D01*
X175673356Y-67258989D01*
X175900413Y-67380353D01*
X176146783Y-67455089D01*
X176338791Y-67474000D01*
X176467209Y-67474000D01*
X176659217Y-67455089D01*
X176905587Y-67380353D01*
X177132644Y-67258989D01*
X177331660Y-67095660D01*
X177494989Y-66896644D01*
X177616353Y-66669587D01*
X177691089Y-66423217D01*
X177716324Y-66167000D01*
X177691089Y-65910783D01*
X177616353Y-65664413D01*
X177494989Y-65437356D01*
X177331660Y-65238340D01*
X177132644Y-65075011D01*
X176905587Y-64953647D01*
X176659217Y-64878911D01*
X176467209Y-64860000D01*
X176338791Y-64860000D01*
X176146783Y-64878911D01*
X175900413Y-64953647D01*
X175673356Y-65075011D01*
X175474340Y-65238340D01*
X175311011Y-65437356D01*
X175189647Y-65664413D01*
X175133000Y-65851152D01*
X175076353Y-65664413D01*
X174954989Y-65437356D01*
X174791660Y-65238340D01*
X174592644Y-65075011D01*
X174365587Y-64953647D01*
X174119217Y-64878911D01*
X173927209Y-64860000D01*
X173798791Y-64860000D01*
X173606783Y-64878911D01*
X173360413Y-64953647D01*
X173133356Y-65075011D01*
X172934340Y-65238340D01*
X172771011Y-65437356D01*
X172649647Y-65664413D01*
X172593000Y-65851152D01*
X172536353Y-65664413D01*
X172414989Y-65437356D01*
X172251660Y-65238340D01*
X172052644Y-65075011D01*
X171825587Y-64953647D01*
X171579217Y-64878911D01*
X171387209Y-64860000D01*
X171258791Y-64860000D01*
X171102001Y-64875442D01*
X170131558Y-63905000D01*
X177198640Y-63905000D01*
X178665000Y-65371361D01*
X178665001Y-76554856D01*
X178662426Y-76581000D01*
X178672698Y-76685290D01*
X178703118Y-76785572D01*
X178740771Y-76856015D01*
X178752519Y-76877993D01*
X178819000Y-76959001D01*
X178839303Y-76975663D01*
X181205000Y-79341362D01*
X181205001Y-111666637D01*
X178839308Y-114032332D01*
X178818999Y-114048999D01*
X178752518Y-114130007D01*
X178730723Y-114170783D01*
X178703118Y-114222428D01*
X178672698Y-114322710D01*
X178662426Y-114427000D01*
X178665000Y-114453134D01*
X178665001Y-116689000D01*
X160265559Y-116689000D01*
X160354669Y-116615869D01*
X160378375Y-116586983D01*
X161595794Y-115369566D01*
X161624669Y-115345869D01*
X161648367Y-115316993D01*
X161648370Y-115316990D01*
X161719267Y-115230602D01*
X161789560Y-115099093D01*
X161789560Y-115099092D01*
X161832846Y-114956398D01*
X161843800Y-114845181D01*
X161843800Y-114845171D01*
X161847461Y-114808001D01*
X161843800Y-114770830D01*
X161843800Y-114452400D01*
X162339435Y-114452400D01*
X162365636Y-114718418D01*
X162443230Y-114974214D01*
X162569237Y-115209956D01*
X162738814Y-115416586D01*
X162945444Y-115586163D01*
X163181186Y-115712170D01*
X163436982Y-115789764D01*
X163636346Y-115809400D01*
X163769654Y-115809400D01*
X163969018Y-115789764D01*
X164224814Y-115712170D01*
X164460556Y-115586163D01*
X164667186Y-115416586D01*
X164836763Y-115209956D01*
X164962770Y-114974214D01*
X164973000Y-114940490D01*
X164983230Y-114974214D01*
X165109237Y-115209956D01*
X165278814Y-115416586D01*
X165485444Y-115586163D01*
X165721186Y-115712170D01*
X165976982Y-115789764D01*
X166176346Y-115809400D01*
X166309654Y-115809400D01*
X166509018Y-115789764D01*
X166764814Y-115712170D01*
X167000556Y-115586163D01*
X167207186Y-115416586D01*
X167376763Y-115209956D01*
X167502770Y-114974214D01*
X167513000Y-114940490D01*
X167523230Y-114974214D01*
X167649237Y-115209956D01*
X167818814Y-115416586D01*
X168025444Y-115586163D01*
X168261186Y-115712170D01*
X168516982Y-115789764D01*
X168716346Y-115809400D01*
X168849654Y-115809400D01*
X169049018Y-115789764D01*
X169304814Y-115712170D01*
X169540556Y-115586163D01*
X169747186Y-115416586D01*
X169916763Y-115209956D01*
X170042770Y-114974214D01*
X170053000Y-114940490D01*
X170063230Y-114974214D01*
X170189237Y-115209956D01*
X170358814Y-115416586D01*
X170565444Y-115586163D01*
X170801186Y-115712170D01*
X171056982Y-115789764D01*
X171256346Y-115809400D01*
X171389654Y-115809400D01*
X171589018Y-115789764D01*
X171844814Y-115712170D01*
X172080556Y-115586163D01*
X172287186Y-115416586D01*
X172456763Y-115209956D01*
X172582770Y-114974214D01*
X172593000Y-114940490D01*
X172603230Y-114974214D01*
X172729237Y-115209956D01*
X172898814Y-115416586D01*
X173105444Y-115586163D01*
X173341186Y-115712170D01*
X173596982Y-115789764D01*
X173796346Y-115809400D01*
X173929654Y-115809400D01*
X174129018Y-115789764D01*
X174384814Y-115712170D01*
X174620556Y-115586163D01*
X174827186Y-115416586D01*
X174996763Y-115209956D01*
X175043547Y-115122429D01*
X175043547Y-115302400D01*
X175053336Y-115401789D01*
X175082327Y-115497359D01*
X175129405Y-115585437D01*
X175192762Y-115662638D01*
X175269963Y-115725995D01*
X175358041Y-115773073D01*
X175453611Y-115802064D01*
X175553000Y-115811853D01*
X177253000Y-115811853D01*
X177352389Y-115802064D01*
X177447959Y-115773073D01*
X177536037Y-115725995D01*
X177613238Y-115662638D01*
X177676595Y-115585437D01*
X177723673Y-115497359D01*
X177752664Y-115401789D01*
X177762453Y-115302400D01*
X177762453Y-113602400D01*
X177752664Y-113503011D01*
X177723673Y-113407441D01*
X177676595Y-113319363D01*
X177613238Y-113242162D01*
X177536037Y-113178805D01*
X177447959Y-113131727D01*
X177352389Y-113102736D01*
X177253000Y-113092947D01*
X175553000Y-113092947D01*
X175453611Y-113102736D01*
X175358041Y-113131727D01*
X175269963Y-113178805D01*
X175192762Y-113242162D01*
X175129405Y-113319363D01*
X175082327Y-113407441D01*
X175053336Y-113503011D01*
X175043547Y-113602400D01*
X175043547Y-113782371D01*
X174996763Y-113694844D01*
X174827186Y-113488214D01*
X174620556Y-113318637D01*
X174384814Y-113192630D01*
X174129018Y-113115036D01*
X173929654Y-113095400D01*
X173796346Y-113095400D01*
X173596982Y-113115036D01*
X173341186Y-113192630D01*
X173105444Y-113318637D01*
X172898814Y-113488214D01*
X172729237Y-113694844D01*
X172603230Y-113930586D01*
X172593000Y-113964310D01*
X172582770Y-113930586D01*
X172456763Y-113694844D01*
X172287186Y-113488214D01*
X172080556Y-113318637D01*
X171844814Y-113192630D01*
X171589018Y-113115036D01*
X171389654Y-113095400D01*
X171256346Y-113095400D01*
X171056982Y-113115036D01*
X170801186Y-113192630D01*
X170565444Y-113318637D01*
X170358814Y-113488214D01*
X170189237Y-113694844D01*
X170063230Y-113930586D01*
X170053000Y-113964310D01*
X170042770Y-113930586D01*
X169916763Y-113694844D01*
X169747186Y-113488214D01*
X169540556Y-113318637D01*
X169304814Y-113192630D01*
X169049018Y-113115036D01*
X168849654Y-113095400D01*
X168716346Y-113095400D01*
X168516982Y-113115036D01*
X168261186Y-113192630D01*
X168025444Y-113318637D01*
X167818814Y-113488214D01*
X167649237Y-113694844D01*
X167523230Y-113930586D01*
X167513000Y-113964310D01*
X167502770Y-113930586D01*
X167376763Y-113694844D01*
X167207186Y-113488214D01*
X167000556Y-113318637D01*
X166764814Y-113192630D01*
X166509018Y-113115036D01*
X166309654Y-113095400D01*
X166176346Y-113095400D01*
X165976982Y-113115036D01*
X165721186Y-113192630D01*
X165485444Y-113318637D01*
X165278814Y-113488214D01*
X165109237Y-113694844D01*
X164983230Y-113930586D01*
X164973000Y-113964310D01*
X164962770Y-113930586D01*
X164836763Y-113694844D01*
X164667186Y-113488214D01*
X164460556Y-113318637D01*
X164224814Y-113192630D01*
X163969018Y-113115036D01*
X163769654Y-113095400D01*
X163636346Y-113095400D01*
X163436982Y-113115036D01*
X163181186Y-113192630D01*
X162945444Y-113318637D01*
X162738814Y-113488214D01*
X162569237Y-113694844D01*
X162443230Y-113930586D01*
X162365636Y-114186382D01*
X162339435Y-114452400D01*
X161843800Y-114452400D01*
X161843800Y-111958200D01*
X164656430Y-111958200D01*
X164693600Y-111961861D01*
X164730770Y-111958200D01*
X164730781Y-111958200D01*
X164841998Y-111947246D01*
X164984693Y-111903960D01*
X165116201Y-111833667D01*
X165231469Y-111739069D01*
X165255176Y-111710182D01*
X168436160Y-108529200D01*
X169262588Y-108529200D01*
X169278062Y-108566557D01*
X169461589Y-108841225D01*
X169695175Y-109074811D01*
X169969843Y-109258338D01*
X170275037Y-109384754D01*
X170599030Y-109449200D01*
X170929370Y-109449200D01*
X171253363Y-109384754D01*
X171558557Y-109258338D01*
X171833225Y-109074811D01*
X171990259Y-108917777D01*
X174707719Y-108917777D01*
X174825375Y-109171564D01*
X175116417Y-109327831D01*
X175432352Y-109424315D01*
X175761040Y-109457311D01*
X176089850Y-109425549D01*
X176406144Y-109330249D01*
X176697769Y-109175074D01*
X176703025Y-109171564D01*
X176820681Y-108917777D01*
X175764200Y-107861295D01*
X174707719Y-108917777D01*
X171990259Y-108917777D01*
X172066811Y-108841225D01*
X172250338Y-108566557D01*
X172376754Y-108261363D01*
X172441200Y-107937370D01*
X172441200Y-107769040D01*
X174079089Y-107769040D01*
X174110851Y-108097850D01*
X174206151Y-108414144D01*
X174361326Y-108705769D01*
X174364836Y-108711025D01*
X174618623Y-108828681D01*
X175675105Y-107772200D01*
X175853295Y-107772200D01*
X176909777Y-108828681D01*
X177163564Y-108711025D01*
X177319831Y-108419983D01*
X177416315Y-108104048D01*
X177449311Y-107775360D01*
X177417549Y-107446550D01*
X177322249Y-107130256D01*
X177167074Y-106838631D01*
X177163564Y-106833375D01*
X176909777Y-106715719D01*
X175853295Y-107772200D01*
X175675105Y-107772200D01*
X174618623Y-106715719D01*
X174364836Y-106833375D01*
X174208569Y-107124417D01*
X174112085Y-107440352D01*
X174079089Y-107769040D01*
X172441200Y-107769040D01*
X172441200Y-107607030D01*
X172376754Y-107283037D01*
X172250338Y-106977843D01*
X172066811Y-106703175D01*
X171990259Y-106626623D01*
X174707719Y-106626623D01*
X175764200Y-107683105D01*
X176820681Y-106626623D01*
X176703025Y-106372836D01*
X176411983Y-106216569D01*
X176096048Y-106120085D01*
X175767360Y-106087089D01*
X175438550Y-106118851D01*
X175122256Y-106214151D01*
X174830631Y-106369326D01*
X174825375Y-106372836D01*
X174707719Y-106626623D01*
X171990259Y-106626623D01*
X171833225Y-106469589D01*
X171558557Y-106286062D01*
X171253363Y-106159646D01*
X170929370Y-106095200D01*
X170599030Y-106095200D01*
X170275037Y-106159646D01*
X169969843Y-106286062D01*
X169695175Y-106469589D01*
X169461589Y-106703175D01*
X169278062Y-106977843D01*
X169262588Y-107015200D01*
X168159770Y-107015200D01*
X168122599Y-107011539D01*
X168085429Y-107015200D01*
X168085419Y-107015200D01*
X167974202Y-107026154D01*
X167831507Y-107069440D01*
X167745806Y-107115248D01*
X167699998Y-107139733D01*
X167613610Y-107210630D01*
X167613607Y-107210633D01*
X167584731Y-107234331D01*
X167561033Y-107263207D01*
X164380042Y-110444200D01*
X160996970Y-110444200D01*
X160959800Y-110440539D01*
X160922630Y-110444200D01*
X157771601Y-110444200D01*
X157865302Y-110367302D01*
X157991141Y-110213966D01*
X158084648Y-110039027D01*
X158142229Y-109849206D01*
X158156800Y-109701266D01*
X158156800Y-105166712D01*
X158269513Y-105054000D01*
X161754466Y-105054000D01*
X161902406Y-105039429D01*
X162092227Y-104981848D01*
X162267166Y-104888341D01*
X162420502Y-104762502D01*
X162546341Y-104609166D01*
X162639848Y-104434227D01*
X162697429Y-104244406D01*
X162716872Y-104047000D01*
X162697429Y-103849594D01*
X162639848Y-103659773D01*
X162546341Y-103484834D01*
X162420502Y-103331498D01*
X162267166Y-103205659D01*
X162092227Y-103112152D01*
X161902406Y-103054571D01*
X161754466Y-103040000D01*
X157901862Y-103040000D01*
X157852399Y-103035128D01*
X157802936Y-103040000D01*
X157802934Y-103040000D01*
X157654994Y-103054571D01*
X157465173Y-103112152D01*
X157290234Y-103205659D01*
X157136898Y-103331498D01*
X157105361Y-103369926D01*
X156472730Y-104002557D01*
X156434298Y-104034098D01*
X156308459Y-104187434D01*
X156231498Y-104331419D01*
X156214952Y-104362374D01*
X156157371Y-104552194D01*
X156137928Y-104749600D01*
X156142800Y-104799066D01*
X156142801Y-105995526D01*
X156142800Y-105995535D01*
X156142801Y-109701266D01*
X156157372Y-109849206D01*
X156214953Y-110039027D01*
X156308460Y-110213966D01*
X156434299Y-110367302D01*
X156528000Y-110444200D01*
X154948759Y-110444200D01*
X154820700Y-110316142D01*
X154820700Y-107568070D01*
X154824361Y-107530900D01*
X154820700Y-107493729D01*
X154820700Y-107493719D01*
X154809746Y-107382502D01*
X154766460Y-107239807D01*
X154696167Y-107108299D01*
X154601569Y-106993031D01*
X154572682Y-106969324D01*
X154129976Y-106526618D01*
X154106269Y-106497731D01*
X153991001Y-106403133D01*
X153859493Y-106332840D01*
X153716798Y-106289554D01*
X153605581Y-106278600D01*
X153605570Y-106278600D01*
X153568400Y-106274939D01*
X153531230Y-106278600D01*
X152721260Y-106278600D01*
X152720963Y-106278044D01*
X152551386Y-106071414D01*
X152344756Y-105901837D01*
X152109014Y-105775830D01*
X152075290Y-105765600D01*
X152109014Y-105755370D01*
X152344756Y-105629363D01*
X152551386Y-105459786D01*
X152720963Y-105253156D01*
X152846970Y-105017414D01*
X152924564Y-104761618D01*
X152950765Y-104495600D01*
X152924564Y-104229582D01*
X152846970Y-103973786D01*
X152720963Y-103738044D01*
X152551386Y-103531414D01*
X152344756Y-103361837D01*
X152109014Y-103235830D01*
X152075290Y-103225600D01*
X152109014Y-103215370D01*
X152344756Y-103089363D01*
X152551386Y-102919786D01*
X152720963Y-102713156D01*
X152846970Y-102477414D01*
X152924564Y-102221618D01*
X152950765Y-101955600D01*
X152924564Y-101689582D01*
X152846970Y-101433786D01*
X152720963Y-101198044D01*
X152551386Y-100991414D01*
X152344756Y-100821837D01*
X152109014Y-100695830D01*
X152075290Y-100685600D01*
X152109014Y-100675370D01*
X152344756Y-100549363D01*
X152551386Y-100379786D01*
X152720963Y-100173156D01*
X152846970Y-99937414D01*
X152924564Y-99681618D01*
X152950765Y-99415600D01*
X152924564Y-99149582D01*
X152846970Y-98893786D01*
X152720963Y-98658044D01*
X152551386Y-98451414D01*
X152344756Y-98281837D01*
X152109014Y-98155830D01*
X152075290Y-98145600D01*
X152109014Y-98135370D01*
X152344756Y-98009363D01*
X152551386Y-97839786D01*
X152720963Y-97633156D01*
X152846970Y-97397414D01*
X152924564Y-97141618D01*
X152950765Y-96875600D01*
X152924564Y-96609582D01*
X152846970Y-96353786D01*
X152720963Y-96118044D01*
X152551386Y-95911414D01*
X152344756Y-95741837D01*
X152109014Y-95615830D01*
X152075290Y-95605600D01*
X152109014Y-95595370D01*
X152344756Y-95469363D01*
X152551386Y-95299786D01*
X152720963Y-95093156D01*
X152846970Y-94857414D01*
X152924564Y-94601618D01*
X152950765Y-94335600D01*
X152924564Y-94069582D01*
X152846970Y-93813786D01*
X152720963Y-93578044D01*
X152551386Y-93371414D01*
X152344756Y-93201837D01*
X152109014Y-93075830D01*
X152075290Y-93065600D01*
X152109014Y-93055370D01*
X152344756Y-92929363D01*
X152551386Y-92759786D01*
X152720963Y-92553156D01*
X152846970Y-92317414D01*
X152924564Y-92061618D01*
X152950765Y-91795600D01*
X152924564Y-91529582D01*
X152846970Y-91273786D01*
X152720963Y-91038044D01*
X152551386Y-90831414D01*
X152344756Y-90661837D01*
X152109014Y-90535830D01*
X152075290Y-90525600D01*
X152109014Y-90515370D01*
X152344756Y-90389363D01*
X152551386Y-90219786D01*
X152720963Y-90013156D01*
X152846970Y-89777414D01*
X152924564Y-89521618D01*
X152950765Y-89255600D01*
X152924564Y-88989582D01*
X152846970Y-88733786D01*
X152720963Y-88498044D01*
X152551386Y-88291414D01*
X152344756Y-88121837D01*
X152109014Y-87995830D01*
X152075290Y-87985600D01*
X152109014Y-87975370D01*
X152344756Y-87849363D01*
X152551386Y-87679786D01*
X152720963Y-87473156D01*
X152846970Y-87237414D01*
X152924564Y-86981618D01*
X152950765Y-86715600D01*
X152924564Y-86449582D01*
X152846970Y-86193786D01*
X152720963Y-85958044D01*
X152551386Y-85751414D01*
X152344756Y-85581837D01*
X152109014Y-85455830D01*
X152075290Y-85445600D01*
X152109014Y-85435370D01*
X152344756Y-85309363D01*
X152551386Y-85139786D01*
X152720963Y-84933156D01*
X152846970Y-84697414D01*
X152924564Y-84441618D01*
X152950765Y-84175600D01*
X152924564Y-83909582D01*
X152846970Y-83653786D01*
X152720963Y-83418044D01*
X152551386Y-83211414D01*
X152344756Y-83041837D01*
X152109014Y-82915830D01*
X152063016Y-82901877D01*
X152115481Y-82885550D01*
X152349183Y-82758470D01*
X152553603Y-82588239D01*
X152720884Y-82381398D01*
X152844599Y-82145897D01*
X152916193Y-81909877D01*
X152815836Y-81698600D01*
X151650200Y-81698600D01*
X151650200Y-81718600D01*
X151524200Y-81718600D01*
X151524200Y-81698600D01*
X150358564Y-81698600D01*
X150258207Y-81909877D01*
X150329801Y-82145897D01*
X150453516Y-82381398D01*
X150620797Y-82588239D01*
X150825217Y-82758470D01*
X151058919Y-82885550D01*
X151111384Y-82901877D01*
X151065386Y-82915830D01*
X150829644Y-83041837D01*
X150623014Y-83211414D01*
X150453437Y-83418044D01*
X150327430Y-83653786D01*
X150249836Y-83909582D01*
X150223635Y-84175600D01*
X150249836Y-84441618D01*
X150327430Y-84697414D01*
X150453437Y-84933156D01*
X150623014Y-85139786D01*
X150829644Y-85309363D01*
X151065386Y-85435370D01*
X151099110Y-85445600D01*
X151065386Y-85455830D01*
X150829644Y-85581837D01*
X150623014Y-85751414D01*
X150453437Y-85958044D01*
X150327430Y-86193786D01*
X150249836Y-86449582D01*
X150223635Y-86715600D01*
X150249836Y-86981618D01*
X150327430Y-87237414D01*
X150453437Y-87473156D01*
X150623014Y-87679786D01*
X150829644Y-87849363D01*
X151065386Y-87975370D01*
X151099110Y-87985600D01*
X151065386Y-87995830D01*
X150829644Y-88121837D01*
X150623014Y-88291414D01*
X150453437Y-88498044D01*
X150327430Y-88733786D01*
X150249836Y-88989582D01*
X150223635Y-89255600D01*
X150249836Y-89521618D01*
X150327430Y-89777414D01*
X150453437Y-90013156D01*
X150623014Y-90219786D01*
X150829644Y-90389363D01*
X151065386Y-90515370D01*
X151099110Y-90525600D01*
X151065386Y-90535830D01*
X150829644Y-90661837D01*
X150623014Y-90831414D01*
X150453437Y-91038044D01*
X150327430Y-91273786D01*
X150249836Y-91529582D01*
X150223635Y-91795600D01*
X150249836Y-92061618D01*
X150327430Y-92317414D01*
X150453437Y-92553156D01*
X150623014Y-92759786D01*
X150829644Y-92929363D01*
X151065386Y-93055370D01*
X151099110Y-93065600D01*
X151065386Y-93075830D01*
X150829644Y-93201837D01*
X150623014Y-93371414D01*
X150453437Y-93578044D01*
X150327430Y-93813786D01*
X150249836Y-94069582D01*
X150223635Y-94335600D01*
X150249836Y-94601618D01*
X150327430Y-94857414D01*
X150453437Y-95093156D01*
X150623014Y-95299786D01*
X150829644Y-95469363D01*
X151065386Y-95595370D01*
X151099110Y-95605600D01*
X151065386Y-95615830D01*
X150829644Y-95741837D01*
X150623014Y-95911414D01*
X150453437Y-96118044D01*
X150327430Y-96353786D01*
X150249836Y-96609582D01*
X150223635Y-96875600D01*
X150249836Y-97141618D01*
X150327430Y-97397414D01*
X150453437Y-97633156D01*
X150623014Y-97839786D01*
X150829644Y-98009363D01*
X151065386Y-98135370D01*
X151099110Y-98145600D01*
X151065386Y-98155830D01*
X150829644Y-98281837D01*
X150623014Y-98451414D01*
X150453437Y-98658044D01*
X150327430Y-98893786D01*
X150249836Y-99149582D01*
X150223635Y-99415600D01*
X150249836Y-99681618D01*
X150327430Y-99937414D01*
X150453437Y-100173156D01*
X150623014Y-100379786D01*
X150829644Y-100549363D01*
X151065386Y-100675370D01*
X151099110Y-100685600D01*
X151065386Y-100695830D01*
X150829644Y-100821837D01*
X150623014Y-100991414D01*
X150453437Y-101198044D01*
X150327430Y-101433786D01*
X150249836Y-101689582D01*
X150223635Y-101955600D01*
X150249836Y-102221618D01*
X150327430Y-102477414D01*
X150453437Y-102713156D01*
X150623014Y-102919786D01*
X150829644Y-103089363D01*
X151065386Y-103215370D01*
X151099110Y-103225600D01*
X151065386Y-103235830D01*
X150829644Y-103361837D01*
X150623014Y-103531414D01*
X150453437Y-103738044D01*
X150327430Y-103973786D01*
X150249836Y-104229582D01*
X150223635Y-104495600D01*
X150249836Y-104761618D01*
X150327430Y-105017414D01*
X150453437Y-105253156D01*
X150623014Y-105459786D01*
X150829644Y-105629363D01*
X151065386Y-105755370D01*
X151099110Y-105765600D01*
X151065386Y-105775830D01*
X150829644Y-105901837D01*
X150623014Y-106071414D01*
X150453437Y-106278044D01*
X150453140Y-106278600D01*
X149767159Y-106278600D01*
X149270800Y-105782242D01*
X149270800Y-76551855D01*
X149355141Y-76449085D01*
X149448648Y-76274146D01*
X149506229Y-76084325D01*
X149520800Y-75936385D01*
X149520800Y-75118512D01*
X149616713Y-75022600D01*
X150675183Y-75022600D01*
X150829644Y-75149363D01*
X151065386Y-75275370D01*
X151099110Y-75285600D01*
X151065386Y-75295830D01*
X150829644Y-75421837D01*
X150623014Y-75591414D01*
X150453437Y-75798044D01*
X150327430Y-76033786D01*
X150249836Y-76289582D01*
X150223635Y-76555600D01*
X150249836Y-76821618D01*
X150327430Y-77077414D01*
X150453437Y-77313156D01*
X150623014Y-77519786D01*
X150829644Y-77689363D01*
X151065386Y-77815370D01*
X151099110Y-77825600D01*
X151065386Y-77835830D01*
X150829644Y-77961837D01*
X150623014Y-78131414D01*
X150453437Y-78338044D01*
X150327430Y-78573786D01*
X150249836Y-78829582D01*
X150223635Y-79095600D01*
X150249836Y-79361618D01*
X150327430Y-79617414D01*
X150453437Y-79853156D01*
X150623014Y-80059786D01*
X150829644Y-80229363D01*
X151065386Y-80355370D01*
X151111384Y-80369323D01*
X151058919Y-80385650D01*
X150825217Y-80512730D01*
X150620797Y-80682961D01*
X150453516Y-80889802D01*
X150329801Y-81125303D01*
X150258207Y-81361323D01*
X150358564Y-81572600D01*
X151524200Y-81572600D01*
X151524200Y-81552600D01*
X151650200Y-81552600D01*
X151650200Y-81572600D01*
X152815836Y-81572600D01*
X152916193Y-81361323D01*
X152844599Y-81125303D01*
X152720884Y-80889802D01*
X152553603Y-80682961D01*
X152349183Y-80512730D01*
X152115481Y-80385650D01*
X152063016Y-80369323D01*
X152109014Y-80355370D01*
X152344756Y-80229363D01*
X152551386Y-80059786D01*
X152720963Y-79853156D01*
X152846970Y-79617414D01*
X152924564Y-79361618D01*
X152950765Y-79095600D01*
X152924564Y-78829582D01*
X152846970Y-78573786D01*
X152720963Y-78338044D01*
X152551386Y-78131414D01*
X152344756Y-77961837D01*
X152109014Y-77835830D01*
X152075290Y-77825600D01*
X152109014Y-77815370D01*
X152344756Y-77689363D01*
X152551386Y-77519786D01*
X152720963Y-77313156D01*
X152721260Y-77312600D01*
X158258642Y-77312600D01*
X160533000Y-79586960D01*
X160533001Y-92520420D01*
X160529339Y-92557600D01*
X160543955Y-92705997D01*
X160587240Y-92848692D01*
X160653386Y-92972441D01*
X160657534Y-92980201D01*
X160752132Y-93095469D01*
X160781013Y-93119171D01*
X170943029Y-103281188D01*
X170966731Y-103310069D01*
X171081999Y-103404667D01*
X171213507Y-103474960D01*
X171356202Y-103518246D01*
X171467419Y-103529200D01*
X171467429Y-103529200D01*
X171504600Y-103532861D01*
X171541770Y-103529200D01*
X171762588Y-103529200D01*
X171778062Y-103566557D01*
X171961589Y-103841225D01*
X172195175Y-104074811D01*
X172469843Y-104258338D01*
X172775037Y-104384754D01*
X173099030Y-104449200D01*
X173429370Y-104449200D01*
X173753363Y-104384754D01*
X174058557Y-104258338D01*
X174333225Y-104074811D01*
X174566811Y-103841225D01*
X174750338Y-103566557D01*
X174876754Y-103261363D01*
X174941200Y-102937370D01*
X174941200Y-102607030D01*
X174876754Y-102283037D01*
X174750338Y-101977843D01*
X174566811Y-101703175D01*
X174333225Y-101469589D01*
X174058557Y-101286062D01*
X173753363Y-101159646D01*
X173429370Y-101095200D01*
X173099030Y-101095200D01*
X172775037Y-101159646D01*
X172469843Y-101286062D01*
X172195175Y-101469589D01*
X171961589Y-101703175D01*
X171779159Y-101976201D01*
X162047000Y-92244042D01*
X162047000Y-85269743D01*
X177103200Y-85269743D01*
X177103200Y-101369457D01*
X180667200Y-101369457D01*
X180667200Y-85269743D01*
X177103200Y-85269743D01*
X162047000Y-85269743D01*
X162047000Y-79310573D01*
X162050661Y-79273400D01*
X162047000Y-79236227D01*
X162047000Y-79236219D01*
X162036046Y-79125002D01*
X161992760Y-78982307D01*
X161922467Y-78850799D01*
X161905055Y-78829582D01*
X161851571Y-78764411D01*
X161851567Y-78764407D01*
X161827869Y-78735531D01*
X161798994Y-78711834D01*
X159133776Y-76046617D01*
X159110069Y-76017731D01*
X158994801Y-75923133D01*
X158863293Y-75852840D01*
X158720598Y-75809554D01*
X158609381Y-75798600D01*
X158609370Y-75798600D01*
X158572200Y-75794939D01*
X158535030Y-75798600D01*
X152721260Y-75798600D01*
X152720963Y-75798044D01*
X152551386Y-75591414D01*
X152344756Y-75421837D01*
X152109014Y-75295830D01*
X152075290Y-75285600D01*
X152109014Y-75275370D01*
X152344756Y-75149363D01*
X152551386Y-74979786D01*
X152720963Y-74773156D01*
X152846970Y-74537414D01*
X152924564Y-74281618D01*
X152950765Y-74015600D01*
X152924564Y-73749582D01*
X152846970Y-73493786D01*
X152720963Y-73258044D01*
X152551386Y-73051414D01*
X152344756Y-72881837D01*
X152255970Y-72834380D01*
X152437200Y-72835053D01*
X152536589Y-72825264D01*
X152632159Y-72796273D01*
X152720237Y-72749195D01*
X152797438Y-72685838D01*
X152860795Y-72608637D01*
X152907873Y-72520559D01*
X152936864Y-72424989D01*
X152946653Y-72325600D01*
X152944200Y-71665350D01*
X152817450Y-71538600D01*
X151650200Y-71538600D01*
X151650200Y-71558600D01*
X151524200Y-71558600D01*
X151524200Y-71538600D01*
X150356950Y-71538600D01*
X150230200Y-71665350D01*
X150227747Y-72325600D01*
X150237536Y-72424989D01*
X150266527Y-72520559D01*
X150313605Y-72608637D01*
X150376962Y-72685838D01*
X150454163Y-72749195D01*
X150542241Y-72796273D01*
X150637811Y-72825264D01*
X150737200Y-72835053D01*
X150918430Y-72834380D01*
X150829644Y-72881837D01*
X150675183Y-73008600D01*
X149249066Y-73008600D01*
X149199600Y-73003728D01*
X149002193Y-73023171D01*
X148909088Y-73051414D01*
X148812373Y-73080752D01*
X148637434Y-73174259D01*
X148484098Y-73300098D01*
X148452561Y-73338526D01*
X147836726Y-73954362D01*
X147798299Y-73985898D01*
X147709765Y-74093778D01*
X147672460Y-74139234D01*
X147578952Y-74314174D01*
X147543999Y-74429400D01*
X147521371Y-74503994D01*
X147508775Y-74631887D01*
X147501928Y-74701400D01*
X147506800Y-74750866D01*
X147506800Y-75936384D01*
X147521371Y-76084324D01*
X147578952Y-76274145D01*
X147672459Y-76449085D01*
X147756800Y-76551855D01*
X147756801Y-106058620D01*
X147753139Y-106095800D01*
X147767755Y-106244197D01*
X147811040Y-106386892D01*
X147878867Y-106513786D01*
X147881334Y-106518401D01*
X147975932Y-106633669D01*
X148004813Y-106657371D01*
X148892029Y-107544588D01*
X148915731Y-107573469D01*
X149030999Y-107668067D01*
X149162507Y-107738360D01*
X149305202Y-107781646D01*
X149416419Y-107792600D01*
X149416429Y-107792600D01*
X149453600Y-107796261D01*
X149490770Y-107792600D01*
X150453140Y-107792600D01*
X150453437Y-107793156D01*
X150623014Y-107999786D01*
X150829644Y-108169363D01*
X151065386Y-108295370D01*
X151111384Y-108309323D01*
X151058919Y-108325650D01*
X150825217Y-108452730D01*
X150620797Y-108622961D01*
X150453516Y-108829802D01*
X150329801Y-109065303D01*
X150258207Y-109301323D01*
X150358564Y-109512600D01*
X151524200Y-109512600D01*
X151524200Y-109492600D01*
X151650200Y-109492600D01*
X151650200Y-109512600D01*
X152815836Y-109512600D01*
X152916193Y-109301323D01*
X152844599Y-109065303D01*
X152720884Y-108829802D01*
X152553603Y-108622961D01*
X152349183Y-108452730D01*
X152115481Y-108325650D01*
X152063016Y-108309323D01*
X152109014Y-108295370D01*
X152344756Y-108169363D01*
X152551386Y-107999786D01*
X152720963Y-107793156D01*
X152721260Y-107792600D01*
X153254842Y-107792600D01*
X153306701Y-107844459D01*
X153306700Y-110592529D01*
X153303039Y-110629700D01*
X153306700Y-110666870D01*
X153306700Y-110666880D01*
X153317654Y-110778097D01*
X153360940Y-110920792D01*
X153431233Y-111052300D01*
X153525831Y-111167569D01*
X153554717Y-111191275D01*
X153675242Y-111311800D01*
X145771934Y-111311800D01*
X145623994Y-111326371D01*
X145434173Y-111383952D01*
X145259234Y-111477459D01*
X145105898Y-111603298D01*
X144980059Y-111756634D01*
X144886552Y-111931573D01*
X144828971Y-112121394D01*
X144809528Y-112318800D01*
X144828971Y-112516206D01*
X144886552Y-112706027D01*
X144980059Y-112880966D01*
X145105898Y-113034302D01*
X145259234Y-113160141D01*
X145389875Y-113229970D01*
X145193356Y-113335011D01*
X144994340Y-113498340D01*
X144831011Y-113697356D01*
X144709647Y-113924413D01*
X144653000Y-114111152D01*
X144596353Y-113924413D01*
X144474989Y-113697356D01*
X144311660Y-113498340D01*
X144112644Y-113335011D01*
X143885587Y-113213647D01*
X143639217Y-113138911D01*
X143447209Y-113120000D01*
X143318791Y-113120000D01*
X143126783Y-113138911D01*
X142880413Y-113213647D01*
X142653356Y-113335011D01*
X142454340Y-113498340D01*
X142291011Y-113697356D01*
X142169647Y-113924413D01*
X142152453Y-113981094D01*
X142152453Y-113627000D01*
X142142664Y-113527611D01*
X142113673Y-113432041D01*
X142066595Y-113343963D01*
X142003238Y-113266762D01*
X141926037Y-113203405D01*
X141837959Y-113156327D01*
X141742389Y-113127336D01*
X141643000Y-113117547D01*
X140043000Y-113117547D01*
X139943611Y-113127336D01*
X139848041Y-113156327D01*
X139759963Y-113203405D01*
X139682762Y-113266762D01*
X139619405Y-113343963D01*
X139572327Y-113432041D01*
X139543336Y-113527611D01*
X139533547Y-113627000D01*
X139533547Y-115227000D01*
X139543336Y-115326389D01*
X139572327Y-115421959D01*
X139619405Y-115510037D01*
X139682762Y-115587238D01*
X139759963Y-115650595D01*
X139848041Y-115697673D01*
X139943611Y-115726664D01*
X140043000Y-115736453D01*
X141643000Y-115736453D01*
X141742389Y-115726664D01*
X141837959Y-115697673D01*
X141926037Y-115650595D01*
X142003238Y-115587238D01*
X142066595Y-115510037D01*
X142113673Y-115421959D01*
X142142664Y-115326389D01*
X142152453Y-115227000D01*
X142152453Y-114872906D01*
X142169647Y-114929587D01*
X142291011Y-115156644D01*
X142454340Y-115355660D01*
X142653356Y-115518989D01*
X142880413Y-115640353D01*
X143126783Y-115715089D01*
X143318791Y-115734000D01*
X143447209Y-115734000D01*
X143639217Y-115715089D01*
X143885587Y-115640353D01*
X144112644Y-115518989D01*
X144311660Y-115355660D01*
X144474989Y-115156644D01*
X144596353Y-114929587D01*
X144653000Y-114742848D01*
X144709647Y-114929587D01*
X144831011Y-115156644D01*
X144994340Y-115355660D01*
X145193356Y-115518989D01*
X145420413Y-115640353D01*
X145666783Y-115715089D01*
X145858791Y-115734000D01*
X145987209Y-115734000D01*
X146179217Y-115715089D01*
X146425587Y-115640353D01*
X146652644Y-115518989D01*
X146851660Y-115355660D01*
X147014989Y-115156644D01*
X147136353Y-114929587D01*
X147193000Y-114742848D01*
X147249647Y-114929587D01*
X147371011Y-115156644D01*
X147534340Y-115355660D01*
X147733356Y-115518989D01*
X147960413Y-115640353D01*
X148206783Y-115715089D01*
X148398791Y-115734000D01*
X148527209Y-115734000D01*
X148719217Y-115715089D01*
X148965587Y-115640353D01*
X149192644Y-115518989D01*
X149391660Y-115355660D01*
X149554989Y-115156644D01*
X149676353Y-114929587D01*
X149733000Y-114742848D01*
X149789647Y-114929587D01*
X149911011Y-115156644D01*
X150074340Y-115355660D01*
X150246001Y-115496539D01*
X150246001Y-115521190D01*
X150242339Y-115558370D01*
X150246001Y-115595550D01*
X150246001Y-115595551D01*
X150256955Y-115706768D01*
X150265216Y-115734000D01*
X150300240Y-115849462D01*
X150300241Y-115849463D01*
X150370534Y-115980971D01*
X150465132Y-116096239D01*
X150494013Y-116119941D01*
X150961058Y-116586987D01*
X150984761Y-116615869D01*
X151073871Y-116689000D01*
X113181000Y-116689000D01*
X113181000Y-113245000D01*
X115734547Y-113245000D01*
X115744336Y-113344389D01*
X115773327Y-113439959D01*
X115820405Y-113528037D01*
X115883762Y-113605238D01*
X115960963Y-113668595D01*
X116049041Y-113715673D01*
X116144611Y-113744664D01*
X116244000Y-113754453D01*
X116904250Y-113752000D01*
X117031000Y-113625250D01*
X117031000Y-112458000D01*
X115863750Y-112458000D01*
X115737000Y-112584750D01*
X115734547Y-113245000D01*
X113181000Y-113245000D01*
X113181000Y-111545000D01*
X115734547Y-111545000D01*
X115737000Y-112205250D01*
X115863750Y-112332000D01*
X117031000Y-112332000D01*
X117031000Y-111164750D01*
X116904250Y-111038000D01*
X116244000Y-111035547D01*
X116144611Y-111045336D01*
X116049041Y-111074327D01*
X115960963Y-111121405D01*
X115883762Y-111184762D01*
X115820405Y-111261963D01*
X115773327Y-111350041D01*
X115744336Y-111445611D01*
X115734547Y-111545000D01*
X113181000Y-111545000D01*
X113181000Y-73279000D01*
X117484939Y-73279000D01*
X117513119Y-73565112D01*
X117596574Y-73840229D01*
X117732099Y-74093778D01*
X117914485Y-74316015D01*
X118136722Y-74498401D01*
X118231386Y-74549000D01*
X118136722Y-74599599D01*
X117914485Y-74781985D01*
X117732099Y-75004222D01*
X117596574Y-75257771D01*
X117513119Y-75532888D01*
X117484939Y-75819000D01*
X117513119Y-76105112D01*
X117596574Y-76380229D01*
X117732099Y-76633778D01*
X117914485Y-76856015D01*
X117968181Y-76900082D01*
X117899611Y-76906836D01*
X117804041Y-76935827D01*
X117715963Y-76982905D01*
X117638762Y-77046262D01*
X117575405Y-77123463D01*
X117528327Y-77211541D01*
X117499336Y-77307111D01*
X117489547Y-77406500D01*
X117489547Y-79311500D01*
X117499336Y-79410889D01*
X117528327Y-79506459D01*
X117575405Y-79594537D01*
X117638762Y-79671738D01*
X117715963Y-79735095D01*
X117804041Y-79782173D01*
X117899611Y-79811164D01*
X117999000Y-79820953D01*
X119999000Y-79820953D01*
X120098389Y-79811164D01*
X120193959Y-79782173D01*
X120197369Y-79780350D01*
X120240459Y-79860966D01*
X120366298Y-80014302D01*
X120519634Y-80140141D01*
X120694573Y-80233648D01*
X120884394Y-80291229D01*
X121081800Y-80310672D01*
X121279205Y-80291229D01*
X121469026Y-80233648D01*
X121643966Y-80140141D01*
X121797302Y-80014302D01*
X121923141Y-79860966D01*
X122016648Y-79686027D01*
X122074229Y-79496206D01*
X122088800Y-79348266D01*
X122088800Y-74883705D01*
X122099629Y-74848006D01*
X122119072Y-74650601D01*
X122099629Y-74453194D01*
X122042048Y-74263374D01*
X121948540Y-74088434D01*
X121822701Y-73935099D01*
X121669366Y-73809260D01*
X121494426Y-73715752D01*
X121304606Y-73658171D01*
X121107199Y-73638728D01*
X120909794Y-73658171D01*
X120719974Y-73715752D01*
X120545034Y-73809260D01*
X120430122Y-73903566D01*
X120404726Y-73928962D01*
X120366299Y-73960498D01*
X120282677Y-74062392D01*
X120401426Y-73840229D01*
X120484881Y-73565112D01*
X120513061Y-73279000D01*
X120484881Y-72992888D01*
X120401426Y-72717771D01*
X120265901Y-72464222D01*
X120083515Y-72241985D01*
X119861278Y-72059599D01*
X119607729Y-71924074D01*
X119332612Y-71840619D01*
X119118190Y-71819500D01*
X118879810Y-71819500D01*
X118665388Y-71840619D01*
X118390271Y-71924074D01*
X118136722Y-72059599D01*
X117914485Y-72241985D01*
X117732099Y-72464222D01*
X117596574Y-72717771D01*
X117513119Y-72992888D01*
X117484939Y-73279000D01*
X113181000Y-73279000D01*
X113181000Y-66714000D01*
X115607547Y-66714000D01*
X115607547Y-68414000D01*
X115617336Y-68513389D01*
X115646327Y-68608959D01*
X115693405Y-68697037D01*
X115756762Y-68774238D01*
X115833963Y-68837595D01*
X115922041Y-68884673D01*
X116017611Y-68913664D01*
X116117000Y-68923453D01*
X117817000Y-68923453D01*
X117916389Y-68913664D01*
X118011959Y-68884673D01*
X118100037Y-68837595D01*
X118177238Y-68774238D01*
X118240595Y-68697037D01*
X118287673Y-68608959D01*
X118316664Y-68513389D01*
X118326453Y-68414000D01*
X118326453Y-68219914D01*
X118384130Y-68325983D01*
X118554361Y-68530403D01*
X118761202Y-68697684D01*
X118996703Y-68821399D01*
X119232723Y-68892993D01*
X119444000Y-68792636D01*
X119444000Y-67627000D01*
X119570000Y-67627000D01*
X119570000Y-68792636D01*
X119781277Y-68892993D01*
X120017297Y-68821399D01*
X120252798Y-68697684D01*
X120459639Y-68530403D01*
X120629870Y-68325983D01*
X120756950Y-68092281D01*
X120835995Y-67838277D01*
X120735789Y-67627000D01*
X119570000Y-67627000D01*
X119444000Y-67627000D01*
X119424000Y-67627000D01*
X119424000Y-67501000D01*
X119444000Y-67501000D01*
X119444000Y-66335364D01*
X119570000Y-66335364D01*
X119570000Y-67501000D01*
X120735789Y-67501000D01*
X120835995Y-67289723D01*
X120756950Y-67035719D01*
X120629870Y-66802017D01*
X120459639Y-66597597D01*
X120252798Y-66430316D01*
X120017297Y-66306601D01*
X119781277Y-66235007D01*
X119570000Y-66335364D01*
X119444000Y-66335364D01*
X119232723Y-66235007D01*
X118996703Y-66306601D01*
X118761202Y-66430316D01*
X118554361Y-66597597D01*
X118384130Y-66802017D01*
X118326453Y-66908086D01*
X118326453Y-66714000D01*
X118316664Y-66614611D01*
X118287673Y-66519041D01*
X118240595Y-66430963D01*
X118177238Y-66353762D01*
X118100037Y-66290405D01*
X118011959Y-66243327D01*
X117916389Y-66214336D01*
X117817000Y-66204547D01*
X116117000Y-66204547D01*
X116017611Y-66214336D01*
X115922041Y-66243327D01*
X115833963Y-66290405D01*
X115756762Y-66353762D01*
X115693405Y-66430963D01*
X115646327Y-66519041D01*
X115617336Y-66614611D01*
X115607547Y-66714000D01*
X113181000Y-66714000D01*
X113181000Y-63905000D01*
X130223367Y-63905000D01*
X130223029Y-63905412D01*
X130223029Y-63905412D01*
G37*
X130223029Y-63905412D02*
X129259617Y-64868825D01*
X129230731Y-64892531D01*
X129136133Y-65007800D01*
X129065840Y-65139308D01*
X129022554Y-65282003D01*
X129011600Y-65393220D01*
X129011600Y-65393230D01*
X129007939Y-65430400D01*
X129011600Y-65467570D01*
X129011601Y-82414239D01*
X126745017Y-84680824D01*
X126716131Y-84704531D01*
X126621533Y-84819800D01*
X126551240Y-84951308D01*
X126507954Y-85094003D01*
X126497000Y-85205220D01*
X126497000Y-85205230D01*
X126493339Y-85242400D01*
X126497000Y-85279571D01*
X126497000Y-86114940D01*
X126496444Y-86115237D01*
X126289814Y-86284814D01*
X126120237Y-86491444D01*
X125994230Y-86727186D01*
X125984000Y-86760910D01*
X125973770Y-86727186D01*
X125847763Y-86491444D01*
X125678186Y-86284814D01*
X125471556Y-86115237D01*
X125471000Y-86114940D01*
X125471000Y-75802358D01*
X127864593Y-73408767D01*
X127893469Y-73385069D01*
X127917167Y-73356193D01*
X127917171Y-73356189D01*
X127988067Y-73269801D01*
X128058360Y-73138293D01*
X128101646Y-72995598D01*
X128101913Y-72992888D01*
X128112600Y-72884381D01*
X128112600Y-72884373D01*
X128116261Y-72847200D01*
X128112600Y-72810027D01*
X128112600Y-71766421D01*
X128196941Y-71663651D01*
X128290448Y-71488712D01*
X128348029Y-71298890D01*
X128362600Y-71150950D01*
X128362600Y-70486334D01*
X128348029Y-70338394D01*
X128290448Y-70148573D01*
X128196941Y-69973634D01*
X128071102Y-69820298D01*
X127917766Y-69694459D01*
X127742826Y-69600952D01*
X127553005Y-69543371D01*
X127355600Y-69523928D01*
X127158194Y-69543371D01*
X126968373Y-69600952D01*
X126793434Y-69694459D01*
X126640098Y-69820298D01*
X126514259Y-69973634D01*
X126420752Y-70148574D01*
X126363171Y-70338395D01*
X126348600Y-70486335D01*
X126348600Y-71150951D01*
X126363171Y-71298891D01*
X126420753Y-71488712D01*
X126514260Y-71663651D01*
X126598600Y-71766421D01*
X126598601Y-72533639D01*
X124205017Y-74927224D01*
X124176131Y-74950931D01*
X124081533Y-75066200D01*
X124011240Y-75197708D01*
X123967954Y-75340403D01*
X123957000Y-75451620D01*
X123957000Y-75451630D01*
X123953339Y-75488800D01*
X123957000Y-75525970D01*
X123957001Y-86114939D01*
X123956444Y-86115237D01*
X123749814Y-86284814D01*
X123580237Y-86491444D01*
X123454230Y-86727186D01*
X123444000Y-86760910D01*
X123433770Y-86727186D01*
X123307763Y-86491444D01*
X123138186Y-86284814D01*
X122931556Y-86115237D01*
X122695814Y-85989230D01*
X122440018Y-85911636D01*
X122240654Y-85892000D01*
X122107346Y-85892000D01*
X121907982Y-85911636D01*
X121652186Y-85989230D01*
X121416444Y-86115237D01*
X121209814Y-86284814D01*
X121040237Y-86491444D01*
X120914230Y-86727186D01*
X120904000Y-86760910D01*
X120893770Y-86727186D01*
X120767763Y-86491444D01*
X120598186Y-86284814D01*
X120391556Y-86115237D01*
X120155814Y-85989230D01*
X119900018Y-85911636D01*
X119700654Y-85892000D01*
X119567346Y-85892000D01*
X119367982Y-85911636D01*
X119112186Y-85989230D01*
X118876444Y-86115237D01*
X118669814Y-86284814D01*
X118500237Y-86491444D01*
X118374230Y-86727186D01*
X118364000Y-86760910D01*
X118353770Y-86727186D01*
X118227763Y-86491444D01*
X118058186Y-86284814D01*
X117851556Y-86115237D01*
X117615814Y-85989230D01*
X117360018Y-85911636D01*
X117160654Y-85892000D01*
X117027346Y-85892000D01*
X116827982Y-85911636D01*
X116572186Y-85989230D01*
X116336444Y-86115237D01*
X116129814Y-86284814D01*
X115960237Y-86491444D01*
X115834230Y-86727186D01*
X115756636Y-86982982D01*
X115730435Y-87249000D01*
X115756636Y-87515018D01*
X115834230Y-87770814D01*
X115960237Y-88006556D01*
X116129814Y-88213186D01*
X116336444Y-88382763D01*
X116572186Y-88508770D01*
X116827982Y-88586364D01*
X117027346Y-88606000D01*
X117160654Y-88606000D01*
X117360018Y-88586364D01*
X117615814Y-88508770D01*
X117851556Y-88382763D01*
X118058186Y-88213186D01*
X118227763Y-88006556D01*
X118353770Y-87770814D01*
X118364000Y-87737090D01*
X118374230Y-87770814D01*
X118500237Y-88006556D01*
X118669814Y-88213186D01*
X118876444Y-88382763D01*
X119112186Y-88508770D01*
X119367982Y-88586364D01*
X119567346Y-88606000D01*
X119700654Y-88606000D01*
X119900018Y-88586364D01*
X120155814Y-88508770D01*
X120391556Y-88382763D01*
X120598186Y-88213186D01*
X120767763Y-88006556D01*
X120893770Y-87770814D01*
X120904000Y-87737090D01*
X120914230Y-87770814D01*
X121040237Y-88006556D01*
X121209814Y-88213186D01*
X121416444Y-88382763D01*
X121652186Y-88508770D01*
X121907982Y-88586364D01*
X122107346Y-88606000D01*
X122240654Y-88606000D01*
X122440018Y-88586364D01*
X122695814Y-88508770D01*
X122931556Y-88382763D01*
X123138186Y-88213186D01*
X123307763Y-88006556D01*
X123433770Y-87770814D01*
X123444000Y-87737090D01*
X123454230Y-87770814D01*
X123580237Y-88006556D01*
X123749814Y-88213186D01*
X123956444Y-88382763D01*
X124192186Y-88508770D01*
X124447982Y-88586364D01*
X124647346Y-88606000D01*
X124780654Y-88606000D01*
X124980018Y-88586364D01*
X125235814Y-88508770D01*
X125471556Y-88382763D01*
X125678186Y-88213186D01*
X125847763Y-88006556D01*
X125973770Y-87770814D01*
X125984000Y-87737090D01*
X125994230Y-87770814D01*
X126120237Y-88006556D01*
X126289814Y-88213186D01*
X126391854Y-88296928D01*
X126424240Y-88403692D01*
X126494533Y-88535200D01*
X126589131Y-88650469D01*
X126704400Y-88745067D01*
X126835908Y-88815360D01*
X126978603Y-88858645D01*
X127127000Y-88873261D01*
X127275397Y-88858645D01*
X127418092Y-88815360D01*
X127549600Y-88745067D01*
X127635988Y-88674170D01*
X127762982Y-88547176D01*
X127791869Y-88523469D01*
X127825905Y-88481996D01*
X128011556Y-88382763D01*
X128218186Y-88213186D01*
X128387763Y-88006556D01*
X128513770Y-87770814D01*
X128524000Y-87737090D01*
X128534230Y-87770814D01*
X128660237Y-88006556D01*
X128829814Y-88213186D01*
X129036444Y-88382763D01*
X129272186Y-88508770D01*
X129527982Y-88586364D01*
X129727346Y-88606000D01*
X129860654Y-88606000D01*
X130060018Y-88586364D01*
X130315814Y-88508770D01*
X130551556Y-88382763D01*
X130758186Y-88213186D01*
X130927763Y-88006556D01*
X131053770Y-87770814D01*
X131067723Y-87724816D01*
X131084050Y-87777281D01*
X131211130Y-88010983D01*
X131381361Y-88215403D01*
X131588202Y-88382684D01*
X131823703Y-88506399D01*
X132059723Y-88577993D01*
X132271000Y-88477636D01*
X132271000Y-87312000D01*
X132397000Y-87312000D01*
X132397000Y-88477636D01*
X132608277Y-88577993D01*
X132844297Y-88506399D01*
X133079798Y-88382684D01*
X133286639Y-88215403D01*
X133456870Y-88010983D01*
X133515273Y-87903579D01*
X133514547Y-88099000D01*
X133524336Y-88198389D01*
X133553327Y-88293959D01*
X133600405Y-88382037D01*
X133663762Y-88459238D01*
X133740963Y-88522595D01*
X133829041Y-88569673D01*
X133924611Y-88598664D01*
X134024000Y-88608453D01*
X134684250Y-88606000D01*
X134811000Y-88479250D01*
X134811000Y-87312000D01*
X134937000Y-87312000D01*
X134937000Y-88479250D01*
X135063750Y-88606000D01*
X135724000Y-88608453D01*
X135823389Y-88598664D01*
X135918959Y-88569673D01*
X136007037Y-88522595D01*
X136084238Y-88459238D01*
X136147595Y-88382037D01*
X136194673Y-88293959D01*
X136223664Y-88198389D01*
X136233453Y-88099000D01*
X136231000Y-87438750D01*
X136104250Y-87312000D01*
X134937000Y-87312000D01*
X134811000Y-87312000D01*
X133643750Y-87312000D01*
X133588835Y-87366915D01*
X133562789Y-87312000D01*
X132397000Y-87312000D01*
X132271000Y-87312000D01*
X132251000Y-87312000D01*
X132251000Y-87186000D01*
X132271000Y-87186000D01*
X132271000Y-86020364D01*
X132397000Y-86020364D01*
X132397000Y-87186000D01*
X133562789Y-87186000D01*
X133588835Y-87131085D01*
X133643750Y-87186000D01*
X134811000Y-87186000D01*
X134811000Y-86018750D01*
X134937000Y-86018750D01*
X134937000Y-87186000D01*
X136104250Y-87186000D01*
X136231000Y-87059250D01*
X136233453Y-86399000D01*
X136223664Y-86299611D01*
X136194673Y-86204041D01*
X136147595Y-86115963D01*
X136084238Y-86038762D01*
X136007037Y-85975405D01*
X135918959Y-85928327D01*
X135823389Y-85899336D01*
X135724000Y-85889547D01*
X135063750Y-85892000D01*
X134937000Y-86018750D01*
X134811000Y-86018750D01*
X134684250Y-85892000D01*
X134024000Y-85889547D01*
X133924611Y-85899336D01*
X133829041Y-85928327D01*
X133740963Y-85975405D01*
X133663762Y-86038762D01*
X133600405Y-86115963D01*
X133553327Y-86204041D01*
X133524336Y-86299611D01*
X133514547Y-86399000D01*
X133515273Y-86594421D01*
X133456870Y-86487017D01*
X133286639Y-86282597D01*
X133079798Y-86115316D01*
X132844297Y-85991601D01*
X132608277Y-85920007D01*
X132397000Y-86020364D01*
X132271000Y-86020364D01*
X132059723Y-85920007D01*
X131823703Y-85991601D01*
X131588202Y-86115316D01*
X131381361Y-86282597D01*
X131211130Y-86487017D01*
X131084050Y-86720719D01*
X131067723Y-86773184D01*
X131053770Y-86727186D01*
X130927763Y-86491444D01*
X130758186Y-86284814D01*
X130551556Y-86115237D01*
X130315814Y-85989230D01*
X130060018Y-85911636D01*
X129860654Y-85892000D01*
X129727346Y-85892000D01*
X129527982Y-85911636D01*
X129272186Y-85989230D01*
X129036444Y-86115237D01*
X128829814Y-86284814D01*
X128660237Y-86491444D01*
X128534230Y-86727186D01*
X128524000Y-86760910D01*
X128513770Y-86727186D01*
X128387763Y-86491444D01*
X128218186Y-86284814D01*
X128011556Y-86115237D01*
X128011000Y-86114940D01*
X128011000Y-85555958D01*
X130277593Y-83289367D01*
X130306469Y-83265669D01*
X130330167Y-83236793D01*
X130330170Y-83236790D01*
X130401067Y-83150402D01*
X130425552Y-83104594D01*
X130471360Y-83018893D01*
X130514646Y-82876198D01*
X130525600Y-82764981D01*
X130525600Y-82764971D01*
X130529261Y-82727801D01*
X130525600Y-82690630D01*
X130525600Y-67385625D01*
X130539562Y-67402638D01*
X130616763Y-67465995D01*
X130704841Y-67513073D01*
X130800411Y-67542064D01*
X130899800Y-67551853D01*
X132599800Y-67551853D01*
X132699189Y-67542064D01*
X132794759Y-67513073D01*
X132882837Y-67465995D01*
X132960038Y-67402638D01*
X133023395Y-67325437D01*
X133070473Y-67237359D01*
X133099464Y-67141789D01*
X133109253Y-67042400D01*
X133109253Y-66862429D01*
X133156037Y-66949956D01*
X133325614Y-67156586D01*
X133532244Y-67326163D01*
X133767986Y-67452170D01*
X134023782Y-67529764D01*
X134223146Y-67549400D01*
X134356454Y-67549400D01*
X134555818Y-67529764D01*
X134811614Y-67452170D01*
X135047356Y-67326163D01*
X135253986Y-67156586D01*
X135423563Y-66949956D01*
X135549570Y-66714214D01*
X135566377Y-66658808D01*
X135569647Y-66669587D01*
X135691011Y-66896644D01*
X135776001Y-67000204D01*
X135776001Y-67248895D01*
X135771128Y-67298370D01*
X135790571Y-67495776D01*
X135848152Y-67685596D01*
X135928673Y-67836239D01*
X135941660Y-67860536D01*
X136067499Y-68013872D01*
X136105926Y-68045408D01*
X137038191Y-68977674D01*
X137069728Y-69016102D01*
X137223064Y-69141941D01*
X137345903Y-69207600D01*
X137398003Y-69235448D01*
X137587823Y-69293029D01*
X137785229Y-69312472D01*
X137834695Y-69307600D01*
X138758866Y-69307600D01*
X138906806Y-69293029D01*
X139096627Y-69235448D01*
X139271566Y-69141941D01*
X139424902Y-69016102D01*
X139550741Y-68862766D01*
X139644248Y-68687827D01*
X139701829Y-68498006D01*
X139721272Y-68300600D01*
X139701829Y-68103194D01*
X139644248Y-67913373D01*
X139550741Y-67738434D01*
X139424902Y-67585098D01*
X139271566Y-67459259D01*
X139155711Y-67397333D01*
X139260000Y-67345567D01*
X139260000Y-66230000D01*
X139240000Y-66230000D01*
X139240000Y-66104000D01*
X139260000Y-66104000D01*
X139260000Y-66084000D01*
X139386000Y-66084000D01*
X139386000Y-66104000D01*
X139406000Y-66104000D01*
X139406000Y-66230000D01*
X139386000Y-66230000D01*
X139386000Y-67345567D01*
X139589447Y-67446553D01*
X139812340Y-67378941D01*
X140039375Y-67260188D01*
X140238880Y-67099425D01*
X140403189Y-66902829D01*
X140525987Y-66677956D01*
X140590090Y-66473254D01*
X140649647Y-66669587D01*
X140771011Y-66896644D01*
X140934340Y-67095660D01*
X141106000Y-67236538D01*
X141106001Y-79413039D01*
X136803418Y-83715624D01*
X136774531Y-83739331D01*
X136679933Y-83854600D01*
X136609640Y-83986108D01*
X136566354Y-84128803D01*
X136555400Y-84240020D01*
X136555400Y-84240030D01*
X136551739Y-84277200D01*
X136555400Y-84314370D01*
X136555401Y-91101040D01*
X124205018Y-103451424D01*
X124176131Y-103475131D01*
X124081533Y-103590400D01*
X124011240Y-103721908D01*
X123967954Y-103864603D01*
X123957000Y-103975820D01*
X123957000Y-103975830D01*
X123953339Y-104013000D01*
X123957000Y-104050170D01*
X123957001Y-111260939D01*
X123956444Y-111261237D01*
X123749814Y-111430814D01*
X123580237Y-111637444D01*
X123454230Y-111873186D01*
X123444000Y-111906910D01*
X123433770Y-111873186D01*
X123307763Y-111637444D01*
X123138186Y-111430814D01*
X122931556Y-111261237D01*
X122695814Y-111135230D01*
X122440018Y-111057636D01*
X122240654Y-111038000D01*
X122107346Y-111038000D01*
X121907982Y-111057636D01*
X121652186Y-111135230D01*
X121416444Y-111261237D01*
X121209814Y-111430814D01*
X121040237Y-111637444D01*
X120914230Y-111873186D01*
X120904000Y-111906910D01*
X120893770Y-111873186D01*
X120767763Y-111637444D01*
X120598186Y-111430814D01*
X120391556Y-111261237D01*
X120155814Y-111135230D01*
X119900018Y-111057636D01*
X119700654Y-111038000D01*
X119567346Y-111038000D01*
X119367982Y-111057636D01*
X119112186Y-111135230D01*
X118876444Y-111261237D01*
X118669814Y-111430814D01*
X118500237Y-111637444D01*
X118452780Y-111726230D01*
X118453453Y-111545000D01*
X118443664Y-111445611D01*
X118414673Y-111350041D01*
X118367595Y-111261963D01*
X118304238Y-111184762D01*
X118227037Y-111121405D01*
X118138959Y-111074327D01*
X118043389Y-111045336D01*
X117944000Y-111035547D01*
X117283750Y-111038000D01*
X117157000Y-111164750D01*
X117157000Y-112332000D01*
X117177000Y-112332000D01*
X117177000Y-112458000D01*
X117157000Y-112458000D01*
X117157000Y-113625250D01*
X117283750Y-113752000D01*
X117944000Y-113754453D01*
X118043389Y-113744664D01*
X118138959Y-113715673D01*
X118227037Y-113668595D01*
X118304238Y-113605238D01*
X118367595Y-113528037D01*
X118414673Y-113439959D01*
X118443664Y-113344389D01*
X118453453Y-113245000D01*
X118452780Y-113063770D01*
X118500237Y-113152556D01*
X118669814Y-113359186D01*
X118876444Y-113528763D01*
X119112186Y-113654770D01*
X119367982Y-113732364D01*
X119567346Y-113752000D01*
X119700654Y-113752000D01*
X119900018Y-113732364D01*
X120155814Y-113654770D01*
X120391556Y-113528763D01*
X120598186Y-113359186D01*
X120767763Y-113152556D01*
X120893770Y-112916814D01*
X120904000Y-112883090D01*
X120914230Y-112916814D01*
X121040237Y-113152556D01*
X121209814Y-113359186D01*
X121416444Y-113528763D01*
X121652186Y-113654770D01*
X121907982Y-113732364D01*
X122107346Y-113752000D01*
X122240654Y-113752000D01*
X122440018Y-113732364D01*
X122695814Y-113654770D01*
X122931556Y-113528763D01*
X123138186Y-113359186D01*
X123307763Y-113152556D01*
X123433770Y-112916814D01*
X123444000Y-112883090D01*
X123454230Y-112916814D01*
X123580237Y-113152556D01*
X123749814Y-113359186D01*
X123956444Y-113528763D01*
X124192186Y-113654770D01*
X124447982Y-113732364D01*
X124647346Y-113752000D01*
X124780654Y-113752000D01*
X124980018Y-113732364D01*
X125235814Y-113654770D01*
X125471556Y-113528763D01*
X125678186Y-113359186D01*
X125847763Y-113152556D01*
X125973770Y-112916814D01*
X125984000Y-112883090D01*
X125994230Y-112916814D01*
X126120237Y-113152556D01*
X126289814Y-113359186D01*
X126496444Y-113528763D01*
X126732186Y-113654770D01*
X126987982Y-113732364D01*
X127187346Y-113752000D01*
X127320654Y-113752000D01*
X127520018Y-113732364D01*
X127775814Y-113654770D01*
X128011556Y-113528763D01*
X128218186Y-113359186D01*
X128387763Y-113152556D01*
X128513770Y-112916814D01*
X128524000Y-112883090D01*
X128534230Y-112916814D01*
X128660237Y-113152556D01*
X128829814Y-113359186D01*
X129036444Y-113528763D01*
X129272186Y-113654770D01*
X129527982Y-113732364D01*
X129727346Y-113752000D01*
X129860654Y-113752000D01*
X130060018Y-113732364D01*
X130315814Y-113654770D01*
X130551556Y-113528763D01*
X130758186Y-113359186D01*
X130927763Y-113152556D01*
X131053770Y-112916814D01*
X131064000Y-112883090D01*
X131074230Y-112916814D01*
X131200237Y-113152556D01*
X131369814Y-113359186D01*
X131576444Y-113528763D01*
X131812186Y-113654770D01*
X132067982Y-113732364D01*
X132267346Y-113752000D01*
X132400654Y-113752000D01*
X132600018Y-113732364D01*
X132855814Y-113654770D01*
X133091556Y-113528763D01*
X133298186Y-113359186D01*
X133467763Y-113152556D01*
X133593770Y-112916814D01*
X133607723Y-112870816D01*
X133624050Y-112923281D01*
X133751130Y-113156983D01*
X133921361Y-113361403D01*
X134128202Y-113528684D01*
X134363703Y-113652399D01*
X134599723Y-113723993D01*
X134811000Y-113623636D01*
X134811000Y-112458000D01*
X134937000Y-112458000D01*
X134937000Y-113623636D01*
X135148277Y-113723993D01*
X135384297Y-113652399D01*
X135619798Y-113528684D01*
X135826639Y-113361403D01*
X135996870Y-113156983D01*
X136123950Y-112923281D01*
X136202995Y-112669277D01*
X136102789Y-112458000D01*
X134937000Y-112458000D01*
X134811000Y-112458000D01*
X134791000Y-112458000D01*
X134791000Y-112332000D01*
X134811000Y-112332000D01*
X134811000Y-111166364D01*
X134937000Y-111166364D01*
X134937000Y-112332000D01*
X136102789Y-112332000D01*
X136202995Y-112120723D01*
X136123950Y-111866719D01*
X135996870Y-111633017D01*
X135826639Y-111428597D01*
X135619798Y-111261316D01*
X135384297Y-111137601D01*
X135148277Y-111066007D01*
X134937000Y-111166364D01*
X134811000Y-111166364D01*
X134599723Y-111066007D01*
X134363703Y-111137601D01*
X134128202Y-111261316D01*
X133921361Y-111428597D01*
X133751130Y-111633017D01*
X133624050Y-111866719D01*
X133607723Y-111919184D01*
X133593770Y-111873186D01*
X133467763Y-111637444D01*
X133298186Y-111430814D01*
X133091556Y-111261237D01*
X133091000Y-111260940D01*
X133091000Y-109849877D01*
X150258207Y-109849877D01*
X150329801Y-110085897D01*
X150453516Y-110321398D01*
X150620797Y-110528239D01*
X150825217Y-110698470D01*
X151058919Y-110825550D01*
X151312923Y-110904595D01*
X151524200Y-110804389D01*
X151524200Y-109638600D01*
X151650200Y-109638600D01*
X151650200Y-110804389D01*
X151861477Y-110904595D01*
X152115481Y-110825550D01*
X152349183Y-110698470D01*
X152553603Y-110528239D01*
X152720884Y-110321398D01*
X152844599Y-110085897D01*
X152916193Y-109849877D01*
X152815836Y-109638600D01*
X151650200Y-109638600D01*
X151524200Y-109638600D01*
X150358564Y-109638600D01*
X150258207Y-109849877D01*
X133091000Y-109849877D01*
X133091000Y-105825158D01*
X144679393Y-94236767D01*
X144708269Y-94213069D01*
X144731967Y-94184193D01*
X144731970Y-94184190D01*
X144802867Y-94097802D01*
X144827352Y-94051994D01*
X144873160Y-93966293D01*
X144916446Y-93823598D01*
X144927400Y-93712381D01*
X144927400Y-93712371D01*
X144931061Y-93675201D01*
X144927400Y-93638030D01*
X144927400Y-85301958D01*
X146603713Y-83625646D01*
X146625001Y-83614267D01*
X146740269Y-83519669D01*
X146834867Y-83404401D01*
X146905160Y-83272893D01*
X146948446Y-83130198D01*
X146959400Y-83018981D01*
X146963062Y-82981800D01*
X146959400Y-82944619D01*
X146959400Y-70892528D01*
X147226328Y-70625600D01*
X150227747Y-70625600D01*
X150230200Y-71285850D01*
X150356950Y-71412600D01*
X151524200Y-71412600D01*
X151524200Y-70245350D01*
X151650200Y-70245350D01*
X151650200Y-71412600D01*
X152817450Y-71412600D01*
X152944200Y-71285850D01*
X152946653Y-70625600D01*
X152936864Y-70526211D01*
X152907873Y-70430641D01*
X152860795Y-70342563D01*
X152797438Y-70265362D01*
X152720237Y-70202005D01*
X152632159Y-70154927D01*
X152536589Y-70125936D01*
X152437200Y-70116147D01*
X151776950Y-70118600D01*
X151650200Y-70245350D01*
X151524200Y-70245350D01*
X151397450Y-70118600D01*
X150737200Y-70116147D01*
X150637811Y-70125936D01*
X150542241Y-70154927D01*
X150454163Y-70202005D01*
X150376962Y-70265362D01*
X150313605Y-70342563D01*
X150266527Y-70430641D01*
X150237536Y-70526211D01*
X150227747Y-70625600D01*
X147226328Y-70625600D01*
X149991988Y-67859941D01*
X150020869Y-67836239D01*
X150115467Y-67720971D01*
X150185760Y-67589463D01*
X150229046Y-67446768D01*
X150240000Y-67335551D01*
X150240000Y-67335541D01*
X150243661Y-67298371D01*
X150240000Y-67261200D01*
X150240000Y-67236538D01*
X150411660Y-67095660D01*
X150574989Y-66896644D01*
X150696353Y-66669587D01*
X150753000Y-66482848D01*
X150809647Y-66669587D01*
X150931011Y-66896644D01*
X151094340Y-67095660D01*
X151293356Y-67258989D01*
X151520413Y-67380353D01*
X151766783Y-67455089D01*
X151958791Y-67474000D01*
X152087209Y-67474000D01*
X152279217Y-67455089D01*
X152525587Y-67380353D01*
X152752644Y-67258989D01*
X152951660Y-67095660D01*
X153114989Y-66896644D01*
X153236353Y-66669587D01*
X153293000Y-66482848D01*
X153349647Y-66669587D01*
X153471011Y-66896644D01*
X153634340Y-67095660D01*
X153833356Y-67258989D01*
X154060413Y-67380353D01*
X154306783Y-67455089D01*
X154498791Y-67474000D01*
X154627209Y-67474000D01*
X154819217Y-67455089D01*
X155065587Y-67380353D01*
X155292644Y-67258989D01*
X155491660Y-67095660D01*
X155654989Y-66896644D01*
X155776353Y-66669587D01*
X155851089Y-66423217D01*
X155876324Y-66167000D01*
X155851089Y-65910783D01*
X155776353Y-65664413D01*
X155654989Y-65437356D01*
X155491660Y-65238340D01*
X155292644Y-65075011D01*
X155065587Y-64953647D01*
X154819217Y-64878911D01*
X154627209Y-64860000D01*
X154498791Y-64860000D01*
X154306783Y-64878911D01*
X154060413Y-64953647D01*
X153833356Y-65075011D01*
X153634340Y-65238340D01*
X153471011Y-65437356D01*
X153349647Y-65664413D01*
X153293000Y-65851152D01*
X153236353Y-65664413D01*
X153114989Y-65437356D01*
X152951660Y-65238340D01*
X152780000Y-65097462D01*
X152780000Y-65072800D01*
X152783661Y-65035629D01*
X152780000Y-64998459D01*
X152780000Y-64998449D01*
X152769046Y-64887232D01*
X152725760Y-64744537D01*
X152655467Y-64613029D01*
X152560869Y-64497761D01*
X152531987Y-64474058D01*
X152246559Y-64188631D01*
X152246555Y-64188626D01*
X151963345Y-63905417D01*
X151963003Y-63905000D01*
X155834878Y-63905000D01*
X155783152Y-64001773D01*
X155725571Y-64191594D01*
X155706128Y-64389000D01*
X155725571Y-64586406D01*
X155783152Y-64776227D01*
X155876659Y-64951166D01*
X156002498Y-65104502D01*
X156155834Y-65230341D01*
X156330773Y-65323848D01*
X156520594Y-65381429D01*
X156668534Y-65396000D01*
X157351666Y-65396000D01*
X157499606Y-65381429D01*
X157602533Y-65350207D01*
X157531011Y-65437356D01*
X157409647Y-65664413D01*
X157334911Y-65910783D01*
X157309676Y-66167000D01*
X157334911Y-66423217D01*
X157409647Y-66669587D01*
X157531011Y-66896644D01*
X157694340Y-67095660D01*
X157893356Y-67258989D01*
X158120413Y-67380353D01*
X158366783Y-67455089D01*
X158558791Y-67474000D01*
X158687209Y-67474000D01*
X158879217Y-67455089D01*
X159125587Y-67380353D01*
X159352644Y-67258989D01*
X159551660Y-67095660D01*
X159714989Y-66896644D01*
X159836353Y-66669587D01*
X159893000Y-66482848D01*
X159949647Y-66669587D01*
X160071011Y-66896644D01*
X160234340Y-67095660D01*
X160433356Y-67258989D01*
X160660413Y-67380353D01*
X160906783Y-67455089D01*
X161098791Y-67474000D01*
X161227209Y-67474000D01*
X161419217Y-67455089D01*
X161665587Y-67380353D01*
X161892644Y-67258989D01*
X162091660Y-67095660D01*
X162254989Y-66896644D01*
X162376353Y-66669587D01*
X162433000Y-66482848D01*
X162489647Y-66669587D01*
X162611011Y-66896644D01*
X162774340Y-67095660D01*
X162973356Y-67258989D01*
X163200413Y-67380353D01*
X163446783Y-67455089D01*
X163638791Y-67474000D01*
X163767209Y-67474000D01*
X163959217Y-67455089D01*
X164205587Y-67380353D01*
X164432644Y-67258989D01*
X164631660Y-67095660D01*
X164794989Y-66896644D01*
X164916353Y-66669587D01*
X164973000Y-66482848D01*
X165029647Y-66669587D01*
X165151011Y-66896644D01*
X165236000Y-67000203D01*
X165236001Y-74928666D01*
X165250572Y-75076606D01*
X165308153Y-75266427D01*
X165401660Y-75441366D01*
X165527499Y-75594702D01*
X165680835Y-75720541D01*
X165855774Y-75814048D01*
X166045595Y-75871629D01*
X166243000Y-75891072D01*
X166440406Y-75871629D01*
X166630227Y-75814048D01*
X166805166Y-75720541D01*
X166958502Y-75594702D01*
X167084341Y-75441366D01*
X167177848Y-75266427D01*
X167235429Y-75076606D01*
X167250000Y-74928666D01*
X167250000Y-67000203D01*
X167334989Y-66896644D01*
X167456353Y-66669587D01*
X167513000Y-66482848D01*
X167569647Y-66669587D01*
X167691011Y-66896644D01*
X167776000Y-67000203D01*
X167776001Y-75157266D01*
X167790572Y-75305206D01*
X167848153Y-75495027D01*
X167941660Y-75669966D01*
X168067499Y-75823302D01*
X168220835Y-75949141D01*
X168395774Y-76042648D01*
X168585595Y-76100229D01*
X168783000Y-76119672D01*
X168980406Y-76100229D01*
X169170227Y-76042648D01*
X169345166Y-75949141D01*
X169498502Y-75823302D01*
X169624341Y-75669966D01*
X169717848Y-75495027D01*
X169775429Y-75305206D01*
X169790000Y-75157266D01*
X169790000Y-67000203D01*
X169874989Y-66896644D01*
X169996353Y-66669587D01*
X170053000Y-66482848D01*
X170109647Y-66669587D01*
X170231011Y-66896644D01*
X170394340Y-67095660D01*
X170593356Y-67258989D01*
X170820413Y-67380353D01*
X171066783Y-67455089D01*
X171258791Y-67474000D01*
X171387209Y-67474000D01*
X171579217Y-67455089D01*
X171825587Y-67380353D01*
X172052644Y-67258989D01*
X172251660Y-67095660D01*
X172414989Y-66896644D01*
X172536353Y-66669587D01*
X172593000Y-66482848D01*
X172649647Y-66669587D01*
X172771011Y-66896644D01*
X172856000Y-67000203D01*
X172856001Y-71388686D01*
X172328288Y-71916400D01*
X171527534Y-71916400D01*
X171379594Y-71930971D01*
X171189773Y-71988552D01*
X171014834Y-72082059D01*
X170861498Y-72207898D01*
X170735659Y-72361234D01*
X170642152Y-72536173D01*
X170584571Y-72725994D01*
X170565128Y-72923400D01*
X170584571Y-73120806D01*
X170642152Y-73310627D01*
X170735659Y-73485566D01*
X170861498Y-73638902D01*
X171014834Y-73764741D01*
X171189773Y-73858248D01*
X171379594Y-73915829D01*
X171527534Y-73930400D01*
X172695934Y-73930400D01*
X172745400Y-73935272D01*
X172942806Y-73915829D01*
X173087549Y-73871922D01*
X173132627Y-73858248D01*
X173307566Y-73764741D01*
X173460902Y-73638902D01*
X173492443Y-73600469D01*
X174540074Y-72552839D01*
X174578502Y-72521302D01*
X174704341Y-72367966D01*
X174797848Y-72193027D01*
X174812587Y-72144440D01*
X174855429Y-72003207D01*
X174874872Y-71805801D01*
X174870000Y-71756335D01*
X174870000Y-67000203D01*
X174954989Y-66896644D01*
X175076353Y-66669587D01*
X175133000Y-66482848D01*
X175189647Y-66669587D01*
X175311011Y-66896644D01*
X175474340Y-67095660D01*
X175673356Y-67258989D01*
X175900413Y-67380353D01*
X176146783Y-67455089D01*
X176338791Y-67474000D01*
X176467209Y-67474000D01*
X176659217Y-67455089D01*
X176905587Y-67380353D01*
X177132644Y-67258989D01*
X177331660Y-67095660D01*
X177494989Y-66896644D01*
X177616353Y-66669587D01*
X177691089Y-66423217D01*
X177716324Y-66167000D01*
X177691089Y-65910783D01*
X177616353Y-65664413D01*
X177494989Y-65437356D01*
X177331660Y-65238340D01*
X177132644Y-65075011D01*
X176905587Y-64953647D01*
X176659217Y-64878911D01*
X176467209Y-64860000D01*
X176338791Y-64860000D01*
X176146783Y-64878911D01*
X175900413Y-64953647D01*
X175673356Y-65075011D01*
X175474340Y-65238340D01*
X175311011Y-65437356D01*
X175189647Y-65664413D01*
X175133000Y-65851152D01*
X175076353Y-65664413D01*
X174954989Y-65437356D01*
X174791660Y-65238340D01*
X174592644Y-65075011D01*
X174365587Y-64953647D01*
X174119217Y-64878911D01*
X173927209Y-64860000D01*
X173798791Y-64860000D01*
X173606783Y-64878911D01*
X173360413Y-64953647D01*
X173133356Y-65075011D01*
X172934340Y-65238340D01*
X172771011Y-65437356D01*
X172649647Y-65664413D01*
X172593000Y-65851152D01*
X172536353Y-65664413D01*
X172414989Y-65437356D01*
X172251660Y-65238340D01*
X172052644Y-65075011D01*
X171825587Y-64953647D01*
X171579217Y-64878911D01*
X171387209Y-64860000D01*
X171258791Y-64860000D01*
X171102001Y-64875442D01*
X170131558Y-63905000D01*
X177198640Y-63905000D01*
X178665000Y-65371361D01*
X178665001Y-76554856D01*
X178662426Y-76581000D01*
X178672698Y-76685290D01*
X178703118Y-76785572D01*
X178740771Y-76856015D01*
X178752519Y-76877993D01*
X178819000Y-76959001D01*
X178839303Y-76975663D01*
X181205000Y-79341362D01*
X181205001Y-111666637D01*
X178839308Y-114032332D01*
X178818999Y-114048999D01*
X178752518Y-114130007D01*
X178730723Y-114170783D01*
X178703118Y-114222428D01*
X178672698Y-114322710D01*
X178662426Y-114427000D01*
X178665000Y-114453134D01*
X178665001Y-116689000D01*
X160265559Y-116689000D01*
X160354669Y-116615869D01*
X160378375Y-116586983D01*
X161595794Y-115369566D01*
X161624669Y-115345869D01*
X161648367Y-115316993D01*
X161648370Y-115316990D01*
X161719267Y-115230602D01*
X161789560Y-115099093D01*
X161789560Y-115099092D01*
X161832846Y-114956398D01*
X161843800Y-114845181D01*
X161843800Y-114845171D01*
X161847461Y-114808001D01*
X161843800Y-114770830D01*
X161843800Y-114452400D01*
X162339435Y-114452400D01*
X162365636Y-114718418D01*
X162443230Y-114974214D01*
X162569237Y-115209956D01*
X162738814Y-115416586D01*
X162945444Y-115586163D01*
X163181186Y-115712170D01*
X163436982Y-115789764D01*
X163636346Y-115809400D01*
X163769654Y-115809400D01*
X163969018Y-115789764D01*
X164224814Y-115712170D01*
X164460556Y-115586163D01*
X164667186Y-115416586D01*
X164836763Y-115209956D01*
X164962770Y-114974214D01*
X164973000Y-114940490D01*
X164983230Y-114974214D01*
X165109237Y-115209956D01*
X165278814Y-115416586D01*
X165485444Y-115586163D01*
X165721186Y-115712170D01*
X165976982Y-115789764D01*
X166176346Y-115809400D01*
X166309654Y-115809400D01*
X166509018Y-115789764D01*
X166764814Y-115712170D01*
X167000556Y-115586163D01*
X167207186Y-115416586D01*
X167376763Y-115209956D01*
X167502770Y-114974214D01*
X167513000Y-114940490D01*
X167523230Y-114974214D01*
X167649237Y-115209956D01*
X167818814Y-115416586D01*
X168025444Y-115586163D01*
X168261186Y-115712170D01*
X168516982Y-115789764D01*
X168716346Y-115809400D01*
X168849654Y-115809400D01*
X169049018Y-115789764D01*
X169304814Y-115712170D01*
X169540556Y-115586163D01*
X169747186Y-115416586D01*
X169916763Y-115209956D01*
X170042770Y-114974214D01*
X170053000Y-114940490D01*
X170063230Y-114974214D01*
X170189237Y-115209956D01*
X170358814Y-115416586D01*
X170565444Y-115586163D01*
X170801186Y-115712170D01*
X171056982Y-115789764D01*
X171256346Y-115809400D01*
X171389654Y-115809400D01*
X171589018Y-115789764D01*
X171844814Y-115712170D01*
X172080556Y-115586163D01*
X172287186Y-115416586D01*
X172456763Y-115209956D01*
X172582770Y-114974214D01*
X172593000Y-114940490D01*
X172603230Y-114974214D01*
X172729237Y-115209956D01*
X172898814Y-115416586D01*
X173105444Y-115586163D01*
X173341186Y-115712170D01*
X173596982Y-115789764D01*
X173796346Y-115809400D01*
X173929654Y-115809400D01*
X174129018Y-115789764D01*
X174384814Y-115712170D01*
X174620556Y-115586163D01*
X174827186Y-115416586D01*
X174996763Y-115209956D01*
X175043547Y-115122429D01*
X175043547Y-115302400D01*
X175053336Y-115401789D01*
X175082327Y-115497359D01*
X175129405Y-115585437D01*
X175192762Y-115662638D01*
X175269963Y-115725995D01*
X175358041Y-115773073D01*
X175453611Y-115802064D01*
X175553000Y-115811853D01*
X177253000Y-115811853D01*
X177352389Y-115802064D01*
X177447959Y-115773073D01*
X177536037Y-115725995D01*
X177613238Y-115662638D01*
X177676595Y-115585437D01*
X177723673Y-115497359D01*
X177752664Y-115401789D01*
X177762453Y-115302400D01*
X177762453Y-113602400D01*
X177752664Y-113503011D01*
X177723673Y-113407441D01*
X177676595Y-113319363D01*
X177613238Y-113242162D01*
X177536037Y-113178805D01*
X177447959Y-113131727D01*
X177352389Y-113102736D01*
X177253000Y-113092947D01*
X175553000Y-113092947D01*
X175453611Y-113102736D01*
X175358041Y-113131727D01*
X175269963Y-113178805D01*
X175192762Y-113242162D01*
X175129405Y-113319363D01*
X175082327Y-113407441D01*
X175053336Y-113503011D01*
X175043547Y-113602400D01*
X175043547Y-113782371D01*
X174996763Y-113694844D01*
X174827186Y-113488214D01*
X174620556Y-113318637D01*
X174384814Y-113192630D01*
X174129018Y-113115036D01*
X173929654Y-113095400D01*
X173796346Y-113095400D01*
X173596982Y-113115036D01*
X173341186Y-113192630D01*
X173105444Y-113318637D01*
X172898814Y-113488214D01*
X172729237Y-113694844D01*
X172603230Y-113930586D01*
X172593000Y-113964310D01*
X172582770Y-113930586D01*
X172456763Y-113694844D01*
X172287186Y-113488214D01*
X172080556Y-113318637D01*
X171844814Y-113192630D01*
X171589018Y-113115036D01*
X171389654Y-113095400D01*
X171256346Y-113095400D01*
X171056982Y-113115036D01*
X170801186Y-113192630D01*
X170565444Y-113318637D01*
X170358814Y-113488214D01*
X170189237Y-113694844D01*
X170063230Y-113930586D01*
X170053000Y-113964310D01*
X170042770Y-113930586D01*
X169916763Y-113694844D01*
X169747186Y-113488214D01*
X169540556Y-113318637D01*
X169304814Y-113192630D01*
X169049018Y-113115036D01*
X168849654Y-113095400D01*
X168716346Y-113095400D01*
X168516982Y-113115036D01*
X168261186Y-113192630D01*
X168025444Y-113318637D01*
X167818814Y-113488214D01*
X167649237Y-113694844D01*
X167523230Y-113930586D01*
X167513000Y-113964310D01*
X167502770Y-113930586D01*
X167376763Y-113694844D01*
X167207186Y-113488214D01*
X167000556Y-113318637D01*
X166764814Y-113192630D01*
X166509018Y-113115036D01*
X166309654Y-113095400D01*
X166176346Y-113095400D01*
X165976982Y-113115036D01*
X165721186Y-113192630D01*
X165485444Y-113318637D01*
X165278814Y-113488214D01*
X165109237Y-113694844D01*
X164983230Y-113930586D01*
X164973000Y-113964310D01*
X164962770Y-113930586D01*
X164836763Y-113694844D01*
X164667186Y-113488214D01*
X164460556Y-113318637D01*
X164224814Y-113192630D01*
X163969018Y-113115036D01*
X163769654Y-113095400D01*
X163636346Y-113095400D01*
X163436982Y-113115036D01*
X163181186Y-113192630D01*
X162945444Y-113318637D01*
X162738814Y-113488214D01*
X162569237Y-113694844D01*
X162443230Y-113930586D01*
X162365636Y-114186382D01*
X162339435Y-114452400D01*
X161843800Y-114452400D01*
X161843800Y-111958200D01*
X164656430Y-111958200D01*
X164693600Y-111961861D01*
X164730770Y-111958200D01*
X164730781Y-111958200D01*
X164841998Y-111947246D01*
X164984693Y-111903960D01*
X165116201Y-111833667D01*
X165231469Y-111739069D01*
X165255176Y-111710182D01*
X168436160Y-108529200D01*
X169262588Y-108529200D01*
X169278062Y-108566557D01*
X169461589Y-108841225D01*
X169695175Y-109074811D01*
X169969843Y-109258338D01*
X170275037Y-109384754D01*
X170599030Y-109449200D01*
X170929370Y-109449200D01*
X171253363Y-109384754D01*
X171558557Y-109258338D01*
X171833225Y-109074811D01*
X171990259Y-108917777D01*
X174707719Y-108917777D01*
X174825375Y-109171564D01*
X175116417Y-109327831D01*
X175432352Y-109424315D01*
X175761040Y-109457311D01*
X176089850Y-109425549D01*
X176406144Y-109330249D01*
X176697769Y-109175074D01*
X176703025Y-109171564D01*
X176820681Y-108917777D01*
X175764200Y-107861295D01*
X174707719Y-108917777D01*
X171990259Y-108917777D01*
X172066811Y-108841225D01*
X172250338Y-108566557D01*
X172376754Y-108261363D01*
X172441200Y-107937370D01*
X172441200Y-107769040D01*
X174079089Y-107769040D01*
X174110851Y-108097850D01*
X174206151Y-108414144D01*
X174361326Y-108705769D01*
X174364836Y-108711025D01*
X174618623Y-108828681D01*
X175675105Y-107772200D01*
X175853295Y-107772200D01*
X176909777Y-108828681D01*
X177163564Y-108711025D01*
X177319831Y-108419983D01*
X177416315Y-108104048D01*
X177449311Y-107775360D01*
X177417549Y-107446550D01*
X177322249Y-107130256D01*
X177167074Y-106838631D01*
X177163564Y-106833375D01*
X176909777Y-106715719D01*
X175853295Y-107772200D01*
X175675105Y-107772200D01*
X174618623Y-106715719D01*
X174364836Y-106833375D01*
X174208569Y-107124417D01*
X174112085Y-107440352D01*
X174079089Y-107769040D01*
X172441200Y-107769040D01*
X172441200Y-107607030D01*
X172376754Y-107283037D01*
X172250338Y-106977843D01*
X172066811Y-106703175D01*
X171990259Y-106626623D01*
X174707719Y-106626623D01*
X175764200Y-107683105D01*
X176820681Y-106626623D01*
X176703025Y-106372836D01*
X176411983Y-106216569D01*
X176096048Y-106120085D01*
X175767360Y-106087089D01*
X175438550Y-106118851D01*
X175122256Y-106214151D01*
X174830631Y-106369326D01*
X174825375Y-106372836D01*
X174707719Y-106626623D01*
X171990259Y-106626623D01*
X171833225Y-106469589D01*
X171558557Y-106286062D01*
X171253363Y-106159646D01*
X170929370Y-106095200D01*
X170599030Y-106095200D01*
X170275037Y-106159646D01*
X169969843Y-106286062D01*
X169695175Y-106469589D01*
X169461589Y-106703175D01*
X169278062Y-106977843D01*
X169262588Y-107015200D01*
X168159770Y-107015200D01*
X168122599Y-107011539D01*
X168085429Y-107015200D01*
X168085419Y-107015200D01*
X167974202Y-107026154D01*
X167831507Y-107069440D01*
X167745806Y-107115248D01*
X167699998Y-107139733D01*
X167613610Y-107210630D01*
X167613607Y-107210633D01*
X167584731Y-107234331D01*
X167561033Y-107263207D01*
X164380042Y-110444200D01*
X160996970Y-110444200D01*
X160959800Y-110440539D01*
X160922630Y-110444200D01*
X157771601Y-110444200D01*
X157865302Y-110367302D01*
X157991141Y-110213966D01*
X158084648Y-110039027D01*
X158142229Y-109849206D01*
X158156800Y-109701266D01*
X158156800Y-105166712D01*
X158269513Y-105054000D01*
X161754466Y-105054000D01*
X161902406Y-105039429D01*
X162092227Y-104981848D01*
X162267166Y-104888341D01*
X162420502Y-104762502D01*
X162546341Y-104609166D01*
X162639848Y-104434227D01*
X162697429Y-104244406D01*
X162716872Y-104047000D01*
X162697429Y-103849594D01*
X162639848Y-103659773D01*
X162546341Y-103484834D01*
X162420502Y-103331498D01*
X162267166Y-103205659D01*
X162092227Y-103112152D01*
X161902406Y-103054571D01*
X161754466Y-103040000D01*
X157901862Y-103040000D01*
X157852399Y-103035128D01*
X157802936Y-103040000D01*
X157802934Y-103040000D01*
X157654994Y-103054571D01*
X157465173Y-103112152D01*
X157290234Y-103205659D01*
X157136898Y-103331498D01*
X157105361Y-103369926D01*
X156472730Y-104002557D01*
X156434298Y-104034098D01*
X156308459Y-104187434D01*
X156231498Y-104331419D01*
X156214952Y-104362374D01*
X156157371Y-104552194D01*
X156137928Y-104749600D01*
X156142800Y-104799066D01*
X156142801Y-105995526D01*
X156142800Y-105995535D01*
X156142801Y-109701266D01*
X156157372Y-109849206D01*
X156214953Y-110039027D01*
X156308460Y-110213966D01*
X156434299Y-110367302D01*
X156528000Y-110444200D01*
X154948759Y-110444200D01*
X154820700Y-110316142D01*
X154820700Y-107568070D01*
X154824361Y-107530900D01*
X154820700Y-107493729D01*
X154820700Y-107493719D01*
X154809746Y-107382502D01*
X154766460Y-107239807D01*
X154696167Y-107108299D01*
X154601569Y-106993031D01*
X154572682Y-106969324D01*
X154129976Y-106526618D01*
X154106269Y-106497731D01*
X153991001Y-106403133D01*
X153859493Y-106332840D01*
X153716798Y-106289554D01*
X153605581Y-106278600D01*
X153605570Y-106278600D01*
X153568400Y-106274939D01*
X153531230Y-106278600D01*
X152721260Y-106278600D01*
X152720963Y-106278044D01*
X152551386Y-106071414D01*
X152344756Y-105901837D01*
X152109014Y-105775830D01*
X152075290Y-105765600D01*
X152109014Y-105755370D01*
X152344756Y-105629363D01*
X152551386Y-105459786D01*
X152720963Y-105253156D01*
X152846970Y-105017414D01*
X152924564Y-104761618D01*
X152950765Y-104495600D01*
X152924564Y-104229582D01*
X152846970Y-103973786D01*
X152720963Y-103738044D01*
X152551386Y-103531414D01*
X152344756Y-103361837D01*
X152109014Y-103235830D01*
X152075290Y-103225600D01*
X152109014Y-103215370D01*
X152344756Y-103089363D01*
X152551386Y-102919786D01*
X152720963Y-102713156D01*
X152846970Y-102477414D01*
X152924564Y-102221618D01*
X152950765Y-101955600D01*
X152924564Y-101689582D01*
X152846970Y-101433786D01*
X152720963Y-101198044D01*
X152551386Y-100991414D01*
X152344756Y-100821837D01*
X152109014Y-100695830D01*
X152075290Y-100685600D01*
X152109014Y-100675370D01*
X152344756Y-100549363D01*
X152551386Y-100379786D01*
X152720963Y-100173156D01*
X152846970Y-99937414D01*
X152924564Y-99681618D01*
X152950765Y-99415600D01*
X152924564Y-99149582D01*
X152846970Y-98893786D01*
X152720963Y-98658044D01*
X152551386Y-98451414D01*
X152344756Y-98281837D01*
X152109014Y-98155830D01*
X152075290Y-98145600D01*
X152109014Y-98135370D01*
X152344756Y-98009363D01*
X152551386Y-97839786D01*
X152720963Y-97633156D01*
X152846970Y-97397414D01*
X152924564Y-97141618D01*
X152950765Y-96875600D01*
X152924564Y-96609582D01*
X152846970Y-96353786D01*
X152720963Y-96118044D01*
X152551386Y-95911414D01*
X152344756Y-95741837D01*
X152109014Y-95615830D01*
X152075290Y-95605600D01*
X152109014Y-95595370D01*
X152344756Y-95469363D01*
X152551386Y-95299786D01*
X152720963Y-95093156D01*
X152846970Y-94857414D01*
X152924564Y-94601618D01*
X152950765Y-94335600D01*
X152924564Y-94069582D01*
X152846970Y-93813786D01*
X152720963Y-93578044D01*
X152551386Y-93371414D01*
X152344756Y-93201837D01*
X152109014Y-93075830D01*
X152075290Y-93065600D01*
X152109014Y-93055370D01*
X152344756Y-92929363D01*
X152551386Y-92759786D01*
X152720963Y-92553156D01*
X152846970Y-92317414D01*
X152924564Y-92061618D01*
X152950765Y-91795600D01*
X152924564Y-91529582D01*
X152846970Y-91273786D01*
X152720963Y-91038044D01*
X152551386Y-90831414D01*
X152344756Y-90661837D01*
X152109014Y-90535830D01*
X152075290Y-90525600D01*
X152109014Y-90515370D01*
X152344756Y-90389363D01*
X152551386Y-90219786D01*
X152720963Y-90013156D01*
X152846970Y-89777414D01*
X152924564Y-89521618D01*
X152950765Y-89255600D01*
X152924564Y-88989582D01*
X152846970Y-88733786D01*
X152720963Y-88498044D01*
X152551386Y-88291414D01*
X152344756Y-88121837D01*
X152109014Y-87995830D01*
X152075290Y-87985600D01*
X152109014Y-87975370D01*
X152344756Y-87849363D01*
X152551386Y-87679786D01*
X152720963Y-87473156D01*
X152846970Y-87237414D01*
X152924564Y-86981618D01*
X152950765Y-86715600D01*
X152924564Y-86449582D01*
X152846970Y-86193786D01*
X152720963Y-85958044D01*
X152551386Y-85751414D01*
X152344756Y-85581837D01*
X152109014Y-85455830D01*
X152075290Y-85445600D01*
X152109014Y-85435370D01*
X152344756Y-85309363D01*
X152551386Y-85139786D01*
X152720963Y-84933156D01*
X152846970Y-84697414D01*
X152924564Y-84441618D01*
X152950765Y-84175600D01*
X152924564Y-83909582D01*
X152846970Y-83653786D01*
X152720963Y-83418044D01*
X152551386Y-83211414D01*
X152344756Y-83041837D01*
X152109014Y-82915830D01*
X152063016Y-82901877D01*
X152115481Y-82885550D01*
X152349183Y-82758470D01*
X152553603Y-82588239D01*
X152720884Y-82381398D01*
X152844599Y-82145897D01*
X152916193Y-81909877D01*
X152815836Y-81698600D01*
X151650200Y-81698600D01*
X151650200Y-81718600D01*
X151524200Y-81718600D01*
X151524200Y-81698600D01*
X150358564Y-81698600D01*
X150258207Y-81909877D01*
X150329801Y-82145897D01*
X150453516Y-82381398D01*
X150620797Y-82588239D01*
X150825217Y-82758470D01*
X151058919Y-82885550D01*
X151111384Y-82901877D01*
X151065386Y-82915830D01*
X150829644Y-83041837D01*
X150623014Y-83211414D01*
X150453437Y-83418044D01*
X150327430Y-83653786D01*
X150249836Y-83909582D01*
X150223635Y-84175600D01*
X150249836Y-84441618D01*
X150327430Y-84697414D01*
X150453437Y-84933156D01*
X150623014Y-85139786D01*
X150829644Y-85309363D01*
X151065386Y-85435370D01*
X151099110Y-85445600D01*
X151065386Y-85455830D01*
X150829644Y-85581837D01*
X150623014Y-85751414D01*
X150453437Y-85958044D01*
X150327430Y-86193786D01*
X150249836Y-86449582D01*
X150223635Y-86715600D01*
X150249836Y-86981618D01*
X150327430Y-87237414D01*
X150453437Y-87473156D01*
X150623014Y-87679786D01*
X150829644Y-87849363D01*
X151065386Y-87975370D01*
X151099110Y-87985600D01*
X151065386Y-87995830D01*
X150829644Y-88121837D01*
X150623014Y-88291414D01*
X150453437Y-88498044D01*
X150327430Y-88733786D01*
X150249836Y-88989582D01*
X150223635Y-89255600D01*
X150249836Y-89521618D01*
X150327430Y-89777414D01*
X150453437Y-90013156D01*
X150623014Y-90219786D01*
X150829644Y-90389363D01*
X151065386Y-90515370D01*
X151099110Y-90525600D01*
X151065386Y-90535830D01*
X150829644Y-90661837D01*
X150623014Y-90831414D01*
X150453437Y-91038044D01*
X150327430Y-91273786D01*
X150249836Y-91529582D01*
X150223635Y-91795600D01*
X150249836Y-92061618D01*
X150327430Y-92317414D01*
X150453437Y-92553156D01*
X150623014Y-92759786D01*
X150829644Y-92929363D01*
X151065386Y-93055370D01*
X151099110Y-93065600D01*
X151065386Y-93075830D01*
X150829644Y-93201837D01*
X150623014Y-93371414D01*
X150453437Y-93578044D01*
X150327430Y-93813786D01*
X150249836Y-94069582D01*
X150223635Y-94335600D01*
X150249836Y-94601618D01*
X150327430Y-94857414D01*
X150453437Y-95093156D01*
X150623014Y-95299786D01*
X150829644Y-95469363D01*
X151065386Y-95595370D01*
X151099110Y-95605600D01*
X151065386Y-95615830D01*
X150829644Y-95741837D01*
X150623014Y-95911414D01*
X150453437Y-96118044D01*
X150327430Y-96353786D01*
X150249836Y-96609582D01*
X150223635Y-96875600D01*
X150249836Y-97141618D01*
X150327430Y-97397414D01*
X150453437Y-97633156D01*
X150623014Y-97839786D01*
X150829644Y-98009363D01*
X151065386Y-98135370D01*
X151099110Y-98145600D01*
X151065386Y-98155830D01*
X150829644Y-98281837D01*
X150623014Y-98451414D01*
X150453437Y-98658044D01*
X150327430Y-98893786D01*
X150249836Y-99149582D01*
X150223635Y-99415600D01*
X150249836Y-99681618D01*
X150327430Y-99937414D01*
X150453437Y-100173156D01*
X150623014Y-100379786D01*
X150829644Y-100549363D01*
X151065386Y-100675370D01*
X151099110Y-100685600D01*
X151065386Y-100695830D01*
X150829644Y-100821837D01*
X150623014Y-100991414D01*
X150453437Y-101198044D01*
X150327430Y-101433786D01*
X150249836Y-101689582D01*
X150223635Y-101955600D01*
X150249836Y-102221618D01*
X150327430Y-102477414D01*
X150453437Y-102713156D01*
X150623014Y-102919786D01*
X150829644Y-103089363D01*
X151065386Y-103215370D01*
X151099110Y-103225600D01*
X151065386Y-103235830D01*
X150829644Y-103361837D01*
X150623014Y-103531414D01*
X150453437Y-103738044D01*
X150327430Y-103973786D01*
X150249836Y-104229582D01*
X150223635Y-104495600D01*
X150249836Y-104761618D01*
X150327430Y-105017414D01*
X150453437Y-105253156D01*
X150623014Y-105459786D01*
X150829644Y-105629363D01*
X151065386Y-105755370D01*
X151099110Y-105765600D01*
X151065386Y-105775830D01*
X150829644Y-105901837D01*
X150623014Y-106071414D01*
X150453437Y-106278044D01*
X150453140Y-106278600D01*
X149767159Y-106278600D01*
X149270800Y-105782242D01*
X149270800Y-76551855D01*
X149355141Y-76449085D01*
X149448648Y-76274146D01*
X149506229Y-76084325D01*
X149520800Y-75936385D01*
X149520800Y-75118512D01*
X149616713Y-75022600D01*
X150675183Y-75022600D01*
X150829644Y-75149363D01*
X151065386Y-75275370D01*
X151099110Y-75285600D01*
X151065386Y-75295830D01*
X150829644Y-75421837D01*
X150623014Y-75591414D01*
X150453437Y-75798044D01*
X150327430Y-76033786D01*
X150249836Y-76289582D01*
X150223635Y-76555600D01*
X150249836Y-76821618D01*
X150327430Y-77077414D01*
X150453437Y-77313156D01*
X150623014Y-77519786D01*
X150829644Y-77689363D01*
X151065386Y-77815370D01*
X151099110Y-77825600D01*
X151065386Y-77835830D01*
X150829644Y-77961837D01*
X150623014Y-78131414D01*
X150453437Y-78338044D01*
X150327430Y-78573786D01*
X150249836Y-78829582D01*
X150223635Y-79095600D01*
X150249836Y-79361618D01*
X150327430Y-79617414D01*
X150453437Y-79853156D01*
X150623014Y-80059786D01*
X150829644Y-80229363D01*
X151065386Y-80355370D01*
X151111384Y-80369323D01*
X151058919Y-80385650D01*
X150825217Y-80512730D01*
X150620797Y-80682961D01*
X150453516Y-80889802D01*
X150329801Y-81125303D01*
X150258207Y-81361323D01*
X150358564Y-81572600D01*
X151524200Y-81572600D01*
X151524200Y-81552600D01*
X151650200Y-81552600D01*
X151650200Y-81572600D01*
X152815836Y-81572600D01*
X152916193Y-81361323D01*
X152844599Y-81125303D01*
X152720884Y-80889802D01*
X152553603Y-80682961D01*
X152349183Y-80512730D01*
X152115481Y-80385650D01*
X152063016Y-80369323D01*
X152109014Y-80355370D01*
X152344756Y-80229363D01*
X152551386Y-80059786D01*
X152720963Y-79853156D01*
X152846970Y-79617414D01*
X152924564Y-79361618D01*
X152950765Y-79095600D01*
X152924564Y-78829582D01*
X152846970Y-78573786D01*
X152720963Y-78338044D01*
X152551386Y-78131414D01*
X152344756Y-77961837D01*
X152109014Y-77835830D01*
X152075290Y-77825600D01*
X152109014Y-77815370D01*
X152344756Y-77689363D01*
X152551386Y-77519786D01*
X152720963Y-77313156D01*
X152721260Y-77312600D01*
X158258642Y-77312600D01*
X160533000Y-79586960D01*
X160533001Y-92520420D01*
X160529339Y-92557600D01*
X160543955Y-92705997D01*
X160587240Y-92848692D01*
X160653386Y-92972441D01*
X160657534Y-92980201D01*
X160752132Y-93095469D01*
X160781013Y-93119171D01*
X170943029Y-103281188D01*
X170966731Y-103310069D01*
X171081999Y-103404667D01*
X171213507Y-103474960D01*
X171356202Y-103518246D01*
X171467419Y-103529200D01*
X171467429Y-103529200D01*
X171504600Y-103532861D01*
X171541770Y-103529200D01*
X171762588Y-103529200D01*
X171778062Y-103566557D01*
X171961589Y-103841225D01*
X172195175Y-104074811D01*
X172469843Y-104258338D01*
X172775037Y-104384754D01*
X173099030Y-104449200D01*
X173429370Y-104449200D01*
X173753363Y-104384754D01*
X174058557Y-104258338D01*
X174333225Y-104074811D01*
X174566811Y-103841225D01*
X174750338Y-103566557D01*
X174876754Y-103261363D01*
X174941200Y-102937370D01*
X174941200Y-102607030D01*
X174876754Y-102283037D01*
X174750338Y-101977843D01*
X174566811Y-101703175D01*
X174333225Y-101469589D01*
X174058557Y-101286062D01*
X173753363Y-101159646D01*
X173429370Y-101095200D01*
X173099030Y-101095200D01*
X172775037Y-101159646D01*
X172469843Y-101286062D01*
X172195175Y-101469589D01*
X171961589Y-101703175D01*
X171779159Y-101976201D01*
X162047000Y-92244042D01*
X162047000Y-85269743D01*
X177103200Y-85269743D01*
X177103200Y-101369457D01*
X180667200Y-101369457D01*
X180667200Y-85269743D01*
X177103200Y-85269743D01*
X162047000Y-85269743D01*
X162047000Y-79310573D01*
X162050661Y-79273400D01*
X162047000Y-79236227D01*
X162047000Y-79236219D01*
X162036046Y-79125002D01*
X161992760Y-78982307D01*
X161922467Y-78850799D01*
X161905055Y-78829582D01*
X161851571Y-78764411D01*
X161851567Y-78764407D01*
X161827869Y-78735531D01*
X161798994Y-78711834D01*
X159133776Y-76046617D01*
X159110069Y-76017731D01*
X158994801Y-75923133D01*
X158863293Y-75852840D01*
X158720598Y-75809554D01*
X158609381Y-75798600D01*
X158609370Y-75798600D01*
X158572200Y-75794939D01*
X158535030Y-75798600D01*
X152721260Y-75798600D01*
X152720963Y-75798044D01*
X152551386Y-75591414D01*
X152344756Y-75421837D01*
X152109014Y-75295830D01*
X152075290Y-75285600D01*
X152109014Y-75275370D01*
X152344756Y-75149363D01*
X152551386Y-74979786D01*
X152720963Y-74773156D01*
X152846970Y-74537414D01*
X152924564Y-74281618D01*
X152950765Y-74015600D01*
X152924564Y-73749582D01*
X152846970Y-73493786D01*
X152720963Y-73258044D01*
X152551386Y-73051414D01*
X152344756Y-72881837D01*
X152255970Y-72834380D01*
X152437200Y-72835053D01*
X152536589Y-72825264D01*
X152632159Y-72796273D01*
X152720237Y-72749195D01*
X152797438Y-72685838D01*
X152860795Y-72608637D01*
X152907873Y-72520559D01*
X152936864Y-72424989D01*
X152946653Y-72325600D01*
X152944200Y-71665350D01*
X152817450Y-71538600D01*
X151650200Y-71538600D01*
X151650200Y-71558600D01*
X151524200Y-71558600D01*
X151524200Y-71538600D01*
X150356950Y-71538600D01*
X150230200Y-71665350D01*
X150227747Y-72325600D01*
X150237536Y-72424989D01*
X150266527Y-72520559D01*
X150313605Y-72608637D01*
X150376962Y-72685838D01*
X150454163Y-72749195D01*
X150542241Y-72796273D01*
X150637811Y-72825264D01*
X150737200Y-72835053D01*
X150918430Y-72834380D01*
X150829644Y-72881837D01*
X150675183Y-73008600D01*
X149249066Y-73008600D01*
X149199600Y-73003728D01*
X149002193Y-73023171D01*
X148909088Y-73051414D01*
X148812373Y-73080752D01*
X148637434Y-73174259D01*
X148484098Y-73300098D01*
X148452561Y-73338526D01*
X147836726Y-73954362D01*
X147798299Y-73985898D01*
X147709765Y-74093778D01*
X147672460Y-74139234D01*
X147578952Y-74314174D01*
X147543999Y-74429400D01*
X147521371Y-74503994D01*
X147508775Y-74631887D01*
X147501928Y-74701400D01*
X147506800Y-74750866D01*
X147506800Y-75936384D01*
X147521371Y-76084324D01*
X147578952Y-76274145D01*
X147672459Y-76449085D01*
X147756800Y-76551855D01*
X147756801Y-106058620D01*
X147753139Y-106095800D01*
X147767755Y-106244197D01*
X147811040Y-106386892D01*
X147878867Y-106513786D01*
X147881334Y-106518401D01*
X147975932Y-106633669D01*
X148004813Y-106657371D01*
X148892029Y-107544588D01*
X148915731Y-107573469D01*
X149030999Y-107668067D01*
X149162507Y-107738360D01*
X149305202Y-107781646D01*
X149416419Y-107792600D01*
X149416429Y-107792600D01*
X149453600Y-107796261D01*
X149490770Y-107792600D01*
X150453140Y-107792600D01*
X150453437Y-107793156D01*
X150623014Y-107999786D01*
X150829644Y-108169363D01*
X151065386Y-108295370D01*
X151111384Y-108309323D01*
X151058919Y-108325650D01*
X150825217Y-108452730D01*
X150620797Y-108622961D01*
X150453516Y-108829802D01*
X150329801Y-109065303D01*
X150258207Y-109301323D01*
X150358564Y-109512600D01*
X151524200Y-109512600D01*
X151524200Y-109492600D01*
X151650200Y-109492600D01*
X151650200Y-109512600D01*
X152815836Y-109512600D01*
X152916193Y-109301323D01*
X152844599Y-109065303D01*
X152720884Y-108829802D01*
X152553603Y-108622961D01*
X152349183Y-108452730D01*
X152115481Y-108325650D01*
X152063016Y-108309323D01*
X152109014Y-108295370D01*
X152344756Y-108169363D01*
X152551386Y-107999786D01*
X152720963Y-107793156D01*
X152721260Y-107792600D01*
X153254842Y-107792600D01*
X153306701Y-107844459D01*
X153306700Y-110592529D01*
X153303039Y-110629700D01*
X153306700Y-110666870D01*
X153306700Y-110666880D01*
X153317654Y-110778097D01*
X153360940Y-110920792D01*
X153431233Y-111052300D01*
X153525831Y-111167569D01*
X153554717Y-111191275D01*
X153675242Y-111311800D01*
X145771934Y-111311800D01*
X145623994Y-111326371D01*
X145434173Y-111383952D01*
X145259234Y-111477459D01*
X145105898Y-111603298D01*
X144980059Y-111756634D01*
X144886552Y-111931573D01*
X144828971Y-112121394D01*
X144809528Y-112318800D01*
X144828971Y-112516206D01*
X144886552Y-112706027D01*
X144980059Y-112880966D01*
X145105898Y-113034302D01*
X145259234Y-113160141D01*
X145389875Y-113229970D01*
X145193356Y-113335011D01*
X144994340Y-113498340D01*
X144831011Y-113697356D01*
X144709647Y-113924413D01*
X144653000Y-114111152D01*
X144596353Y-113924413D01*
X144474989Y-113697356D01*
X144311660Y-113498340D01*
X144112644Y-113335011D01*
X143885587Y-113213647D01*
X143639217Y-113138911D01*
X143447209Y-113120000D01*
X143318791Y-113120000D01*
X143126783Y-113138911D01*
X142880413Y-113213647D01*
X142653356Y-113335011D01*
X142454340Y-113498340D01*
X142291011Y-113697356D01*
X142169647Y-113924413D01*
X142152453Y-113981094D01*
X142152453Y-113627000D01*
X142142664Y-113527611D01*
X142113673Y-113432041D01*
X142066595Y-113343963D01*
X142003238Y-113266762D01*
X141926037Y-113203405D01*
X141837959Y-113156327D01*
X141742389Y-113127336D01*
X141643000Y-113117547D01*
X140043000Y-113117547D01*
X139943611Y-113127336D01*
X139848041Y-113156327D01*
X139759963Y-113203405D01*
X139682762Y-113266762D01*
X139619405Y-113343963D01*
X139572327Y-113432041D01*
X139543336Y-113527611D01*
X139533547Y-113627000D01*
X139533547Y-115227000D01*
X139543336Y-115326389D01*
X139572327Y-115421959D01*
X139619405Y-115510037D01*
X139682762Y-115587238D01*
X139759963Y-115650595D01*
X139848041Y-115697673D01*
X139943611Y-115726664D01*
X140043000Y-115736453D01*
X141643000Y-115736453D01*
X141742389Y-115726664D01*
X141837959Y-115697673D01*
X141926037Y-115650595D01*
X142003238Y-115587238D01*
X142066595Y-115510037D01*
X142113673Y-115421959D01*
X142142664Y-115326389D01*
X142152453Y-115227000D01*
X142152453Y-114872906D01*
X142169647Y-114929587D01*
X142291011Y-115156644D01*
X142454340Y-115355660D01*
X142653356Y-115518989D01*
X142880413Y-115640353D01*
X143126783Y-115715089D01*
X143318791Y-115734000D01*
X143447209Y-115734000D01*
X143639217Y-115715089D01*
X143885587Y-115640353D01*
X144112644Y-115518989D01*
X144311660Y-115355660D01*
X144474989Y-115156644D01*
X144596353Y-114929587D01*
X144653000Y-114742848D01*
X144709647Y-114929587D01*
X144831011Y-115156644D01*
X144994340Y-115355660D01*
X145193356Y-115518989D01*
X145420413Y-115640353D01*
X145666783Y-115715089D01*
X145858791Y-115734000D01*
X145987209Y-115734000D01*
X146179217Y-115715089D01*
X146425587Y-115640353D01*
X146652644Y-115518989D01*
X146851660Y-115355660D01*
X147014989Y-115156644D01*
X147136353Y-114929587D01*
X147193000Y-114742848D01*
X147249647Y-114929587D01*
X147371011Y-115156644D01*
X147534340Y-115355660D01*
X147733356Y-115518989D01*
X147960413Y-115640353D01*
X148206783Y-115715089D01*
X148398791Y-115734000D01*
X148527209Y-115734000D01*
X148719217Y-115715089D01*
X148965587Y-115640353D01*
X149192644Y-115518989D01*
X149391660Y-115355660D01*
X149554989Y-115156644D01*
X149676353Y-114929587D01*
X149733000Y-114742848D01*
X149789647Y-114929587D01*
X149911011Y-115156644D01*
X150074340Y-115355660D01*
X150246001Y-115496539D01*
X150246001Y-115521190D01*
X150242339Y-115558370D01*
X150246001Y-115595550D01*
X150246001Y-115595551D01*
X150256955Y-115706768D01*
X150265216Y-115734000D01*
X150300240Y-115849462D01*
X150300241Y-115849463D01*
X150370534Y-115980971D01*
X150465132Y-116096239D01*
X150494013Y-116119941D01*
X150961058Y-116586987D01*
X150984761Y-116615869D01*
X151073871Y-116689000D01*
X113181000Y-116689000D01*
X113181000Y-113245000D01*
X115734547Y-113245000D01*
X115744336Y-113344389D01*
X115773327Y-113439959D01*
X115820405Y-113528037D01*
X115883762Y-113605238D01*
X115960963Y-113668595D01*
X116049041Y-113715673D01*
X116144611Y-113744664D01*
X116244000Y-113754453D01*
X116904250Y-113752000D01*
X117031000Y-113625250D01*
X117031000Y-112458000D01*
X115863750Y-112458000D01*
X115737000Y-112584750D01*
X115734547Y-113245000D01*
X113181000Y-113245000D01*
X113181000Y-111545000D01*
X115734547Y-111545000D01*
X115737000Y-112205250D01*
X115863750Y-112332000D01*
X117031000Y-112332000D01*
X117031000Y-111164750D01*
X116904250Y-111038000D01*
X116244000Y-111035547D01*
X116144611Y-111045336D01*
X116049041Y-111074327D01*
X115960963Y-111121405D01*
X115883762Y-111184762D01*
X115820405Y-111261963D01*
X115773327Y-111350041D01*
X115744336Y-111445611D01*
X115734547Y-111545000D01*
X113181000Y-111545000D01*
X113181000Y-73279000D01*
X117484939Y-73279000D01*
X117513119Y-73565112D01*
X117596574Y-73840229D01*
X117732099Y-74093778D01*
X117914485Y-74316015D01*
X118136722Y-74498401D01*
X118231386Y-74549000D01*
X118136722Y-74599599D01*
X117914485Y-74781985D01*
X117732099Y-75004222D01*
X117596574Y-75257771D01*
X117513119Y-75532888D01*
X117484939Y-75819000D01*
X117513119Y-76105112D01*
X117596574Y-76380229D01*
X117732099Y-76633778D01*
X117914485Y-76856015D01*
X117968181Y-76900082D01*
X117899611Y-76906836D01*
X117804041Y-76935827D01*
X117715963Y-76982905D01*
X117638762Y-77046262D01*
X117575405Y-77123463D01*
X117528327Y-77211541D01*
X117499336Y-77307111D01*
X117489547Y-77406500D01*
X117489547Y-79311500D01*
X117499336Y-79410889D01*
X117528327Y-79506459D01*
X117575405Y-79594537D01*
X117638762Y-79671738D01*
X117715963Y-79735095D01*
X117804041Y-79782173D01*
X117899611Y-79811164D01*
X117999000Y-79820953D01*
X119999000Y-79820953D01*
X120098389Y-79811164D01*
X120193959Y-79782173D01*
X120197369Y-79780350D01*
X120240459Y-79860966D01*
X120366298Y-80014302D01*
X120519634Y-80140141D01*
X120694573Y-80233648D01*
X120884394Y-80291229D01*
X121081800Y-80310672D01*
X121279205Y-80291229D01*
X121469026Y-80233648D01*
X121643966Y-80140141D01*
X121797302Y-80014302D01*
X121923141Y-79860966D01*
X122016648Y-79686027D01*
X122074229Y-79496206D01*
X122088800Y-79348266D01*
X122088800Y-74883705D01*
X122099629Y-74848006D01*
X122119072Y-74650601D01*
X122099629Y-74453194D01*
X122042048Y-74263374D01*
X121948540Y-74088434D01*
X121822701Y-73935099D01*
X121669366Y-73809260D01*
X121494426Y-73715752D01*
X121304606Y-73658171D01*
X121107199Y-73638728D01*
X120909794Y-73658171D01*
X120719974Y-73715752D01*
X120545034Y-73809260D01*
X120430122Y-73903566D01*
X120404726Y-73928962D01*
X120366299Y-73960498D01*
X120282677Y-74062392D01*
X120401426Y-73840229D01*
X120484881Y-73565112D01*
X120513061Y-73279000D01*
X120484881Y-72992888D01*
X120401426Y-72717771D01*
X120265901Y-72464222D01*
X120083515Y-72241985D01*
X119861278Y-72059599D01*
X119607729Y-71924074D01*
X119332612Y-71840619D01*
X119118190Y-71819500D01*
X118879810Y-71819500D01*
X118665388Y-71840619D01*
X118390271Y-71924074D01*
X118136722Y-72059599D01*
X117914485Y-72241985D01*
X117732099Y-72464222D01*
X117596574Y-72717771D01*
X117513119Y-72992888D01*
X117484939Y-73279000D01*
X113181000Y-73279000D01*
X113181000Y-66714000D01*
X115607547Y-66714000D01*
X115607547Y-68414000D01*
X115617336Y-68513389D01*
X115646327Y-68608959D01*
X115693405Y-68697037D01*
X115756762Y-68774238D01*
X115833963Y-68837595D01*
X115922041Y-68884673D01*
X116017611Y-68913664D01*
X116117000Y-68923453D01*
X117817000Y-68923453D01*
X117916389Y-68913664D01*
X118011959Y-68884673D01*
X118100037Y-68837595D01*
X118177238Y-68774238D01*
X118240595Y-68697037D01*
X118287673Y-68608959D01*
X118316664Y-68513389D01*
X118326453Y-68414000D01*
X118326453Y-68219914D01*
X118384130Y-68325983D01*
X118554361Y-68530403D01*
X118761202Y-68697684D01*
X118996703Y-68821399D01*
X119232723Y-68892993D01*
X119444000Y-68792636D01*
X119444000Y-67627000D01*
X119570000Y-67627000D01*
X119570000Y-68792636D01*
X119781277Y-68892993D01*
X120017297Y-68821399D01*
X120252798Y-68697684D01*
X120459639Y-68530403D01*
X120629870Y-68325983D01*
X120756950Y-68092281D01*
X120835995Y-67838277D01*
X120735789Y-67627000D01*
X119570000Y-67627000D01*
X119444000Y-67627000D01*
X119424000Y-67627000D01*
X119424000Y-67501000D01*
X119444000Y-67501000D01*
X119444000Y-66335364D01*
X119570000Y-66335364D01*
X119570000Y-67501000D01*
X120735789Y-67501000D01*
X120835995Y-67289723D01*
X120756950Y-67035719D01*
X120629870Y-66802017D01*
X120459639Y-66597597D01*
X120252798Y-66430316D01*
X120017297Y-66306601D01*
X119781277Y-66235007D01*
X119570000Y-66335364D01*
X119444000Y-66335364D01*
X119232723Y-66235007D01*
X118996703Y-66306601D01*
X118761202Y-66430316D01*
X118554361Y-66597597D01*
X118384130Y-66802017D01*
X118326453Y-66908086D01*
X118326453Y-66714000D01*
X118316664Y-66614611D01*
X118287673Y-66519041D01*
X118240595Y-66430963D01*
X118177238Y-66353762D01*
X118100037Y-66290405D01*
X118011959Y-66243327D01*
X117916389Y-66214336D01*
X117817000Y-66204547D01*
X116117000Y-66204547D01*
X116017611Y-66214336D01*
X115922041Y-66243327D01*
X115833963Y-66290405D01*
X115756762Y-66353762D01*
X115693405Y-66430963D01*
X115646327Y-66519041D01*
X115617336Y-66614611D01*
X115607547Y-66714000D01*
X113181000Y-66714000D01*
X113181000Y-63905000D01*
X130223367Y-63905000D01*
X130223029Y-63905412D01*
G36*
X154904267Y-114364000D02*
G01*
X156020000Y-114364000D01*
X156020000Y-114344000D01*
X156146000Y-114344000D01*
X156146000Y-114364000D01*
X156166000Y-114364000D01*
X156166000Y-114490000D01*
X156146000Y-114490000D01*
X156146000Y-114510000D01*
X156020000Y-114510000D01*
X156020000Y-114490000D01*
X154904267Y-114490000D01*
X154813000Y-114674166D01*
X154721733Y-114490000D01*
X153606000Y-114490000D01*
X153606000Y-114510000D01*
X153480000Y-114510000D01*
X153480000Y-114490000D01*
X153460000Y-114490000D01*
X153460000Y-114364000D01*
X153480000Y-114364000D01*
X153480000Y-114344000D01*
X153606000Y-114344000D01*
X153606000Y-114364000D01*
X154721733Y-114364000D01*
X154813000Y-114179834D01*
X154904267Y-114364000D01*
X154904267Y-114364000D01*
G37*
X154904267Y-114364000D02*
X156020000Y-114364000D01*
X156020000Y-114344000D01*
X156146000Y-114344000D01*
X156146000Y-114364000D01*
X156166000Y-114364000D01*
X156166000Y-114490000D01*
X156146000Y-114490000D01*
X156146000Y-114510000D01*
X156020000Y-114510000D01*
X156020000Y-114490000D01*
X154904267Y-114490000D01*
X154813000Y-114674166D01*
X154721733Y-114490000D01*
X153606000Y-114490000D01*
X153606000Y-114510000D01*
X153480000Y-114510000D01*
X153480000Y-114490000D01*
X153460000Y-114490000D01*
X153460000Y-114364000D01*
X153480000Y-114364000D01*
X153480000Y-114344000D01*
X153606000Y-114344000D01*
X153606000Y-114364000D01*
X154721733Y-114364000D01*
X154813000Y-114179834D01*
X154904267Y-114364000D01*
G36*
X142336002Y-80618554D02*
G01*
X139202970Y-83751587D01*
X139173320Y-83775920D01*
X139148991Y-83805566D01*
X139076223Y-83894234D01*
X139036451Y-83968643D01*
X139004073Y-84029217D01*
X138959643Y-84175682D01*
X138948400Y-84289834D01*
X138944641Y-84328000D01*
X138948400Y-84366163D01*
X138948401Y-91575355D01*
X126731570Y-103792187D01*
X126701920Y-103816520D01*
X126677591Y-103846166D01*
X126604823Y-103934834D01*
X126532674Y-104069816D01*
X126532673Y-104069817D01*
X126488243Y-104216282D01*
X126485250Y-104246666D01*
X126427693Y-104304102D01*
X126411878Y-104323331D01*
X126400119Y-104345275D01*
X126392867Y-104369092D01*
X126390401Y-104394500D01*
X126415800Y-110845846D01*
X126415800Y-111214165D01*
X126292508Y-111402729D01*
X126275603Y-111416603D01*
X126103527Y-111626279D01*
X126018475Y-111785400D01*
X125949525Y-111785400D01*
X125864473Y-111626279D01*
X125692397Y-111416603D01*
X125491000Y-111251321D01*
X125491000Y-104334843D01*
X137834836Y-91991008D01*
X137864480Y-91966680D01*
X137890179Y-91935366D01*
X137961577Y-91848367D01*
X138033727Y-91713384D01*
X138078157Y-91566919D01*
X138089400Y-91452766D01*
X138089400Y-91452757D01*
X138093158Y-91414601D01*
X138089400Y-91376445D01*
X138089400Y-84599043D01*
X142336002Y-80352442D01*
X142336002Y-80618554D01*
X142336002Y-80618554D01*
G37*
X142336002Y-80618554D02*
X139202970Y-83751587D01*
X139173320Y-83775920D01*
X139148991Y-83805566D01*
X139076223Y-83894234D01*
X139036451Y-83968643D01*
X139004073Y-84029217D01*
X138959643Y-84175682D01*
X138948400Y-84289834D01*
X138944641Y-84328000D01*
X138948400Y-84366163D01*
X138948401Y-91575355D01*
X126731570Y-103792187D01*
X126701920Y-103816520D01*
X126677591Y-103846166D01*
X126604823Y-103934834D01*
X126532674Y-104069816D01*
X126532673Y-104069817D01*
X126488243Y-104216282D01*
X126485250Y-104246666D01*
X126427693Y-104304102D01*
X126411878Y-104323331D01*
X126400119Y-104345275D01*
X126392867Y-104369092D01*
X126390401Y-104394500D01*
X126415800Y-110845846D01*
X126415800Y-111214165D01*
X126292508Y-111402729D01*
X126275603Y-111416603D01*
X126103527Y-111626279D01*
X126018475Y-111785400D01*
X125949525Y-111785400D01*
X125864473Y-111626279D01*
X125692397Y-111416603D01*
X125491000Y-111251321D01*
X125491000Y-104334843D01*
X137834836Y-91991008D01*
X137864480Y-91966680D01*
X137890179Y-91935366D01*
X137961577Y-91848367D01*
X138033727Y-91713384D01*
X138078157Y-91566919D01*
X138089400Y-91452766D01*
X138089400Y-91452757D01*
X138093158Y-91414601D01*
X138089400Y-91376445D01*
X138089400Y-84599043D01*
X142336002Y-80352442D01*
X142336002Y-80618554D01*
G36*
X142640000Y-67962527D02*
G01*
X142640000Y-67538600D01*
X143063926Y-67538600D01*
X142640000Y-67962527D01*
X142640000Y-67962527D01*
G37*
X142640000Y-67962527D02*
X142640000Y-67538600D01*
X143063926Y-67538600D01*
X142640000Y-67962527D01*
G36*
X145999853Y-67142673D02*
G01*
X144181369Y-68961158D01*
X144151720Y-68985490D01*
X144127391Y-69015136D01*
X144054623Y-69103804D01*
X144025307Y-69158650D01*
X143982473Y-69238787D01*
X143938043Y-69385252D01*
X143926800Y-69499404D01*
X143923041Y-69537570D01*
X143926800Y-69575733D01*
X143926801Y-81897955D01*
X141666769Y-84157987D01*
X141637120Y-84182320D01*
X141590577Y-84239034D01*
X141540023Y-84300634D01*
X141525396Y-84328000D01*
X141467873Y-84435617D01*
X141423443Y-84582082D01*
X141412852Y-84689616D01*
X141408441Y-84734400D01*
X141412200Y-84772563D01*
X141412201Y-92337355D01*
X129271570Y-104477987D01*
X129241920Y-104502320D01*
X129217591Y-104531966D01*
X129144823Y-104620634D01*
X129122618Y-104662177D01*
X129072673Y-104755617D01*
X129028243Y-104902082D01*
X129022586Y-104959520D01*
X129013241Y-105054400D01*
X129017000Y-105092563D01*
X129017001Y-111248134D01*
X128736090Y-111423704D01*
X128716373Y-111438905D01*
X128694498Y-111466059D01*
X128521849Y-111753808D01*
X128300425Y-111411607D01*
X128284917Y-111392131D01*
X128265907Y-111376055D01*
X128253222Y-111368359D01*
X128031000Y-111250712D01*
X128031000Y-104690443D01*
X140247836Y-92473608D01*
X140277480Y-92449280D01*
X140301809Y-92419635D01*
X140374577Y-92330967D01*
X140446727Y-92195984D01*
X140464945Y-92135927D01*
X140491157Y-92049519D01*
X140502400Y-91935366D01*
X140502400Y-91935364D01*
X140506159Y-91897201D01*
X140502400Y-91859037D01*
X140502400Y-84649843D01*
X143635437Y-81516807D01*
X143665081Y-81492479D01*
X143696624Y-81454044D01*
X143762178Y-81374166D01*
X143834328Y-81239183D01*
X143878758Y-81092718D01*
X143890001Y-80978565D01*
X143890001Y-80978556D01*
X143893759Y-80940400D01*
X143890001Y-80902244D01*
X143890001Y-68910212D01*
X144925436Y-67874778D01*
X144955080Y-67850450D01*
X145018699Y-67772930D01*
X145052177Y-67732137D01*
X145124327Y-67597154D01*
X145141564Y-67540330D01*
X145168757Y-67450689D01*
X145180000Y-67336536D01*
X145180000Y-67336527D01*
X145182030Y-67315916D01*
X145557184Y-67078977D01*
X145865095Y-67058449D01*
X145999853Y-67142673D01*
X145999853Y-67142673D01*
G37*
X145999853Y-67142673D02*
X144181369Y-68961158D01*
X144151720Y-68985490D01*
X144127391Y-69015136D01*
X144054623Y-69103804D01*
X144025307Y-69158650D01*
X143982473Y-69238787D01*
X143938043Y-69385252D01*
X143926800Y-69499404D01*
X143923041Y-69537570D01*
X143926800Y-69575733D01*
X143926801Y-81897955D01*
X141666769Y-84157987D01*
X141637120Y-84182320D01*
X141590577Y-84239034D01*
X141540023Y-84300634D01*
X141525396Y-84328000D01*
X141467873Y-84435617D01*
X141423443Y-84582082D01*
X141412852Y-84689616D01*
X141408441Y-84734400D01*
X141412200Y-84772563D01*
X141412201Y-92337355D01*
X129271570Y-104477987D01*
X129241920Y-104502320D01*
X129217591Y-104531966D01*
X129144823Y-104620634D01*
X129122618Y-104662177D01*
X129072673Y-104755617D01*
X129028243Y-104902082D01*
X129022586Y-104959520D01*
X129013241Y-105054400D01*
X129017000Y-105092563D01*
X129017001Y-111248134D01*
X128736090Y-111423704D01*
X128716373Y-111438905D01*
X128694498Y-111466059D01*
X128521849Y-111753808D01*
X128300425Y-111411607D01*
X128284917Y-111392131D01*
X128265907Y-111376055D01*
X128253222Y-111368359D01*
X128031000Y-111250712D01*
X128031000Y-104690443D01*
X140247836Y-92473608D01*
X140277480Y-92449280D01*
X140301809Y-92419635D01*
X140374577Y-92330967D01*
X140446727Y-92195984D01*
X140464945Y-92135927D01*
X140491157Y-92049519D01*
X140502400Y-91935366D01*
X140502400Y-91935364D01*
X140506159Y-91897201D01*
X140502400Y-91859037D01*
X140502400Y-84649843D01*
X143635437Y-81516807D01*
X143665081Y-81492479D01*
X143696624Y-81454044D01*
X143762178Y-81374166D01*
X143834328Y-81239183D01*
X143878758Y-81092718D01*
X143890001Y-80978565D01*
X143890001Y-80978556D01*
X143893759Y-80940400D01*
X143890001Y-80902244D01*
X143890001Y-68910212D01*
X144925436Y-67874778D01*
X144955080Y-67850450D01*
X145018699Y-67772930D01*
X145052177Y-67732137D01*
X145124327Y-67597154D01*
X145141564Y-67540330D01*
X145168757Y-67450689D01*
X145180000Y-67336536D01*
X145180000Y-67336527D01*
X145182030Y-67315916D01*
X145557184Y-67078977D01*
X145865095Y-67058449D01*
X145999853Y-67142673D01*
G36*
X145425401Y-82634555D02*
G01*
X143647969Y-84411988D01*
X143618320Y-84436320D01*
X143568603Y-84496901D01*
X143521223Y-84554634D01*
X143506552Y-84582082D01*
X143449073Y-84689617D01*
X143404643Y-84836082D01*
X143395750Y-84926377D01*
X143389641Y-84988400D01*
X143393400Y-85026563D01*
X143393401Y-93353355D01*
X131811570Y-104935187D01*
X131781920Y-104959520D01*
X131757591Y-104989166D01*
X131684823Y-105077834D01*
X131646592Y-105149359D01*
X131612673Y-105212817D01*
X131568243Y-105359282D01*
X131559641Y-105446623D01*
X131553241Y-105511600D01*
X131557000Y-105549763D01*
X131557001Y-111238604D01*
X131330208Y-111370900D01*
X131310037Y-111385492D01*
X131287575Y-111411607D01*
X131060307Y-111762839D01*
X130900654Y-111403620D01*
X130888361Y-111381970D01*
X130872081Y-111363135D01*
X130852439Y-111347837D01*
X130835748Y-111338955D01*
X130571000Y-111222466D01*
X130571000Y-105376243D01*
X142711636Y-93235608D01*
X142741280Y-93211280D01*
X142833597Y-93098791D01*
X142838377Y-93092967D01*
X142874452Y-93025475D01*
X142910527Y-92957984D01*
X142954957Y-92811519D01*
X142966200Y-92697366D01*
X142966200Y-92697364D01*
X142969959Y-92659200D01*
X142966200Y-92621037D01*
X142966200Y-85056243D01*
X145226236Y-82796208D01*
X145255880Y-82771880D01*
X145280209Y-82742235D01*
X145352977Y-82653567D01*
X145425127Y-82518584D01*
X145425401Y-82517681D01*
X145425401Y-82634555D01*
X145425401Y-82634555D01*
G37*
X145425401Y-82634555D02*
X143647969Y-84411988D01*
X143618320Y-84436320D01*
X143568603Y-84496901D01*
X143521223Y-84554634D01*
X143506552Y-84582082D01*
X143449073Y-84689617D01*
X143404643Y-84836082D01*
X143395750Y-84926377D01*
X143389641Y-84988400D01*
X143393400Y-85026563D01*
X143393401Y-93353355D01*
X131811570Y-104935187D01*
X131781920Y-104959520D01*
X131757591Y-104989166D01*
X131684823Y-105077834D01*
X131646592Y-105149359D01*
X131612673Y-105212817D01*
X131568243Y-105359282D01*
X131559641Y-105446623D01*
X131553241Y-105511600D01*
X131557000Y-105549763D01*
X131557001Y-111238604D01*
X131330208Y-111370900D01*
X131310037Y-111385492D01*
X131287575Y-111411607D01*
X131060307Y-111762839D01*
X130900654Y-111403620D01*
X130888361Y-111381970D01*
X130872081Y-111363135D01*
X130852439Y-111347837D01*
X130835748Y-111338955D01*
X130571000Y-111222466D01*
X130571000Y-105376243D01*
X142711636Y-93235608D01*
X142741280Y-93211280D01*
X142833597Y-93098791D01*
X142838377Y-93092967D01*
X142874452Y-93025475D01*
X142910527Y-92957984D01*
X142954957Y-92811519D01*
X142966200Y-92697366D01*
X142966200Y-92697364D01*
X142969959Y-92659200D01*
X142966200Y-92621037D01*
X142966200Y-85056243D01*
X145226236Y-82796208D01*
X145255880Y-82771880D01*
X145280209Y-82742235D01*
X145352977Y-82653567D01*
X145425127Y-82518584D01*
X145425401Y-82517681D01*
X145425401Y-82634555D01*
G36*
X148536070Y-67146456D02*
G01*
X145679970Y-70002557D01*
X145650320Y-70026890D01*
X145625991Y-70056536D01*
X145553223Y-70145204D01*
X145531018Y-70186747D01*
X145481073Y-70280187D01*
X145480800Y-70281087D01*
X145480800Y-69859413D01*
X147465436Y-67874778D01*
X147495080Y-67850450D01*
X147558699Y-67772930D01*
X147592177Y-67732137D01*
X147664327Y-67597154D01*
X147681564Y-67540330D01*
X147708757Y-67450689D01*
X147720000Y-67336536D01*
X147720000Y-67336534D01*
X147723759Y-67298371D01*
X147721236Y-67272755D01*
X148073922Y-67005200D01*
X148344960Y-67005200D01*
X148536070Y-67146456D01*
X148536070Y-67146456D01*
G37*
X148536070Y-67146456D02*
X145679970Y-70002557D01*
X145650320Y-70026890D01*
X145625991Y-70056536D01*
X145553223Y-70145204D01*
X145531018Y-70186747D01*
X145481073Y-70280187D01*
X145480800Y-70281087D01*
X145480800Y-69859413D01*
X147465436Y-67874778D01*
X147495080Y-67850450D01*
X147558699Y-67772930D01*
X147592177Y-67732137D01*
X147664327Y-67597154D01*
X147681564Y-67540330D01*
X147708757Y-67450689D01*
X147720000Y-67336536D01*
X147720000Y-67336534D01*
X147723759Y-67298371D01*
X147721236Y-67272755D01*
X148073922Y-67005200D01*
X148344960Y-67005200D01*
X148536070Y-67146456D01*
M02*
