G04 #@! TF.GenerationSoftware,KiCad,Pcbnew,(5.1.4)-1*
G04 #@! TF.CreationDate,2020-01-13T21:14:05+02:00*
G04 #@! TF.ProjectId,LORA,4c4f5241-2e6b-4696-9361-645f70636258,rev?*
G04 #@! TF.SameCoordinates,Original*
G04 #@! TF.FileFunction,Legend,Bot*
G04 #@! TF.FilePolarity,Positive*
%FSLAX46Y46*%
G04 Gerber Fmt 4.6, Leading zero omitted, Abs format (unit mm)*
G04 Created by KiCad (PCBNEW (5.1.4)-1) date 2020-01-13 21:14:05*
%MOMM*%
%LPD*%
G04 APERTURE LIST*
%ADD10C,0.120000*%
%ADD11C,0.150000*%
G04 APERTURE END LIST*
D10*
X179073000Y-76577000D02*
X181613000Y-79117000D01*
X179073000Y-65147000D02*
X179073000Y-76577000D01*
X177423000Y-63497000D02*
X179073000Y-65147000D01*
X112773000Y-63497000D02*
X177423000Y-63497000D01*
X112773000Y-73027000D02*
X112773000Y-63497000D01*
X106423000Y-73027000D02*
X112773000Y-73027000D01*
X106423000Y-84707000D02*
X106423000Y-73027000D01*
X112773000Y-84707000D02*
X106423000Y-84707000D01*
X112773000Y-104777000D02*
X112773000Y-84707000D01*
X110873000Y-104777000D02*
X112773000Y-104777000D01*
X110873000Y-113917000D02*
X110873000Y-104777000D01*
X112773000Y-113917000D02*
X110873000Y-113917000D01*
X112773000Y-117097000D02*
X112773000Y-113917000D01*
X179073000Y-117097000D02*
X112773000Y-117097000D01*
X179073000Y-114427000D02*
X179073000Y-117097000D01*
X181613000Y-111887000D02*
X179073000Y-114427000D01*
X181613000Y-79117000D02*
X181613000Y-111887000D01*
D11*
X142827285Y-118403666D02*
X142351095Y-118403666D01*
X142922523Y-118689380D02*
X142589190Y-117689380D01*
X142255857Y-118689380D01*
X141398714Y-118689380D02*
X141970142Y-118689380D01*
X141684428Y-118689380D02*
X141684428Y-117689380D01*
X141779666Y-117832238D01*
X141874904Y-117927476D01*
X141970142Y-117975095D01*
M02*
